<?xml version="1.0" encoding="utf-8"?>
<!-- Generator: Adobe Illustrator 25.0.0, SVG Export Plug-In . SVG Version: 6.00 Build 0)  -->
<svg version="1.1" id="Layer_1" xmlns="http://www.w3.org/2000/svg" xmlns:xlink="http://www.w3.org/1999/xlink" x="0px" y="0px"
	 viewBox="0 0 141 164" style="enable-background:new 0 0 141 164;" xml:space="preserve">
<style type="text/css">
	.st0{fill:#42CCCC;}
	.st1{fill:#005EFF;}
</style>
<g>
	<path class="st0" d="M7.6,39.9l36.8,12.6v102.3L7.7,142.3L7.6,39.9z M135.8,45.2l-4.7-1.6c-2-0.7-4.2,0.4-4.9,2.4
		c-0.7,2,0.4,4.2,2.4,4.9l4.6,1.5l0.1,102.3l-36.8-12.5V92.8c-0.1-5.1-7.6-5.1-7.7,0v49.4l-36.8,12.5V52.5l4.7-1.6
		c4.8-1.7,2.3-8.8-2.5-7.3l-6,2.1l-38.2-13C5.4,30.9-0.1,34.8,0,39.9v102.4c0,3.3,2.1,6.2,5.2,7.2l40.6,13.8
		c0.9,0.1,1.5,0.7,2.5,0.6c0.9,0.1,1.6-0.5,2.4-0.6l42-14.3l38.2,13c4.7,1.8,10.2-2.2,10.1-7.2V52.5C141,49.2,138.9,46.3,135.8,45.2
		L135.8,45.2z"/>
	<path class="st1" d="M92.1,0c15.3,0,27.8,12.4,27.8,27.8c0,20.8-27.8,51.6-27.8,51.6S64.3,48.6,64.3,27.8C64.3,12.4,76.7,0,92.1,0
		 M92.1,37.7c5.5,0,9.9-4.4,9.9-9.9c0-5.5-4.4-9.9-9.9-9.9c-5.5,0-9.9,4.4-9.9,9.9C82.2,33.2,86.6,37.7,92.1,37.7L92.1,37.7z"/>
</g>
</svg>
