<?xml version="1.0" encoding="utf-8"?>
<!-- Generator: Adobe Illustrator 25.0.0, SVG Export Plug-In . SVG Version: 6.00 Build 0)  -->
<svg version="1.1" id="Layer_1" xmlns="http://www.w3.org/2000/svg" xmlns:xlink="http://www.w3.org/1999/xlink" x="0px" y="0px"
	 viewBox="0 0 417 406" style="enable-background:new 0 0 417 406;" xml:space="preserve">
<style type="text/css">
	.st0{opacity:0.25;fill-rule:evenodd;clip-rule:evenodd;fill:#42CCCC;}
	.st1{opacity:0.25;fill-rule:evenodd;clip-rule:evenodd;fill:#005EFF;}
	.st2{fill-rule:evenodd;clip-rule:evenodd;fill:#42CCCC;}
	.st3{fill-rule:evenodd;clip-rule:evenodd;fill:#005EFF;}
	.st4{fill:#005EFF;}
</style>
<g>
	<path class="st0" d="M352.6,275.6c15.1-26.9,29-59,41.8-96.3c11.2-32.7,15-59.4,11.5-80.4l-1.9-8.6l-8.6-19.6
		c-10.2-18.5-25.2-33.6-45.1-45.4c-26.5-15.7-54.3-19.4-83.5-11c-35.4,10.2-60.6,31.8-75.9,64.9l-1.1-0.5l-0.6,1
		C158,59.9,125.2,54.9,90.8,64.9c-29.2,9.8-51.2,27.8-66.4,54.1c-15.1,26.2-18.4,54-10,83.3c6,22.2,24,45.8,54.4,70.7
		c30.4,24.8,59.3,44.7,86.5,59.4c23.9,12.9,59.2,30.9,105.9,54l19.8,9.8l11.4-18.7C319.3,333.1,339.4,299.1,352.6,275.6z"/>
	<path class="st1" d="M265.6,256.3c20.6-12,42.5-27.9,65.7-47.7c20.2-17.4,33.3-33.7,39.2-49l2.1-6.5l2-16.4
		c0.5-16.3-3.6-32.3-12.2-48c-11.5-20.9-28.6-34.2-51.3-40.1c-27.6-7.1-52.8-2.6-76,13.4l-0.5-0.7l-0.8,0.4
		c-13-25.4-32.9-41.5-59.7-48.5c-23.3-4.9-45.1-1.6-65.4,10C88.2,34.7,75.1,51.9,69.2,74.7c-4.8,17.1-2,39.9,8.5,68.4
		c10.5,28.5,21.9,53,34.3,73.5c10.9,18,27.3,43.9,49.3,77.6l9.3,14.2l14.9-8C220.9,281.5,247.5,266.8,265.6,256.3z"/>
	<path class="st2" d="M276.6,404.9l-19.8-9.8c-46.7-23.1-82.1-41.2-106.2-54.2c-27.9-15.1-57.3-35.3-88.1-60.4
		c-31-25.4-50.9-50.6-57.7-75.7c-9.1-31.8-5.5-62.3,10.9-90.9c16.3-28.4,40.3-48,72-58.6c32.8-9.4,64.2-6.4,93.9,8.7l4.4,2.5
		l2.3-4.4c16.8-28.6,42-47.8,75.4-57.4c31.9-9.2,62.6-5.1,91.3,12c21.2,12.6,37.6,29,48.7,49.2c0.1,0.3,0.3,0.5,0.4,0.8l8.6,19.6
		c0.3,0.6,0.5,1.2,0.6,1.8l1.9,8.6c0,0.1,0.1,0.4,0.1,0.5c3.9,23.3-0.5,51.9-11.9,85.2c-12.9,37.7-27.1,70.4-42.6,97.9
		c-13.3,23.7-33.4,57.8-60.3,102.1l-11.4,18.7C286.8,405.6,281.2,407.2,276.6,404.9z M277.2,383.2l6.7-11
		c26.9-44.3,46.9-78.1,60-101.5c14.7-26.3,28.5-57.8,41.1-94.7c8.2-24,12.1-44,12.2-60.4l-1.1-15.1l-1.6-7.2l-8-18.1l-7.7-11.9
		c-8.6-11.5-19.8-21.4-33.7-29.7C321,19.4,296,16.1,269.4,23.8c-32.7,9.4-55.6,29-69.6,59.5c-1.1,2.5-3.2,4.2-5.5,5.1l-1.6,0.3
		l-1.5,0.6c-2.5,0.5-5.1,0.1-7.4-1.3C155,69.7,125.1,65.3,93.7,74.3C67,83.3,46.9,99.7,33,123.9c-13.7,23.9-16.7,48.9-9,75.7
		c5.2,19.3,21.3,41.3,51.1,65.6c30,24.5,58.4,44,85,58.4c23.8,12.8,59,30.8,105.6,53.9L277.2,383.2z"/>
	<path class="st3" d="M164.9,312.1l-9.3-14.2c-22-33.8-38.5-59.7-49.4-77.8c-12.6-21-24.3-45.9-34.9-74.7
		c-10.7-29-13.9-53.4-8.7-72.5c6.3-24.5,20.6-43.2,42.6-55.7c21.9-12.4,45.3-16,70.4-10.7c25.3,6.5,44.9,20.7,58.7,42.3l2.4,4.1
		l3.9-2.5c22.3-12.3,46.4-15.2,72.2-8.5c24.6,6.4,43.3,20.9,55.6,43.4c9.1,16.6,13.5,33.8,13,51.4c0,0.2,0,0.4,0,0.6l-2,16.4
		c-0.1,0.4-0.2,0.9-0.3,1.3l-2.1,6.5c0,0.1-0.1,0.3-0.1,0.4c-6.5,16.9-20.5,34.1-41.1,51.8c-23.4,20-45.6,36.2-66.7,48.4
		c-18.1,10.6-44.9,25.3-80.2,44.3l-14.9,8C170.7,316.1,166.8,315.1,164.9,312.1z M172.9,299.4l9.4-5c35.3-18.9,61.9-33.6,79.8-44.1
		c20.2-11.7,41.7-27.4,64.7-47c14.9-12.8,25.4-24.7,32-35.6l5.2-10.6l1.8-5.6l1.8-15.3l-0.5-11c-1.3-11.2-4.8-22.3-10.9-33.3
		c-10.6-19.2-26.1-31.4-47.1-36.8c-25.7-6.6-48.9-2.5-70.4,12.4c-1.5,1.1-3.4,1.4-5.1,1.1l-1.1-0.4l-1.2-0.1c-1.7-0.5-3.1-1.7-4-3.4
		c-12.1-23.7-30.4-38.5-55.2-44.9c-21.5-4.6-41.6-1.5-60.5,9.3C93.2,39.7,81.2,55.3,75.8,76.4c-4.2,15.2-2,36.3,8.3,64.3
		c10.4,28.2,21.7,52.3,33.7,72.3c10.8,17.9,27.2,43.7,49.2,77.4L172.9,299.4z"/>
	<path class="st4" d="M260.8,202.6c0,10.7-17.4,19.4-38.8,19.4s-38.8-8.7-38.8-19.4c0-6.3,5.9-11.8,15.1-15.4l3.1,4.4
		c-5.2,2.2-8.5,5.2-8.5,8.5c0,6.7,13.1,12.1,29.1,12.1c16.1,0,29.1-5.4,29.1-12.1c0-3.3-3.3-6.4-8.5-8.5l3.1-4.4
		C254.8,190.8,260.8,196.4,260.8,202.6 M221.9,139.6c-5.4,0-9.7,4.4-9.7,9.7c0,5.4,4.4,9.7,9.7,9.7c5.4,0,9.7-4.3,9.7-9.7
		C231.6,143.9,227.3,139.6,221.9,139.6 M221.9,120.1c16.1,0,29.1,12.9,29.1,28.9c0,21.6-29.1,53.6-29.1,53.6s-29.1-32-29.1-53.6
		C192.8,133,205.9,120.1,221.9,120.1L221.9,120.1z"/>
</g>
</svg>
