<?xml version="1.0" encoding="utf-8"?>
<!-- Generator: Adobe Illustrator 25.0.0, SVG Export Plug-In . SVG Version: 6.00 Build 0)  -->
<svg version="1.1" id="Layer_1" xmlns="http://www.w3.org/2000/svg" xmlns:xlink="http://www.w3.org/1999/xlink" x="0px" y="0px"
	 viewBox="0 0 146 170.6" style="enable-background:new 0 0 146 170.6;" xml:space="preserve">
<style type="text/css">
	.st0{fill:#24BD85;}
	.st1{fill-rule:evenodd;clip-rule:evenodd;fill:#005EFF;}
</style>
<g>
	<path class="st0" d="M21.4,165.1l-2.3-8.5c-1.1-4,1.3-8.1,5.3-9.2l1.4-0.4c-0.3-4-2-7.9-4.9-10.7c-7-6.8-17-19.4-19.9-26.1
		c-1-2.3-1.2-6-0.7-11.4c0.4-4.2,1.2-9.3,2.5-15.3C4.9,73.2,7.9,62.4,9.4,58c0.5-1.5,1.9-4.1,3.7-5.3c2-1.3,4.2-2.5,7.2-1.9
		c4.6,0.9,8,5.5,7.5,10.2L25,87.8c2.6-0.2,5.3,0.8,7.4,2.7c12.5,11.6,21.7,33,22.6,35.9c0.3,0.8,1,2.9,1.5,12.5l0,0
		c4-1.1,8.1,1.3,9.2,5.3l2.3,8.5c1.1,4-1.3,8.1-5.3,9.2l-32.1,8.5c-0.6,0.2-1.3,0.2-1.9,0.2C25.2,170.6,22.2,168.4,21.4,165.1z
		 M115.5,170.4l-32.1-8.5c-4-1.1-6.4-5.2-5.3-9.2l2.3-8.5c1.1-4,5.2-6.4,9.2-5.3l0,0c0.5-9.6,1.2-11.8,1.5-12.5
		c0.9-2.8,10.1-24.3,22.6-35.9c2.1-1.9,4.7-2.9,7.4-2.7L118.2,61c-0.5-4.8,2.9-9.3,7.5-10.2c3.1-0.6,5.3,0.6,7.2,1.9
		c1.8,1.2,3.2,3.8,3.7,5.3c1.4,4.4,4.4,15.2,6.6,25.5c1.3,6,2.1,11.2,2.5,15.3c0.5,5.5,0.3,9.1-0.7,11.4
		c-2.9,6.7-12.9,19.3-19.9,26.1c-2.9,2.9-4.7,6.7-4.9,10.7l1.4,0.4c4,1.1,6.4,5.2,5.3,9.2l-2.3,8.5c-0.9,3.3-3.9,5.6-7.2,5.6
		C116.7,170.6,116.1,170.6,115.5,170.4z M29.1,165l32.1-8.5c1-0.3,1.6-1.3,1.3-2.3l0,0l-2.3-8.5c-0.3-1-1.3-1.6-2.3-1.3l-32.1,8.5
		c-1,0.3-1.6,1.3-1.3,2.3l2.3,8.5C27,164.7,28.1,165.2,29.1,165z M119.2,163.6l2.2-8.5c0.3-1-0.3-2-1.3-2.3L88,144.3
		c-0.2-0.1-0.3-0.1-0.5-0.1c-0.9,0-1.6,0.6-1.8,1.4l-2.3,8.5c-0.3,1,0.3,2,1.3,2.3h0l32.1,8.5C117.9,165.2,118.9,164.7,119.2,163.6z
		 M121.2,132.3c7.2-7,16.3-18.8,18.7-24.3c0.4-1,1.6-5.7-2.1-23.4c-2.1-10.1-5.1-20.6-6.5-24.9c-0.3-0.9-1.1-2.1-1.4-2.3
		c-1.7-1.1-2.3-1.2-3.1-1.1c-1.8,0.3-3.1,2.3-3,4.1l3.1,29.9c0.6,0.6,1.2,1.3,1.7,2.1c0.1,0.1,0.2,0.3,0.2,0.4
		c1.9,3.4,1.6,7.7-0.9,10.7l-9.3,11.9c-0.9,1.2-2.7,1.4-3.9,0.5c-1.2-1-1.4-2.7-0.5-3.9l9.3-11.9c1-1.3,1.2-3.1,0.4-4.5
		c-0.1-0.1-0.1-0.2-0.2-0.3c-0.7-1.1-1.7-1.9-2.9-2c-1.2-0.2-2.4,0.3-3.5,1.2c-11.5,10.6-20.3,31-21.1,33.5
		c-0.3,0.7-0.8,3.4-1.3,12.2l19.6,5.2C115.3,140.6,117.5,135.9,121.2,132.3z M31.3,145.6l19.7-5.2c-0.4-8.8-1-11.5-1.3-12.2
		c-0.8-2.5-9.6-22.9-21.1-33.5c-1-1-2.3-1.4-3.5-1.2c-1.2,0.2-2.2,0.9-2.9,2c0,0.1-0.1,0.1-0.1,0.2c-0.8,1.5-0.7,3.3,0.4,4.6
		l9.3,11.9c1,1.2,0.7,3-0.5,3.9c-1.2,1-3,0.7-3.9-0.5l-9.3-11.9c-2.4-3.1-2.8-7.3-0.9-10.7c0.1-0.1,0.2-0.3,0.2-0.4
		c0.5-0.8,1.1-1.5,1.7-2.1l3.1-29.9c0.2-1.9-1.2-3.8-2.9-4.1c-0.8-0.2-1.4,0-3.1,1.1c-0.4,0.3-1.1,1.5-1.4,2.3
		c-1.4,4.3-4.3,14.8-6.5,24.9C4.6,102.3,5.7,107,6.1,108c2.4,5.5,11.4,17.3,18.7,24.3C28.5,135.9,30.7,140.6,31.3,145.6z"/>
	<path class="st1" d="M35.7,46V18.4c0-2.5,1.8-5.1,4.7-5.1c10.6-0.7,21.1-6,29.8-11.9C71.3,0.8,72.4,0.2,74,0
		c1.6,0.2,2.8,0.8,3.9,1.4c8.7,5.9,19.2,11.2,29.8,11.9c2.9,0,4.7,2.6,4.7,5.1V46c0,12.3-5.6,29.4-38.2,42.7
		C41.5,75.4,35.7,58.3,35.7,46z M76.7,60.6l20.7-26c1.7-2.1,1.3-5.1-0.8-6.7c-2.1-1.7-5.1-1.3-6.7,0.8L72.1,51l-11.3-8.7
		c-2.1-1.6-5.1-1.2-6.7,0.9c-1.6,2.1-1.2,5.1,0.9,6.7l15,11.6C72.1,63.1,75.1,62.7,76.7,60.6z"/>
</g>
</svg>
