<?xml version="1.0" encoding="utf-8"?>
<!-- Generator: Adobe Illustrator 25.0.0, SVG Export Plug-In . SVG Version: 6.00 Build 0)  -->
<svg version="1.1" id="Layer_1" xmlns="http://www.w3.org/2000/svg" xmlns:xlink="http://www.w3.org/1999/xlink" x="0px" y="0px"
	 viewBox="0 0 78 81.6" style="enable-background:new 0 0 78 81.6;" xml:space="preserve">
<style type="text/css">
	.st0{fill:#42CCCC;}
	.st1{fill:#005EFF;}
</style>
<g>
	<path class="st0" d="M18.8,58.2c0.3-1.5,0.6-2.9,0.8-4.4c0-0.1-0.2-0.2-0.3-0.3c-0.1,0.3-0.1,0.4-0.2,0.6c-0.4,1.4-1.4,2.3-2.8,2.3
		c-1.5,0-2.5-0.8-2.9-2.3c-0.1-0.2-0.1-0.4-0.2-0.6c-0.3-0.9-1-1.4-1.9-1.4c-1.2,0-1.9,0.5-2.2,1.9c-0.3,1.4-1.6,2.4-2.9,2.4
		c-1.4-0.1-2.4-0.9-2.8-2.4c0-0.2-0.1-0.3-0.2-0.5c-0.1,0.1-0.3,0.2-0.3,0.2c0.3,1.5,0.5,3,0.8,4.5H18.8z M15.6,40.7H6.9v10.8
		c2.5-3.1,6.2-3.1,8.7,0V40.7z M11.2,27.5c-1.3,1.6-2.8,2.8-4.4,4c-1.3,0.9-1.7,2.3-1.4,3.9c0.3,1.5,1.5,2.4,3,2.4c2,0,4.1,0,6.1,0
		c0.6,0,1-0.2,1.4-0.5c1.9-1.7,1.7-4.4-0.4-5.9C13.9,30.3,12.6,29,11.2,27.5 M21.5,81.6c-0.9,0-1.6,0-2.4,0c-0.1,0-0.3,0-0.5,0V61.2
		H4v20.3H1v-1c0-6.2,0-12.5,0-18.7c0-1.9-0.2-3.8-0.6-5.7c-0.1-0.6-0.2-1.2-0.3-1.8c-0.5-1.7,1.1-3.9,3.2-3.7c0.2,0,0.4,0,0.7,0v-12
		c-1.1-1.3-1.6-2.9-1.5-4.7c0.1-2,1-3.7,2.7-4.8s3.2-2.4,4.3-4.1c0.7-1.1,1.2-2.2,1.8-3.4c0,0.1,0.1,0.2,0.2,0.4
		c1.1,2.8,2.8,5.1,5.4,6.8c1.4,0.9,2.5,2.2,2.9,3.8c0.6,2.2,0.2,4.2-1.2,6v12c0.3,0,0.6,0,0.9,0c1.7,0,3.3,1.7,2.9,3.6
		c-0.3,1.5-0.6,3-0.9,4.6c-0.1,0.4-0.1,0.8-0.1,1.2c0,6.8,0,13.6,0,20.4V81.6z"/>
	<path class="st0" d="M58.4,53.6c0.3,1.6,0.6,3,0.9,4.5h15c0.3-1.2,0.5-2.3,0.7-3.4c0.1-0.3,0.1-0.6,0.1-0.9c0-0.1-0.2-0.2-0.4-0.4
		c-0.1,0.4-0.1,0.6-0.2,0.8c-0.4,1.3-1.5,2.1-2.8,2.1c-1.4,0-2.4-0.8-2.7-2.2c-0.1-0.2-0.1-0.5-0.2-0.7c-0.3-0.8-1.1-1.3-2-1.3
		c-0.9,0-1.7,0.5-2,1.3c-0.1,0.3-0.1,0.6-0.2,0.9c-0.4,1.2-1.4,2-2.7,2c-1.4,0-2.5-0.8-2.9-2.3C58.9,53.9,59,53.6,58.4,53.6
		 M62.4,40.7v10.8c2.5-3.1,6.3-3.1,8.7,0V40.7H62.4z M66.8,27.5c-1.3,1.6-2.8,2.8-4.4,4c-1.3,0.9-1.7,2.3-1.4,3.9
		c0.3,1.5,1.5,2.4,3,2.4c2,0,4.1,0,6.1,0c0.6,0,1-0.2,1.4-0.5c1.9-1.7,1.7-4.4-0.4-5.9C69.4,30.3,68.1,29,66.8,27.5 M59.4,50.7v-12
		c-1.1-1.3-1.6-2.9-1.5-4.7c0.1-2,1-3.7,2.7-4.8s3.2-2.4,4.3-4.1c0.7-1.1,1.2-2.2,1.8-3.4c0.1,0.1,0.2,0.3,0.2,0.4
		c1.1,2.8,2.8,5.1,5.4,6.7c1.3,0.8,2.3,2,2.8,3.5c0.7,2.1,0.5,4.1-0.7,5.9c-0.1,0.1-0.1,0.2-0.2,0.3c0,0.1-0.1,0.1-0.1,0.2v12
		c0.3,0,0.7,0,1,0c1.6,0,3.2,1.6,2.9,3.6c-0.3,1.5-0.6,3-0.9,4.5C77,59.2,77,59.7,77,60.1c0,6.8,0,13.6,0,20.4v1.1h-2.9V61.2H59.5
		v20.3h-2.9v-1c0-6.8,0-13.5,0-20.3c0-1.4-0.4-2.8-0.6-4.1c-0.1-0.6-0.2-1.1-0.3-1.7c-0.5-1.8,1-4,3.3-3.8
		C59,50.7,59.1,50.7,59.4,50.7L59.4,50.7z"/>
	<path class="st0" d="M35.9,75.7h15c0.3-1.5,0.6-3,0.9-4.7c-0.3,0.2-0.5,0.2-0.5,0.3c-0.1,0.2-0.1,0.5-0.2,0.7
		c-0.5,1.3-1.5,2-2.9,1.9c-1.3,0-2.3-0.8-2.6-2.1c-0.1-0.3-0.1-0.5-0.2-0.8c-0.3-0.8-1.1-1.3-2-1.3c-0.9,0-1.7,0.5-2,1.3
		c-0.1,0.3-0.1,0.6-0.2,0.9c-0.3,1.2-1.4,2-2.5,2c-1.4,0.1-2.5-0.6-2.9-1.8c-0.1-0.3-0.1-0.5-0.2-0.8c0-0.1-0.3-0.1-0.5-0.2
		C35.3,72.7,35.6,74.2,35.9,75.7 M47.7,58.3H39v10.8c2.4-3,6.1-3.2,8.7,0V58.3z M43.4,45.1c-1.3,1.6-2.8,2.8-4.4,3.9
		c-1.3,0.9-1.8,2.3-1.5,3.8c0.3,1.5,1.5,2.5,3,2.5c2,0,4.1,0,6.1,0c0.6,0,1-0.2,1.4-0.5c1.9-1.7,1.7-4.4-0.5-5.9
		C46,47.8,44.7,46.6,43.4,45.1 M36.1,78.7v2.8h-2.9c0-0.5,0-0.9,0-1.4c0.2-2.5-0.3-5-0.8-7.4c-0.1-0.5-0.3-1.1-0.2-1.6
		c0.2-1.9,1.7-3,3.3-2.9c0.2,0,0.3,0,0.6,0V56.1c-1-1.3-1.5-2.8-1.4-4.6c0.1-2.1,1-3.7,2.7-4.9c1.7-1.2,3.3-2.5,4.4-4.2
		c0.6-1,1.2-2.2,1.8-3.3c0.1,0.2,0.2,0.3,0.2,0.5c1.1,2.8,2.8,5,5.3,6.6c1.5,0.9,2.5,2.2,3,3.9c0.6,2.2,0.2,4.2-1.2,6v12.1
		c0.3,0,0.6,0,0.8,0c1.9-0.1,3.4,1.9,3,3.6c-0.3,1.2-0.5,2.5-0.7,3.7c-0.1,1-0.2,2-0.2,3c0,1,0,1.9,0,3h-2.9v-2.8H36.1z"/>
	<path class="st1" d="M34.2,5.3c0.2,0.3,0.4,0.5,0.6,0.8c0.2-0.3,0.4-0.6,0.6-0.8C35,4.8,34.6,4.7,34.2,5.3 M42,33.8
		c-1.9-7.1-4.3-14.1-7.2-21.1c-2.9,7-5.3,13.9-7.2,21.1c1.3,0.3,2,1.2,2.5,2.4c0.7-2.4,2.4-3.7,4.4-3.8c2.1-0.1,4.2,1.1,5,3.9
		C39.9,35,40.7,34.2,42,33.8 M46.8,42.2c-0.9-1-1.3-2-1.8-3.1c-0.1-0.2-0.1-0.3-0.2-0.5c-0.4-1.1-0.7-1.3-1.9-1.3
		c-0.1-0.2-0.2-0.4-0.4-0.8c-0.1,0.3-0.2,0.5-0.2,0.7c-0.4,1.3-1.6,2.1-2.9,2.1c-1.3,0-2.5-1-2.8-2.3c-0.2-0.9-0.6-1.5-1.5-1.7
		c-1.1-0.2-1.9,0.4-2.1,1.5c-0.2,0.9-0.6,1.6-1.5,2.1c-1.6,0.9-3.6,0.2-4.2-1.5c-0.1-0.2-0.1-0.4-0.2-0.6c0,0-0.1-0.1-0.1-0.1
		c-0.1,0.1-0.2,0.1-0.2,0.2c-0.3,1-0.5,2-0.8,3.2c1.9,0,3.1,0.9,4,2.5c1-2.7,3-4.2,5.2-3.8c2.4,0.4,4,2,4.2,4.4
		c-0.2,0.2-0.6,0.4-0.9,0.7c-0.3,0.3-0.7,0.6-1.1,0.9c-0.5-0.3-0.6-0.8-0.8-1.3c-0.1-0.2-0.1-0.5-0.2-0.7c-0.3-0.7-0.9-1.1-1.7-1.1
		c-0.7,0-1.3,0.4-1.7,1.1C33,43,33,43.3,32.9,43.6c-0.4,1.2-1.2,1.9-2.4,2.1c-1.4,0.2-2.4-0.4-3-1.6c-0.1-0.2-0.1-0.3-0.2-0.5
		c-0.3-0.5-0.7-0.6-1.2-0.5c-0.4,0.1-0.7,0.3-0.8,0.8c-0.2,1.2-0.5,2.3-0.7,3.5c-0.3,1.6-0.5,3.1-0.8,4.9c-0.6-1.2-1.3-2.1-2.5-2.6
		c0.1-0.9,0.3-1.8,0.4-2.7c1.4-7.6,3.2-15,5.7-22.3c1.5-4.5,3.2-8.9,4.9-13.3c0.7-1.7,0.6-3-0.6-4.4c-1-1.2-0.8-2.9,0.5-3.8
		c1.1-0.8,2-1.7,2.5-3C34.9,0.2,35,0.4,35,0.5c0.5,1,1.2,1.7,2.1,2.4C38.7,4,38.9,5.6,37.7,7c-1.1,1.3-1.1,2.6-0.5,4.1
		c2.2,5.1,4.1,10.4,5.7,15.7c1.5,4.9,2.8,9.9,3.9,14.9C46.9,41.8,46.8,41.9,46.8,42.2L46.8,42.2z"/>
</g>
</svg>
