<?xml version="1.0" encoding="utf-8"?>
<!-- Generator: Adobe Illustrator 25.0.0, SVG Export Plug-In . SVG Version: 6.00 Build 0)  -->
<svg version="1.1" id="Layer_1" xmlns="http://www.w3.org/2000/svg" xmlns:xlink="http://www.w3.org/1999/xlink" x="0px" y="0px"
	 viewBox="0 0 65.6 80" style="enable-background:new 0 0 65.6 80;" xml:space="preserve">
<style type="text/css">
	.st0{fill:#005EFF;}
	.st1{fill:#42CCCC;}
</style>
<g>
	<g>
		<path class="st0" d="M44,44.5c-0.7,0-1.3-0.6-1.3-1.3V28.9H22.9v14.2c0,0.7-0.6,1.3-1.3,1.3c-0.7,0-1.3-0.6-1.3-1.3V27.6
			c0-0.7,0.6-1.3,1.3-1.3H44c0.7,0,1.3,0.6,1.3,1.3v15.6C45.4,43.9,44.7,44.5,44,44.5L44,44.5z"/>
		<path class="st0" d="M32.8,32c-2.7,0-4.9,2.2-4.9,4.9c0,2.7,2.2,4.9,4.9,4.9s4.9-2.2,4.9-4.9C37.7,34.1,35.5,32,32.8,32
			 M32.8,44.5c-4.2,0-7.6-3.4-7.6-7.6c0-4.2,3.4-7.6,7.6-7.6s7.6,3.4,7.6,7.6C40.4,41.1,37,44.5,32.8,44.5L32.8,44.5z"/>
		<path class="st0" d="M41.5,28.9c-0.7,0-1.3-0.6-1.3-1.3v-4.9H25.5v4.9c0,0.7-0.6,1.3-1.3,1.3c-0.7,0-1.3-0.6-1.3-1.3v-6.2
			c0-0.7,0.6-1.3,1.3-1.3h17.3c0.7,0,1.3,0.6,1.3,1.3v6.2C42.8,28.3,42.2,28.9,41.5,28.9L41.5,28.9z"/>
		<path class="st0" d="M28.4,18.7c-0.1,0-0.3,0-0.4-0.1c-0.7-0.2-1.1-1-0.8-1.7l4.4-12.6c0.3-0.7,1-1.1,1.7-0.8s1.1,1,0.8,1.7
			l-4.4,12.6C29.5,18.3,29,18.7,28.4,18.7L28.4,18.7z"/>
		<path class="st0" d="M37.2,18.7c-0.5,0-1.1-0.3-1.3-0.9L31.5,5.2c-0.2-0.7,0.1-1.5,0.8-1.7c0.7-0.2,1.5,0.1,1.7,0.8l4.4,12.6
			c0.2,0.7-0.1,1.5-0.8,1.7C37.5,18.6,37.3,18.7,37.2,18.7L37.2,18.7z"/>
		<path class="st0" d="M32.8,6.1c-0.7,0-1.3-0.6-1.3-1.3V1.3C31.4,0.6,32,0,32.8,0c0.7,0,1.3,0.6,1.3,1.3v3.4
			C34.1,5.5,33.5,6.1,32.8,6.1L32.8,6.1z"/>
		<path class="st0" d="M28.4,22.7c-0.7,0-1.3-0.6-1.3-1.3v-4.1c0-0.7,0.6-1.3,1.3-1.3c0.7,0,1.3,0.6,1.3,1.3v4.1
			C29.7,22.1,29.1,22.7,28.4,22.7L28.4,22.7z"/>
		<path class="st0" d="M37.2,22.7c-0.7,0-1.3-0.6-1.3-1.3v-4.1c0-0.7,0.6-1.3,1.3-1.3c0.7,0,1.3,0.6,1.3,1.3v4.1
			C38.5,22.1,37.9,22.7,37.2,22.7L37.2,22.7z"/>
		<path class="st0" d="M32.8,22.7c-0.7,0-1.3-0.6-1.3-1.3v-5.5c0-0.7,0.6-1.3,1.3-1.3c0.7,0,1.3,0.6,1.3,1.3v5.5
			C34.1,22.1,33.5,22.7,32.8,22.7L32.8,22.7z"/>
		<path class="st0" d="M27.1,25.8h-3c-0.7,0-1.3-0.6-1.3-1.3s0.6-1.3,1.3-1.3h3c0.7,0,1.3,0.6,1.3,1.3S27.8,25.8,27.1,25.8
			L27.1,25.8z"/>
		<path class="st0" d="M41.5,25.8h-2.9c-0.7,0-1.3-0.6-1.3-1.3s0.6-1.3,1.3-1.3h2.9c0.7,0,1.3,0.6,1.3,1.3S42.2,25.8,41.5,25.8
			L41.5,25.8z"/>
		<path class="st0" d="M35.7,38.2h-2.9c-0.7,0-1.3-0.6-1.3-1.3c0-0.7,0.6-1.3,1.3-1.3h2.9c0.7,0,1.3,0.6,1.3,1.3
			C37.1,37.6,36.5,38.2,35.7,38.2L35.7,38.2z"/>
		<path class="st0" d="M32.8,38.2c-0.7,0-1.3-0.6-1.3-1.3v-2.9c0-0.7,0.6-1.3,1.3-1.3c0.7,0,1.3,0.6,1.3,1.3v2.9
			C34.1,37.6,33.5,38.2,32.8,38.2L32.8,38.2z"/>
	</g>
	<g>
		<path class="st1" d="M12.5,53.2h-4c-0.7,0-1.3-0.6-1.3-1.3v-1.9L5.8,51c-0.5,0.4-1.3,0.4-1.8,0l-1.3-1.1v1.9
			c0,0.7-0.6,1.3-1.3,1.3c-0.7,0-1.3-0.6-1.3-1.3v-4.9c0-0.5,0.3-1,0.8-1.2c0.5-0.2,1-0.1,1.4,0.2l2.7,2.3l2.7-2.3
			c0.4-0.3,1-0.4,1.4-0.2c0.5,0.2,0.8,0.7,0.8,1.2v3.5h2.7c0.7,0,1.3,0.6,1.3,1.3C13.8,52.6,13.2,53.2,12.5,53.2L12.5,53.2z"/>
		<path class="st1" d="M23.6,53.2h-4c-0.7,0-1.4-0.6-1.4-1.3v-2L16.9,51c-0.5,0.4-1.3,0.4-1.8,0l-1.3-1.1v1.9c0,0.7-0.6,1.3-1.3,1.3
			c-0.7,0-1.3-0.6-1.3-1.3v-4.9c0-0.5,0.3-1,0.8-1.2c0.5-0.2,1-0.1,1.4,0.2l2.7,2.3l2.7-2.3c0.4-0.3,1-0.4,1.4-0.2
			c0.5,0.2,0.8,0.7,0.8,1.2v3.5h2.6c0.7,0,1.3,0.6,1.3,1.3C25,52.6,24.4,53.2,23.6,53.2L23.6,53.2z"/>
		<path class="st1" d="M34.8,53.2h-4c-0.7,0-1.3-0.6-1.3-1.3v-1.9L28.1,51c-0.5,0.4-1.2,0.4-1.7,0L25,49.8v2c0,0.7-0.6,1.3-1.3,1.3
			c-0.7,0-1.3-0.6-1.3-1.3v-4.9c0-0.5,0.3-1,0.8-1.2c0.5-0.2,1-0.1,1.4,0.2l2.7,2.3l2.7-2.3c0.4-0.3,1-0.4,1.4-0.2
			c0.5,0.2,0.8,0.7,0.8,1.2v3.5h2.7c0.7,0,1.3,0.6,1.3,1.3C36.1,52.6,35.5,53.2,34.8,53.2L34.8,53.2z"/>
		<path class="st1" d="M45.9,53.2h-4c-0.7,0-1.3-0.6-1.3-1.3v-2L39.2,51c-0.5,0.4-1.3,0.4-1.8,0l-1.3-1.1v1.9c0,0.7-0.6,1.3-1.3,1.3
			c-0.7,0-1.3-0.6-1.3-1.3l0-4.9c0-0.5,0.3-1,0.8-1.2c0.5-0.2,1-0.1,1.4,0.2l2.7,2.3l2.7-2.3c0.4-0.3,1-0.4,1.4-0.2
			c0.5,0.2,0.8,0.7,0.8,1.2v3.5h2.6c0.7,0,1.3,0.6,1.3,1.3C47.3,52.6,46.7,53.2,45.9,53.2L45.9,53.2z"/>
		<path class="st1" d="M57.1,53.2h-4c-0.7,0-1.4-0.6-1.4-1.3v-1.9L50.4,51c-0.5,0.4-1.2,0.4-1.7,0l-1.4-1.2v2c0,0.7-0.6,1.3-1.3,1.3
			c-0.7,0-1.3-0.6-1.3-1.3v-4.9c0-0.5,0.3-1,0.8-1.2c0.5-0.2,1-0.1,1.4,0.2l2.7,2.3l2.7-2.3c0.4-0.3,1-0.4,1.4-0.2
			c0.5,0.2,0.8,0.7,0.8,1.2v3.5h2.7c0.7,0,1.3,0.6,1.3,1.3C58.5,52.6,57.8,53.2,57.1,53.2L57.1,53.2z"/>
		<path class="st1" d="M64.3,53.2c-0.7,0-1.3-0.6-1.3-1.3v-2L61.5,51c-0.5,0.4-1.3,0.4-1.7,0l-1.3-1.1v1.9c0,0.7-0.6,1.3-1.3,1.3
			c-0.7,0-1.3-0.6-1.3-1.3v-4.9c0-0.5,0.3-1,0.8-1.2c0.5-0.2,1-0.1,1.4,0.2l2.7,2.3l2.7-2.3c0.4-0.3,1-0.4,1.4-0.2
			c0.5,0.2,0.8,0.7,0.8,1.2v4.9C65.6,52.6,65,53.2,64.3,53.2L64.3,53.2z"/>
		<path class="st1" d="M25.6,77.3H40v-9.1c0-3.2-3.3-5.9-7.2-5.9c-4,0-7.2,2.7-7.2,5.9V77.3z M41.4,80H24.2c-0.7,0-1.3-0.6-1.3-1.3
			V68.2c0-4.8,4.4-8.6,9.9-8.6c5.5,0,9.9,3.9,9.9,8.6v10.4C42.7,79.4,42.1,80,41.4,80L41.4,80z"/>
		<path class="st1" d="M64.3,80H1.3C0.6,80,0,79.4,0,78.7c0-0.7,0.6-1.3,1.3-1.3h62.9c0.7,0,1.3,0.6,1.3,1.3
			C65.6,79.4,65,80,64.3,80L64.3,80z"/>
		<path class="st1" d="M1.3,80C0.6,80,0,79.4,0,78.7V51.8c0-0.7,0.6-1.3,1.3-1.3c0.7,0,1.3,0.6,1.3,1.3v26.8C2.7,79.4,2.1,80,1.3,80
			L1.3,80z"/>
		<path class="st1" d="M64.3,80c-0.7,0-1.3-0.6-1.3-1.3V51.8c0-0.7,0.6-1.3,1.3-1.3c0.7,0,1.3,0.6,1.3,1.3v26.8
			C65.6,79.4,65,80,64.3,80L64.3,80z"/>
		<path class="st1" d="M11,64.6h4v-2.7c0-0.8-1-1.5-2-1.5s-2,0.7-2,1.5V64.6z M16.3,67.3H9.6c-0.7,0-1.3-0.6-1.3-1.3v-4.1
			c0-2.3,2.1-4.2,4.7-4.2c2.6,0,4.7,1.9,4.7,4.2v4.1C17.6,66.7,17,67.3,16.3,67.3L16.3,67.3z"/>
		<path class="st1" d="M50.6,64.6h4v-2.7c0-0.8-0.9-1.5-2-1.5c-1.1,0-2,0.7-2,1.5V64.6z M56,67.3h-6.7c-0.7,0-1.3-0.6-1.3-1.3v-4.1
			c0-2.3,2.1-4.2,4.7-4.2c2.6,0,4.7,1.9,4.7,4.2v4.1C57.3,66.7,56.7,67.3,56,67.3L56,67.3z"/>
	</g>
</g>
</svg>
