<?xml version="1.0" encoding="utf-8"?>
<!-- Generator: Adobe Illustrator 25.0.0, SVG Export Plug-In . SVG Version: 6.00 Build 0)  -->
<svg version="1.1" id="Layer_1" xmlns="http://www.w3.org/2000/svg" xmlns:xlink="http://www.w3.org/1999/xlink" x="0px" y="0px"
	 viewBox="0 0 64 74.8" style="enable-background:new 0 0 64 74.8;" xml:space="preserve">
<style type="text/css">
	.st0{fill:#42CCCC;}
	.st1{fill-rule:evenodd;clip-rule:evenodd;fill:#005EFF;}
</style>
<g>
	<path class="st0" d="M9.4,72.4l-1-3.7c-0.5-1.8,0.6-3.6,2.3-4l0.6-0.2c-0.1-1.8-0.9-3.4-2.2-4.7c-3.1-3-7.5-8.5-8.7-11.4
		c-0.4-1-0.5-2.6-0.3-5c0.2-1.8,0.5-4.1,1.1-6.7c0.9-4.5,2.3-9.2,2.9-11.2c0.2-0.6,0.8-1.8,1.6-2.3c0.9-0.6,1.8-1.1,3.2-0.8
		c2,0.4,3.5,2.4,3.3,4.5L11,38.5c1.1-0.1,2.3,0.4,3.2,1.2c5.5,5.1,9.5,14.5,9.9,15.7c0.1,0.3,0.4,1.3,0.7,5.5l0,0
		c1.8-0.5,3.6,0.6,4,2.3l1,3.7c0.5,1.7-0.6,3.5-2.3,4l-14.1,3.7c-0.3,0.1-0.6,0.1-0.9,0.1C11.1,74.8,9.8,73.8,9.4,72.4z M50.6,74.7
		L36.6,71c-1.8-0.5-2.8-2.3-2.3-4l1-3.7c0.5-1.7,2.3-2.8,4-2.3l0,0c0.2-4.2,0.5-5.2,0.7-5.5c0.4-1.2,4.4-10.6,9.9-15.7
		c0.9-0.8,2.1-1.3,3.2-1.2l-1.2-11.7c-0.2-2.1,1.3-4.1,3.3-4.5c1.3-0.3,2.3,0.3,3.2,0.8c0.8,0.5,1.4,1.7,1.6,2.3
		c0.6,1.9,1.9,6.7,2.9,11.2c0.6,2.6,0.9,4.9,1.1,6.7c0.2,2.4,0.1,4-0.3,5c-1.3,2.9-5.6,8.5-8.7,11.4c-1.3,1.3-2.1,2.9-2.2,4.7
		l0.6,0.2c1.7,0.5,2.8,2.3,2.3,4l-1,3.7c-0.4,1.4-1.7,2.4-3.2,2.4C51.2,74.8,50.9,74.8,50.6,74.7z M12.7,72.3l14.1-3.7
		c0.4-0.1,0.7-0.6,0.6-1l0,0l-1-3.7c-0.1-0.4-0.6-0.7-1-0.6L11.3,67c-0.4,0.1-0.7,0.6-0.6,1l1,3.7C11.9,72.2,12.3,72.4,12.7,72.3z
		 M52.3,71.7l1-3.7c0.1-0.5-0.1-0.9-0.6-1l-14.1-3.7c-0.1,0-0.1,0-0.2,0c-0.4,0-0.7,0.3-0.8,0.6l-1,3.7c-0.1,0.4,0.1,0.9,0.6,1l0,0
		l14.1,3.7C51.7,72.4,52.1,72.2,52.3,71.7z M53.1,58c3.2-3.1,7.2-8.2,8.2-10.6c0.2-0.4,0.7-2.5-0.9-10.2c-0.9-4.4-2.2-9-2.8-10.9
		c-0.1-0.4-0.5-0.9-0.6-1c-0.7-0.5-1-0.5-1.4-0.5c-0.8,0.1-1.4,1-1.3,1.8l1.4,13.1c0.3,0.3,0.5,0.6,0.7,0.9c0,0.1,0.1,0.1,0.1,0.2
		c0.8,1.5,0.7,3.4-0.4,4.7L52,50.7c-0.4,0.5-1.2,0.6-1.7,0.2s-0.6-1.2-0.2-1.7l4.1-5.2c0.5-0.6,0.5-1.4,0.2-2c0,0,0-0.1-0.1-0.1
		C54,41.3,53.5,41,53,40.9c-0.5-0.1-1.1,0.1-1.5,0.5c-5,4.6-8.9,13.6-9.3,14.7c-0.1,0.3-0.4,1.5-0.5,5.3l8.6,2.3
		C50.5,61.6,51.5,59.6,53.1,58z M13.7,63.8l8.6-2.3c-0.2-3.9-0.4-5-0.5-5.4c-0.4-1.1-4.2-10-9.3-14.7c-0.5-0.4-1-0.6-1.5-0.5
		c-0.5,0.1-1,0.4-1.3,0.9c0,0,0,0.1-0.1,0.1c-0.3,0.6-0.3,1.4,0.2,2l4.1,5.2c0.4,0.5,0.3,1.3-0.2,1.7c-0.5,0.4-1.3,0.3-1.7-0.2
		l-4.1-5.2c-1.1-1.3-1.2-3.2-0.4-4.7c0-0.1,0.1-0.1,0.1-0.2c0.2-0.3,0.5-0.7,0.7-0.9l1.4-13.1c0.1-0.8-0.5-1.7-1.3-1.8
		c-0.4-0.1-0.6,0-1.4,0.5c-0.2,0.1-0.5,0.6-0.6,1c-0.6,1.9-1.9,6.5-2.8,10.9C2,44.8,2.5,46.9,2.7,47.3c1,2.4,5,7.6,8.2,10.6
		C12.5,59.6,13.5,61.6,13.7,63.8z"/>
	<path class="st1" d="M15.7,20.2V8.1c0-1.1,0.8-2.2,2.1-2.2c4.6-0.3,9.3-2.6,13.1-5.2c0.5-0.3,1-0.6,1.7-0.6
		c0.7,0.1,1.2,0.3,1.7,0.6c3.8,2.6,8.4,4.9,13.1,5.2c1.3,0,2.1,1.1,2.1,2.2v12.1c0,5.4-2.5,12.9-16.8,18.7
		C18.2,33.1,15.7,25.6,15.7,20.2z M33.6,26.6l9.1-11.4c0.7-0.9,0.6-2.2-0.3-3c-0.9-0.7-2.2-0.6-2.9,0.3l-7.8,9.8l-4.9-3.8
		c-0.9-0.7-2.2-0.5-2.9,0.4c-0.7,0.9-0.5,2.2,0.4,3l6.6,5.1C31.6,27.6,32.9,27.5,33.6,26.6z"/>
</g>
</svg>
