<?xml version="1.0" encoding="utf-8"?>
<!-- Generator: Adobe Illustrator 25.0.0, SVG Export Plug-In . SVG Version: 6.00 Build 0)  -->
<svg version="1.1" id="Layer_1" xmlns="http://www.w3.org/2000/svg" xmlns:xlink="http://www.w3.org/1999/xlink" x="0px" y="0px"
	 viewBox="0 0 63 71.9" style="enable-background:new 0 0 63 71.9;" xml:space="preserve">
<style type="text/css">
	.st0{fill-rule:evenodd;clip-rule:evenodd;fill:#005EFF;}
	.st1{fill-rule:evenodd;clip-rule:evenodd;fill:#42CCCC;}
	.st2{fill:#005EFF;}
</style>
<g>
	<path class="st0" d="M0.4,44.1c-1.3-8.5,0.2-17.8,4.5-25C8.7,12.7,14.7,8,22.9,6.8l-4.2-3.2c-0.9-0.7-1.1-1.9-0.4-2.8
		c0.7-0.9,1.9-1.1,2.8-0.4l8.5,6.4c0.9,0.7,1,1.9,0.4,2.8l-6.3,8.9c-0.6,0.9-1.9,1.1-2.8,0.5c-0.9-0.6-1.1-1.9-0.5-2.8l3.9-5.5
		C17,11.4,11.8,15.5,8.4,21.1c-3.8,6.3-5.1,14.7-4,22.4c0.2,1.1-0.6,2.1-1.7,2.3C1.6,45.9,0.6,45.2,0.4,44.1z M42.5,17.3
		c-3.2-3.2-3.2-8.4,0-11.6c3.2-3.2,8.4-3.2,11.6,0c3.2,3.2,3.2,8.4,0,11.6C50.9,20.5,45.7,20.5,42.5,17.3z"/>
	<path class="st1" d="M41.9,71.5L33.4,65c-0.9-0.7-1-1.9-0.4-2.8l6.3-8.9c0.6-0.9,1.9-1.1,2.8-0.5c0.9,0.6,1.1,1.9,0.5,2.8l-3.9,5.5
		c7.3-0.8,12.6-4.8,16-10.4c3.8-6.3,5.1-14.7,4-22.4c-0.2-1.1,0.6-2.1,1.7-2.3c1.1-0.2,2.1,0.6,2.3,1.7c1.3,8.5-0.2,17.8-4.5,25
		c-3.8,6.3-9.8,11.1-17.9,12.3l4.2,3.2c0.9,0.7,1.1,1.9,0.4,2.8C44.1,72,42.8,72.2,41.9,71.5z M10,62.7c-3.2-3.2-3.2-8.4,0-11.6
		c3.2-3.2,8.4-3.2,11.6,0c3.2,3.2,3.2,8.4,0,11.6S13.2,65.9,10,62.7z"/>
	<path class="st2" d="M33.3,36.5c6,0,10.8,2.4,10.8,5.4v2.7H22.5v-2.7C22.5,38.9,27.3,36.5,33.3,36.5 M33.3,22.9
		c3,0,5.4,2.4,5.4,5.4c0,3-2.4,5.4-5.4,5.4c-3,0-5.4-2.4-5.4-5.4C27.9,25.3,30.3,22.9,33.3,22.9L33.3,22.9z"/>
</g>
</svg>
