<?xml version="1.0" encoding="utf-8"?>
<!-- Generator: Adobe Illustrator 25.0.0, SVG Export Plug-In . SVG Version: 6.00 Build 0)  -->
<svg version="1.1" id="Layer_1" xmlns="http://www.w3.org/2000/svg" xmlns:xlink="http://www.w3.org/1999/xlink" x="0px" y="0px"
	 viewBox="0 0 33 22.2" style="enable-background:new 0 0 33 22.2;" xml:space="preserve">
<style type="text/css">
	.st0{fill-rule:evenodd;clip-rule:evenodd;fill:#333333;}
</style>
<path class="st0" d="M12.1,21.7c0.6-0.6,0.6-1.5,0-2.1l-7.1-7h15.6c0.6,1.5,2,2.5,3.7,2.5c1.7,0,3.1-1,3.7-2.5h3.5
	c0.8,0,1.5-0.7,1.5-1.5c0-0.8-0.7-1.5-1.5-1.5H28c-0.6-1.5-2-2.5-3.7-2.5c-1.7,0-3.1,1-3.7,2.5H5.1l7.1-7.1c0.6-0.6,0.6-1.5,0-2.1
	s-1.5-0.6-2.1,0L0.4,10c-0.6,0.6-0.6,1.5,0,2.1l9.6,9.6C10.6,22.3,11.6,22.3,12.1,21.7z M24,13C23.8,13,23.7,13,24,13
	c-0.3-0.1-0.4-0.1-0.4-0.1c-0.1-0.1-0.3-0.1,0,0c-0.2-0.1-0.3-0.2-0.3-0.2c-0.1-0.1-0.2-0.2,0,0c-0.1-0.1-0.1-0.1-0.2-0.1h0
	c-0.5-0.4-0.7-0.9-0.7-1.5c0-0.6,0.3-1.1,0.7-1.5l0,0c0.1-0.1,0.2-0.1,0.2-0.1c0.1-0.1,0.3-0.2,0.1,0c0.1-0.1,0.3-0.1,0.3-0.2
	c0.2-0.1,0.3-0.1,0.1,0c0.1-0.1,0.3-0.1,0.3-0.1c0.2,0,0.3-0.1,0,0c0.1,0,0.3,0,0.4,0c0.1,0,0.3,0,0.4,0c-0.3,0-0.1,0,0,0
	c0.1,0,0.2,0,0.3,0.1c-0.2-0.1-0.1-0.1,0,0c0,0,0.1,0.1,0.3,0.2c-0.2-0.1-0.1-0.1,0,0c0,0,0.1,0.1,0.2,0.1c0.4,0.4,0.7,0.9,0.7,1.5
	c0,0.6-0.2,1-0.7,1.5h0c0,0-0.1,0.1-0.2,0.1c0.2-0.1,0.1-0.1,0,0c0,0-0.1,0.1-0.3,0.2c0.2-0.1,0.1,0,0,0c0,0-0.1,0-0.4,0.1
	c0.3-0.1,0.1,0,0,0c0,0-0.2,0-0.4,0C24.2,13.1,24,13,24,13z"/>
</svg>
