<?xml version="1.0" encoding="utf-8"?>
<!-- Generator: Adobe Illustrator 25.0.0, SVG Export Plug-In . SVG Version: 6.00 Build 0)  -->
<svg version="1.1" id="Layer_1" xmlns="http://www.w3.org/2000/svg" xmlns:xlink="http://www.w3.org/1999/xlink" x="0px" y="0px"
	 viewBox="0 0 16 16" style="enable-background:new 0 0 16 16;" xml:space="preserve">
<style type="text/css">
	.st0{fill:#FFFFFF;}
</style>
<path class="st0" d="M4.8,12.8c-0.9,0-1.6,0.7-1.6,1.6c0,0.9,0.7,1.6,1.6,1.6c0.9,0,1.6-0.7,1.6-1.6C6.4,13.5,5.7,12.8,4.8,12.8
	 M0,0v1.6h1.6l2.9,6.1l-1.1,2c-0.1,0.2-0.2,0.5-0.2,0.8c0,0.9,0.7,1.6,1.6,1.6h9.6v-1.6H5.1c-0.1,0-0.2-0.1-0.2-0.2c0,0,0-0.1,0-0.1
	l0.7-1.3h6c0.6,0,1.1-0.3,1.4-0.8l2.9-5.2C16,2.7,16,2.5,16,2.4c0-0.4-0.4-0.8-0.8-0.8H3.4L2.6,0 M12.8,12.8c-0.9,0-1.6,0.7-1.6,1.6
	c0,0.9,0.7,1.6,1.6,1.6c0.9,0,1.6-0.7,1.6-1.6C14.4,13.5,13.7,12.8,12.8,12.8L12.8,12.8z"/>
</svg>
