<?xml version="1.0" encoding="utf-8"?>
<!-- Generator: Adobe Illustrator 25.0.0, SVG Export Plug-In . SVG Version: 6.00 Build 0)  -->
<svg version="1.1" id="Layer_1" xmlns="http://www.w3.org/2000/svg" xmlns:xlink="http://www.w3.org/1999/xlink" x="0px" y="0px"
	 viewBox="0 0 600 185.6" style="enable-background:new 0 0 600 185.6;" xml:space="preserve">
<style type="text/css">
	.st0{fill:url(#SVGID_1_);}
	.st1{fill:url(#SVGID_2_);}
	.st2{fill-rule:evenodd;clip-rule:evenodd;fill:#24BD85;}
	.st3{fill:#24BD85;}
	.st4{fill-rule:evenodd;clip-rule:evenodd;fill:#FFFFFF;}
</style>
<g>
	<linearGradient id="SVGID_1_" gradientUnits="userSpaceOnUse" x1="65.6445" y1="78.9474" x2="484.4374" y2="78.9474">
		<stop  offset="0" style="stop-color:#24BD85;stop-opacity:0"/>
		<stop  offset="1" style="stop-color:#24BD85;stop-opacity:0.2"/>
	</linearGradient>
	<polygon class="st0" points="69.6,141.3 65.6,16.6 433.6,16.6 435.6,16.6 437.6,31.6 484.4,92.4 476.5,133.3 483.4,141.3 	"/>
	<linearGradient id="SVGID_2_" gradientUnits="userSpaceOnUse" x1="173.3372" y1="166.7526" x2="493.4107" y2="166.7526">
		<stop  offset="0" style="stop-color:#24BD85;stop-opacity:0"/>
		<stop  offset="1" style="stop-color:#24BD85;stop-opacity:0.2"/>
	</linearGradient>
	<polygon class="st1" points="173.3,184.3 182.3,149.2 493.4,149.2 493.4,184.3 	"/>
	<rect y="182.6" class="st2" width="492.3" height="3"/>
	<path class="st3" d="M490.6,149.7c-9.7,2.3-15.6,12-13.2,21.7c2.3,9.6,12,15.6,21.7,13.2c9.6-2.3,15.6-12,13.2-21.7
		C509.9,153.3,500.2,147.4,490.6,149.7 M404.6,22.8l4.2,17.4l17.4-4.2l47.4,58.6l-6.7,24.2c-0.7,2.8-0.8,5.8-0.1,8.9
		c2.3,9.6,12,15.6,21.7,13.2l104.7-25.3L589,98.3l-101,24.4c-1.2,0.3-2.4-0.4-2.7-1.6c-0.1-0.4-0.1-0.8,0-1.1l4.4-16.1l65-15.7
		c6.5-1.6,11.4-6.6,13.1-12.7l17.6-64c0.3-1.5,0.3-3.1,0-4.6c-1.2-4.8-6-7.8-10.8-6.6l-129,31.1l-12.4-15.5 M577.8,128.7
		c-9.7,2.3-15.6,12-13.2,21.7c2.3,9.6,12,15.6,21.7,13.2c9.6-2.3,15.6-12,13.2-21.7C597.2,132.3,587.4,126.4,577.8,128.7
		L577.8,128.7z"/>
	<g>
		<path class="st4" d="M532.1,83.2L516,73.6c-0.5,0.7-1,1.2-1.6,1.8l2,8c0.7,2.8-1,5.6-3.7,6.3c-2.8,0.7-5.6-1-6.3-3.7l-2-7.9
			c-4.3-0.9-7.9-4.1-9-8.6c-1.1-4.5,0.5-9.1,3.9-11.9L496,45c-1.3-5.1-0.5-9.8,2-13.5c2.4-3.6,6.1-5.8,10-6.6
			c3.8-0.9,8.1-0.5,11.8,1.5c3.8,2,6.8,5.6,8,10.6l3,11.9c1.2,4.9,0.3,9.5-2,13.1c-1.2,1.8-2.8,3.4-4.5,4.6l13.1,7.8
			c2.4,1.5,3.2,4.6,1.8,7.1C537.7,83.9,534.5,84.7,532.1,83.2z M510.8,65.5c-0.6-2.3-2.9-3.7-5.2-3.1c-2.3,0.6-3.7,2.9-3.1,5.2
			c0.6,2.3,2.9,3.7,5.2,3.1C510,70.1,511.4,67.8,510.8,65.5z M520.8,51.4l-3-11.9c-1.1-4.4-4.9-5.2-7.5-4.6
			c-2.6,0.6-5.5,2.6-4.2,7.5l3,11.9c0.1,0.3,0.2,0.6,0.3,0.8c2.5,0.6,4.8,2,6.4,3.9c0.2,0,0.4-0.1,0.6-0.1
			C518.9,58.2,521.9,55.8,520.8,51.4z"/>
	</g>
</g>
</svg>
