<?xml version="1.0" encoding="utf-8"?>
<!-- Generator: Adobe Illustrator 25.0.0, SVG Export Plug-In . SVG Version: 6.00 Build 0)  -->
<svg version="1.1" id="Layer_1" xmlns="http://www.w3.org/2000/svg" xmlns:xlink="http://www.w3.org/1999/xlink" x="0px" y="0px"
	 viewBox="0 0 178 182.8" style="enable-background:new 0 0 178 182.8;" xml:space="preserve">
<style type="text/css">
	.st0{fill-rule:evenodd;clip-rule:evenodd;fill:#FFFFFF;}
</style>
<path class="st0" d="M64,176.6l-3.1-21.9l-6.6-3.3l-5.9-4.1l-20.6,8.3c-3.2,1.2-7.3,0.1-9.1-3.3L1,121.9c-1.9-3.3-1-7.3,1.8-9.5
	l17.4-13.7l-0.5-7.2l0.5-7.5L2.8,70.5C0,68.3-0.9,64.3,1,61l17.7-30.6c1.8-3.3,5.8-4.6,9.1-3.3l20.5,8.3l5.9-4l6.6-3.3L64,6.3
	C64.6,2.7,67.7,0,71.3,0h35.4c3.7,0,6.8,2.7,7.4,6.3l3.1,21.9l6.6,3.3l5.9,4l20.5-8.3c3.3-1.4,7.4,0,9.1,3.3L177,61
	c1.7,3.2,1.1,7.2-1.8,9.5L157.8,84l0.5,7.5l-0.5,7.2l17.4,13.7c2.9,2.3,3.6,6.3,1.8,9.5l-17.7,30.6c-1.8,3.3-5.9,4.4-9.1,3.3
	l-20.6-8.4l-5.9,4.1l-6.6,3.3l-3.1,21.9c-0.6,3.6-3.7,6.3-7.4,6.3H71.3C67.7,182.8,64.6,180.2,64,176.6z M108.2,175.7l3.3-23.4
	c0.1-1.1,0.8-2,1.8-2.4c5.3-2.2,9.8-5,14.3-8.4c0.9-0.6,2-0.8,3-0.4l22,8.9c0.7,0.2,1.4-0.1,1.7-0.6l17.7-30.6
	c0.4-0.7,0.2-1.5-0.3-1.8l-18.7-14.7c-0.8-0.7-1.3-1.7-1.1-2.7c0.3-2.7,0.6-5.5,0.6-8.2c0-2.7-0.2-5.5-0.6-8.5
	c-0.1-1.1,0.3-2.1,1.1-2.7l18.6-14.4c0.4-0.3,0.7-1.1,0.3-1.8l-17.7-30.6c-0.3-0.6-1.1-0.9-1.6-0.6l-22,8.9c-1,0.4-2.1,0.2-2.9-0.4
	c-4.5-3.4-9-6.2-14.3-8.3c-1-0.4-1.7-1.3-1.9-2.4l-3.3-23.4c-0.1-0.6-0.7-1.2-1.5-1.2H71.3c-0.8,0-1.3,0.5-1.5,1.2l-3.3,23.4
	c-0.1,1.1-0.9,2-1.9,2.4c-5.2,2.1-9.8,4.9-14.2,8.3c-0.8,0.6-1.9,0.8-2.9,0.4l-22-8.9c-0.6-0.2-1.3,0-1.7,0.6L6.2,64
	c-0.4,0.6-0.2,1.4,0.3,1.8l18.6,14.4c0.8,0.6,1.3,1.7,1.1,2.7c-0.3,3-0.6,5.7-0.6,8.5c0,2.7,0.3,5.4,0.6,8.2c0.1,1-0.3,2.1-1.1,2.7
	L6.5,117c-0.5,0.4-0.7,1.2-0.3,1.8l17.7,30.6c0.3,0.5,1,0.9,1.7,0.6l21.9-8.9c1-0.4,2.1-0.2,3,0.4c4.5,3.4,9,6.3,14.2,8.4
	c1,0.4,1.7,1.3,1.9,2.4l3.3,23.4c0.1,0.6,0.7,1.2,1.5,1.2h35.4C107.5,176.8,108.1,176.3,108.2,175.7z M52.6,127
	c-19.9-19.9-19.9-52.2,0-72.1c19.9-19.9,52.2-19.9,72.1,0c19.9,19.9,19.9,52.2,0,72.1S72.5,146.9,52.6,127z M120.5,122.7
	c17.6-17.6,17.6-46.1,0-63.6c-17.6-17.6-46.1-17.6-63.6,0c-17.6,17.6-17.6,46.1,0,63.6C74.4,140.3,102.9,140.3,120.5,122.7z
	 M64.2,115.4c-13.5-13.5-13.5-35.5,0-49s35.5-13.5,49,0s13.5,35.5,0,49c-3.4,3.4-7.3,5.9-13.4,8.2c1.4-0.5,0.4-0.1-1.8,0.5
	C89.2,128.1,74.3,125.6,64.2,115.4z M106.5,107v-4.5c0-4.9-8-8.9-17.9-8.9s-17.8,4-17.8,8.9v4.5H106.5z M97.6,80.2
	c0-4.9-4-8.9-8.9-8.9c-4.9,0-8.9,4-8.9,8.9c0,4.9,4,8.9,8.9,8.9C93.6,89.1,97.6,85.1,97.6,80.2z"/>
</svg>
