<?xml version="1.0" encoding="utf-8"?>
<!-- Generator: Adobe Illustrator 25.0.0, SVG Export Plug-In . SVG Version: 6.00 Build 0)  -->
<svg version="1.1" id="Layer_1" xmlns="http://www.w3.org/2000/svg" xmlns:xlink="http://www.w3.org/1999/xlink" x="0px" y="0px"
	 viewBox="0 0 420.8 42" style="enable-background:new 0 0 420.8 42;" xml:space="preserve">
<style type="text/css">
	.st0{fill-rule:evenodd;clip-rule:evenodd;fill:url(#SVGID_1_);}
</style>
<linearGradient id="SVGID_1_" gradientUnits="userSpaceOnUse" x1="70.8141" y1="21" x2="165.0679" y2="21">
	<stop  offset="0" style="stop-color:#0078E3"/>
	<stop  offset="1" style="stop-color:#42CCCC"/>
</linearGradient>
<path class="st0" d="M397,40.8c-1.5-1.5-1.5-4.1,0-5.6L407.2,25H78.4c-1.5,3.5-5,6-9.1,6c-4.1,0-7.6-2.5-9.1-6H0V17h60.1
	c1.5-3.5,5-6,9.1-6c4.1,0,7.6,2.5,9.1,6h328.8L397,6.8c-1.5-1.5-1.5-4.1,0-5.6c1.6-1.5,4.1-1.5,5.6,0l17,17c1.5,1.5,1.5,4.1,0,5.6
	l-17,17C401,42.4,398.5,42.4,397,40.8z M73.4,21c0-2.3-1.8-4.1-4.1-4.1s-4.1,1.8-4.1,4.1s1.8,4.1,4.1,4.1S73.4,23.3,73.4,21z"/>
</svg>
