<?xml version="1.0" encoding="utf-8"?>
<!-- Generator: Adobe Illustrator 25.0.0, SVG Export Plug-In . SVG Version: 6.00 Build 0)  -->
<svg version="1.1" id="Layer_1" xmlns="http://www.w3.org/2000/svg" xmlns:xlink="http://www.w3.org/1999/xlink" x="0px" y="0px"
	 viewBox="0 0 76 60.9" style="enable-background:new 0 0 76 60.9;" xml:space="preserve">
<style type="text/css">
	.st0{fill:#42CCCC;}
	.st1{fill:#005EFF;}
</style>
<g>
	<path class="st0" d="M47.8,15.9h15.9v3.5H47.8V15.9z M47.8,8.8h21.2v3.5H47.8V8.8z M54.8,24.7v5.4l5.4-5.4h12.2V3.5H44.3v21.2H54.8
		 M53.1,35.3c-1,0-1.8-0.8-1.8-1.8v-5.3h-7.1c-1.9,0-3.5-1.6-3.5-3.5V3.5c0-2,1.6-3.5,3.5-3.5h28.2C74.4,0,76,1.6,76,3.5v21.2
		c0,1.9-1.6,3.5-3.5,3.5H61.7l-6.5,6.5c-0.4,0.3-0.8,0.5-1.2,0.5H53.1L53.1,35.3z"/>
	<path class="st1" d="M38.9,44.9H16v-4.6h22.9V44.9z M38.9,40.4 M38.9,35.8H20.6v-4.6h18.3V35.8z M38.9,26.7h-32v-4.6h32V26.7z
		 M29.7,60.9c1.3,0,2.3-1,2.3-2.3v-6.9h9.1c2.5,0,4.6-2,4.6-4.6V19.8c0-2.5-2.1-4.6-4.6-4.6H4.6C2,15.2,0,17.3,0,19.8v27.4
		c0,2.5,2,4.6,4.6,4.6h13.9l8.5,8.5c0.5,0.4,1,0.7,1.6,0.7H29.7L29.7,60.9z"/>
</g>
</svg>
