<?xml version="1.0" encoding="utf-8"?>
<!-- Generator: Adobe Illustrator 25.0.0, SVG Export Plug-In . SVG Version: 6.00 Build 0)  -->
<svg version="1.1" id="Layer_1" xmlns="http://www.w3.org/2000/svg" xmlns:xlink="http://www.w3.org/1999/xlink" x="0px" y="0px"
	 viewBox="0 0 80 70.7" style="enable-background:new 0 0 80 70.7;" xml:space="preserve">
<style type="text/css">
	.st0{fill-rule:evenodd;clip-rule:evenodd;fill:#26BD85;}
</style>
<g>
	<path class="st0" d="M52.5,64.4c2.4-1,4.7-2.4,6.8-4c1.9-1.4,3.6-3.1,5.1-4.9c-0.5-0.3-0.8-0.9-0.8-1.5V28.7c0-1,0.8-1.9,1.9-1.9
		c1.8,0,3.6,0.3,5.2,1c-1.5-6.4-5-12-9.7-16.2c-5.6-5-12.9-8-21-8s-15.4,3-21,8c-4.7,4.2-8.2,9.8-9.7,16.2c1.6-0.6,3.4-1,5.2-1
		c1,0,1.9,0.8,1.9,1.9V54c0,1-0.8,1.9-1.9,1.9c-4,0-7.6-1.6-10.2-4.3S0,45.3,0,41.4c0-4,1.6-7.6,4.2-10.2c0.2-0.2,0.5-0.5,0.7-0.7
		C6.1,22,10.3,14.4,16.4,9C22.8,3.4,31,0,40,0s17.2,3.4,23.5,8.9c6.1,5.4,10.4,13,11.6,21.5c0.3,0.2,0.5,0.5,0.7,0.7
		c2.6,2.6,4.2,6.2,4.2,10.2s-1.6,7.6-4.2,10.2c-1.8,1.8-4.1,3.1-6.6,3.8c-2.1,3-4.7,5.7-7.6,8c-2.6,2-5.5,3.7-8.5,4.9
		c0.1-0.4,0.1-0.7,0.1-1.1C53.1,66.2,52.9,65.2,52.5,64.4L52.5,64.4z M45.2,63.5h-5c-1,0-1.9,0.4-2.6,1.1s-1.1,1.6-1.1,2.6
		s0.4,1.9,1.1,2.6c0.7,0.7,1.6,1,2.6,1h5c1,0,1.9-0.4,2.5-1c0.7-0.7,1.1-1.6,1.1-2.6s-0.4-1.9-1.1-2.6
		C47.1,63.9,46.2,63.5,45.2,63.5"/>
	<path class="st0" d="M38.2,46.3c0-1,0.8-1.9,1.9-1.9c1,0,1.9,0.8,1.9,1.9v0.1c0,1-0.8,1.9-1.9,1.9S38.2,47.4,38.2,46.3L38.2,46.3z
		 M37.2,32.3c0,1-0.8,1.9-1.9,1.9c-1,0-1.9-0.8-1.9-1.9c0-0.1,0-0.3,0-0.4s0-0.3,0-0.4c0.2-1.6,1-3,2.2-4.1c1.2-1,2.7-1.6,4.3-1.6
		c1.8,0,3.4,0.7,4.6,1.9c1.2,1.2,1.9,2.8,1.9,4.6c0,1.3-0.4,2.5-1.1,3.6c-0.7,1.1-1.7,1.9-2.9,2.4c-0.2,0.1-0.4,0.2-0.5,0.4
		s-0.2,0.4-0.2,0.6v1.1c0,1-0.8,1.9-1.9,1.9c-1,0-1.9-0.8-1.9-1.9v-1.1c0-1,0.3-1.9,0.8-2.7s1.2-1.4,2.1-1.8c0.5-0.2,0.9-0.6,1.2-1
		s0.5-1,0.5-1.6c0-0.8-0.3-1.5-0.8-2s-1.2-0.8-2-0.8c-0.7,0-1.4,0.3-1.9,0.7c-0.5,0.4-0.8,1-0.9,1.7c0,0,0,0.1,0,0.2
		C37.2,32.1,37.2,32.2,37.2,32.3L37.2,32.3z M54.7,26.3c-2.5-3.8-6.4-6.6-11.1-7.5c-4.8-1-9.5,0.1-13.2,2.6s-6.6,6.4-7.5,11.1
		c-0.6,2.9-0.4,5.8,0.4,8.5c0.8,2.8,2.3,5.3,4.3,7.3c0.5,0.5,0.7,1.2,0.4,1.9L26.2,55l9.5-1.8l0,0c0.2,0,0.5,0,0.7,0
		c4.8,1,9.5-0.1,13.2-2.6c3.8-2.5,6.6-6.4,7.5-11.1C58.2,34.7,57.1,30,54.7,26.3L54.7,26.3z"/>
</g>
</svg>
