<?xml version="1.0" encoding="utf-8"?>
<!-- Generator: Adobe Illustrator 25.0.0, SVG Export Plug-In . SVG Version: 6.00 Build 0)  -->
<svg version="1.1" id="Layer_1" xmlns="http://www.w3.org/2000/svg" xmlns:xlink="http://www.w3.org/1999/xlink" x="0px" y="0px"
	 viewBox="0 0 74.7 70" style="enable-background:new 0 0 74.7 70;" xml:space="preserve">
<style type="text/css">
	.st0{fill:#42CCCC;}
	.st1{fill-rule:evenodd;clip-rule:evenodd;fill:#005EFF;}
</style>
<g>
	<path class="st0" d="M0,49.2v-5.7c0-1.3,1.1-2.3,2.3-2.3h8l0.3-32.8C10.7,3.8,14.5,0,19.2,0h46.6c4.9,0,8.9,4,8.9,8.9v10.3
		c0,1.3-1,2.3-2.3,2.3H61.6v8.7c-1.5-0.4-3.1-0.7-4.7-0.8l0-20.5c0-1.5,0.4-3,1.1-4.3H19.2c-2.1,0-3.9,1.7-3.9,3.9L15,41.2h20.7
		c-0.8,1.5-1.4,3-1.9,4.6H4.6v3.4c0,3.5,2.9,6.4,6.4,6.4h22.3c0.3,1.6,0.7,3.2,1.3,4.6h-24C4.7,60.1,0,55.2,0,49.2z M70.1,16.9v-8
		c0.1-0.4,0.1-0.8,0-1.1c-0.3-2.3-2.5-4-4.8-3.6c-2.3,0.3-4,2.5-3.6,4.8v8H70.1z"/>
	<rect x="20.3" y="12.9" class="st0" width="16.6" height="4.6"/>
	<rect x="20.3" y="22.2" class="st0" width="30.5" height="4.6"/>
	<path class="st0" d="M20.3,36.1v-4.6H46c-2.5,1.1-4.7,2.7-6.5,4.6H20.3z"/>
	<path class="st1" d="M37.3,51.8c0-10.1,8.1-18.2,18.2-18.2c10,0,18.2,8.1,18.2,18.2c0,10-8.1,18.2-18.2,18.2
		C45.4,70,37.3,61.9,37.3,51.8z M55.6,62.5c0.9-0.3,1.4-1.2,1.1-2.1l-0.8-2.6c0.2-0.2,0.4-0.4,0.5-0.6l5.4,2.8
		c0.8,0.4,1.8,0.1,2.3-0.7c0.4-0.8,0.1-1.8-0.7-2.3L59,54.7c0.6-0.4,1-0.9,1.4-1.6c0.7-1.2,0.9-2.7,0.4-4.3l-1.2-3.8
		c-0.5-1.6-1.5-2.7-2.8-3.3c-1.2-0.6-2.6-0.6-3.9-0.3c-1.2,0.3-2.4,1.1-3.1,2.3c-0.7,1.2-0.9,2.8-0.4,4.4l1.3,4
		c-1,1-1.5,2.5-1.1,3.9c0.5,1.5,1.7,2.4,3.1,2.6l0.8,2.5C53.8,62.3,54.8,62.8,55.6,62.5z M52,55.5c-0.2-0.7,0.2-1.5,0.9-1.8
		c0.7-0.2,1.5,0.2,1.8,0.9c0.2,0.7-0.2,1.5-0.9,1.8C53,56.6,52.2,56.2,52,55.5z M53.9,51.3c0-0.1-0.1-0.2-0.1-0.3l-1.2-3.8
		c-0.5-1.6,0.4-2.3,1.2-2.5c0.8-0.2,2.1-0.1,2.5,1.3l1.2,3.8c0.4,1.4-0.5,2.3-1.3,2.6c-0.1,0-0.1,0-0.2,0.1
		C55.5,51.9,54.8,51.5,53.9,51.3z"/>
</g>
</svg>
