<?xml version="1.0" encoding="utf-8"?>
<!-- Generator: Adobe Illustrator 25.0.0, SVG Export Plug-In . SVG Version: 6.00 Build 0)  -->
<svg version="1.1" id="Layer_1" xmlns="http://www.w3.org/2000/svg" xmlns:xlink="http://www.w3.org/1999/xlink" x="0px" y="0px"
	 viewBox="0 0 64 64" style="enable-background:new 0 0 64 64;" xml:space="preserve">
<style type="text/css">
	.st0{fill-rule:evenodd;clip-rule:evenodd;fill:#005EFF;}
	.st1{fill-rule:evenodd;clip-rule:evenodd;fill:#42CCCC;}
</style>
<g>
	<path class="st0" d="M49,29.6l-14.6-1l-3.1-4.2l-1-3.1l-10.4-1.1v-1h-2.2v-8c0-2.7,2.1-4.8,4.8-4.8h17.9c1.3,0,2.5,0.5,3.4,1.4
		c1.2,1.2,3.3,3.3,4.5,4.5c0.9,0.9,1.4,2.1,1.4,3.4v11.5h-0.9L49,29.6z M45.7,14.4l-4.1-4.1v2.5c0,0.4,0.2,0.8,0.5,1.1
		c0.3,0.3,0.7,0.5,1.1,0.5H45.7z"/>
	<path class="st1" d="M0,59.2V24c0-2.7,2.1-4.8,4.8-4.8h6.4V4.8C11.2,2.1,13.3,0,16,0h43.2c1.3,0,2.5,0.5,3.4,1.4
		C63.5,2.3,64,3.5,64,4.8v52.8c0,3.5-2.8,6.3-6.2,6.4h-53C2.1,64,0,61.9,0,59.2z M51.2,57.6V32c0-0.9-0.7-1.6-1.6-1.6H35.2
		c-1.3,0-2.5-0.5-3.4-1.4c-0.9-0.9-1.4-2.1-1.4-3.4V24c0-0.9-0.7-1.6-1.6-1.6h-24c-0.9,0-1.6,0.7-1.6,1.6v35.2
		c0,0.9,0.7,1.6,1.6,1.6h47.3C51.5,59.9,51.2,58.8,51.2,57.6z M60.8,57.6V4.8c0-0.4-0.2-0.8-0.5-1.1c-0.3-0.3-0.7-0.5-1.1-0.5H16
		c-0.9,0-1.6,0.7-1.6,1.6v14.4h14.4c2.7,0,4.8,2.1,4.8,4.8v1.6c0,0.4,0.2,0.8,0.5,1.1c0.3,0.3,0.7,0.5,1.1,0.5h14.4
		c2.7,0,4.8,2.1,4.8,4.8v25.6c0,1.8,1.4,3.2,3.2,3.2C59.4,60.8,60.8,59.4,60.8,57.6z M6.8,52.5c0-0.9,0.7-1.6,1.6-1.6h36.5
		c0.9,0,1.6,0.7,1.6,1.6s-0.7,1.6-1.6,1.6H8.3C7.5,54.1,6.8,53.4,6.8,52.5z M6.8,46.3c0-0.9,0.7-1.6,1.6-1.6h36.5
		c0.9,0,1.6,0.7,1.6,1.6c0,0.9-0.7,1.6-1.6,1.6H8.3C7.5,47.8,6.8,47.1,6.8,46.3z M6.8,40c0-0.9,0.7-1.6,1.6-1.6h36.5
		c0.9,0,1.6,0.7,1.6,1.6s-0.7,1.6-1.6,1.6H8.3C7.5,41.6,6.8,40.9,6.8,40z M6.4,27.2c0-0.9,0.7-1.6,1.6-1.6h16c0.9,0,1.6,0.7,1.6,1.6
		c0,0.9-0.7,1.6-1.6,1.6H8C7.1,28.8,6.4,28.1,6.4,27.2z"/>
</g>
</svg>
