<?xml version="1.0" encoding="utf-8"?>
<!-- Generator: Adobe Illustrator 25.0.0, SVG Export Plug-In . SVG Version: 6.00 Build 0)  -->
<svg version="1.1" id="Layer_1" xmlns="http://www.w3.org/2000/svg" xmlns:xlink="http://www.w3.org/1999/xlink" x="0px" y="0px"
	 viewBox="0 0 22 22" style="enable-background:new 0 0 22 22;" xml:space="preserve">
<style type="text/css">
	.st0{fill-rule:evenodd;clip-rule:evenodd;fill:#333333;}
</style>
<path class="st0" d="M0.4,21.6c-0.6-0.6-0.6-1.6,0-2.2L8.8,11L0.4,2.6c-0.6-0.6-0.6-1.6,0-2.2C1-0.2,2-0.2,2.6,0.5L11,8.8l8.4-8.4
	c0.6-0.6,1.6-0.6,2.2,0s0.6,1.6,0,2.2L13.2,11l8.4,8.4c0.6,0.6,0.6,1.6,0,2.2s-1.6,0.6-2.2,0L11,13.2l-8.4,8.4
	C2,22.1,1,22.1,0.4,21.6z"/>
</svg>
