<?xml version="1.0" encoding="utf-8"?>
<!-- Generator: Adobe Illustrator 25.0.0, SVG Export Plug-In . SVG Version: 6.00 Build 0)  -->
<svg version="1.1" id="Layer_1" xmlns="http://www.w3.org/2000/svg" xmlns:xlink="http://www.w3.org/1999/xlink" x="0px" y="0px"
	 viewBox="0 0 16 16" style="enable-background:new 0 0 16 16;" xml:space="preserve">
<style type="text/css">
	.st0{fill:#FFFFFF;}
</style>
<path class="st0" d="M7.2,9.6h1.6V8H7.2V9.6z M7.2,8 M8.1,2.8c-0.7,0-1.3,0.1-1.7,0.4C6,3.5,5.8,4,5.8,4.6h1.6
	c0-0.2,0.1-0.4,0.2-0.5c0.2-0.1,0.3-0.2,0.5-0.2c0.3,0,0.5,0.1,0.6,0.2C8.9,4.2,9,4.4,9,4.6c0,0.2-0.1,0.4-0.2,0.6
	C8.7,5.4,8.5,5.6,8.3,5.7C7.9,5.9,7.6,6.1,7.4,6.3C7.3,6.5,7.2,6.8,7.2,7.2h1.6c0-0.2,0-0.4,0.1-0.5C9,6.5,9.1,6.4,9.3,6.3
	c0.4-0.2,0.7-0.4,0.9-0.7c0.2-0.3,0.3-0.6,0.3-1c0-0.6-0.2-1-0.6-1.3C9.5,3,8.9,2.8,8.1,2.8 M1.6,0h12.8C15.3,0,16,0.7,16,1.6v9.6
	c0,0.9-0.7,1.6-1.6,1.6H9.5l-3,3C6.4,15.9,6.2,16,6,16H5.6c-0.5,0-0.8-0.3-0.8-0.8v-2.4H1.6c-0.9,0-1.6-0.7-1.6-1.6V1.6
	C0,0.7,0.7,0,1.6,0L1.6,0z"/>
</svg>
