<?xml version="1.0" encoding="utf-8"?>
<!-- Generator: Adobe Illustrator 25.0.0, SVG Export Plug-In . SVG Version: 6.00 Build 0)  -->
<svg version="1.1" id="Layer_1" xmlns="http://www.w3.org/2000/svg" xmlns:xlink="http://www.w3.org/1999/xlink" x="0px" y="0px"
	 viewBox="0 0 35 35" style="enable-background:new 0 0 35 35;" xml:space="preserve">
<style type="text/css">
	.st0{fill:#005EFF;}
</style>
<path class="st0" d="M15.7,21h3.5v-3.5h-3.5V21z M15.7,17.5 M17.8,6.1c-1.6,0-2.8,0.3-3.7,0.9c-1,0.6-1.5,1.7-1.4,2.9h3.4
	c0-0.5,0.2-0.9,0.5-1.1c0.4-0.3,0.7-0.4,1.2-0.4c0.5,0,1,0.1,1.3,0.5c0.3,0.3,0.5,0.7,0.5,1.2c0,0.5-0.1,0.9-0.4,1.3
	c-0.3,0.4-0.7,0.7-1.1,0.9c-0.9,0.6-1.5,1-1.9,1.5c-0.3,0.4-0.5,1-0.5,1.9h3.5c0-0.5,0.1-0.9,0.3-1.2c0.1-0.3,0.5-0.6,0.9-0.8
	c0.8-0.4,1.5-0.9,2-1.5c0.5-0.6,0.8-1.3,0.8-2.1c0-1.2-0.5-2.2-1.4-2.9C20.8,6.5,19.5,6.1,17.8,6.1 M3.5,0h28C33.4,0,35,1.6,35,3.5
	v21c0,1.9-1.6,3.5-3.5,3.5H20.8l-6.5,6.5C14,34.8,13.6,35,13.1,35h-0.9c-1,0-1.7-0.8-1.7-1.7V28h-7C1.6,28,0,26.4,0,24.5v-21
	C0,1.6,1.6,0,3.5,0L3.5,0z"/>
</svg>
