<?xml version="1.0" encoding="utf-8"?>
<!-- Generator: Adobe Illustrator 25.0.0, SVG Export Plug-In . SVG Version: 6.00 Build 0)  -->
<svg version="1.1" id="Layer_1" xmlns="http://www.w3.org/2000/svg" xmlns:xlink="http://www.w3.org/1999/xlink" x="0px" y="0px"
	 viewBox="0 0 35 35" style="enable-background:new 0 0 35 35;" xml:space="preserve">
<style type="text/css">
	.st0{fill:#005EFF;}
</style>
<path class="st0" d="M4.7,15.7V23l-4.2,4.2c-0.7,0.7-0.7,1.9,0,2.6l4.7,4.7c0.7,0.7,1.9,0.7,2.6,0l0,0l7.8-7.8H23
	c1,0,1.8-0.8,1.8-1.8V23h1.8c1,0,1.8-0.8,1.8-1.8v-1.8h1.8c1,0,1.8-0.8,1.8-1.8v-1.8H19.3v1.8c0,2-1.6,3.7-3.7,3.7H12
	c-2,0-3.7-1.6-3.7-3.7V12L4.7,15.7z M15.7,6.6h5.5l6-6c0.7-0.7,1.9-0.7,2.6,0l0,0l4.7,4.7c0.7,0.7,0.7,1.9,0,2.6L30.3,12H15.7v3.7
	c0,1-0.8,1.8-1.8,1.8S12,16.7,12,15.7v-5.5C12,8.2,13.7,6.6,15.7,6.6L15.7,6.6z"/>
</svg>
