<?xml version="1.0" encoding="utf-8"?>
<!-- Generator: Adobe Illustrator 25.0.0, SVG Export Plug-In . SVG Version: 6.00 Build 0)  -->
<svg version="1.1" id="Layer_1" xmlns="http://www.w3.org/2000/svg" xmlns:xlink="http://www.w3.org/1999/xlink" x="0px" y="0px"
	 viewBox="0 0 35 35" style="enable-background:new 0 0 35 35;" xml:space="preserve">
<style type="text/css">
	.st0{fill:#005EFF;}
</style>
<path class="st0" d="M33.1,24.3c-2.4,0-4.8-0.4-6.9-1.1c-0.7-0.2-1.4-0.1-2,0.5L19.8,28c-5.5-2.8-10-7.3-12.8-12.8l4.3-4.3
	c0.5-0.5,0.7-1.3,0.5-2c-0.7-2.2-1.1-4.5-1.1-6.9C10.7,0.9,9.8,0,8.7,0H1.9C0.9,0,0,0.9,0,1.9C0,20.2,14.8,35,33.1,35
	c1.1,0,1.9-0.9,1.9-1.9v-6.8C35,25.2,34.1,24.3,33.1,24.3 M31.1,17.5H35C35,7.8,27.2,0,17.5,0v3.9C25,3.9,31.1,10,31.1,17.5
	 M23.3,17.5h3.9c0-5.4-4.3-9.7-9.7-9.7v3.9C20.7,11.7,23.3,14.3,23.3,17.5L23.3,17.5z"/>
</svg>
