<?xml version="1.0" encoding="utf-8"?>
<!-- Generator: Adobe Illustrator 25.0.0, SVG Export Plug-In . SVG Version: 6.00 Build 0)  -->
<svg version="1.1" id="Layer_1" xmlns="http://www.w3.org/2000/svg" xmlns:xlink="http://www.w3.org/1999/xlink" x="0px" y="0px"
	 viewBox="0 0 29 20.5" style="enable-background:new 0 0 29 20.5;" xml:space="preserve">
<style type="text/css">
	.st0{fill-rule:evenodd;clip-rule:evenodd;fill:#333333;}
</style>
<g>
	<path class="st0" d="M2.8,19.8v-7.4c0-0.5,0.1-1,0.2-1.5l2.1-7.8c0.4-1.5,1.7-2.6,3.2-2.8C10.5,0.1,11.6,0,14.5,0
		c3,0,4.1,0.1,6.2,0.3c1.5,0.2,2.8,1.3,3.2,2.8l2.1,7.8c0.2,0.5,0.2,1,0.2,1.5v7.4h0c0,0.4-0.3,0.7-0.7,0.7h-3.1
		c-0.3,0-0.6-0.2-0.7-0.5l-0.6-2.4H8L7.4,20c-0.1,0.3-0.4,0.5-0.7,0.5H3.6C3.1,20.5,2.8,20.2,2.8,19.8z M8.7,12.5
		c0-1.2-1-2.2-2.2-2.2s-2.2,1-2.2,2.2c0,1.2,1,2.2,2.2,2.2S8.7,13.7,8.7,12.5z M24.8,12.5c0-1.2-1-2.2-2.2-2.2c-1.2,0-2.2,1-2.2,2.2
		c0,1.2,1,2.2,2.2,2.2C23.8,14.7,24.8,13.7,24.8,12.5z M0,7.5V6.3c0.1-0.3,0.2-0.5,0.6-0.6h1.8c0.5,0,0.7,0.5,0.6,1l-0.2,1
		C2.1,8.9,0.4,8.6,0,7.5z M26.2,7.7l-0.2-1c-0.1-0.5,0.1-1,0.6-1h1.8c0.3,0.1,0.5,0.3,0.6,0.6v1.2C28.6,8.6,26.9,8.9,26.2,7.7z
		 M7.8,7.8c2.3-0.3,3.8-0.5,6.7-0.5s4.5,0.2,6.7,0.5c0.5,0.1,1.6,0.3,2.1,0.5l-1.3-4.5c-0.2-0.9-1-1.6-2-1.7
		c-2.1-0.3-2.6-0.3-5.6-0.3S11,1.9,9,2.2C8.1,2.3,7.3,3,7,3.9L5.8,8.4C6.2,8.1,7.3,7.9,7.8,7.8z"/>
</g>
</svg>
