<?xml version="1.0" encoding="utf-8"?>
<!-- Generator: Adobe Illustrator 25.0.0, SVG Export Plug-In . SVG Version: 6.00 Build 0)  -->
<svg version="1.1" id="Layer_1" xmlns="http://www.w3.org/2000/svg" xmlns:xlink="http://www.w3.org/1999/xlink" x="0px" y="0px"
	 viewBox="0 0 39.2 35" style="enable-background:new 0 0 39.2 35;" xml:space="preserve">
<style type="text/css">
	.st0{fill:#005EFF;}
</style>
<g>
	<path class="st0" d="M32.4,34.7l0.3-0.5l6.5-33.7l0-0.2c0-0.1,0-0.1,0-0.2L39.1,0L39,0c-0.1,0-0.4,0-1,0.3L0.4,15.4l-0.2,0.3
		C0,15.9,0,16.1,0.1,16.3l0.2,0.3l9.7,3.7c0.1,0.1,0.3,0.2,0.4,0.3L33.2,5.3L15.3,24l-1.1,8.3l0.1,0.1c0.1,0.3,0.2,0.5,0.5,0.5h0.1
		l5.3-5.5c0.3-0.3,0.8-0.3,1.1-0.1l9.4,7.3l-0.1,0C31.5,35.1,32,35.1,32.4,34.7z"/>
</g>
</svg>
