<?xml version="1.0" encoding="utf-8"?>
<!-- Generator: Adobe Illustrator 25.0.0, SVG Export Plug-In . SVG Version: 6.00 Build 0)  -->
<svg version="1.1" id="Layer_1" xmlns="http://www.w3.org/2000/svg" xmlns:xlink="http://www.w3.org/1999/xlink" x="0px" y="0px"
	 viewBox="0 0 24 24" style="enable-background:new 0 0 24 24;" xml:space="preserve">
<style type="text/css">
	.st0{fill-rule:evenodd;clip-rule:evenodd;fill:#333333;}
</style>
<g>
	<path class="st0" d="M5.2,19.5c1.3,0,2.3-1,2.3-2.3S6.5,15,5.2,15C4,15,3,16,3,17.3S4,19.5,5.2,19.5 M18.7,19.5
		c1.2,0,2.3-1,2.3-2.3S20,15,18.7,15s-2.3,1-2.3,2.3S17.5,19.5,18.7,19.5 M12,3C8.6,3,6.1,3.4,4.3,4.1C3.8,4.3,3.4,4.8,3.4,5.4
		L3,11.4c0,0.4,0.3,0.7,0.6,0.7c1.2,0.2,4,0.3,8.4,0.3c4.3,0,7.1-0.1,8.4-0.3c0.4-0.1,0.6-0.4,0.6-0.7l-0.4-6.1
		c0-0.6-0.4-1.1-0.9-1.3C17.9,3.4,15.4,3,12,3 M22.5,10.5v12.7c0,0.4-0.3,0.7-0.7,0.7h-3.2c-0.3,0-0.7-0.2-0.7-0.6L17.2,21H6.7
		l-0.6,2.4C6.1,23.8,5.8,24,5.4,24H2.2c-0.4,0-0.7-0.3-0.7-0.7V10.5L0.4,10C0.2,9.8,0,9.6,0,9.3V6c0-0.8,0.7-1.5,1.5-1.5V3.6
		c0-1.3,0.8-2.5,2.1-2.9C5.1,0.2,7.9,0,12,0s6.9,0.2,8.4,0.7c1.2,0.4,2.1,1.6,2.1,2.9v0.9C23.3,4.5,24,5.2,24,6v3.3
		c0,0.3-0.2,0.5-0.4,0.7L22.5,10.5z"/>
</g>
</svg>
