<?xml version="1.0" encoding="utf-8"?>
<!-- Generator: Adobe Illustrator 25.0.0, SVG Export Plug-In . SVG Version: 6.00 Build 0)  -->
<svg version="1.1" id="Layer_1" xmlns="http://www.w3.org/2000/svg" xmlns:xlink="http://www.w3.org/1999/xlink" x="0px" y="0px"
	 viewBox="0 0 110 33" style="enable-background:new 0 0 110 33;" xml:space="preserve">
<style type="text/css">
	.st0{fill-rule:evenodd;clip-rule:evenodd;fill:#005EFF;}
</style>
<g>
	<path class="st0" d="M64,30.8c-0.9-0.8-0.9-2.1-0.2-2.9c0.7-0.9,2.1-0.9,2.9-0.2c2,1.7,3.7,1.2,4.5,0.5c0.7-0.7,1.1-2.2-0.8-3.8
		c0,0-0.1-0.1-0.1-0.1L66,19.7l-0.5-0.5c-2.9-3.1-2.7-6.9-0.3-9.3c2.5-2.5,6.7-2.8,10.2,0.3c0.9,0.8,0.9,2.1,0.2,2.9
		c-0.8,0.9-2.1,0.9-2.9,0.2c-2-1.7-3.7-1.2-4.5-0.5c-0.7,0.7-1.1,2.2,0.8,3.8c0,0,0.1,0.1,0.1,0.1l4.4,4.5l0.5,0.5
		c2.9,3.1,2.7,6.9,0.3,9.3C71.8,33.5,67.5,33.9,64,30.8z M10.3,32.3l-6.1-6.1v4.7c0,1.1-0.9,2.1-2.1,2.1S0,31.9,0,30.8v-17
		c0-2.1,0.8-3.9,2.1-5.1c1.3-1.2,3-1.7,4.5-1.6c1.6,0,3.2,0.6,4.4,1.8c1.3,1.2,2.1,2.9,2.1,4.9v4.9c0,2-0.8,3.7-2.1,4.9
		c-0.7,0.6-1.4,1-2.2,1.3l4.3,4.4c0.8,0.8,0.8,2.1,0,2.9C12.4,33.1,11.1,33.1,10.3,32.3z M106.5,32.3l-6.2-6.1v4.7
		c0,1.1-0.9,2.1-2.1,2.1c-1.2,0-2.1-0.9-2.1-2.1v-17c0-2.1,0.8-3.9,2.1-5.1c1.3-1.2,3-1.7,4.5-1.6c1.6,0,3.2,0.6,4.4,1.8
		c1.3,1.2,2.1,2.9,2.1,4.9v4.9c0,2-0.8,3.7-2.1,4.9c-0.6,0.6-1.4,1-2.2,1.3l4.4,4.4c0.8,0.8,0.8,2.1,0,2.9
		C108.6,33.1,107.3,33.1,106.5,32.3z M42.5,32.9l-3.9,0l-0.3,0c-1.1,0-2.1-0.9-2.1-2.1V9.2c0-1.2,0.9-2.1,2.1-2.1l0.3,0l3.9,0
		c1.6-0.1,3.3,0.5,4.7,1.6c1.4,1.2,2.2,2.9,2.2,5v12.4c0,2.1-0.9,3.9-2.2,5C45.8,32.4,44.1,32.9,42.5,32.9z M18.2,30.8v-17
		c0-2.1,0.8-3.9,2.1-5.1c1.3-1.2,3-1.7,4.5-1.6c1.6,0,3.2,0.6,4.4,1.8c1.3,1.2,2.1,2.9,2.1,4.9v17c0,1.1-0.9,2.1-2.1,2.1
		c-1.1,0-2.1-0.9-2.1-2.1v-5.4h-4.9v5.4c0,1.1-0.9,2.1-2.1,2.1C19.2,32.9,18.2,31.9,18.2,30.8z M83.9,30.8V11.2h-2.7
		c-1.1,0-2.1-0.9-2.1-2.1s0.9-2.1,2.1-2.1h9.6c1.1,0,2.1,0.9,2.1,2.1s-0.9,2.1-2.1,2.1h-2.7v19.6c0,1.1-0.9,2.1-2.1,2.1
		S83.9,31.9,83.9,30.8z M54.2,30.8V12.4c-1.5-0.8-2.6-2.4-2.6-4.2c0-1.8,1.1-3.4,2.6-4.2V2.1c0-1.1,0.9-2.1,2.1-2.1
		c1.1,0,2.1,0.9,2.1,2.1V4C59.9,4.8,61,6.4,61,8.2s-1.1,3.5-2.6,4.2v18.3c0,1.1-0.9,2.1-2.1,2.1C55.1,32.9,54.2,31.9,54.2,30.8z
		 M44.5,28.1c0.4-0.4,0.8-1,0.8-1.9V13.8c0-0.9-0.4-1.5-0.8-1.9c-0.5-0.4-1.2-0.6-1.9-0.6l-2.2,0v17.4l2.2,0
		C43.3,28.7,44,28.5,44.5,28.1z M27.3,21.3v-7.5c0-1.8-1.4-2.5-2.5-2.5c-1.1,0-2.4,0.5-2.4,2.5v7.5H27.3z M8.3,20.6
		c0.4-0.4,0.7-1,0.7-1.9v-4.9c0-1.8-1.4-2.5-2.5-2.5c-1.1,0-2.4,0.5-2.4,2.5v4.9c0,2.1,1.3,2.5,2.4,2.5C7.2,21.2,7.8,21,8.3,20.6z
		 M104.4,20.6c0.4-0.4,0.7-1,0.7-1.9v-4.9c0-1.8-1.4-2.5-2.5-2.5c-1.1,0-2.4,0.5-2.4,2.5v4.9c0,2.1,1.4,2.5,2.4,2.5
		C103.4,21.2,104,21,104.4,20.6z M58,8.2c0-0.9-0.7-1.7-1.7-1.7c-0.9,0-1.7,0.8-1.7,1.7c0,0.9,0.7,1.7,1.7,1.7
		C57.2,9.9,58,9.1,58,8.2z"/>
</g>
</svg>
