<?xml version="1.0" encoding="utf-8"?>
<!-- Generator: Adobe Illustrator 25.0.0, SVG Export Plug-In . SVG Version: 6.00 Build 0)  -->
<svg version="1.1" id="Layer_1" xmlns="http://www.w3.org/2000/svg" xmlns:xlink="http://www.w3.org/1999/xlink" x="0px" y="0px"
	 viewBox="0 0 35 36" style="enable-background:new 0 0 35 36;" xml:space="preserve">
<style type="text/css">
	.st0{fill:#005EFF;}
</style>
<path class="st0" d="M30.9,19.7c0.1-0.6,0.1-1.1,0.1-1.7c0-0.6-0.1-1.2-0.1-1.8l3.8-2.9c0.3-0.3,0.4-0.8,0.2-1.1l-3.6-6.2
	c-0.2-0.4-0.7-0.6-1.1-0.4l-4.5,1.8c-0.9-0.7-1.9-1.3-3.1-1.8L22,0.8C21.9,0.3,21.6,0,21.1,0h-7.2c-0.5,0-0.8,0.3-0.9,0.8l-0.7,4.8
	c-1.1,0.4-2.1,1.1-3,1.8L4.8,5.5c-0.4-0.2-0.9,0-1.1,0.4l-3.6,6.2C-0.1,12.5,0,13,0.3,13.3l3.8,2.9C4.1,16.8,4,17.4,4,18
	c0,0.6,0.1,1.2,0.1,1.7l-3.8,3C0,23-0.1,23.5,0.1,23.9l3.6,6.2c0.2,0.4,0.7,0.5,1.1,0.4l4.5-1.8c0.9,0.7,1.9,1.3,3,1.8l0.7,4.8
	c0.1,0.4,0.5,0.8,0.9,0.8h7.2c0.5,0,0.8-0.3,0.9-0.8l0.7-4.8c1.1-0.5,2.1-1.1,3.1-1.8l4.5,1.8c0.4,0.1,0.9,0,1.1-0.4l3.6-6.2
	c0.2-0.4,0.1-0.9-0.2-1.2L30.9,19.7z M17.5,24.3c-3.5,0-6.3-2.8-6.3-6.3s2.8-6.3,6.3-6.3s6.3,2.8,6.3,6.3S21,24.3,17.5,24.3
	L17.5,24.3z"/>
</svg>
