<?xml version="1.0" encoding="utf-8"?>
<!-- Generator: Adobe Illustrator 25.0.0, SVG Export Plug-In . SVG Version: 6.00 Build 0)  -->
<svg version="1.1" id="Layer_1" xmlns="http://www.w3.org/2000/svg" xmlns:xlink="http://www.w3.org/1999/xlink" x="0px" y="0px"
	 viewBox="0 0 27.4 24" style="enable-background:new 0 0 27.4 24;" xml:space="preserve">
<style type="text/css">
	.st0{fill:#BD0000;}
</style>
<path class="st0" d="M7.2,23.7c-0.2-0.2-0.3-0.5-0.3-0.8v-4H1.1c-0.3,0-0.6-0.1-0.8-0.3C0.1,18.3,0,18,0,17.7V6.3
	C0,6,0.1,5.7,0.3,5.5c0.2-0.2,0.5-0.3,0.8-0.3h5.7v-4c0-0.3,0.1-0.6,0.3-0.8C7.4,0.1,7.7,0,8,0h18.3c0.3,0,0.6,0.1,0.8,0.3
	c0.2,0.2,0.3,0.5,0.3,0.8v21.7c0,0.3-0.1,0.6-0.3,0.8c-0.2,0.2-0.5,0.3-0.8,0.3H8C7.7,24,7.4,23.9,7.2,23.7z M25.7,22.3v-3.4H8.6
	v3.4H25.7z M21.6,17v-3.2H24v-2.6h-2.5V9.6H24V7.1h-5V17H21.6z M5.2,16.9v-3.3h1.7c1.3,0,2.4-1.1,2.4-2.4V9.6c0-1.3-1.1-2.4-2.4-2.4
	h-4v9.6H5.2z M17.4,14.5V9.6c0-1.3-1.1-2.4-2.4-2.4h-4v9.6h4C16.3,16.9,17.4,15.8,17.4,14.5z M13.4,14.5V9.6H15v4.9H13.4z M5.2,11.3
	V9.6h1.6v1.6H5.2z M25.7,5.1V1.7H8.6v3.4H25.7z"/>
</svg>
