<?xml version="1.0" encoding="utf-8"?>
<!-- Generator: Adobe Illustrator 25.0.0, SVG Export Plug-In . SVG Version: 6.00 Build 0)  -->
<svg version="1.1" id="Layer_1" xmlns="http://www.w3.org/2000/svg" xmlns:xlink="http://www.w3.org/1999/xlink" x="0px" y="0px"
	 viewBox="0 0 27.4 24" style="enable-background:new 0 0 27.4 24;" xml:space="preserve">
<style type="text/css">
	.st0{fill:#005EFF;}
</style>
<path class="st0" d="M25.7,1.7H8.6v3.4h17.1V1.7z M25.7,5.1 M25.7,11.1V6.9h-12v4.3 M25.7,17.1v-4.3h-12v4.3 M25.7,22.3v-3.4H8.6
	v3.4 M6.9,11.1l1.6,5.4h1.9l1.8-9h-1.9l-1.1,5.3L7.7,7.7H6.2l-1.6,5.2L3.5,7.5h-2l1.8,9h1.9 M26.3,0c0.3,0,0.6,0.1,0.8,0.3
	c0.2,0.2,0.3,0.5,0.3,0.8v21.7c0,0.3-0.1,0.6-0.3,0.8c-0.2,0.2-0.5,0.3-0.8,0.3H8c-0.3,0-0.6-0.1-0.8-0.3c-0.2-0.2-0.3-0.5-0.3-0.8
	v-4H1.1c-0.3,0-0.6-0.1-0.8-0.3C0.1,18.3,0,18,0,17.7V6.3C0,6,0.1,5.7,0.3,5.5c0.2-0.2,0.5-0.3,0.8-0.3h5.7v-4
	c0-0.3,0.1-0.6,0.3-0.8C7.4,0.1,7.7,0,8,0H26.3z"/>
</svg>
