<?xml version="1.0" encoding="utf-8"?>
<!-- Generator: Adobe Illustrator 25.0.0, SVG Export Plug-In . SVG Version: 6.00 Build 0)  -->
<svg version="1.1" id="Layer_1" xmlns="http://www.w3.org/2000/svg" xmlns:xlink="http://www.w3.org/1999/xlink" x="0px" y="0px"
	 viewBox="0 0 190 42" style="enable-background:new 0 0 190 42;" xml:space="preserve">
<style type="text/css">
	.st0{fill-rule:evenodd;clip-rule:evenodd;fill:url(#SVGID_1_);}
</style>
<linearGradient id="SVGID_1_" gradientUnits="userSpaceOnUse" x1="70.3733" y1="20.98" x2="164.5373" y2="20.98">
	<stop  offset="0" style="stop-color:#0078E3"/>
	<stop  offset="1" style="stop-color:#42CCCC"/>
</linearGradient>
<path class="st0" d="M166.2,40.8c-1.5-1.5-1.5-4.1,0-5.6l10.3-10.3H29c-1.5,3.5-5,6-9.1,6c-4.1,0-7.6-2.5-9.1-6H4c-2.2,0-4-1.8-4-4
	s1.8-4,4-4h6.7c1.5-3.5,5-6,9.1-6c4.1,0,7.6,2.5,9.1,6h147.5L166.2,6.8c-1.5-1.5-1.5-4.1,0-5.6c1.6-1.5,4.1-1.5,5.6,0l17,17
	c1.5,1.5,1.5,4.1,0,5.6l-17,17C170.3,42.3,167.8,42.3,166.2,40.8z M23.9,21c0-2.3-1.8-4.1-4.1-4.1s-4.1,1.8-4.1,4.1s1.8,4.1,4.1,4.1
	S23.9,23.3,23.9,21z"/>
</svg>
