<?xml version="1.0" encoding="utf-8"?>
<!-- Generator: Adobe Illustrator 25.0.0, SVG Export Plug-In . SVG Version: 6.00 Build 0)  -->
<svg version="1.1" id="Layer_1" xmlns="http://www.w3.org/2000/svg" xmlns:xlink="http://www.w3.org/1999/xlink" x="0px" y="0px"
	 viewBox="0 0 33.6 112" style="enable-background:new 0 0 33.6 112;" xml:space="preserve">
<style type="text/css">
	.st0{fill-rule:evenodd;clip-rule:evenodd;fill:#005EFF;}
</style>
<g>
	<path class="st0" d="M31.3,46.8c-0.8,0.9-2.1,1-3,0.2c-0.9-0.8-1-2.1-0.2-3c1.8-2,1.3-3.8,0.5-4.6c-0.7-0.7-2.2-1.1-3.9,0.8
		c0,0-0.1,0.1-0.1,0.1L20,44.8l-0.5,0.5c-3.1,3-7,2.7-9.5,0.3c-2.5-2.5-2.8-6.8,0.3-10.3c0.8-0.9,2.1-1,3-0.2c0.9,0.8,1,2.1,0.2,3
		c-1.8,2-1.3,3.8-0.5,4.6c0.7,0.7,2.2,1.2,3.9-0.8c0,0,0.1-0.1,0.1-0.1l4.6-4.5l0.5-0.5c3.1-3,7-2.7,9.4-0.3
		C34.1,38.9,34.5,43.2,31.3,46.8z M32.8,101.5l-6.3,6.3h4.8c1.2,0,2.1,0.9,2.1,2.1s-0.9,2.1-2.1,2.1H14.1c-2.2,0-3.9-0.8-5.1-2.1
		c-1.2-1.3-1.7-3-1.6-4.6c0.1-1.6,0.6-3.2,1.8-4.5c1.2-1.3,2.9-2.1,5-2.1h5c2.1,0,3.8,0.8,5,2.1c0.6,0.7,1.1,1.4,1.4,2.2l4.4-4.4
		c0.8-0.8,2.2-0.8,3,0C33.7,99.4,33.7,100.7,32.8,101.5z M32.8,3.6l-6.3,6.3h4.8c1.2,0,2.1,0.9,2.1,2.1c0,1.2-0.9,2.1-2.1,2.1H14.1
		c-2.2,0-3.9-0.8-5.1-2.1c-1.2-1.3-1.7-3-1.6-4.6c0.1-1.6,0.6-3.2,1.8-4.5c1.2-1.3,2.9-2.1,5-2.1h5c2.1,0,3.8,0.8,5,2.1
		c0.6,0.7,1.1,1.4,1.4,2.2l4.4-4.4c0.8-0.8,2.2-0.8,3,0C33.7,1.4,33.7,2.8,32.8,3.6z M33.5,68.7l0,4l0,0.3c0,1.2-0.9,2.1-2.1,2.1
		h-22c-1.2,0-2.1-0.9-2.1-2.1l0-0.3l0-4c0-1.7,0.5-3.4,1.7-4.7c1.2-1.4,3-2.3,5.1-2.3h12.6c2.2,0,3.9,0.9,5.1,2.3
		C33,65.3,33.5,67.1,33.5,68.7z M31.3,93.4H14.1c-2.2,0-3.9-0.8-5.1-2.1c-1.2-1.3-1.7-3-1.6-4.6c0.1-1.6,0.6-3.2,1.8-4.5
		c1.2-1.3,2.9-2.1,5-2.1h17.3c1.2,0,2.1,0.9,2.1,2.1s-0.9,2.1-2.1,2.1h-5.5v5h5.5c1.2,0,2.1,0.9,2.1,2.1
		C33.5,92.5,32.5,93.4,31.3,93.4z M31.3,26.5H11.4v2.8c0,1.2-0.9,2.1-2.1,2.1c-1.2,0-2.1-0.9-2.1-2.1v-9.8c0-1.2,0.9-2.1,2.1-2.1
		c1.2,0,2.1,0.9,2.1,2.1v2.8h19.9c1.2,0,2.1,0.9,2.1,2.1C33.5,25.6,32.5,26.5,31.3,26.5z M31.3,56.8H12.6c-0.8,1.6-2.4,2.7-4.3,2.7
		s-3.5-1.1-4.3-2.7h-2c-1.2,0-2.1-0.9-2.1-2.1c0-1.2,0.9-2.1,2.1-2.1h2c0.8-1.6,2.4-2.7,4.3-2.7s3.5,1.1,4.3,2.7h18.7
		c1.2,0,2.1,0.9,2.1,2.1C33.5,55.9,32.5,56.8,31.3,56.8z M28.6,66.7c-0.4-0.4-1-0.8-1.9-0.8H14.1c-0.9,0-1.6,0.4-1.9,0.8
		c-0.4,0.5-0.7,1.2-0.6,1.9l0,2.2h17.7l0-2.2C29.3,67.9,29,67.2,28.6,66.7z M21.7,84.3h-7.6c-1.9,0-2.5,1.4-2.6,2.5
		c0,1.1,0.5,2.4,2.6,2.4h7.6V84.3z M21,103.6c-0.4-0.4-1-0.7-1.9-0.7h-5c-1.9,0-2.5,1.4-2.6,2.5c0,1.1,0.5,2.4,2.6,2.4h5
		c2.1,0,2.6-1.4,2.6-2.4C21.6,104.7,21.4,104,21,103.6z M21,5.7c-0.4-0.4-1-0.7-1.9-0.7h-5c-1.9,0-2.5,1.4-2.6,2.5
		c0,1.1,0.5,2.4,2.6,2.4h5c2.1,0,2.6-1.4,2.6-2.4C21.6,6.7,21.4,6.1,21,5.7z M8.4,53c-0.9,0-1.7,0.8-1.7,1.7c0,0.9,0.8,1.7,1.7,1.7
		c0.9,0,1.7-0.8,1.7-1.7C10.1,53.7,9.3,53,8.4,53z"/>
</g>
</svg>
