<?xml version="1.0" encoding="utf-8"?>
<!-- Generator: Adobe Illustrator 25.0.0, SVG Export Plug-In . SVG Version: 6.00 Build 0)  -->
<svg version="1.1" id="Layer_1" xmlns="http://www.w3.org/2000/svg" xmlns:xlink="http://www.w3.org/1999/xlink" x="0px" y="0px"
	 viewBox="0 0 80 97.6" style="enable-background:new 0 0 80 97.6;" xml:space="preserve">
<style type="text/css">
	.st0{fill:#24BD85;}
</style>
<path class="st0" d="M53,97.6l-2.5-7.3l-7.3,2.5l5.3-10.9c-1.7-2.2-2.8-5-2.8-8c0-7,5.7-12.8,12.8-12.8c7,0,12.8,5.7,12.8,12.8
	c0,3-1,5.8-2.8,8l5.3,10.9l-7.3-2.5l-2.5,7.3l-5.6-10.9L53,97.6z M29.7,80.5l-1.5-10.9c-2.6-1-4.8-2.4-6.9-4.1L11,69.7
	c-0.9,0.3-2,0-2.5-0.9L0.3,54.6c-0.5-0.9-0.3-2,0.5-2.6l8.7-6.8c-0.2-1.3-0.3-2.6-0.3-4s0.1-2.7,0.3-4.1l-8.7-6.7
	c-0.8-0.6-1-1.7-0.5-2.6l8.2-14.2c0.5-0.9,1.6-1.3,2.5-0.9l10.2,4.1c2.1-1.6,4.4-3,6.9-4l1.5-10.9c0.2-1,1-1.7,2.1-1.7h16.4
	c1,0,1.9,0.7,2.1,1.7l1.5,10.9c2.6,1,4.8,2.4,7,4L69,12.5c0.9-0.4,2,0,2.5,0.9l8.2,14.2c0.5,0.9,0.3,2-0.5,2.6L70.6,37
	c0.2,1.4,0.3,2.8,0.3,4.1s-0.1,2.7-0.3,4l8.7,6.8c0.8,0.6,1,1.7,0.5,2.6l-6,10.3c-3.1-5.3-8.8-8.8-15.4-8.8c-9.8,0-17.8,8-17.8,17.8
	c0,2.6,0.6,5.1,1.6,7.4l0.5,0.9l0,0H31.8C30.8,82.2,29.9,81.5,29.7,80.5z M53.9,81.8l4.6-3l4.5,3l-0.3-5.5l4.9-2.4l-4.9-2.5L63,66
	l-4.5,3l-4.6-3l0.3,5.5l-4.9,2.4l4.9,2.4L53.9,81.8z M54.4,41.1c0-7.9-6.4-14.4-14.4-14.4s-14.4,6.4-14.4,14.4
	c0,8,6.4,14.4,14.4,14.4S54.4,49.1,54.4,41.1z"/>
</svg>
