<?xml version="1.0" encoding="utf-8"?>
<!-- Generator: Adobe Illustrator 25.0.0, SVG Export Plug-In . SVG Version: 6.00 Build 0)  -->
<svg version="1.1" id="Layer_1" xmlns="http://www.w3.org/2000/svg" xmlns:xlink="http://www.w3.org/1999/xlink" x="0px" y="0px"
	 viewBox="0 0 80 80" style="enable-background:new 0 0 80 80;" xml:space="preserve">
<style type="text/css">
	.st0{fill-rule:evenodd;clip-rule:evenodd;fill:#42CCCC;}
</style>
<path class="st0" d="M74.5,42.8c0-0.8-0.6-1.4-1.4-1.4H60.7c-0.8,0-1.4,0.6-1.4,1.4c0,0.8,0.6,1.4,1.4,1.4h12.4
	C73.9,44.1,74.5,43.5,74.5,42.8 M74.5,49.7c0-0.8-0.6-1.4-1.4-1.4H60.7c-0.8,0-1.4,0.6-1.4,1.4c0,0.8,0.6,1.4,1.4,1.4h12.4
	C73.9,51,74.5,50.4,74.5,49.7 M74.5,56.5c0-0.8-0.6-1.4-1.4-1.4H57.9c-0.8,0-1.4,0.6-1.4,1.4c0,0.8,0.6,1.4,1.4,1.4h15.2
	C73.9,57.9,74.5,57.3,74.5,56.5 M74.5,63.4c0-0.8-0.6-1.4-1.4-1.4H57.9c-0.8,0-1.4,0.6-1.4,1.4c0,0.8,0.6,1.4,1.4,1.4h15.2
	C73.9,64.8,74.5,64.2,74.5,63.4 M74.5,70.3c0-0.8-0.6-1.4-1.4-1.4H57.9c-0.8,0-1.4,0.6-1.4,1.4c0,0.8,0.6,1.4,1.4,1.4h15.2
	C73.9,71.7,74.5,71.1,74.5,70.3 M53.8,56.5c0-0.8-0.6-1.4-1.4-1.4h-6.9c-0.8,0-1.4,0.6-1.4,1.4c0,0.8,0.6,1.4,1.4,1.4h6.9
	C53.2,57.9,53.8,57.3,53.8,56.5 M53.8,63.4c0-0.8-0.6-1.4-1.4-1.4h-6.9c-0.8,0-1.4,0.6-1.4,1.4c0,0.8,0.6,1.4,1.4,1.4h6.9
	C53.2,64.8,53.8,64.2,53.8,63.4 M53.8,70.3c0-0.8-0.6-1.4-1.4-1.4h-6.9c-0.8,0-1.4,0.6-1.4,1.4c0,0.8,0.6,1.4,1.4,1.4h6.9
	C53.2,71.7,53.8,71.1,53.8,70.3 M44.1,51h12.4v-1.4c0-1.1-0.4-2.1-1.2-2.9c-0.8-0.8-1.8-1.2-2.9-1.2h-4.1c-1.1,0-2.2,0.4-2.9,1.2
	c-0.8,0.8-1.2,1.8-1.2,2.9V51z M46.9,40.7c0,1.4,0.9,2.7,2.1,3.2c1.3,0.5,2.8,0.2,3.8-0.7c1-1,1.3-2.5,0.7-3.8
	c-0.5-1.3-1.8-2.1-3.2-2.1C48.4,37.2,46.9,38.8,46.9,40.7 M80,38.9v36.9c0,1.1-0.4,2.1-1.2,2.9C78,79.6,77,80,75.9,80H42.8
	c-1.1,0-2.1-0.4-2.9-1.2c-0.8-0.8-1.2-1.8-1.2-2.9V31.7c0-1.1,0.4-2.1,1.2-2.9c0.8-0.8,1.8-1.2,2.9-1.2h25.9c0.1,0,0.2,0,0.3,0v5.5
	c0,1.5,0.6,2.9,1.6,3.9c1,1,2.4,1.6,3.9,1.6H80C80,38.7,80,38.8,80,38.9L80,38.9z M20.7,42.8v-8.3h-5.5v8.3c0,1.5,1.2,2.8,2.8,2.8
	C19.5,45.5,20.7,44.3,20.7,42.8 M66.2,24.8v-8.3c0-1.5-1.2-2.7-2.8-2.8H2.8C1.2,13.8,0,15,0,16.5v13.8c0,4.6,3.7,8.3,8.3,8.3h4.1
	v-5.5c0-0.8,0.6-1.4,1.4-1.4h8.3c0.8,0,1.4,0.6,1.4,1.4v5.5h12.4v-6.9c0-3.8,3.1-6.9,6.9-6.9H66.2z M74.5,35.9h4.1L71.7,29v4.1
	C71.7,34.6,73,35.9,74.5,35.9 M23.5,42.8c0,3-2.5,5.5-5.5,5.5s-5.5-2.5-5.5-5.5v-1.4H8.3c-1.9,0-3.8-0.5-5.5-1.5v20.8
	c0,1.5,0.6,2.9,1.6,3.9c1,1,2.4,1.6,3.9,1.6h27.6V41.4H23.5V42.8z M26.2,11h-5.5V5.5c0-1.5,0.6-2.9,1.6-3.9c1-1,2.4-1.6,3.9-1.6H40
	c1.5,0,2.9,0.6,3.9,1.6c1,1,1.6,2.4,1.6,3.9V11H40V5.5H26.2V11z"/>
</svg>
