<?xml version="1.0" encoding="utf-8"?>
<!-- Generator: Adobe Illustrator 25.0.0, SVG Export Plug-In . SVG Version: 6.00 Build 0)  -->
<svg version="1.1" id="Layer_1" xmlns="http://www.w3.org/2000/svg" xmlns:xlink="http://www.w3.org/1999/xlink" x="0px" y="0px"
	 viewBox="0 0 720 42" style="enable-background:new 0 0 720 42;" xml:space="preserve">
<style type="text/css">
	.st0{fill-rule:evenodd;clip-rule:evenodd;fill:url(#SVGID_1_);}
</style>
<linearGradient id="SVGID_1_" gradientUnits="userSpaceOnUse" x1="100.5129" y1="20.9757" x2="194.6577" y2="20.9757">
	<stop  offset="0" style="stop-color:#0078E3"/>
	<stop  offset="1" style="stop-color:#42CCCC"/>
</linearGradient>
<path class="st0" d="M696.2,40.8c-1.5-1.5-1.5-4.1,0-5.6l10.3-10.3H108.1c-1.5,3.5-5.1,6-9.1,6s-7.6-2.5-9.1-6H0V17h89.8
	c1.5-3.5,5.1-6,9.1-6s7.6,2.5,9.1,6h598.4L696.2,6.8c-1.5-1.5-1.5-4.1,0-5.6c1.5-1.5,4.1-1.5,5.6,0l17,17c1.5,1.5,1.5,4.1,0,5.6
	l-17,17C700.3,42.3,697.8,42.3,696.2,40.8z M103.1,21c0-2.3-1.8-4.1-4.1-4.1s-4.1,1.8-4.1,4.1s1.8,4.1,4.1,4.1S103.1,23.2,103.1,21z
	"/>
</svg>
