<?xml version="1.0" encoding="utf-8"?>
<!-- Generator: Adobe Illustrator 25.0.0, SVG Export Plug-In . SVG Version: 6.00 Build 0)  -->
<svg version="1.1" id="Layer_1" xmlns="http://www.w3.org/2000/svg" xmlns:xlink="http://www.w3.org/1999/xlink" x="0px" y="0px"
	 viewBox="0 0 54 84.2" style="enable-background:new 0 0 54 84.2;" xml:space="preserve">
<style type="text/css">
	.st0{opacity:0.6;fill-rule:evenodd;clip-rule:evenodd;fill:#FFFFFF;}
</style>
<path class="st0" d="M42.4,82.2L25,64.8c-0.8,0.7-1.7,1.2-2.7,1.7v10.9c0,3.7-3,6.8-6.8,6.8c-3.8,0-6.8-3-6.8-6.8V66.7
	C3.6,64.2,0,58.9,0,52.8s3.6-11.4,8.8-13.9V21.8c0-6.9,2.5-12.6,6.9-16.5c4.2-3.8,9.7-5.4,14.8-5.3C35.6,0.2,40.9,2,45,5.8
	c4.2,3.8,6.8,9.4,6.8,16V38c0,6.7-2.6,12.2-6.8,16c-2.1,2-4.6,3.4-7.2,4.4L52,72.6c2.6,2.6,2.6,6.9,0,9.6
	C49.4,84.8,45.1,84.8,42.4,82.2z M21,52.8c0-3.1-2.5-5.6-5.6-5.6s-5.6,2.5-5.6,5.6c0,3.1,2.5,5.6,5.6,5.6S21,55.9,21,52.8z M38.3,38
	V21.8c0-6-4.6-8.1-8.2-8.3c-3.4-0.1-7.8,1.5-7.8,8.3V38c0,0.4,0,0.8,0,1.1c3,1.5,5.4,4,6.9,7.1c0.3,0,0.6,0,0.9,0
	C33.6,46.1,38.3,44,38.3,38z"/>
</svg>
