<?xml version="1.0" encoding="utf-8"?>
<!-- Generator: Adobe Illustrator 25.0.0, SVG Export Plug-In . SVG Version: 6.00 Build 0)  -->
<svg version="1.1" id="Layer_1" xmlns="http://www.w3.org/2000/svg" xmlns:xlink="http://www.w3.org/1999/xlink" x="0px" y="0px"
	 viewBox="0 0 475 142.5" style="enable-background:new 0 0 475 142.5;" xml:space="preserve">
<style type="text/css">
	.st0{fill-rule:evenodd;clip-rule:evenodd;fill:#FFFFFF;}
</style>
<g>
	<path class="st0" d="M276.5,132.9c-3.7-3.3-4.1-8.9-0.8-12.6c3.3-3.7,8.9-4.1,12.6-0.8c8.6,7.5,16,5.4,19.5,2
		c3.1-3.1,4.9-9.3-3.3-16.6c-0.1-0.1-0.3-0.3-0.5-0.4L285,85l-2.2-2.1c-12.5-13.2-11.6-29.8-1.4-40.1c10.6-10.6,28.8-12.1,43.9,1.2
		c3.7,3.3,4.1,8.9,0.8,12.6c-3.3,3.7-8.9,4.1-12.6,0.8c-8.6-7.5-16-5.4-19.5-2c-3.1,3.1-4.9,9.3,3.3,16.6c0.1,0.1,0.3,0.3,0.5,0.4
		l19.1,19.5l2.2,2.2c12.5,13.2,11.6,29.8,1.4,40C309.9,144.7,291.7,146.2,276.5,132.9z M44.4,139.3l-26.6-26.5V133c0,4.9-4,9-8.9,9
		s-8.9-4-8.9-9V59.6c0-9.1,3.3-16.7,9.1-21.8c5.6-5,12.8-7.1,19.6-6.9c6.8,0.2,13.8,2.7,19.2,7.6c5.5,5,9,12.3,9,21.2v21.3
		c0,8.8-3.5,16.1-9,21.2c-2.8,2.6-6.1,4.5-9.5,5.8l18.8,18.8c3.5,3.5,3.5,9.2,0,12.7C53.6,142.8,47.9,142.8,44.4,139.3z
		 M459.7,139.3l-26.6-26.5V133c0,4.9-4,9-8.9,9s-9-4-9-9V59.6c0-9.1,3.3-16.7,9.1-21.8c5.6-5,12.8-7.1,19.6-6.9
		c6.8,0.2,13.8,2.7,19.2,7.6c5.5,5,9,12.3,9,21.2v21.3c0,8.8-3.5,16.1-9,21.2c-2.8,2.6-6.1,4.5-9.5,5.8l18.8,18.8
		c3.5,3.5,3.5,9.2,0,12.7C468.9,142.8,463.2,142.8,459.7,139.3z M183.5,141.9l-16.9-0.1l-1.2,0.1c-4.9,0-8.9-4-8.9-9V39.8
		c0-4.9,4-8.9,8.9-8.9l1.3,0.1l16.9-0.1c7-0.2,14.4,2.1,20.1,7c5.9,5,9.7,12.6,9.7,21.8v53.5c0,9.2-3.8,16.7-9.7,21.8
		C197.9,139.8,190.5,142.1,183.5,141.9z M78.8,133V59.6c0-9.1,3.3-16.7,9.1-21.8c5.6-5,12.8-7.1,19.6-6.9c6.8,0.2,13.8,2.7,19.2,7.6
		c5.5,5,9,12.3,9,21.2V133c0,4.9-4,9-8.9,9s-8.9-4-8.9-9v-23.2h-21V133c0,4.9-4,9-8.9,9S78.8,137.9,78.8,133z M362.5,133V48.4h-11.8
		c-4.9,0-8.9-4-8.9-9c0-4.9,4-8.9,8.9-8.9h41.5c4.9,0,8.9,4,8.9,8.9c0,5-4,9-8.9,9h-11.8V133c0,4.9-4,9-9,9S362.5,137.9,362.5,133z
		 M234.1,132.9V53.7c-6.7-3.3-11.3-10.2-11.3-18.2c0-8,4.6-14.9,11.3-18.2V8.9c0-4.9,4-8.9,9-8.9s8.9,4,8.9,8.9v8.3
		c6.7,3.3,11.4,10.2,11.4,18.2c0,8-4.6,14.9-11.4,18.2v79.2c0,5-4,9-8.9,9S234.1,137.9,234.1,132.9z M192,121.3
		c1.9-1.6,3.4-4.2,3.4-8.2V59.6c0-4-1.5-6.5-3.4-8.2c-2.1-1.8-5-2.8-8.1-2.7l-9.5,0.1V124l9.5,0.1
		C186.9,124.1,189.9,123.1,192,121.3z M117.7,91.9V59.6c0-7.9-6.2-10.7-10.8-10.9c-4.5-0.1-10.3,2-10.3,10.9v32.3H117.7z M35.8,88.9
		c1.8-1.6,3.2-4.1,3.2-8V59.6c0-7.9-6.2-10.7-10.8-10.9c-4.5-0.1-10.3,2-10.3,10.9v21.3c0,8.9,5.8,11,10.3,10.9
		C31.1,91.7,33.8,90.6,35.8,88.9z M451.1,88.9c1.8-1.6,3.2-4.1,3.2-8V59.6c0-7.9-6.1-10.7-10.8-10.9c-4.5-0.1-10.3,2-10.3,10.9v21.3
		c0,8.9,5.8,11,10.3,10.9C446.4,91.7,449.1,90.6,451.1,88.9z M250.4,35.5c0-4-3.3-7.3-7.3-7.3s-7.3,3.3-7.3,7.3c0,4,3.3,7.3,7.3,7.3
		S250.4,39.5,250.4,35.5z"/>
</g>
</svg>
