<?xml version="1.0" encoding="utf-8"?>
<!-- Generator: Adobe Illustrator 25.0.0, SVG Export Plug-In . SVG Version: 6.00 Build 0)  -->
<svg version="1.1" id="Layer_1" xmlns="http://www.w3.org/2000/svg" xmlns:xlink="http://www.w3.org/1999/xlink" x="0px" y="0px"
	 viewBox="0 0 1075 322.5" style="enable-background:new 0 0 1075 322.5;" xml:space="preserve">
<style type="text/css">
	.st0{opacity:0.2;}
	.st1{fill-rule:evenodd;clip-rule:evenodd;fill:#FFFFFF;}
</style>
<g class="st0">
	<path class="st1" d="M625.9,300.8c-8.4-7.4-9.2-20.2-1.9-28.6c7.4-8.4,20.2-9.2,28.6-1.8c19.4,17,36.3,12.2,44,4.5
		c7.1-7.1,11.1-21.1-7.4-37.5c-0.3-0.2-0.8-0.7-1-1l-43.2-44l-5.1-4.9c-28.3-29.8-26.3-67.5-3.2-90.6c24-24,65.3-27.3,99.4,2.7
		c8.4,7.4,9.2,20.2,1.9,28.6c-7.4,8.4-20.2,9.2-28.6,1.8c-19.4-17.1-36.3-12.3-44-4.5c-7,7.1-11.1,21.1,7.5,37.5
		c0.3,0.2,0.8,0.7,1,1l43.2,44l5.1,4.9c28.4,29.8,26.3,67.5,3.2,90.6C701.3,327.6,660.1,330.9,625.9,300.8z M100.6,315.3l-60.1-60.1
		v45.7c0,11.2-9.1,20.3-20.3,20.3C9.1,321.2,0,312.1,0,300.9v-166c0-20.7,7.5-37.8,20.5-49.4c12.7-11.3,28.9-16.1,44.4-15.7
		c15.4,0.4,31.2,6.1,43.4,17.2c12.5,11.4,20.4,28,20.4,47.9v48.2c0,20-7.9,36.5-20.4,47.9c-6.4,5.8-13.8,10.2-21.6,13l42.6,42.6
		c7.9,7.9,7.9,20.7,0,28.6S108.5,323.2,100.6,315.3z M1040.4,315.3l-60.1-60.1v45.7c0,11.2-9.1,20.3-20.3,20.3
		c-11.2,0-20.3-9.1-20.3-20.3v-166c0-20.7,7.5-37.8,20.5-49.4c12.7-11.3,28.9-16.1,44.4-15.7c15.4,0.4,31.2,6.1,43.4,17.2
		c12.5,11.4,20.4,28,20.4,47.9v48.2c0,20-7.8,36.5-20.4,47.9c-6.4,5.9-13.8,10.2-21.6,13l42.5,42.6c7.9,7.9,7.9,20.7,0,28.6
		C1061.2,323.2,1048.3,323.2,1040.4,315.3z M415.3,321.2l-38.2-0.3l-2.8,0.3c-11.2,0-20.3-9.1-20.3-20.3V90
		c0-11.2,9.1-20.3,20.3-20.3l2.8,0.3l38.2-0.3c15.8-0.4,32.6,4.7,45.5,15.8c13.4,11.4,21.9,28.5,21.9,49.3v121.2
		c0,20.8-8.5,37.8-21.9,49.3C447.8,316.5,431.1,321.7,415.3,321.2z M178.2,300.9v-166c0-20.7,7.5-37.8,20.5-49.4
		c12.7-11.3,28.9-16.1,44.4-15.7c15.4,0.4,31.2,6.1,43.4,17.2c12.5,11.4,20.3,28,20.3,47.9v166c0,11.2-9.1,20.3-20.3,20.3
		c-11.2,0-20.3-9.1-20.3-20.3v-52.4h-47.6v52.4c0,11.2-9.1,20.3-20.3,20.3C187.3,321.2,178.2,312.1,178.2,300.9z M820.4,300.9V109.6
		h-26.7c-11.2,0-20.3-9.1-20.3-20.3c0-11.2,9.1-20.3,20.3-20.3h94c11.2,0,20.3,9.1,20.3,20.3c0,11.2-9.1,20.3-20.3,20.3h-26.7v191.3
		c0,11.2-9.1,20.3-20.3,20.3C829.5,321.2,820.4,312.1,820.4,300.9z M529.9,300.8l0-179.4c-15.2-7.5-25.6-23.1-25.6-41.2
		s10.4-33.7,25.6-41.2l0-18.8C529.9,9.1,539,0,550.1,0c11.2,0,20.3,9.1,20.3,20.3V39c15.2,7.5,25.7,23.1,25.7,41.2
		s-10.5,33.8-25.7,41.2v179.3c0,11.2-9.1,20.3-20.3,20.3C539,321.1,529.9,312,529.9,300.8z M434.4,274.6c4.3-3.7,7.7-9.4,7.7-18.5
		V134.9c0-9.1-3.4-14.8-7.7-18.5c-4.7-4-11.4-6.3-18.4-6.1l-21.5,0.2v170.1l21.5,0.1C423.1,280.9,429.8,278.6,434.4,274.6z
		 M266.4,208v-73.1c0-18-13.9-24.3-24.4-24.6c-10.3-0.3-23.2,4.6-23.2,24.6V208H266.4z M80.9,201.2c4-3.7,7.2-9.3,7.2-18v-48.2
		c0-18-13.9-24.3-24.4-24.6c-10.3-0.3-23.2,4.6-23.2,24.6v48.2c0,20.1,13.1,24.9,23.2,24.6C70.4,207.6,76.6,205.2,80.9,201.2z
		 M1020.8,201.2c4-3.7,7.2-9.3,7.2-18v-48.2c0-18-13.9-24.3-24.4-24.6c-10.3-0.3-23.3,4.6-23.3,24.6v48.2
		c0,20.1,13.1,24.9,23.3,24.6C1010.2,207.6,1016.4,205.2,1020.8,201.2z M566.7,80.3c0-9.1-7.4-16.5-16.5-16.5s-16.5,7.4-16.5,16.5
		c0,9.1,7.4,16.5,16.5,16.5C559.3,96.8,566.7,89.4,566.7,80.3z"/>
</g>
</svg>
