<?xml version="1.0" encoding="utf-8"?>
<!-- Generator: Adobe Illustrator 25.0.0, SVG Export Plug-In . SVG Version: 6.00 Build 0)  -->
<svg version="1.1" id="Layer_1" xmlns="http://www.w3.org/2000/svg" xmlns:xlink="http://www.w3.org/1999/xlink" x="0px" y="0px"
	 viewBox="0 0 313 32.6" style="enable-background:new 0 0 313 32.6;" xml:space="preserve">
<style type="text/css">
	.st0{fill:#005EFF;}
</style>
<path class="st0" d="M303.9,28c-1.2-0.1-3-0.3-3.8-0.5c-1.5-0.4-2.2-0.4-10.3-0.2c-5.3,0.1-8.8,0.3-8.9,0.4
	c-0.4,0.3-11.1,0.3-14.8,0c-0.3,0-4.1,0-8.4,0c-5.7,0-8.3,0.1-10,0.3c-2.4,0.3-4.9,0.4-5.7,0.1c-0.9-0.3-5.3-0.3-22.9-0.1
	c-9.7,0.1-22.1,0.3-27.6,0.3c-15.8,0.1-22.4-0.1-36.7,0.3c-3.3,0.1-9.4,0.2-13.6,0.3c-4.2,0.1-7.8,0.2-7.9,0.3
	c-0.1,0.1-0.8,0.3-1.6,0.3c-1,0.1-1.5,0.1-1.8-0.1c-0.3-0.2-1.3-0.3-5.2-0.2c-2.6,0.1-5.1,0.2-5.5,0.3c-0.4,0.1-2,0.3-3.6,0.4
	c-2.3,0.2-3.4,0.1-5.4-0.1c-2.8-0.4-7.1-0.3-25.3,0.3c-5.3,0.2-10.4,0.3-11.5,0.4c-13.3,0.2-14.3,0.2-15.5,0.6
	c-1.4,0.4-2.7,0.5-5,0.1c-1.6-0.2-2.9-0.2-11.5,0.1c-5.3,0.2-12.5,0.4-16,0.5c-3.7,0.1-6.8,0.3-7.5,0.4c-1.1,0.3-2.1,0.3-11.8,0.4
	l-5.3,0.1l0-1c0-0.6-0.2-1.1-0.4-1.1C0.2,30.4,0,30.3,0,30.2C0,30,0.1,30,0.4,30.1c0.5,0.1,0.7-0.8,0.8-3.4c0.1-3.2,0.3-3.4,2.2-4.5
	c2.5-1.4,2.8-1.7,1.8-1.8c-0.4-0.1-1.5-0.3-2.4-0.6c-1.6-0.4-1.7-0.5-1.8-1.7C0.9,16.8,1,9.5,1.1,7.5c0.1-0.7,0.3-1.3,0.5-1.3
	c0.3,0,1.2-0.3,2-0.7l1.7-0.7l77.8-1.4c83-1.5,80.5-1.3,159.8-2.5c20.9-0.3,41.2-0.7,58.9-1L313,27.6c-0.8-0.1-2.3,0.1-3.5,0.2
	C307.2,28.2,307.2,28.2,303.9,28L303.9,28z"/>
</svg>
