<?xml version="1.0" encoding="utf-8"?>
<!-- Generator: Adobe Illustrator 25.0.0, SVG Export Plug-In . SVG Version: 6.00 Build 0)  -->
<svg version="1.1" id="Layer_1" xmlns="http://www.w3.org/2000/svg" xmlns:xlink="http://www.w3.org/1999/xlink" x="0px" y="0px"
	 viewBox="0 0 33 22.2" style="enable-background:new 0 0 33 22.2;" xml:space="preserve">
<style type="text/css">
	.st0{fill-rule:evenodd;clip-rule:evenodd;fill:#43CCCC;}
</style>
<path class="st0" d="M20.9,21.7c-0.6-0.6-0.6-1.5,0-2.1l7.1-7H12.3c-0.6,1.5-2,2.5-3.7,2.5S5.5,14,5,12.6H1.5
	c-0.8,0-1.5-0.7-1.5-1.5s0.7-1.5,1.5-1.5H5c0.6-1.5,2-2.5,3.7-2.5s3.1,1,3.7,2.5H28l-7.1-7.1c-0.6-0.6-0.6-1.5,0-2.1s1.5-0.6,2.1,0
	l9.6,9.6c0.6,0.6,0.6,1.5,0,2.1L23,21.7C22.4,22.3,21.4,22.3,20.9,21.7z M9,13C9.2,13,9.3,13,9,13c0.3-0.1,0.4-0.1,0.4-0.1
	c0.1-0.1,0.3-0.1,0,0c0.2-0.1,0.3-0.2,0.3-0.2c0.1-0.1,0.2-0.2,0,0c0.1-0.1,0.1-0.1,0.2-0.1l0,0c0.5-0.4,0.7-0.9,0.7-1.5
	S10.3,10,9.9,9.6l0,0c0-0.1-0.1-0.1-0.1-0.1c-0.1-0.1-0.3-0.2-0.1,0C9.6,9.3,9.5,9.3,9.4,9.3c-0.2-0.1-0.3-0.1-0.1,0
	C9.2,9.2,9.1,9.2,9.1,9.2c-0.2,0-0.3-0.1,0,0c-0.1,0-0.3,0-0.4,0c-0.1,0-0.3,0-0.4,0c0.3,0,0.1,0,0,0S8.1,9.2,8,9.3
	c0.2-0.1,0.1-0.1,0,0c0,0-0.1,0.1-0.3,0.2c0.2-0.1,0.1-0.1,0,0c0,0-0.1,0.1-0.2,0.1c-0.4,0.4-0.7,0.9-0.7,1.5s0.2,1,0.7,1.5l0,0
	c0,0,0.1,0.1,0.2,0.1c-0.2-0.1-0.1-0.1,0,0c0,0,0.1,0.1,0.3,0.2c-0.2-0.1-0.1,0,0,0c0,0,0.1,0,0.4,0.1c-0.3-0.1-0.1,0,0,0
	c0,0,0.2,0,0.4,0C8.8,13.1,9,13,9,13z"/>
</svg>
