<?xml version="1.0" encoding="utf-8"?>
<!-- Generator: Adobe Illustrator 25.0.0, SVG Export Plug-In . SVG Version: 6.00 Build 0)  -->
<svg version="1.1" id="Layer_1" xmlns="http://www.w3.org/2000/svg" xmlns:xlink="http://www.w3.org/1999/xlink" x="0px" y="0px"
	 viewBox="0 0 27.5 244" style="enable-background:new 0 0 27.5 244;" xml:space="preserve">
<style type="text/css">
	.st0{fill-rule:evenodd;clip-rule:evenodd;fill:#B8B8B8;}
</style>
<g>
	<path class="st0" d="M20,234.8v9h-3.6c-0.9-3-1.9-6-2.8-9.2c-1,3.2-1.9,6.1-2.8,9.1H7.4V236c-0.2,0-0.3-0.1-0.5-0.1
		c-1.5,2.6-3,5.2-4.6,7.9c-0.5,0.1-2.1-0.3-2.4-0.4c-0.1-1.1,0.3-1.6,0.5-2.7c1.9-5.8,9.2-28.2,9.3-31.8l0.1-22H8.1v-1.8H10l0-1.7
		H8.1v-1.8H10l0-2.5H8.1v-1.8H10l0-2.7H8.4v-2.6h1.7l0.1-18.7l-1.1,0v-1.8l1.1,0l0-1.7l-1.1,0v-1.8l1.2,0l0.1-15.7H8.4v-7.8h2l0-5.8
		H9.1v-1.8h1.3l0-1.7H9.1v-1.8h1.4l0-1.9H8.9v-2.6h1.5l0.1-13.8H8.4V88H6.9v-5.2h1.2v-3.1h2.5l0.1-13H9.1v-1.8H12
		c0.2-0.1,0.3-0.2,0.5-0.4l0.1-12.9h-2v-1.8h2l0.1-12.8h-2.2v-1.8h2.3l0.1-8.5h-1.4V25h1.4l0.1-9.6h-1.3v-1.8H13l0.2-13.4
		c0-0.1,0.1-0.2,0.2-0.2c0,0,0.1,0,0.2,0l0.3,13.6h1.5v1.8h-1.4l0.2,9.6h1.6v1.8h-1.6l0.2,8.5h2.3v1.8h-2.3l0.3,12.8h2.1v1.8h-2.1
		l0.3,13.1c0.1,0,0.1,0.1,0.1,0.1h2.7v1.8h-1.6l0.1,13H19v3.1h1.6V88h-1.5v7.1h-2.7l0.1,13.8h1.8v2.6h-1.8l0,1.9h1.2v1.8h-1.2v1.7
		h1.2v1.8h-1.2l0,5.8h2.6v7.8h-2.5l0.1,15.5l1,0v1.8l-1,0l0,1.7l1,0v1.8l-1,0l0.1,18.9h2.3v2.6h-2.3l0,2.7h1.9v1.8h-1.9l0,2.5h1.9
		v1.8h-1.9l0,1.7h1.9v1.8h-1.9l0.1,20.2c0,0.7,0,1.5,0,2.3c0,1,5.6,19.8,6.1,21.5c1,3,2.1,6,3.2,9c0.4,1.2,0.8,2.4,1.2,3.8
		c-0.7,0.1-1.2,0.2-2,0.4C23.7,240.9,22,238.1,20,234.8z M18.8,218.9v-1.6H8.1v1.6H18.8z M17.9,173.6v-0.7H9.6v0.7H17.9z
		 M17.9,130.4v-4.2H9.6v4.2H17.9z M17.2,110.6v-0.8H10v0.8H17.2z M17.9,93.3v-4.2H9.6v4.2H17.9z M17.8,81.9v-0.9H9.4v0.9H17.8z"/>
</g>
</svg>
