<?xml version="1.0" encoding="utf-8"?>
<!-- Generator: Adobe Illustrator 25.0.0, SVG Export Plug-In . SVG Version: 6.00 Build 0)  -->
<svg version="1.1" id="Layer_1" xmlns="http://www.w3.org/2000/svg" xmlns:xlink="http://www.w3.org/1999/xlink" x="0px" y="0px"
	 viewBox="0 0 159 195.4" style="enable-background:new 0 0 159 195.4;" xml:space="preserve">
<style type="text/css">
	.st0{fill:#B8B8B8;}
</style>
<g>
	<path class="st0" d="M38.5,195.2c-0.4,0.1-0.7,0.4-1,0c-0.1-0.9-0.2-1.7-0.2-2.5c-0.3-0.6-0.3-0.6-1.8-1.6
		c-1.1,0.1-2.3,0.3-3.4,0.4c-0.4,0.5-0.9,1-1,1.7c-0.1,0.6-0.1,1.1-0.2,1.7c-0.8,0.4-1.6,0.6-2.6,0.4c-0.3-0.1-0.4-0.5-0.4-0.9
		c0-1.7,0-3.5,0-5.1c0.2-0.4,0.6-0.4,0.9-0.4c1.3,0,2.6,0,3.9,0c2.5,0,5.1,0,7.7,0c0.3,0,0.7,0.1,1,0.1c0.1,2,0.1,3.9,0.1,5.8
		c0,0.2-0.1,0.3-0.2,0.5C40.3,195.5,39.1,195.4,38.5,195.2z M21.1,195.2c-0.6-0.5-0.1-1.3-0.3-2c0.2-0.2,0.4-0.3,0.6-0.5
		c1.7-1.1,3.5-2.1,5.4-3.3v5.7c-0.3,0-0.6,0.1-0.9,0.1C24.3,195.3,22.8,195.3,21.1,195.2z M42.8,194.9c0-2.1,0-4.1,0-6.2
		c0-0.1,0-0.2,0-0.2c1.7-1.8,3.4-3.5,5.1-5.2c0.2-0.2,0.5-0.4,0.7-0.5c0.3-0.2,0.5-0.1,0.8,0.1v12.2c-0.2,0-0.5,0.1-0.7,0.1h-5.2
		c-0.2,0-0.4,0-0.7,0.1C42.9,195.2,42.8,195.1,42.8,194.9z M89.2,195.2c-0.3,0-0.6,0-0.9,0c-0.1-0.1-0.1-0.1-0.1-0.1
		c0,0-0.1,0-0.1-0.1c0-9.3,0-18.6,0-27.9c0-0.2,0-0.3,0-0.6h7.1v28.6c-0.2,0.1-0.3,0.2-0.5,0.2C92.9,195.3,91.1,195.3,89.2,195.2z
		 M96.8,195.3v-14.1H108c0.2,0.7,0.4,10.4,0.2,13.4c0,0.2-0.1,0.5-0.2,0.7h-2.4c-0.4-0.2-0.2-0.6-0.2-0.9c0-2.7,0-5.5,0-8.2
		c0-1.1-0.5-1.9-1.4-2.2c-0.9-0.3-1.8-0.5-2.7-0.3c-0.3,0.1-0.7,0.1-1.2,0.2c-0.3,0.3-0.7,0.7-1.1,1.1v10.3
		C98.2,195.2,97.5,195.2,96.8,195.3z M128,194.3c0-0.5,0-0.9-0.1-1.4c-0.1-0.8-0.7-1.2-1.4-1.5c-1.1-0.4-2.3-0.4-3.4,0
		c-0.5,0.1-0.8,0.5-1.4,0.9c-0.1,1-0.2,1.9-0.3,2.9h-3.8c-0.1-0.2-0.2-0.4-0.2-0.6c0-1.6,0-3.2,0-4.8c0-0.3,0.1-0.5,0.1-0.8h13.1
		c0.1,0.1,0.2,0.3,0.2,0.5c0,1.7,0,3.5,0,5.2c0,0.2-0.1,0.4-0.1,0.6h-2.5C127.9,195,128,194.6,128,194.3z M60.1,195.2
		C60.1,195.2,60.1,195.2,60.1,195.2c-0.1-0.1-0.1-0.2-0.1-0.3c0-3.3,0-6.5,0-9.9c-0.4-0.4-0.8-0.8-1.1-1.2c-0.5-0.1-0.8-0.2-1.2-0.3
		c-0.9-0.2-1.9-0.1-2.7,0.3c-0.9,0.4-1.4,1.1-1.4,2.1c0,1.7,0,3.5,0,5.3c0,1.2,0,2.4-0.1,3.6c0,0.1-0.1,0.2-0.1,0.4H51
		c-0.3-0.2-0.2-0.6-0.2-0.9c0-2.8,0-5.7,0-8.5c0-1.4,0-2.7,0-4.1c0-0.2,0.1-0.3,0.1-0.5c0.6-0.2,10.7-0.2,11.9,0v13.9
		C62,195.4,61.1,195.1,60.1,195.2C60.2,195.2,60.2,195.2,60.1,195.2z M153.7,195.2v-1c0-3.7,0-7.4,0-11.1c0-0.8-0.2-1.6-0.3-2.5
		c-0.4-0.4-0.8-0.9-1.2-1.2c-1.7-0.5-3.1-0.4-4.3,0.8c-0.2-0.2-0.4-0.3-0.6-0.5c-1.1-0.8-2.2-0.8-3.4-0.4c-0.4,0.1-0.7,0.5-0.9,0.8
		c-0.4,0.6-0.6,1.3-0.6,2.1c0,3.9,0,7.9,0,11.8v1.1h-2.8c-0.3-0.2-0.2-0.5-0.2-0.9c0-1.4,0-2.8,0-4.3c0-4.5,0-9,0-13.4
		c0-0.3-0.1-0.7,0.1-0.9c5.7,0,11.5,0,17.2,0v19.4c-0.2,0.1-0.5,0.1-0.7,0.1c-0.2,0-0.4,0-0.6,0
		C154.8,195.2,154.3,195.2,153.7,195.2z M143.6,194.3h8.6v1h-8.5C143.4,195,143.5,194.7,143.6,194.3z M64.1,195v-28.5h6.2
		c0,0,0.1,0.1,0.1,0.1c0,0,0.1,0.1,0.1,0.1c0,9.3,0,18.7,0,28c0,0.1,0,0.2,0,0.3c0,0.1-0.1,0.1-0.1,0.2c0,0,0,0-0.1,0.1
		c0,0,0,0-0.1,0.1h-5.9C64.3,195.2,64.2,195.1,64.1,195z M16.7,194.3c0-3.9,0-7.8,0-11.7c0-0.7-0.1-1.4-0.5-2.1
		c-0.5-1.1-1.7-1.7-2.9-1.5c-0.8,0.1-1.5,0.5-2.1,1.1c-1.2-1.2-2.7-1.4-4.3-0.9c-0.1,0.1-0.2,0.2-0.3,0.3c-1,0.6-1.2,1.6-1.3,2.6
		c0,0.3,0,0.7,0,1c0,3.7,0,7.3,0,11c0,0.3-0.1,0.7-0.1,1H2.4c0-0.2-0.1-0.4-0.1-0.5c0-6.2,0-12.3,0-18.5c0-0.1,0-0.2,0.1-0.5
		c0.3,0,0.7,0,1,0c4.9,0,9.8,0,14.6,0h1.5c0,0,0,0,0,0c0,0,0,0.1,0,0.1c0,6.3,0,12.6,0,19c0,0.1,0,0.3,0,0.5h-2.8
		C16.8,195,16.7,194.6,16.7,194.3z M109.5,182.1c2.2,2.2,4.4,4.3,6.6,6.4v6.8h-6.6C109.4,194.6,109.4,183.8,109.5,182.1z M6.8,194.3
		h8.4c0.2,0.5,0.2,0.5,0,0.9H6.8C6.6,195,6.5,194.7,6.8,194.3z M132.3,195.2v-5.7c2,1.2,3.9,2.3,5.8,3.6c-0.1,0.8,0.1,1.4-0.1,2.1
		H132.3z M71.8,166.6C71.8,166.6,71.8,166.6,71.8,166.6c0.1-0.1,0.1-0.1,0.1-0.1c4.8,0,9.6,0,14.4,0c0.2,0,0.3,0,0.5,0v28.7H71.9
		C71.7,194.4,71.6,169.2,71.8,166.6z M84.7,193.2c0-0.2,0-0.4,0-0.5c0-8,0-16,0-24c0-0.1,0-0.1,0-0.2c0,0,0-0.1,0-0.1
		c0,0,0,0-0.1-0.1H74v25C75.8,193.4,84,193.4,84.7,193.2z M68.8,193.3c0.1,0,0.2,0,0.4-0.1c0-0.3,0-0.7,0-1c0-2.5,0-4.9,0-7.4
		c0-5.1,0-10.3,0-15.4c0-0.4,0.1-0.8-0.2-1.2h-3.9c0,0.3-0.1,0.4-0.1,0.6c0,8.1,0,16.2,0,24.3c0,0,0,0,0.1,0.1c0,0,0,0.1,0.1,0.1
		C66.4,193.3,67.6,193.3,68.8,193.3z M93.8,193.3v-13.8c0-3.4,0-6.8,0-10.2c0-0.3,0.1-0.7-0.3-1.1c-0.6,0-1.2,0-1.9,0
		c-0.7,0-1.3-0.1-2,0.1c-0.2,1-0.1,24.3,0,25H93.8z M143.6,192.1h8.5c0.2,0.4,0.2,0.4,0.1,1h-8.4
		C143.5,192.8,143.5,192.4,143.6,192.1z M6.8,192.1h8.4c0.2,0.3,0.3,0.6,0,0.9H6.8C6.6,192.8,6.5,192.4,6.8,192.1z M66.5,191.9
		C66.4,191.9,66.4,191.9,66.5,191.9c-0.1-7.2-0.1-14.4-0.1-21.5c0-0.1,0-0.3,0-0.4c0-0.1,0-0.1,0-0.2c0-0.1,0.1-0.1,0.1-0.2h1.3V192
		c-0.4,0.2-0.9,0.1-1.3,0.1C66.5,192,66.5,191.9,66.5,191.9z M75.1,169.8c0.6-0.2,6.3-0.3,8.3-0.1V192h-8.2
		C75,191.3,75,171,75.1,169.8z M91,169.6h1.3c0.1,0.1,0.1,0.1,0.1,0.1c0,0,0,0.1,0,0.1c0,7.2,0,14.5,0,21.7c0,0.1,0,0.2,0,0.4h-1.3
		C90.9,191.3,90.9,171,91,169.6z M132.3,188v-3.5c2,1.2,3.9,2.4,5.7,3.5v3.6C136,190.3,134.2,189.2,132.3,188z M20.9,191.2
		c0-1,0-2,0-3c0.1-0.2,0.3-0.4,0.5-0.5c1.7-1.1,3.5-2.2,5.4-3.3v3.6c-1.9,1.2-3.8,2.4-5.7,3.6C20.9,191.4,20.9,191.3,20.9,191.2z
		 M28.1,187.5V184h13.3v3.5C40.7,187.7,29.3,187.7,28.1,187.5z M117.6,184h13.2c0.3,0.5,0.1,1.1,0.1,1.7c0,0.6,0,1.2,0,1.9
		c-1.1,0.1-2.2,0-3.3,0c-1.1,0-2.3,0-3.4,0h-6.6C117.4,186.6,117.4,184.7,117.6,184z M109.5,180.2v-3.4c0.6,0.3,3.6,3.2,6.7,6.5
		c0,1,0,2.1-0.1,3.4C113.8,184.5,111.6,182.4,109.5,180.2z M42.9,186.7l-0.2-0.1c0-0.9,0-1.9,0-2.8c0-0.5,0.3-0.8,0.6-1.1
		c1.5-1.5,3-2.9,4.4-4.4c0.5-0.5,1-1.1,1.7-1.6v3.6C47.3,182.4,45.1,184.5,42.9,186.7z M132.3,183v-10.2c1.9,0.9,3.8,1.8,5.7,2.7v11
		C136,185.3,134.2,184.1,132.3,183z M20.9,185.5c0-3.1,0-6.1,0-9.2c0-0.3,0.1-0.6,0.1-0.9c1.9-0.9,3.7-1.8,5.7-2.6v10.1
		c-1.9,1.1-3.7,2.3-5.6,3.5C20.8,186.2,20.9,185.9,20.9,185.5z M117.5,182.6v-10c0.2-0.1,0.3-0.1,0.5-0.1c4.1,0,8.3,0,12.4,0
		c0.1,0,0.3,0.1,0.4,0.1c0.2,0.7,0.2,8.4,0.1,10.1H117.5z M28.1,182.6v-9.9c0.3-0.4,0.6-0.3,1-0.3c3,0,6.1,0,9.2,0
		c0.9,0,1.7,0,2.6,0c0.2,0,0.4,0,0.5,0c0.2,0.7,0.2,9,0,10.1H28.1z M42.8,181.4v-9.3c2.2-1.7,4.4-3.4,6.5-5c0.1,0,0.1,0.1,0.1,0.1
		c0,0,0,0.1,0,0.1c0,2.5,0,4.9,0,7.3C47.3,176.8,45.2,179.1,42.8,181.4z M109.5,174.5v-7.4c2.3,1.7,4.6,3.3,6.6,5.2v9
		C113.9,179.1,111.8,176.8,109.5,174.5z M128,180.3c-0.1-1.4,0.2-2.8-0.3-4.1c-0.8-1.1-1.8-1.3-3-1.3c-1.2,0-2.3,0.1-3,1.1
		c-0.4,1.4-0.2,2.8-0.2,4.3C123,180.7,127.3,180.6,128,180.3z M37.3,180.5v-4.1c-0.4-0.4-0.5-0.8-0.8-1c-1.4-0.7-2.9-0.8-4.3,0
		c-0.7,0.4-1.1,1-1.1,1.8c0,0.9,0,1.8,0,2.7c0,0.2,0,0.4,0.1,0.7H37.3z M96.7,179.8c0-1.3,0-2.7,0-4.1H108c0.2,0.6,0.3,2.7,0.1,4
		C107.5,179.9,98.1,179.9,96.7,179.8z M50.8,179.8c0-1.4-0.1-2.7,0.1-4.1h12v4C62.1,179.9,52.3,179.9,50.8,179.8z M136.9,173.6
		c-1.1-0.5-2.2-1-3.2-1.5c-0.4-0.2-0.9-0.3-1.2-0.6c-0.5-0.3-1-0.3-1.5-0.3c-1.1,0-2.2,0.1-3.3,0.1c-0.6,0-1.2-0.1-1.8-0.1
		c-1.4,0-2.8,0.1-4.2,0.1c-1.3,0-2.7-0.1-4.1-0.1c-0.7,0-1.1-0.5-1.6-0.8c-1.1-0.8-2.2-1.7-3.4-2.6c-1.2-0.9-2.4-1.8-3.6-2.7
		c-1.8,0-3.5,0-5.3,0c-1.7,0-3.4,0.1-5.1,0.1c-0.3-1.1-0.6-2.1-0.9-3.2c0.2,0,0.4-0.1,0.6-0.1c3.2,0,6.5,0,9.7,0
		c0.6,0,1.1,0.2,1.7,0.5c1.3,0.7,2.6,1.3,3.9,1.9c0.9,0.4,1.8,0.9,2.7,1.4c0.5,0.3,1.1,0.5,1.6,0.7c0,0.6,0.1,1.1,0.1,1.5
		c0.8,0.4,1.5,0.8,2.4,0.8c1.4,0,2.8,0.1,4.2,0.2c1,0.1,2-0.1,3-0.2c0.1,0,0.3,0,0.5,0c0.9,0.1,1.7-0.2,2.5-0.7
		c0.4-0.7-0.1-1.6,0-2.4c0.8,0.3,1.5,0.5,2.2,0.7c0.8,0.3,1.6,0.5,2.4,0.7c1,0.3,1.9,0.6,2.9,0.9c0.9,0.3,1.8,0.5,2.7,0.8
		c0,0.7-0.3,1.3-0.7,1.9v1.3c0.2,0.2,0.5,0.4,0.8,0.7c3.9,0.8,7.9,0.9,12-0.3c1.9,0.6,4,1.2,6.1,1.8c0,0.1,0,0.1,0,0.2h-0.6
		c-6.1,0-12.2,0-18.3,0C138.9,174.3,137.9,174,136.9,173.6z M0.6,174.3c-0.2,0-0.4,0-0.6,0c2.1-0.8,4.1-1.4,6.1-2
		c4.1,1.2,8.1,1.1,12.1,0.2c0.2-0.2,0.4-0.5,0.7-0.8c0.1-0.4,0.1-0.9-0.2-1.4c-0.2-0.5-0.4-1-0.6-1.6c0.7-0.2,1.3-0.4,2-0.6
		c0.1,0,0.2,0,0.3-0.1c0.9-0.3,1.9-0.7,2.9-0.9c1.7-0.5,3.3-1,5-1.4c0.1,0,0.2,0,0.3,0.1c-0.1,0.8-0.6,1.5,0,2.3
		c0.7,0.5,1.4,0.7,2.3,0.7c1.2,0,2.4,0.3,3.7,0.3c1.2,0,2.4-0.2,3.7-0.3c0.3,0,0.6,0,0.9-0.1c0.3,0,0.7-0.1,1-0.2
		c1-0.3,1.1-0.5,1.1-1.6c0-0.1,0-0.3,0-0.5c0.6-0.3,1.3-0.7,1.9-1c1-0.5,2.1-0.9,3.1-1.4c1.2-0.6,2.4-1.3,3.7-1.9
		c0.3-0.1,0.6-0.2,1-0.2c3.6,0,7.2,0,10.9,0c0.2,1-0.6,1.9-0.5,2.8c-0.2,0.4-0.5,0.5-0.8,0.5c-0.4,0-0.8,0-1.2,0
		c-2.9,0-5.7-0.1-8.6-0.1c-0.4,0-0.7,0.1-0.9,0.3c-1.1,0.8-2.3,1.7-3.4,2.5c-1.3,1-2.6,2-3.9,3c-0.4,0.3-0.8,0.3-1.2,0.3
		c-3.4,0-6.8,0-10.3,0c-0.8,0-1.5,0-2.3,0c-0.9-0.1-1.7,0.3-2.5,0.7c-0.7,0.3-1.4,0.6-2.1,0.9c-0.9,0.4-1.8,0.8-2.6,1.2
		c-0.5,0.2-0.9,0.4-1.5,0.4C13.4,174.3,7,174.3,0.6,174.3z M96.8,174.2v-7.6c0.7-0.1,10.4-0.2,11.4,0v7.6
		C107.4,174.3,97.8,174.4,96.8,174.2z M50.9,166.5h11.9c0.2,0.6,0.2,6.5,0.1,7.7H50.9C50.8,173.6,50.7,168.2,50.9,166.5z
		 M105.4,173.1c0-0.8,0-1.7,0-2.5c0.1-1.2-0.5-2.2-1.8-2.6c-0.8-0.3-1.7-0.4-2.5-0.2c-0.9,0.2-1.6,0.5-2.1,1.5c0,0.7,0,1.3,0,2
		s-0.1,1.4,0.1,2.1C102.4,173.4,104.8,173.3,105.4,173.1z M59.3,173.3c0.3,0,0.5-0.1,0.8-0.2c0-0.9,0-1.7,0-2.6
		c0.1-0.9,0-1.7-0.9-2.3c-0.1,0-0.2-0.1-0.3-0.1c-1.4-0.7-2.8-0.6-4.1,0.1c-0.6,0.3-1,0.8-1,1.4c-0.1,1.1-0.1,2.3,0,3.5
		c0.2,0.1,0.4,0.1,0.6,0.1C55.9,173.3,57.6,173.3,59.3,173.3z M8.8,171.6c-0.5,0-0.9-0.1-1.3-0.1c-0.2-0.3-0.2-0.6-0.1-0.9
		c0.5-1.2,1-2.4,1.5-3.7c0.5-1.2,0.8-2.4,1.3-3.6c0.3-0.8,0.5-1.7,1.1-2.3c0.5,0.4,1.1,0.5,1.7,0.2c0.3-0.1,0.6-0.2,0.9-0.3
		c1.3,3.4,2.5,6.8,3.7,10.2c-0.1,0.4-0.3,0.5-0.6,0.5c-2,0.1-3.9,0.2-5.9,0.3C10.3,171.8,9.6,171.7,8.8,171.6z M141.8,171.5
		c-0.2,0-0.3-0.2-0.6-0.3c1.3-3.5,2.5-6.8,3.8-10.2c0.5,0.1,0.9,0.3,1.3,0.4c0.4,0,0.9-0.2,1.4-0.3c1.4,3.4,2.6,6.9,4,10.5
		c-1.1,0.1-1.9,0.3-2.8,0.3c-1.7,0-3.3,0-5,0C143.3,171.7,142.6,171.6,141.8,171.5z M31.6,167.6c-0.7,0-1.4-0.2-2.1-0.5
		c1.5-4,3.1-8,4.6-12.1h1.4c1.5,4,3,8,4.4,12c-0.6,0.5-1.3,0.6-2,0.6c-1.3,0-2.6,0-3.9,0C33.2,167.6,32.4,167.6,31.6,167.6z
		 M118.9,167.1c1.5-4,3-8,4.5-12.1h1.4c1.8,4,2.9,8.1,4.8,12.1c-0.5,0.2-0.9,0.4-1.3,0.4c-2.5,0-5.1,0.1-7.6,0
		C120,167.6,119.4,167.5,118.9,167.1z M23.4,161.1h6.9c-0.1,0.3-0.1,0.7-0.2,1c-0.2,0.5-0.3,1.1-0.6,1.5c-0.1,0.3-0.4,0.5-0.5,0.6
		c-2,0.6-3.8,1.1-5.7,1.7C23.1,164.9,23.2,161.7,23.4,161.1z M131.7,164.7c-0.3-0.2-0.7-0.4-1.3-0.4c-0.3,0-0.6-0.1-0.9-0.2
		c-0.3-1-0.6-1.9-0.9-2.9c0.3-0.1,0.5-0.3,0.8-0.3c0.8,0,1.5-0.2,2.3,0.1c0.2,0.1,0.6,0.1,0.8,0c0.9-0.3,1.7-0.2,2.6,0.1
		c0.1,0.1,0.2,0,0.5,0c0.1,0.3,0.2,0.6,0.2,0.9c0,1.1-0.1,2.2-0.1,3.3c0,0.1-0.1,0.2-0.1,0.3C134.3,165.4,133.1,165.1,131.7,164.7z
		 M87.2,165.2c-2.9,0-5.8,0-8.7,0c-2.1,0-4.2,0-6.3,0h-0.9c-0.1-0.4-0.1-0.7,0-1.1c0.2-0.7,0.3-1.4,0.5-2.1c0-0.1,0.1-0.3,0.1-0.4
		c0.2-0.7,0.4-1.5,0.6-2.3c0.1,0,0.2-0.1,0.3-0.1c4.8,0.1,9.5-0.2,14.3,0.1c0.1,0.6,0.2,1.1,0.3,1.7c0.1,0.4,0.1,0.7,0.2,1.1
		c0.2,1.1,0.4,2.1,0.6,3.1C87.9,165.3,87.5,165.2,87.2,165.2z M88.9,162.1c-0.1-1-0.7-2-0.5-3h7.1c0.5,2,1,3.9,1.5,6
		c-0.2,0.1-0.5,0.1-0.7,0.1c-2.3,0-4.5,0-6.9,0C89.3,164.2,89,163.2,88.9,162.1z M62.8,165.2c-0.1,0-0.3-0.1-0.4-0.2
		c0.5-1.9,1.1-3.9,1.6-5.7c0-0.1,0.1-0.2,0.1-0.2h7.1c-0.4,1.5-0.7,2.8-1,4.2c-0.1,0.5-0.2,1-0.3,1.5c0,0.1-0.1,0.2-0.2,0.4
		C67.4,165.2,65.1,165.2,62.8,165.2z M113.5,162.9c-0.9-0.4-1.8-0.9-2.7-1.3c-0.4-0.2-0.9-0.4-1.3-0.6c-0.5-0.3-1-0.3-1.6-0.3
		c-3.5,0-7,0-10.5,0c-0.4-1.1-0.8-2.1-0.6-3.2h20.5c0.2,1,0.1,6.6-0.1,7.3C115.9,164.1,114.7,163.5,113.5,162.9z M41.7,164.3
		c0-2.1,0-4.1,0.1-6.2c0-0.3,0-0.5,0-0.8h21c0.4,1.1-0.5,2-0.5,3c-0.3,0.3-0.7,0.2-1,0.2c-3.4,0-6.8,0-10.2,0c-0.7,0-1.4,0.1-2,0.4
		c-1.3,0.6-2.6,1.3-3.9,2c-1.1,0.6-2.2,1.1-3.4,1.7C41.8,164.5,41.7,164.5,41.7,164.3z M39.6,162.4c0.2-0.1,0.4-0.2,0.7-0.3v2.1
		C40,163.5,39.8,163,39.6,162.4z M118.8,162c0.2,0.2,0.4,0.3,0.6,0.4c-0.2,0.5-0.3,1-0.5,1.5C118.5,163.4,118.4,163,118.8,162z
		 M11.8,159.8c-0.1-0.2-0.1-0.4-0.2-0.6c0.1-0.2,0.1-0.4,0.2-0.6c0.3-0.1,0.5-0.2,0.7-0.2c0.8,0.4,0.8,0.5,0.6,1.4
		c-0.2,0.1-0.5,0.3-0.7,0.5C12.3,160.1,12.1,159.9,11.8,159.8z M145.7,159.7c0-0.3-0.1-0.6-0.1-1c0.4-0.2,0.7-0.4,1.1-0.6
		c0.3,0.2,0.5,0.4,0.6,0.6v0.9c-0.3,0.1-0.5,0.2-0.8,0.3C146.2,160,146,159.9,145.7,159.7z M38.6,159.7c-0.2-0.5-0.3-1-0.5-1.6h2.3
		v1.7C39.7,159.9,39.1,159.9,38.6,159.7z M127.9,159.7c-0.2-0.6-0.3-1.1-0.5-1.7c1.2-0.2,2.4,0,3.6-0.1c0.6,0.4,1.3,0.4,2,0.1
		c0.2-0.1,0.3,0,0.5,0c0.4,0,0.8,0.1,1.2,0c0.3,0,0.6,0,0.9,0.1c0.3,0.1,0.6,0.1,0.9,0.1c0.4-0.1,0.7,0,0.9,0.5
		c-0.1,0.3-0.3,0.8-0.4,1.2C135.9,159.9,128.6,159.9,127.9,159.7z M21.4,159c0.1-0.2,0.2-0.5,0.3-0.8c0.3-0.1,0.6-0.2,0.9-0.2
		c2.8,0,5.7,0,8.5,0c0.1,0,0.2,0,0.5,0.1c-0.2,0.6-0.4,1.2-0.7,1.8h-5.4c-0.9,0-1.8,0-2.7,0C22.2,159.9,21.7,159.7,21.4,159z
		 M118.6,158.2c0.7-0.3,1.6-0.3,2.3,0c-0.2,0.5-0.4,1.1-0.6,1.6h-1.5C118.4,159.3,118.6,158.7,118.6,158.2z M72.6,157.6v-4.9
		c0-1.7,0-3.3,0-5c0-1.6,0-3.3,0-5h14.1c0.1,0.2,0.2,0.4,0.2,0.5c0,4-0.1,8-0.1,12c0,0.8,0,1.5,0,2.3
		C86.2,157.7,73.8,157.7,72.6,157.6z M88.2,157.6v-14.9c0.7-0.2,5.9-0.2,7,0c0.1,0.9,0,1.9,0,2.9c0,1,0,2,0,3c0,1,0,2,0,3.1v6H88.2z
		 M64.1,153.8v-3.7c0-1.3,0-2.5,0-3.8c0-1.2-0.1-2.4,0.1-3.7h6.9c0.2,0.7,0.3,12.9,0.1,15h-7.1C64.1,156.3,64.1,155.1,64.1,153.8z
		 M11.7,155.5c-0.3-0.3-0.7-0.6-1.2-1.1c0.5-0.3,0.8-0.6,1.2-0.9V151c-0.3,0-0.6-0.1-1.1-0.1c-0.1-0.3-0.1-0.6-0.2-0.8
		c0.6-0.5,0.5-0.3,1.4-0.3c0.1-0.4,0-1.1,0.1-1.5c0.4,0,0.7,0,0.9-0.1c0.2,0.4,0.2,1.1,0.4,1.5c0.3,0.1,0.8-0.1,1.2,0
		c0.1,0.1,0.2,0.3,0.3,0.5c-0.1,0.3-0.2,0.5-0.3,0.7c-0.4,0.1-0.8,0.1-1.2,0.1c-0.1,1.2-0.2,2.4-0.2,3.5c0.4,0.5,1.2,0.5,1.1,1.3
		c-0.2,0.2-0.3,0.5-0.5,0.5c-0.3,0.1-0.3,0.4-0.4,0.6h-1.4C11.6,156.6,11.8,156.1,11.7,155.5z M145.7,156.6c-0.4-0.2-0.9-0.3-1.1-1
		c0.2-0.2,0.5-0.5,0.7-0.7c0.1-0.1,0.3-0.3,0.3-0.4c0-0.8,0.5-1.5,0.1-2.3c-0.1-0.3,0-0.7,0-1.1c-0.4,0-0.7-0.1-1-0.1
		c-0.2-0.2-0.4-0.5-0.7-0.7c0.1-0.1,0.1-0.3,0.2-0.4c0.1-0.1,0.2-0.2,0.4-0.4c0.3,0,0.6,0,1-0.1c0-0.3,0.1-0.7,0.1-1.1
		c0.3-0.1,0.5-0.1,0.8-0.2c0.7,0.2,0.7,0.8,0.7,1.3c0.6,0.1,1.2,0.2,1.5,0.9c-0.1,0.2-0.3,0.4-0.4,0.7c-0.4,0-0.9,0.1-1.3,0.1
		c0.1,0.9,0.2,1.7,0.3,2.6c0.4,0.2,0.9,0.4,0.8,1.2c-0.2,0.2-0.5,0.5-0.9,0.9v1.4h-1.4C145.8,156.9,145.7,156.8,145.7,156.6z
		 M132.3,156.9c-0.6-0.2-1.2-0.7-1.9,0c-0.1-0.1-0.3-0.3-0.4-0.3c0-5.9,0-11.8,0-17.7c0-0.2,0.1-0.4,0.2-0.6h5.4v4.7
		c0,0.8,0,1.5,0,2.3c0,0.8,0,1.5,0,2.3c0,0.8,0,1.5,0,2.3c0,0.8,0.1,1.5,0.1,2.3c0,0.8,0.1,1.6,0,2.3c-0.1,0.7,0.1,1.5-0.1,2.2
		C134.5,156.5,133.4,156.4,132.3,156.9z M126.8,156.6c-0.2-0.6-0.5-1.2-0.7-1.8c-0.1-0.3-0.2-0.7,0-1.1c0.3-0.6,0.2-1.2-0.2-2.1
		c-0.2-0.2-0.6-0.5-1-0.9v-1.4c0.2-0.2,0.4-0.3,0.7-0.5c0-0.2,0-0.5,0.1-0.7c-0.2-0.2-0.5-0.3-0.7-0.5v-1.9c0.4-0.1,0.8-0.3,1.3-0.5
		c-0.1-0.3-0.1-0.6-0.2-0.9c-0.4-0.1-0.7-0.1-1-0.1c-0.1-0.3-0.1-0.6-0.2-0.9c-0.3-0.4-0.7-0.3-1.1-0.1c-0.1,0.3-0.1,0.6-0.2,0.9
		c-0.3,0.1-0.6,0.1-0.9,0.2c-0.1,0.2-0.2,0.5-0.3,0.8c0.5,0.2,0.9,0.3,1.4,0.5v2.8c-0.3,0.2-0.4,0.3-0.7,0.5c0,0.2,0,0.5,0,0.8
		c0.3,0.2,0.5,0.3,0.7,0.5v0.5c-0.3,0.2-0.5,0.4-0.7,0.6c-0.7,0.6-0.9,1.3-0.6,2.1c0.2,0.6,0.1,1.1-0.1,1.6
		c-0.2,0.4-0.3,0.9-0.5,1.4c-0.6,0.4-1.3,0.1-2,0.2c-0.4-0.3-0.2-0.7-0.2-1c0-3.5,0-7.1,0-10.6c0-1.9,0-3.8,0-5.6
		c0-0.4,0.1-0.8,0.1-1.2h9.4c0.2,0.8,0.2,17.5,0,18.4C128.2,156.7,127.5,156.8,126.8,156.6z M30.2,156.7c-0.2-0.7-0.2-17.2-0.1-18.5
		c3.1,0,6.2,0,9.3,0c0.2,0.7,0.2,17.2,0.1,18.5c-0.7,0.1-1.4,0.1-2,0c-0.2-0.5-0.4-0.9-0.6-1.3c-0.2-0.5-0.4-1-0.2-1.6
		c0,0,0-0.1,0-0.1c0.2-1.2,0-2.2-1.3-2.7c0-0.3-0.1-0.5-0.1-0.7c0.3-0.2,0.5-0.3,0.7-0.4c0.3-0.7-0.2-0.9-0.7-1.2
		c0-1-0.1-1.9-0.1-2.8c0.5-0.4,1.2-0.1,1.4-0.9c-0.1-0.1-0.2-0.3-0.4-0.6c-0.3,0-0.6,0-0.9-0.1c-0.1-0.3-0.1-0.8-0.2-1.1
		c-0.2-0.1-0.4,0.1-0.7,0c-0.1,0.4-0.2,0.7-0.3,1.1c-0.2,0-0.5,0.1-0.8,0.1c-0.4,0.2-0.5,0.5-0.4,1c0.3,0.1,0.6,0.1,1,0.2
		c0.5,0.6-0.1,1.4,0,2.1c-0.3,0.2-0.5,0.5-0.7,0.6c0,0.6,0.4,0.8,0.7,1.1v1.5c-0.3,0.3-0.7,0.6-1,0.9c-0.3,0.7-0.4,1.3-0.1,2.1
		c0.2,0.4,0.1,0.9-0.1,1.3c-0.2,0.4-0.3,0.9-0.5,1.3C31.6,156.9,30.9,156.7,30.2,156.7z M23.3,156.6c0-0.3-0.1-0.6-0.1-0.9
		c0-1.2,0-2.4,0-3.6c0-0.4,0.1-0.9,0.1-1.3c0-0.3,0.1-0.7,0-1c-0.2-0.9-0.2-1.7,0-2.6c0.1-0.2,0-0.4,0-0.6c-0.2-2.5-0.2-4.9-0.2-7.4
		c0-0.3,0-0.6,0-1c1.9,0,3.7,0,5.6,0c0.1,1.3,0,2.5,0,3.7c0,1.2,0.1,2.5-0.1,3.6c-0.2,1.2,0.2,2.4,0.1,3.6c-0.1,1.2,0,2.5,0,3.7
		c0,1.2,0,2.5,0,3.9C26.9,156.7,25.1,156.7,23.3,156.6z M96.8,155.7v-5.9c0.6,0.2,0.7,0.7,1,1.1c0.6,1.1,1.1,3.5,1,4.7
		c-0.3,0.1-0.6,0.2-0.9,0.2C97.4,155.8,97.1,155.7,96.8,155.7z M60.8,155.7c-0.2,0-0.4-0.1-0.7-0.2c0.2-1.1,0.3-2.2,0.6-3.2
		c0.2-0.8,0.7-1.5,1.1-2.3c0.2-0.3,0.6-0.4,0.9-0.7c0.2,0.8,0.2,5,0.1,6.3C62.2,155.9,61.4,155.7,60.8,155.7z M100,155.6
		c0.1-0.5,0.1-0.9,0.2-1.3c0.3-1.7,0.9-3.2,2-4.6c0.7-0.9,1.7-1.3,2.8-1.5c0.2-0.1,0.4,0,0.6,0.1c1.6,0.4,2.6,1.4,3.4,2.8
		c0.5,0.9,0.8,1.9,1,2.8c0.1,0.5,0.1,1.1,0.1,1.7c-0.9,0.1-1.7,0-2.6,0c-0.8,0-1.7,0-2.5,0s-1.7,0-2.5,0
		C101.7,155.7,100.9,155.9,100,155.6z M111.4,155.6c0-0.1-0.1-0.1-0.1-0.2c0.1-1.8,0.4-3.6,1.4-5.1c0.3-0.5,0.7-0.9,1.4-1
		c0.6,0.4,1.1,0.8,1.5,1.5c0.5,0.9,0.7,1.8,1,2.8c0.2,0.7,0,1.4,0,2.1C116,155.8,112.1,155.8,111.4,155.6z M42.2,155.7
		c0.1-0.9,0-1.7,0.2-2.4c0.3-0.9,0.5-1.8,1-2.6c0.4-0.6,0.8-1.1,1.4-1.4c1.1,0.2,1.6,1,2,1.8c0.6,1.2,0.8,2.6,0.9,4.5
		c-0.9,0.1-1.8,0.1-2.7,0.1S43.1,155.7,42.2,155.7z M49.3,155.7c-0.1,0-0.1,0-0.2-0.1c-0.1-0.6-0.2-1.3,0-2c0.4-1.2,0.8-2.4,1.5-3.5
		c0.8-1.1,1.8-1.7,3-2c0.8-0.2,1.5,0.3,2.1,0.7c0.6,0.4,1.1,0.9,1.5,1.5c0.9,1.4,1.3,3,1.6,4.6c0,0.1,0,0.3,0.1,0.6
		c-0.3,0.1-0.5,0.1-0.8,0.1C55.2,155.7,52.2,155.7,49.3,155.7z M123.4,152.5c0.2-0.1,0.5-0.3,0.8-0.6c0.3,0.3,0.6,0.5,0.7,0.7
		c0.2,0.5-0.1,0.8-0.4,1.1c-0.2,0-0.4,0-0.6,0C123.4,153.5,123.3,153.1,123.4,152.5z M34,152.6c0.2-0.3,0.5-0.6,1.1-0.5
		c0.1,0.1,0.3,0.4,0.5,0.6c0.2,0.5-0.1,0.8-0.5,1.1C34,153.7,34,153.7,34,152.6z M41,152.1c0-3.4,0-6.9,0-10.4c0-0.7-0.1-1.3-0.1-2
		c0-0.5,0-0.9,0-1.3c0.7-0.3,3.3-0.3,4.7-0.1c0.2,0.7,0.1,1.2-0.5,1.6c-0.7,0.5-1.2,1.2-1.6,2c-0.5,0.9-0.7,1.9-0.9,2.9
		c-0.2,0.8-0.1,1.6-0.1,2.4c0,0.3,0,0.6,0,0.8c0.3,0.1,0.4,0.2,0.6,0.3c0,0.1,0,0.2,0,0.3c-0.4,0.9-0.8,1.9-1.2,2.9
		c-0.2,0.6-0.4,1.2-0.6,2C41,152.9,41,152.5,41,152.1z M117.2,150.9c-0.3-0.7-0.7-1.4-1-2.1c-0.1-0.1-0.1-0.3-0.1-0.5
		c0.2-0.1,0.4-0.3,0.6-0.5c0.1-1.4,0-2.8-0.4-4.2c-0.3-0.9-0.6-1.7-1-2.4c-0.4-0.7-0.9-1.2-1.5-1.6c-0.1-0.1-0.2-0.2-0.3-0.3v-1.1
		c0.6-0.2,3.3-0.2,4.6-0.1c0.1,2.5,0,5,0,7.5c0,2.5,0,5-0.1,7.5C117.7,152.5,117.5,151.7,117.2,150.9z M57,148.2h4.8
		c-1.2,0.9-1.8,2.2-2.4,3.7C58.8,150.5,58.1,149.3,57,148.2z M98.6,149.8c-0.4-0.6-1-1-1.5-1.6h4.9c-1,1.1-1.9,2.1-2.3,3.5
		C99,151.2,98.9,150.4,98.6,149.8z M108.3,148.2h4.7c-0.3,0.7-1.1,0.9-1.3,1.5c-0.2,0.6-0.6,1.2-1,1.9
		C110,150.4,109.3,149.2,108.3,148.2z M46,148.2h4.5c-0.8,1.1-1.5,2.2-2.3,3.4C47.7,150.3,47.2,149.1,46,148.2z M58.4,146.8
		c0-0.1-0.1-0.1-0.1-0.1c0.1-1.7,0.4-3.4,1.3-5c0.3-0.5,0.7-0.8,1.1-1c0.5-0.3,1,0,1.3,0.4c0.3,0.3,0.6,0.8,0.9,1.2v4.5
		C62.2,146.9,59.4,147,58.4,146.8z M102.5,146.3c0.1-1.1,0.2-2.1,0.6-3.1c0.2-0.6,0.4-1.2,0.8-1.7c0.2-0.2,0.4-0.4,0.6-0.6
		c0.4-0.3,0.9-0.3,1.4,0c0.7,0.4,1.1,1.2,1.4,1.9c0.5,1.2,0.7,2.5,0.8,3.8c0,0.1,0,0.1-0.1,0.3c-1.7,0.1-3.5,0-5.3,0.1
		C102.5,146.6,102.5,146.5,102.5,146.3z M109.5,146.8c-0.1-1.7,0.4-3.3,1.2-4.9c0.2-0.4,0.5-0.7,0.9-0.9c0.8-0.6,1.3-0.5,2,0.2
		c0.8,0.8,1.3,1.9,1.5,3.1c0.1,0.7,0.2,1.4,0.3,2.1c0,0.1,0,0.3,0,0.5C114.4,147,110.1,146.9,109.5,146.8z M51,146.8
		c0-0.2,0-0.3,0-0.5c0.1-1.2,0.3-2.5,0.8-3.6c0.3-0.7,0.7-1.3,1.3-1.7c0.5-0.3,0.9-0.3,1.4,0c0.7,0.4,0.9,1.1,1.3,1.8
		c0,0.1,0,0.2,0.1,0.3c0.7,1.2,0.6,2.5,0.8,3.9C55.7,146.9,51.8,146.9,51,146.8z M43.4,146.8c0.1-0.6,0.1-1.1,0.2-1.5
		c0.2-1,0.4-2,0.9-3c0.3-0.5,0.6-1.1,1.2-1.4c0.8-0.4,1.5-0.3,2.1,0.3c0.6,0.7,1,1.5,1.2,2.4c0.3,0.9,0.6,1.8,0.5,2.8
		c0,0.1,0,0.2-0.1,0.5C47.4,146.9,45.4,147,43.4,146.8z M96.7,146.6c0-1.5,0-2.9,0-4.4c0-0.9,0.5-1.4,1.5-1.6
		c1.1,0.6,1.6,1.5,1.9,2.6c0.1,0.3,0.1,0.5,0.3,0.8c0.4,0.9,0.3,1.9,0.3,2.9h-3.8C96.8,146.8,96.7,146.7,96.7,146.6z M99.7,140.2
		c1.2-0.2,3.1-0.2,3.7,0c-0.9,0.9-1.3,2-1.8,3.2C101,142.3,100.8,141.1,99.7,140.2z M55.6,140.2c0.6-0.3,1.2-0.2,1.7-0.2
		c0.5,0,1.1,0,1.8,0c-0.1,0.3-0.2,0.5-0.3,0.6c-0.4,0.6-0.8,1.1-0.9,1.9c0,0.3-0.2,0.5-0.4,0.9C56.8,142.3,56.5,141.1,55.6,140.2z
		 M48.6,140.2c0.7-0.3,2.4-0.3,3.1-0.1c-0.5,0.9-1,1.8-1.5,2.7C49.8,141.9,49.2,141,48.6,140.2z M108,141.4
		c-0.3-0.3-0.5-0.8-0.8-1.3c1.1-0.2,2.6-0.2,3.2,0.1c-0.7,0.8-1.3,1.6-1.5,2.6C108.1,142.6,108.4,141.8,108,141.4z M69.3,141.4
		c-0.6,0-1.2,0-1.8,0c-0.6,0-1.2,0-1.7,0H64c-0.7-0.9-0.9-2.1-1.5-3.3c0.7,0,1.3,0,1.9,0c1.9,0.1,3.8,0,5.6,0.1
		c0.4,1.1,0.7,2,1.1,3.1C70.5,141.6,69.9,141.3,69.3,141.4z M72.6,141.4c-0.1,0-0.2-0.1-0.2-0.1c-0.4-1-0.8-2-1.2-3.1h16.6
		c0,0.2,0.1,0.5,0,0.7c-0.3,0.9-0.6,1.7-0.9,2.6C82.1,141.4,77.4,141.4,72.6,141.4z M88.9,139.7c0.1-0.6,0.3-1.1,0.6-1.6H97
		c-0.5,1.2-0.9,2.2-1.4,3.3h-7.2C88.3,140.7,88.8,140.2,88.9,139.7z M46.8,130.4c1-0.1,2.1,0,3.2-0.1c1.1,0,2.2,0,3.2,0h6.3
		c0.2,0.7,0.3,6.8,0.1,8.3H46.9C46.7,138.1,46.7,131.8,46.8,130.4z M99.2,130.4c1-0.1,2.1,0,3.2-0.1c1.1,0,2.2,0,3.2,0h6.3
		c0.2,0.7,0.3,6.8,0.1,8.3H99.3C99.1,138.1,99.1,131.8,99.2,130.4z M58.3,137.5c0.5-1,0.3-2,0.3-3c0-1,0.3-2-0.3-2.9
		c-0.7-0.7-1.4-0.6-2.1,0.1c-0.4,1.4-0.3,4.8,0.1,5.9C57.2,138.2,57.4,138.2,58.3,137.5z M110.7,137.5c0.5-1,0.3-2,0.3-3
		c0-1,0.3-2-0.3-2.9c-0.7-0.7-1.4-0.6-2.1,0.1c-0.4,1.4-0.3,4.8,0.1,5.9C109.7,138.2,109.8,138.2,110.7,137.5z M50.4,137.1
		c0.1-0.2,0.2-0.5,0.2-0.8c0-1.4,0-2.7,0-4.1c-0.1-0.1-0.1-0.2-0.2-0.3c-0.5-0.7-0.9-0.9-1.5-0.7c-0.7,0.2-1,0.7-1,1.5
		c0,0.8,0,1.5,0,2.3c0,0.6,0,1.1,0,1.7c0,0.7,0.5,1.2,1.2,1.3C49.6,138.1,50.1,137.8,50.4,137.1z M102.8,137.1
		c0.1-0.2,0.2-0.5,0.2-0.8c0-1.4,0-2.7,0-4.1c-0.1-0.1-0.1-0.2-0.2-0.3c-0.5-0.7-0.9-0.9-1.5-0.7c-0.6,0.2-1,0.7-1,1.5
		c0,0.8,0,1.5,0,2.3c0,0.6,0,1.1,0,1.7c0,0.7,0.5,1.2,1.2,1.3C102,138.1,102.6,137.8,102.8,137.1z M54,137.6
		c0.2-0.2,0.3-0.3,0.5-0.5V132c-0.2-0.2-0.3-0.3-0.5-0.5c-0.7-0.6-1.3-0.5-1.8,0.2c-0.2,0.3-0.3,0.6-0.3,0.9c0,1,0,2.1,0,3.1
		c0,0.3,0,0.6,0,0.9c0,0.6,0.3,1,0.8,1.2C53.2,138.1,53.7,138,54,137.6z M106.4,137.6c0.2-0.2,0.3-0.3,0.5-0.5V132
		c-0.2-0.2-0.3-0.3-0.5-0.5c-0.7-0.6-1.3-0.5-1.8,0.2c-0.2,0.3-0.3,0.6-0.3,0.9c0,1,0,2.1,0,3.1c0,0.3,0,0.6,0,0.9
		c0,0.6,0.3,1,0.9,1.2C105.6,138.1,106.1,138,106.4,137.6z M32.8,137c-0.3-0.1-0.7-0.1-1,0c-0.6,0.2-1.1,0.2-1.7,0.2
		c-2.4,0-4.7-0.1-7.1,0c-0.7,0-1.3-0.2-1.5-1c0.1-0.2,0.2-0.4,0.3-0.6c0.4-0.3,0.9-0.3,1.4-0.3c2.5,0,5,0,7.5,0c1.6,0,3.2,0,4.8,0
		c2.9,0,5.8,0,8.7,0.1c0.5,0,1.1,0.1,1.7,0.1v1.6c-0.2,0.1-0.3,0.2-0.5,0.2c-2.6,0.1-5.2,0.1-7.8,0.1c-0.6,0-1.2,0.1-1.7-0.2
		c-0.2-0.1-0.5,0-0.7,0C34.1,137.2,33.5,137.1,32.8,137z M113.4,136.9v-1.7c0.2,0,0.3-0.1,0.5-0.1c2.2,0,4.4,0,6.6,0
		c5,0,9.9,0,14.9,0c0.4,0,0.7,0,1.1,0c0.6,0,1,0.4,1,0.9c0,0.5-0.3,0.8-1,0.9c-0.2,0-0.4,0-0.6,0H113.4z M73.2,136.7
		c0.1-0.7,0.1-1.3,0.3-1.8c0.6-1.5,1.4-2.8,2.9-3.7c0.9-0.5,1.9-1.1,3-0.9c0.2,0,0.4,0,0.6,0c1.8-0.1,3.2,0.8,4.3,2.1
		c1,1.1,1.5,2.4,1.9,3.8c0,0.1,0,0.2,0,0.5C81.8,136.7,77.5,136.7,73.2,136.7z M64.4,136.6c-0.3-1.8,0.7-5,2.7-6.2
		c0.1,0,0.1,0,0.2,0c1.7-0.3,2.4,0.3,3.3,1.9c0.6,0.9,0.8,2,1,3c0.1,0.4,0.1,0.9,0.1,1.3C71.1,136.8,65.4,136.8,64.4,136.6z
		 M62.1,136.1c0-2.4,0-4.8,0-7.2c0-0.4,0.2-0.8,0.3-1.1c0.1-0.4,0.3-0.7,0.4-1.1c0.5-1,0.6-2.1,0.5-3.2c0-0.6-0.1-1.2-0.3-1.7
		c-0.2-0.6-0.5-1.1-0.7-1.7c-0.1-0.3-0.2-0.7-0.2-1c0-3.7,0-7.5,0-11.2c0-0.1,0-0.3,0.1-0.5c1.1-0.2,4.4-0.2,5,0
		c0.7,2.5,2.1,4.6,4,6.4v6.6h-5v4.7c-0.7,0.3-1.3,0.4-1.9,0.9c-0.9,0.9-1.5,1.9-1.5,3.1c0,2.2,0,4.4,0,6.6v1c-0.2,0-0.4,0-0.6,0.1
		C62.2,136.5,62.1,136.3,62.1,136.1z M88.1,134.1c0.3-0.7,0.5-1.4,0.8-2c0.3-0.6,0.8-1.1,1.4-1.5c0.8-0.6,2.4-0.2,3.1,0.6
		c1.2,1.6,1.9,3.3,1.7,5.5h-7.4C87.9,135.8,87.7,135,88.1,134.1z M96.8,136.7v-6.2c0.1-0.1,0.3-0.2,0.5-0.4v6.6H96.8z M84.1,130.5
		c1.2-0.2,3.7-0.1,4.4,0.1c-0.8,0.9-1.2,2-1.6,3.3C86,132.6,85.3,131.3,84.1,130.5z M41.6,133.7c0.1-1.4,0.9-2.4,2-3.2
		c1.1-0.2,1.1-0.1,2.1,0.7v2.5C44.9,133.8,42.5,133.8,41.6,133.7z M34.9,129.6c2,0,4.2,1.1,5.1,4.1c-3.3,0-6.6,0-9.8,0
		C30.7,131.4,32.7,129.7,34.9,129.6z M23.4,133.4c0.3-1.1,0.7-2.1,1.7-2.8c0.6-0.4,1.2-0.4,1.8,0.1c1,0.7,1.5,1.7,1.7,2.9
		c-0.1,0.1-0.2,0.1-0.3,0.1c-1.6,0-3.2,0-4.8,0C23.5,133.6,23.4,133.5,23.4,133.4z M123.6,129.7c2.1-0.1,4.4,1.1,5.2,4.1h-9.7
		C119.3,132.1,121.1,129.8,123.6,129.7z M113.4,133.7v-2.7c0.3-0.2,0.6-0.4,0.9-0.7h1c1.3,0.7,2,1.8,2.1,3.3H113.4z M132.5,130.4
		c0.9-0.2,1.6,0.3,2.2,1c0.5,0.7,0.7,1.4,1,2.3h-5.3C130.6,132.3,131.1,131.1,132.5,130.4z M71.9,132c-0.4-0.4-0.6-1-0.9-1.5
		c0.7-0.2,3.2-0.2,4.1,0c-0.5,0.5-0.9,1-1.4,1.5c-0.4,0.5-0.7,1-1.1,1.5C72.1,133.2,72.3,132.4,71.9,132z M38.9,129.7
		c0.6-0.2,1.1-0.1,1.7-0.1c0.5,0,1.1,0,1.8,0c-0.4,0.4-0.7,0.7-1,1.1c-0.3,0.4-0.5,0.8-0.7,1.2C40.1,131.2,39.5,130.5,38.9,129.7z
		 M116.7,129.7h3.3c-0.6,0.7-1.2,1.5-1.7,2.2C117.8,131.1,117.3,130.4,116.7,129.7z M94.4,130.5c0.3-0.1,0.6-0.1,0.9-0.1
		c0,0.5-0.1,0.9-0.1,1.4C94.9,131.3,94.7,130.9,94.4,130.5z M27.9,129.7h3.3c-0.6,0.7-1.2,1.4-1.7,2.1
		C29,131.1,28.5,130.4,27.9,129.7z M128.7,130.7c-0.3-0.3-0.6-0.6-0.9-1c0.1,0,0.2-0.1,0.3-0.1c1,0,1.9,0,3,0
		c-0.6,0.7-1.1,1.4-1.6,2C129.1,131.5,129,131,128.7,130.7z M64,131.6c0-0.3,0-0.7,0.1-1.1h1c-0.4,0.5-0.7,0.9-0.9,1.2
		C64.1,131.6,64.1,131.6,64,131.6z M23.2,130.4c0-0.2,0-0.5,0.1-0.7h1c-0.3,0.4-0.6,0.6-0.8,0.9C23.3,130.5,23.3,130.5,23.2,130.4z
		 M134.8,129.7c0.3,0,0.5,0,0.8,0c0,0.3,0,0.5,0.1,0.7c-0.1,0-0.1,0-0.2,0.1C135.2,130.2,135.1,130,134.8,129.7z M46.3,129
		c-0.4-0.6-0.9-1.3-1.3-2c0.2-0.6,0.7-0.6,1-0.5c0.9,0.8,1.7,1.6,2.5,2.4C48.1,129.2,47.6,129.2,46.3,129z M98.8,129
		c-0.4-0.6-0.9-1.3-1.3-2c0.2-0.6,0.7-0.6,1-0.5c0.9,0.8,1.7,1.6,2.5,2.4C100.5,129.2,100.1,129.2,98.8,129z M57.7,129
		c0.9-0.9,1.7-1.6,2.6-2.5c0.4-0.1,0.7,0,1.1,0.4c-0.3,0.8-0.6,1.6-1.4,2.2C59.2,129.1,58.5,129.3,57.7,129z M110.1,129
		c0.9-0.9,1.7-1.6,2.6-2.5c0.3-0.1,0.7,0,1.1,0.4c-0.3,0.8-0.6,1.6-1.4,2.2C111.7,129.1,110.9,129.3,110.1,129z M50.4,128.9
		c0.9-0.6,1.8-1.1,2.7-1.6c0.9,0.5,1.8,1,2.8,1.6c-0.1,0.1-0.2,0.1-0.3,0.1c-1.7,0-3.3,0-5,0C50.6,129.1,50.5,129,50.4,128.9z
		 M102.9,128.9c0.9-0.6,1.8-1.1,2.7-1.6c0.9,0.5,1.8,1,2.8,1.6c-0.1,0.1-0.2,0.1-0.3,0.1c-1.7,0-3.3,0-5,0
		C103,129.1,103,129,102.9,128.9z M81,129.1c-0.2,0-0.4-0.1-0.7-0.1c0.3-1.8,2.5-3,4.5-2.8c1.8,0.1,3.6,1.1,4.1,2.8
		c-0.2,0-0.4,0.1-0.6,0.1C85.9,129.1,83.5,129.1,81,129.1z M70.2,128.9c0.4-1.8,2.6-2.9,4.5-2.8c1.7,0.1,3.8,1.2,4,2.8
		c-0.2,0.1-0.4,0.2-0.6,0.2c-2.5,0-4.9,0-7.4,0C70.6,129.1,70.4,129,70.2,128.9z M91.3,128c0.2-0.3,0.3-0.6,0.5-0.9
		c0.2-0.2,0.5-0.4,0.9-0.7h1.7c0.8,0.7,1.6,1.4,1.5,2.5h-4.5C91,128.6,91.1,128.3,91.3,128z M64.2,129c0.2-1.9,1.3-2.9,3.1-2.4
		c1,0.7,1.3,1.1,1.4,2.4C67.2,129,65.8,129,64.2,129z M46.7,126.2c1.1-0.7,2-1.2,3-1.8c0.9,0.8,1.9,1.7,2.9,2.6
		c-1.1,0.6-2.1,1.2-3.2,1.8C48.4,127.9,47.3,127.3,46.7,126.2z M99.1,126.2c1.1-0.7,2-1.2,3-1.8c0.9,0.8,1.9,1.7,2.9,2.6
		c-1.1,0.6-2.1,1.2-3.1,1.8C100.9,127.9,99.8,127.3,99.1,126.2z M53.7,127c1.1-0.9,2-1.8,2.9-2.6c1,0.6,2,1.1,3,1.8
		c-0.7,1.1-1.7,1.8-2.8,2.6C55.8,128.2,54.8,127.6,53.7,127z M106.1,127c1.1-0.9,2-1.8,2.9-2.6c1,0.6,1.9,1.1,3,1.8
		c-0.7,1.1-1.7,1.8-2.8,2.6C108.3,128.2,107.3,127.6,106.1,127z M29.6,128.4c-0.9,0-1.8,0.1-2.7-0.1v-12.5c0.2-0.1,0.3-0.1,0.5-0.1
		c5.2,0,10.3,0,15.6,0c0,0.3,0.1,0.4,0.1,0.6c0,1.8,0.1,3.5,0,5.3c-0.1,1.1-0.3,2.3-0.1,3.4c0.2,1,0.1,2,0.2,2.9
		c0,0.1,0,0.3-0.1,0.5c-0.9,0.1-1.8,0-2.7,0c-0.9,0-1.8,0-2.7,0s-1.8,0-2.7,0s-1.8,0-2.7,0S30.5,128.4,29.6,128.4z M115.8,126.5
		c0-1.7,0-4.4,0-6.7c0-0.3,0-0.5,0-0.8c0.1-0.8,0-1.7,0-2.5c0-0.2,0-0.5,0.1-0.7c0,0,0.1,0,0.1-0.1c0,0,0,0,0,0c0,0,0,0,0,0
		c0,0,0,0,0,0c0,0,0.1,0,0.1,0l0,0h0c0.1,0,0.2,0,0.4,0l7.5,0l7.5,0c0.1,0,0.2,0,0.4,0l0,0l0,0c0,0,0.1,0,0.1,0c0,0,0,0,0.1,0l0,0
		c0,0,0,0,0,0c0,0,0,0,0.1,0.1c0,0.2,0.1,0.4,0.1,0.7c0,0.8,0,1.7,0,2.5c0,0.3,0,0.6,0,0.8c0,2.2,0,4.9,0,6.7c0,0.6,0,1.2-0.1,1.9
		h-16.2C115.8,127.7,115.8,127.1,115.8,126.5z M90,127.8c-2.5-4-7.9-3.8-10.4-0.4c-1.3-1.5-2.8-2.5-4.9-2.5
		c-2.1-0.1-3.6,0.8-4.9,2.2c-0.7-0.6-1.3-1.2-2.1-1.9v-3.5c0.7-0.2,22.8-0.2,24.1-0.1c0,0.2,0.1,0.4,0.1,0.6c0,1,0,1.9,0,2.9
		c0,0.4-0.1,0.7-0.4,0.9C90.8,126.4,90.4,127.1,90,127.8z M36.4,125c0-0.1,0-0.2,0-0.3c0-1.8,0-3.7,0-5.5c0-0.5,0-1-0.4-1.5
		c-0.3-0.2-0.7-0.3-0.9-0.5c-0.4,0.2-0.7,0.3-1.1,0.5c-0.1,0.4-0.2,0.8-0.2,1.2c0,2,0,4.1,0,6.1c0,0.5,0.1,1,0.5,1.4
		c0.2,0.1,0.5,0.2,0.8,0.3C36.2,126.3,36.4,126.1,36.4,125z M31.4,125.2c0-0.1,0-0.1,0-0.2c0-2,0-4,0-6c0-0.4-0.1-0.8-0.2-1.2
		c-0.4-0.2-0.7-0.3-1.1-0.5c-0.3,0.2-0.6,0.3-1.1,0.5c-0.1,0.4-0.2,0.7-0.2,1.1c0,2,0,4.1,0,6.1c0,0.5,0.1,1,0.5,1.4
		c0.3,0.1,0.5,0.2,0.8,0.3C31.1,126.3,31.3,126.1,31.4,125.2z M41.1,126.4c0.4-0.4,0.5-0.9,0.5-1.5c0-1.9-0.1-3.8,0-5.7
		c0-0.9-0.3-1.5-1.2-1.9c-0.5,0.1-1.1,0.3-1.4,0.9v7.6c0.5,0.6,0.9,0.8,1.4,0.8C40.6,126.6,40.8,126.5,41.1,126.4z M125,125.9
		c0-2.3,0.1-4.7,0.1-7.2c0-0.1,0-0.2,0-0.3c0-0.2-0.1-0.4-0.1-0.7c-0.3-0.2-0.7-0.4-1-0.5c-0.3,0.2-0.7,0.3-1,0.5
		c-0.1,0.2-0.1,0.4-0.1,0.7c0,0.1,0,0.2,0,0.3c0,2.4,0.1,4.9,0.1,7.2c0.2,0.6,0.7,0.6,1.1,0.7C124.3,126.5,124.8,126.5,125,125.9z
		 M119.4,126.4c0.2-0.2,0.4-0.5,0.5-0.7v-7.4c-0.3-0.5-0.6-0.9-1.1-1c-0.3,0.1-0.6,0.3-0.9,0.4c-0.2,0.9-0.2,7-0.1,8.4
		c0.3,0.1,0.6,0.3,0.9,0.5C119,126.6,119.2,126.5,119.4,126.4z M130,126.2c0.2-1.4,0.1-7.5-0.1-8.4c-0.3-0.1-0.6-0.3-0.9-0.4
		c-0.5,0.1-0.9,0.5-1.1,1v7.4c0.2,0.2,0.4,0.5,0.5,0.7c0.2,0.1,0.4,0.1,0.7,0.2C129.4,126.5,129.7,126.3,130,126.2z M50.2,124
		c1-0.8,1.9-1.7,2.9-2.5c1,0.8,1.9,1.6,2.9,2.5c-0.7,1.1-1.9,1.7-2.9,2.6C52.2,125.7,51,125.1,50.2,124z M102.7,124
		c1-0.8,1.9-1.7,2.9-2.5c1,0.8,1.9,1.6,2.9,2.5c-0.8,1.1-1.9,1.7-2.9,2.6C104.6,125.7,103.5,125.1,102.7,124z M60.8,125.9
		c0.4-0.7,0.7-1.4,1.2-2.2c0.4,1-0.1,1.7-0.2,2.5C61.4,126.1,61.1,126,60.8,125.9z M113.2,125.9c0.4-0.7,0.7-1.4,1.2-2.2
		c0.4,1-0.1,1.7-0.2,2.5C113.8,126.1,113.6,126,113.2,125.9z M44,123.8h0.3c0.4,0.7,0.7,1.4,1.1,2.1c-0.3,0.1-0.5,0.2-0.9,0.3
		C44.4,125.4,44.2,124.6,44,123.8z M96.5,123.8h0.3c0.4,0.7,0.7,1.4,1.1,2.1c-0.3,0.1-0.5,0.2-0.9,0.3
		C96.9,125.4,96.7,124.6,96.5,123.8z M93.2,124.9c-0.1-0.6,0-1.4-0.1-2.1c0-0.7,0-1.5,0-2.3c-0.8-0.2-1.6-0.1-2.4-0.1
		c-0.8,0-1.6,0-2.4,0c-0.3-0.7-0.1-1.5-0.1-2.2c0-0.7,0-1.4,0-2.1c0-0.7-0.1-1.5,0.1-2.2c1.5-0.5,2.5-1.5,3.4-2.6
		c0.9-1.1,1.5-2.4,1.8-3.9c1.2-0.3,2.4-0.1,3.7-0.1c0.2,0.7,0.3,7.6,0.1,11.7c-1.6,2.1-2,4.4-1.5,6.9
		C95,125.5,94.2,125.2,93.2,124.9z M57.1,123.9c0.7-1,1.4-1.9,2.1-2.8c0.9,0.5,1.7,1.1,2.6,1.6c-0.5,0.9-1,1.8-1.5,2.8
		C59,125.3,58.2,124.5,57.1,123.9z M109.5,123.9c0.7-1,1.4-1.9,2.1-2.8c0.9,0.5,1.7,1.1,2.6,1.6c-0.5,0.9-1,1.8-1.5,2.8
		C111.5,125.3,110.6,124.5,109.5,123.9z M44.4,122.7c0.9-0.6,1.8-1.1,2.7-1.6c0.7,0.9,1.3,1.7,2,2.7c-0.7,0.7-1.5,1.1-2.3,1.5
		c-0.2,0.1-0.5,0.1-0.8,0.2C45.4,124.6,45,123.7,44.4,122.7z M96.9,122.7c0.9-0.6,1.8-1.1,2.7-1.6c0.7,0.9,1.3,1.7,2,2.7
		c-0.7,0.7-1.5,1.1-2.3,1.5c-0.2,0.1-0.5,0.1-0.8,0.2C97.9,124.6,97.4,123.7,96.9,122.7z M47.6,120.8c1-0.9,1.9-1.8,2.8-2.7
		c0.8,1.1,1.5,2,2.3,2.9c-0.9,0.9-1.9,1.8-3,2.5C49,122.6,48.3,121.7,47.6,120.8z M100.1,120.8c1-0.9,1.9-1.8,2.8-2.7
		c0.8,1.1,1.5,2,2.3,2.9c-1,0.9-1.9,1.8-3,2.5C101.4,122.6,100.8,121.7,100.1,120.8z M53.6,121.1c0.7-1,1.5-2,2.3-3
		c0.9,0.9,1.9,1.7,2.8,2.7c-0.7,0.9-1.3,1.8-2,2.7C55.4,122.9,54.6,122,53.6,121.1z M106.1,121.1c0.8-1,1.5-2,2.3-3
		c0.9,0.9,1.9,1.7,2.8,2.7c-0.7,0.9-1.3,1.8-2,2.7C107.9,122.9,107.1,122,106.1,121.1z M44.5,121.5c0.3-1,1-2,1.5-2.3
		c0.3,0.5,0.5,0.9,0.7,1.4c-0.7,0.5-1.4,0.9-2.2,1.4C44.6,121.7,44.5,121.6,44.5,121.5z M97,121.5c0.3-1,1-2,1.5-2.3
		c0.3,0.5,0.5,0.9,0.7,1.4c-0.7,0.5-1.4,0.9-2.2,1.4C97,121.7,97,121.6,97,121.5z M59.4,120.5c0.3-0.5,0.5-0.9,0.8-1.3
		c0.8,0.7,1.1,1.7,1.7,2.7C60.8,121.6,60.2,121,59.4,120.5z M111.9,120.5c0.3-0.5,0.5-0.9,0.8-1.3c0.8,0.7,1.1,1.7,1.7,2.7
		C113.3,121.6,112.6,121,111.9,120.5z M51.9,119.2c-0.4-0.5-0.7-1.1-1.1-1.6c0.7-1.1,1.4-2.1,2.2-3.1c0,0,0.2,0,0.3,0
		c0.7,1,1.3,2,2,3.1c-0.4,1.1-1.3,1.9-2,2.9C52.6,120.3,52.3,119.6,51.9,119.2z M104.4,119.2c-0.4-0.5-0.7-1.1-1.1-1.6
		c0.7-1.1,1.4-2.1,2.1-3.1c0,0,0.2,0,0.3,0c0.7,1,1.3,2,2,3.1c-0.4,1.1-1.3,1.9-2.1,2.9C105.1,120.3,104.8,119.6,104.4,119.2z
		 M72.6,120.4v-6h14.1v6H72.6z M56.2,117.5c0.3-0.7,0.7-1.3,1-1.9c0.9,1,1.7,1.9,2.5,2.7c-0.2,0.7-0.3,1.3-0.9,1.7
		C57.8,119.4,57,118.4,56.2,117.5z M108.6,117.5c0.4-0.7,0.7-1.3,1.1-1.9c0.9,1,1.7,1.9,2.5,2.7c-0.2,0.7-0.3,1.3-0.9,1.7
		C110.3,119.4,109.5,118.4,108.6,117.5z M46.5,118.4c0.2-0.2,0.2-0.4,0.4-0.6c0.7-0.7,1.4-1.4,2.2-2.2c0.4,0.7,0.7,1.3,1,1.9
		c-0.9,0.9-1.7,1.8-2.7,2.5C46.8,119.6,46.8,119,46.5,118.4z M99,118.4c0.1-0.2,0.2-0.4,0.4-0.6c0.7-0.7,1.4-1.4,2.2-2.2
		c0.3,0.7,0.7,1.3,1,1.9c-0.9,0.9-1.7,1.8-2.7,2.5C99.3,119.6,99.2,119,99,118.4z M80.6,119.1v-3.6c-0.2-0.3-0.4-0.6-0.9-0.6
		c-0.1,0.2-0.3,0.4-0.4,0.6v3.6c0.2,0.2,0.5,0.3,0.7,0.5C80.2,119.4,80.4,119.2,80.6,119.1z M85.2,118.7c0-1.2,0.2-2.5-0.2-3.6
		c-0.5-0.4-0.7-0.1-1,0.2v4c0.2,0.1,0.4,0.2,0.6,0.3C85,119.3,85.2,119.1,85.2,118.7z M76,119.2v-3.9c-0.2-0.1-0.4-0.3-0.6-0.5
		c-0.6,0.5-0.6,0.5-0.7,0.9c0,1.1,0,2.3,0,3.4c0.2,0.2,0.4,0.3,0.7,0.4C75.6,119.4,75.7,119.3,76,119.2z M54.5,115.3
		c-0.4-0.5-0.7-1.1-1-1.6c0.2-0.5,0.4-1,0.7-1.5c0,0,0.1,0,0.3-0.1c0.5,1.2,1.6,2.1,2.3,3.2c-0.3,0.6-0.6,1.1-0.9,1.9
		C55.2,116.4,54.8,115.8,54.5,115.3z M106.9,115.3c-0.3-0.5-0.7-1.1-1-1.6c0.2-0.5,0.4-1,0.7-1.5c0,0,0.1,0,0.3-0.1
		c0.5,1.2,1.5,2.1,2.3,3.2c-0.3,0.6-0.6,1.1-0.9,1.9C107.7,116.4,107.3,115.8,106.9,115.3z M49.5,115.2c0.8-1.1,1.6-2.1,2.4-3.2
		c0.5,0.5,0.5,1.2,0.9,1.6c-0.7,1.1-1.3,2.3-2.3,3.3C49.9,116.4,49.9,115.7,49.5,115.2z M102,115.2c0.8-1.1,1.6-2.1,2.4-3.2
		c0.5,0.5,0.5,1.2,0.9,1.6c-0.7,1.1-1.3,2.3-2.3,3.3C102.4,116.4,102.4,115.7,102,115.2z M116.1,115.6 M131.8,115.6 M27,114.3v-1.7
		c0.3-0.4,0.7-0.2,1-0.2c2.2,0,4.5,0,6.8,0c2.5,0,4.9,0,7.4,0c0.3,0,0.6,0,0.9,0v1.9C42.4,114.4,28.8,114.4,27,114.3z M115.8,114.3
		c0-0.5,0-1,0-1.5c0-0.1,0-0.2,0.1-0.4c0.2,0,0.4-0.1,0.6-0.1c4.9,0,9.9,0,14.8,0c0.2,0,0.5,0.1,0.7,0.1v1.8c0,0,0,0.1-0.1,0.1
		c0,0,0,0.1-0.1,0.1c-5.2,0-10.4,0-15.6,0C116.2,114.3,116,114.3,115.8,114.3z M72.9,112.1c0.6-1.4,0.5-3,0.5-4.5
		c0-0.3-0.1-0.6-0.2-0.9c-0.3-1.4-0.7-2.9-1.5-4.1c-0.4-0.7-0.9-1.3-1.3-2c-0.3-0.4-0.5-0.7-0.8-1.1c0.5-1,1.2-2,2-2.9
		c0.2,0.2,0.5,0.4,0.6,0.7c1.1,1.5,2.1,3,3.2,4.6c0.7,1,1.3,2.1,1.7,3.2c0.4,1.1,0.8,2.1,0.8,3.4c-0.1,1.1-0.1,2.1-0.6,3
		c-0.3,0.5-0.6,1.1-1,1.4h-3.5C72.8,112.6,72.8,112.4,72.9,112.1z M78.4,112c0.6-1.2,0.7-2.5,0.7-3.7c0-0.9-0.2-1.9-0.5-2.8
		c-0.7-1.9-1.7-3.6-2.9-5.2c-0.9-1.3-1.8-2.6-2.7-3.9c-0.2-0.3-0.3-0.5-0.4-0.8c0.7-0.7,1.3-1.4,2-2.1c0.4,0.4,0.7,0.8,1,1.1
		c0.8,0.9,1.7,1.8,2.5,2.7c0.1,0.1,0.2,0.3,0.3,0.4c0.3,0.3,0.5,0.7,0.8,1c0.4,0.4,0.9,0.8,1.1,1.4c0.1,0.3,0.2,0.5,0.4,0.7
		c0.5,0.5,1,1.1,1.1,1.9c0.1,0.6,0.6,1.1,0.8,1.7c0.2,0.7,0.3,1.3,0.5,2c0.3,1.5,0.1,3-0.2,4.4c-0.2,0.7-0.5,1.5-1.2,2.1h-3.5
		C78.2,112.5,78.3,112.3,78.4,112z M83.4,112.4c0.5-0.6,0.5-1.3,0.7-2c0.5-1.5,0.4-3,0.1-4.5c-0.2-1-0.6-1.9-0.9-2.9
		c-0.1-0.3-0.3-0.6-0.5-0.9c-0.4-0.7-0.7-1.5-1.1-2.2c-0.3-0.5-0.7-0.9-1.1-1.3c-0.4-0.6-0.9-1.2-1.3-1.7c-0.1-0.1-0.1-0.2-0.2-0.2
		c-1.1-0.6-1.6-1.7-2.4-2.5c-0.3-0.3-0.6-0.7-0.8-1.1c-0.2-0.2-0.3-0.5-0.4-0.7c0.6-0.8,1.2-1.4,1.7-2.1c0.2,0.2,0.4,0.3,0.5,0.4
		c1.2,1.3,2.3,2.6,3.5,3.8c2,1.9,3.7,4.1,5.2,6.3c1,1.4,1.6,3,1.9,4.8c0.3,1.6,0.2,3.1-0.1,4.7c-0.2,0.8-0.7,1.6-1,2.5h-3.9
		C83.4,112.8,83.3,112.5,83.4,112.4z M52.4,111.1c0.3-0.6,0.5-1.1,0.7-1.7c0,0,0.1,0,0.2,0c0.2,0.5,0.4,1.1,0.6,1.7
		c-0.2,0.5-0.4,1-0.6,1.6c-0.1,0-0.2,0-0.3,0.1C52.8,112.1,52.6,111.6,52.4,111.1z M104.8,111.1c0.3-0.6,0.5-1.1,0.8-1.7
		c0,0,0.1,0,0.2,0c0.2,0.5,0.4,1.1,0.6,1.7c-0.2,0.5-0.4,1-0.6,1.6c-0.1,0-0.2,0-0.3,0.1C105.2,112.1,105,111.6,104.8,111.1z
		 M69,101c2.1,2,4,6.5,2.7,11c-0.1,0-0.2,0.1-0.3,0.1C68.1,109,67.4,104.1,69,101z M89.6,110.5c0.3-1,0.5-2.1,0.4-3.2
		c0-0.3-0.1-0.5-0.1-0.8c-0.2-1.3-0.5-2.6-1.1-3.9c-0.5-1.1-1.2-2.2-1.9-3.2c-0.7-1.1-1.6-2-2.5-3c-0.6-0.7-1.3-1.4-1.9-2
		c-1.2-1.3-2.4-2.6-3.6-3.9c-0.1-0.1-0.1-0.3-0.2-0.5h3.4c0.9,1.2,2,2.3,3.1,3.3c1.8,1.7,3.6,3.5,5,5.6c0.8,1.2,1.5,2.5,1.9,3.9
		c0.2,0.8,0.1,1.7,0.2,2.6c0,0.2-0.1,0.5-0.1,0.7c0,2.1-1,3.8-2.4,5.3c-0.1,0.1-0.2,0.1-0.3,0.1C89.4,111.2,89.5,110.8,89.6,110.5z
		 M25.1,110.3c-1-0.7-1.7-1.6-2.1-2.8c-0.1-0.2-0.1-0.4-0.1-0.6c0-0.3,0-0.6,0-0.8c-0.2-2.2,0.7-3.9,1.9-5.6
		c1.1-1.5,2.5-2.6,3.9-3.9c0.3-0.3,0.6-0.6,1-0.9c0.1-0.1,0.3-0.2,0.5-0.3l0,0c0-0.5,0.6-0.6,0.7-1.2c0,0.3,0,0.6-0.7,1.3
		c-0.1-0.1,0,0,0,0c-0.1,0.5-0.5,0.8-0.9,1.1c-1.1,1.2-2.1,2.4-2.9,3.8c-0.5,0.8-0.9,1.7-1.1,2.6c-0.4,1.3-0.5,2.7-0.3,4.1
		c0.2,1.4,0.8,2.6,1.8,3.6c0.1,0.1,0.1,0.2,0.1,0.3C26.1,111.3,25.6,110.7,25.1,110.3z M113.6,110c0.4-0.3,0.7,0,0.9,0.1
		c1,0.4,2.1,0.4,3.1,0c0.7-0.2,1.3-0.4,2-0.6c0.3-0.1,0.6,0,0.8,0c0.5,0.1,0.9,0.3,1.4,0.5c0.8,0.3,1.6,0.5,2.4,0.4
		c0.5,0,0.9-0.1,1.3-0.2c0.6-0.3,1.3-0.5,2-0.6c0.3-0.1,0.7-0.1,1,0c0.6,0.1,1.2,0.3,1.7,0.5c0.8,0.4,1.6,0.3,2.5,0.3
		c0.2,0,0.4-0.2,0.6-0.2c0.1,0,0.3,0,0.6,0c-0.2,0.2-0.2,0.2-0.2,0.2c-0.8,0.7-1.8,0.6-2.8,0.6c-5.1,0-10.2,0-15.4,0
		C114.8,111,114.2,110.5,113.6,110z M26.5,109.3c-0.4-0.7-0.7-1.4-0.9-2.3c-0.2-1.1,0-2.1,0.1-3.2c0-0.2,0.1-0.4,0.1-0.6
		c0.8-2.4,2.3-4.3,3.9-6.2c1-1.1,1.9-2.3,2.6-3.6c0.4-0.9,1-1.8,1.5-2.6c0.1-0.1,0.2-0.2,0.5-0.4c-0.1,0.8-0.2,1.5-0.4,2.1
		c-0.4,1.5-0.8,3-1.4,4.4c-0.4,1-0.8,2.1-1.1,3.2c-0.3,1.5-0.8,2.9-0.7,4.4c0,0.3,0,0.7,0,1c0,2.5,0.1,3.2,0.8,5.4
		c-0.1,0-0.2,0.1-0.3,0.1c-1,0-2.1,0-3.3,0C27.5,110.5,26.9,109.9,26.5,109.3z M31.6,109.2c-0.6-2.3-0.6-4.5-0.2-6.8
		c0.2-1.2,0.5-2.4,0.8-3.6c0.2-0.6,0.4-1.2,0.7-1.8c0.3-0.7,0.6-1.5,0.9-2.2c0.3-0.9,0.4-1.9,0.7-2.8c0.1-0.5,0.3-1,0.4-1.5
		c0.4-0.2,0.6,0,0.7,0.3c0.2,1.6,0.8,3.1,1.2,4.7c0.1,0.6,0.4,1.1,0.6,1.7c0.2,0.6,0.4,1.1,0.6,1.7c0.8,2.5,1.2,5.1,1,7.8
		c-0.1,1.4-0.3,2.9-1.1,4.2h-5.5C31.9,110.4,31.8,109.8,31.6,109.2z M39.3,108.9c0.1-0.6,0.2-1.3,0.2-1.9c0-0.9,0-1.7,0-2.6
		c0.1-1.2-0.3-2.3-0.4-3.5c-0.1-1-0.5-1.9-0.7-2.9c-0.1-0.6-0.3-1.2-0.6-1.7c-0.4-0.7-0.5-1.6-0.8-2.3c-0.3-1-0.5-1.9-0.8-2.9
		c0-0.1,0-0.3,0-0.5c0.2,0,0.3,0,0.5-0.1c0.6,1,1.2,1.9,1.7,2.9c0.7,1.3,1.5,2.4,2.4,3.5c1.2,1.3,2.2,2.7,2.9,4.4
		c0.4,1,0.8,2,0.9,3.2c0.1,1,0.1,2-0.1,2.9c-0.2,1.3-0.8,2.3-1.8,3.2c-0.2,0.2-0.4,0.3-0.6,0.5h-3.4
		C38.9,110.2,39.1,109.6,39.3,108.9z M43.4,110.6c0.7-0.6,1.1-1.4,1.5-2.3c0.2-0.6,0.3-1.4,0.4-2.1c0.1-0.8-0.1-1.6-0.1-2.4
		c-0.1-1-0.4-1.8-0.7-2.7c-0.4-1.1-1.1-2.2-1.8-3.2c-0.7-0.9-1.4-1.8-2.1-2.7c-0.3-0.4-0.6-0.7-0.8-1.1c-0.1-0.1-0.1-0.3-0.1-0.5
		c-0.2-0.2-0.4-0.4-0.7-0.7c0.3,0.1,0.5,0.1,0.8,0.6c0.1,0.1,0.3,0.2,0.4,0.3c0.8,1.1,1.8,2.1,2.8,3c0.9,0.9,1.8,1.8,2.6,2.8
		c0.9,1.1,1.5,2.5,1.9,3.9c0.2,0.7,0,1.5,0.1,2.3c0.1,1.9-1,3.3-2.5,4.3c-0.8,0.6-0.9,0.5-1.5,0.5C43.3,110.8,43.3,110.7,43.4,110.6
		z M121.5,108.6c-1.1-0.4-2.1-0.5-3.2,0c-0.7,0.3-1.5,0.4-2.2,0.5c-0.3,0.1-0.7-0.1-1.1-0.2c-0.9-0.2-1.7-0.5-2.6-0.2
		c-0.3-0.7-0.9-1.2-0.7-2c0.7-0.3,1.7-0.3,2.3,0c1.1,0.5,2.2,0.5,3.3,0c0.5-0.3,1.1-0.4,1.7-0.5c0.5-0.1,1,0,1.5,0.1
		c1.1,0.3,2.1,0.9,3.4,0.7c0.3-0.1,0.7-0.1,1-0.2c0.7-0.2,1.4-0.5,2.2-0.7c0.4-0.1,0.9-0.1,1.3,0c0.7,0.1,1.3,0.4,1.9,0.6
		c1,0.4,2,0.4,3-0.1c0.9-0.4,1.9-0.4,2.7,0.4c-0.3,0.6-0.5,1.1-0.7,1.5c-0.9,0-1.7,0.1-2.5,0.3c-0.5,0.1-1,0.2-1.4,0.1
		c-0.6-0.1-1.2-0.3-1.7-0.5c-1.1-0.4-2.1-0.4-3.1,0c-0.7,0.3-1.5,0.5-2.3,0.7c-0.2,0.1-0.4,0.1-0.6,0
		C123,109,122.2,108.8,121.5,108.6z M52.4,107.5c0-0.3-0.1-0.5-0.1-0.8c0.2-0.2,0.4-0.4,0.5-0.6c-0.1-0.9-0.1-1.7-0.2-2.5
		c-0.4-0.5-1.3-0.6-1.3-1.5c0.2-0.2,0.3-0.4,0.5-0.5c0.3,0,0.5,0.1,0.7,0.1c0.2-0.9,0.2-3.2-0.1-4H51c-0.4-0.3-0.5-0.5-0.3-0.9
		s0.5-0.4,0.8-0.4c0.3,0,0.5,0,0.8,0.1c0.6-0.5-0.1-1.5,0.7-1.9c0.5,0,0.5,0,1,0.5v1.4c0.4,0,0.7,0,1,0c0.3,0,0.6,0,0.8,0.3
		c0.1,0.3,0.1,0.3-0.2,0.9H54c0,0.9,0,1.7,0,2.5c0,0.8,0,1.6,0,2.4c0.3,0.2,0.7,0.5,1.1,0.7c0,0.2,0,0.5,0.1,0.9
		c-0.4,0-0.7,0.1-1.1,0.1c-0.1,0.5-0.1,1-0.2,1.6c0.1,0.3,0.3,0.6,0.4,0.9c-0.1,0.6-0.5,1-1.1,1.1C52.9,107.8,52.7,107.7,52.4,107.5
		z M104.7,106.7c0.1-0.2,0.3-0.5,0.5-0.7c-0.1-0.6-0.1-1.1-0.2-1.7c-0.5,0.1-1.1,0.2-1.2-0.5c0.1-0.8,0.9-0.8,1.3-1.3v-4.8
		c-0.5,0-1-0.1-1.5-0.1c-0.1-0.1-0.3-0.3-0.4-0.5c0.1-0.2,0.2-0.4,0.3-0.6c0.6-0.1,1.1-0.1,1.7-0.2V95c0.2-0.2,0.4-0.3,0.6-0.5
		c0.6,0.1,0.8,0.4,0.8,0.9c0,0.3,0,0.7,0.1,1c1.6,0.1,1.6,0.1,1.9,0.7c0,0.1-0.1,0.2-0.2,0.3c0,0.1-0.1,0.1-0.2,0.3h-1.4
		c-0.2,0.7-0.3,2.8-0.1,4c0.2,0,0.4-0.1,0.6-0.1c0.1,0.1,0.3,0.3,0.4,0.4c0.1,0.1,0.1,0.3,0.3,0.5c-0.4,0.3-0.8,0.6-1.3,1.1
		c-0.1,0.7-0.1,1.6-0.2,2.5c0.1,0.1,0.3,0.3,0.5,0.6c0,0.9-0.1,1-1.1,1.3C105,107.8,104.7,107.4,104.7,106.7z M93.7,104.3
		c0-0.5-0.2-1.1-0.3-1.7c2-0.1,4.1,0,6.2-0.1c-0.1,0.7-0.6,1.2-0.9,1.7c-0.3,0.6-0.7,1.1-1,1.7h-3.9
		C93.8,105.4,93.8,104.9,93.7,104.3z M60.4,102.6H67c-0.1,1.1-0.1,2.2-0.2,3.3h-4.5C61.7,105,61,103.8,60.4,102.6z M114.9,105.6
		c-1.4-0.4-1.5-0.6-3.3-0.2c0.1-0.6,0.1-1.1,0.2-1.6c0.3-0.1,0.6-0.3,0.9-0.5c0.6-0.3,1.1-0.3,1.7,0c1.2,0.6,2.4,0.5,3.7,0
		c1.3-0.5,2.5-0.5,3.7,0c1.3,0.6,2.7,0.5,4,0c0.5-0.2,1-0.4,1.6-0.4c0.8-0.1,1.5,0.1,2.2,0.4c1.3,0.5,2.5,0.6,3.7,0
		c0.5-0.2,1-0.2,1.5,0c0.5,0.2,1,0.5,1.4,0.7v1.3c-0.2,0-0.5,0.1-0.6,0c-0.9-0.4-1.8-0.2-2.5,0.1c-1.1,0.5-2,0.1-3-0.2
		c-0.8-0.3-1.6-0.5-2.4-0.4c-0.4,0.1-0.8,0.1-1.2,0.2c-0.7,0.2-1.3,0.5-2,0.6c-0.4,0.1-0.9,0.1-1.4,0c-0.5-0.1-1.1-0.3-1.6-0.5
		c-0.6-0.2-1.3-0.4-2-0.4c-0.6,0-1.1,0.1-1.6,0.3c-0.6,0.2-1.3,0.4-1.9,0.5C115.6,105.8,115.2,105.7,114.9,105.6z M128.9,101.8
		c-0.8-0.3-1.5-0.4-2.3-0.1c-0.8,0.3-1.6,0.6-2.3,0.8c-0.3,0.1-0.7,0.1-1.1,0c-0.7-0.2-1.4-0.5-2.1-0.7c-0.7-0.3-1.5-0.4-2.2-0.1
		c-0.6,0.2-1.3,0.4-1.9,0.7c-0.5,0.2-1.1,0.3-1.6,0c-0.8-0.4-1.6-0.4-2.4-0.4c-0.2,0-0.4,0-0.7,0c0.5-0.8,0.9-1.5,1.3-2.2
		c0.8,0,1.6-0.1,2.3,0.2c0.6,0.3,1.3,0.2,1.9,0c0.6-0.2,1.2-0.4,1.7-0.5c0.3-0.1,0.6-0.1,0.8,0c0.6,0.1,1.1,0.3,1.7,0.5
		c0.7,0.3,1.4,0.4,2.2,0.2c0.7-0.2,1.3-0.4,2-0.6c0.4-0.1,0.7-0.1,1.1,0c0.7,0.1,1.3,0.3,1.9,0.5c0.7,0.2,1.4,0.2,2.1-0.1
		c0.7-0.3,1.5-0.3,2.2,0.1c0.2,0.1,0.5,0.2,0.8,0.3c0.3,0.5,0.6,1,1,1.7c-1.4-0.1-2.7-0.2-3.8,0.5
		C130.6,102.4,129.8,102.1,128.9,101.8z M97.3,100.8c-0.6,0-1.3,0-1.9,0c-0.7,0-1.3,0.1-2.1-0.1c0-0.4,0-0.8,0.1-1.2
		c0-0.1,0.1-0.2,0.1-0.3c0-1.3,0.3-2.6,0.6-3.9c0.3-1.1,0.7-2.1,1.4-2.9c0.2-0.3,0.6-0.4,0.8-0.6c1,0.1,1.3,0.9,1.7,1.5
		c0.6,0.9,0.8,2,1.1,3.1c0.2,0.8,0.2,1.6,0.3,2.4c0.1,0.6,0.1,1.1,0.2,1.7c-0.4,0.2-0.7,0.2-1.1,0.2
		C97.9,100.8,97.6,100.8,97.3,100.8z M61.2,100.7c-0.1-1.2,0.3-2.3,0.4-3.5c0.1-1,0.4-1.9,0.7-2.8c0.4-1,0.7-2.1,1.8-2.5
		c0.8-0.1,1.2,0.5,1.4,0.9c0.6,1,1.1,2.1,1.2,3.3c0.1,0.6,0.2,1.3,0.4,1.9c0.3,0.9,0.1,1.8,0.1,2.6
		C66.6,100.8,62.3,100.9,61.2,100.7z M115.4,98.6c-0.1,0-0.2-0.1-0.3-0.2c0,0-0.1-0.1-0.1-0.2c0.5-0.5,1.1-1,1.6-1.5
		c1,0.3,1.9-0.1,2.7-0.4c0.7-0.2,1.3-0.2,2,0c0.5,0.2,1.1,0.4,1.7,0.5c0.4,0.1,0.8,0.1,1.2,0c0.6-0.1,1.2-0.3,1.8-0.5
		c0.6-0.2,1.2-0.2,1.8,0c0.6,0.2,1.2,0.4,1.8,0.5c0.3,0.1,0.7,0,1.2,0c0.5,0.5,1.1,1,1.8,1.6c-1.3,0.5-2.5,0.7-3.7,0.2
		c-0.5-0.2-1.1-0.5-1.7-0.4c-0.4,0.1-0.8,0.1-1.2,0.2c-0.7,0.2-1.3,0.4-1.9,0.5c-0.7,0.1-1.5-0.1-2.1-0.3c-1.1-0.5-2.2-0.5-3.3,0
		C117.4,99.1,116.4,99.1,115.4,98.6z M85.8,92c1.2-0.2,2.2,0.1,3,0.9c1.2,1.2,2,2.6,2.4,4.2c0,0.2,0.2,0.5,0.3,0.7
		c0,0.1,0,0.3-0.1,0.5C89.8,95.8,87.8,94,85.8,92z M69,97.4c0.6-1.6,1.1-3.2,2.5-4.4c0.6-0.5,1.2-1,2-1.1c0.2,0,0.5,0,0.7,0
		c-0.1,0.2-0.1,0.3-0.2,0.4c-1.8,1.7-3.5,3.5-5,5.5C68.9,97.7,68.9,97.6,69,97.4z M89.7,91.9H94c-0.3,0.7-0.7,1.3-0.9,2
		c-0.3,0.6-0.4,1.3-0.6,2.2C91.7,94.5,91,93.1,89.7,91.9z M66.6,91.9h4.1c-1,1.1-1.9,2.2-2.3,3.7h-0.4
		C67.8,94.3,67.1,93.2,66.6,91.9z M121.6,95.1c-0.9-0.4-1.9-0.4-2.9,0c-0.2,0.1-0.4,0.2-0.6,0.3c-0.1-0.1-0.1-0.1-0.1-0.1
		c0.5-0.7,1.1-1.4,1.6-2.1c0.9-0.1,1.8,0,2.7,0.3c0.9,0.4,1.9,0.4,2.9-0.1c0.6-0.3,1.3-0.4,2-0.3c0.5,0.7,1.1,1.4,1.8,2.2
		c-0.3,0-0.4,0-0.5-0.1c-0.8-0.5-1.6-0.5-2.5-0.4c-0.2,0-0.5,0.1-0.7,0.2C124.1,95.7,122.9,95.7,121.6,95.1z M120.8,91.8
		c0.3-0.5,0.5-0.9,0.8-1.3h4c0.2,0.4,0.5,0.8,0.8,1.3c-0.9,0.5-1.8,0.5-2.6,0.9C122.7,92.4,121.8,92.1,120.8,91.8z M70.2,90.5
		c-0.2-0.5-0.2-1.7,0-2.3c0.4-1.2,0.7-2.5,1.5-3.6c0.8-1,1.7-1.9,3.1-1.8c0.7,0,1.4,0.3,1.9,0.8c0.6,0.6,1.1,1.3,1.7,1.9
		c0,0.3,0,0.5-0.1,0.7c-0.8,1.3-1.5,2.7-2.5,3.9c-0.3,0.3-0.5,0.4-0.9,0.4c-1,0-2,0.1-3,0.1C71.3,90.6,70.8,90.5,70.2,90.5z
		 M83.7,89.9c-0.8-1.1-1.5-2.3-2.1-3.5c0.6-1.1,1.1-2,1.9-2.7c1.3-1.2,2.7-1.2,4-0.2c0.9,0.7,1.5,1.7,2,2.7c0.6,1.3,0.8,2.8,1.1,4.2
		c-0.2,0-0.4,0.1-0.6,0.1c-1.6,0-3.2,0-4.8,0.1C84.6,90.6,84.1,90.4,83.7,89.9z M91.7,90.5c0.2-1.2,0.4-2.3,0.5-3.4
		c0.1-1.2,0.5-2.3,1.1-3.3c0.2-0.4,0.5-0.7,0.7-0.9c0.9-0.2,1.3,0.3,1.5,0.8c0.6,1.1,1.1,2.3,1.2,3.6c0.1,0.9,0.2,1.8,0.3,2.6
		c0,0.2,0,0.3-0.1,0.5C95.3,90.5,93.5,90.5,91.7,90.5z M63.7,87.7c0.2-1,0.4-2.1,0.8-3.1c0.3-0.8,0.7-1.5,1.5-1.9
		c0.7,0.1,1,0.6,1.3,1.1c0.3,0.6,0.6,1.1,0.7,1.8c0.1,0.5,0.4,1,0.4,1.5c0.1,1.1,0.2,2.2,0.3,3.3h-5.3
		C63.3,89.4,63.5,88.6,63.7,87.7z M34,89.1c-0.1-1.1,0.7-2,0.8-3.1c0.3,0,0.5-0.1,0.8-0.1c0.4,1.1,0.8,2,1.2,3
		C36.2,89.2,35.6,89.2,34,89.1z M123.4,86h0.7c0.3,1,0.6,2,1,3.1h-2.9C122.6,88,123,87,123.4,86z M80,85.8c0.4,0.9,0.8,1.6,1.2,2.3
		c0.1,0.1,0,0.3,0,0.6h-2.7C78.9,87.8,79.4,86.9,80,85.8z M90,84.4c-0.3-0.5-0.7-1-1.2-1.6h3.3c0.2,0.2,0,0.4-0.1,0.6
		c-0.4,0.9-0.8,1.7-1,2.9C90.7,85.5,90.4,84.9,90,84.4z M68.3,82.9c1-0.2,2,0,3.1-0.2c0,0.2,0,0.3,0,0.4c-0.7,0.7-1.2,1.6-1.6,2.5
		c0,0.1-0.1,0.2-0.2,0.3C69.1,84.9,68.7,83.9,68.3,82.9z M123.4,84.5c-0.2-0.1-0.4-0.2-0.7-0.3c0.1-1,0.2-2,0.3-3.1
		c-0.4,0-0.6-0.1-0.9-0.1c-0.1-0.2-0.3-0.3-0.4-0.6c0.1-0.1,0.1-0.3,0.2-0.4c0.4-0.3,0.7-0.5,1.1-0.8v-4.8h-1.2
		c-0.5-0.3-0.8-0.6-0.7-1c0.5-0.6,1.2-0.3,1.8-0.5c0-0.4,0.1-0.8,0.1-1.3c0.2-0.2,0.4-0.4,0.7-0.7c0.3,0.3,0.5,0.5,0.8,0.7v1.3
		c0.5,0,1,0.1,1.5,0.1c0.1,0.2,0.2,0.4,0.3,0.6c-0.1,0.2-0.2,0.5-0.3,0.7c-0.5,0-1,0-1.5,0.1v3.8c0.3,0,0.6,0.1,1,0.1
		c0,0.4,0.1,0.6,0.1,0.9c-0.4,0.3-0.7,0.5-1.1,0.9c0.1,1.1-0.1,2.2,0.2,3.3C124.9,84.1,124.2,84.7,123.4,84.5z M34.2,83.8
		c0-0.1-0.1-0.3,0-0.4c0.4-0.5,0.3-1.1,0.3-1.7c0-0.5,0-1.1,0-1.6c-0.7-0.3-0.9-0.5-1.2-1c0.1-0.2,0.1-0.5,0.3-0.8
		c0.3,0,0.6,0,0.9,0v-3.9H33c-0.3-0.5-0.6-0.8-0.1-1.3c0.5-0.1,1-0.1,1.5-0.2c0-0.5,0-0.9,0.1-1.4c0.2-0.1,0.4-0.3,0.5-0.4
		c0.4,0,0.7,0.3,0.8,0.7c0.1,0.4,0,0.7,0.1,1.1c0.7,0.2,1.7-0.2,2,0.8c-0.2,0.2-0.3,0.4-0.5,0.6h-1.5c0,0.8,0,1.6,0,2.4
		c0,0.8,0,1.6,0,2.4c0.4,0.3,0.8,0.6,1.3,0.9c-0.1,0.3-0.2,0.6-0.3,0.9c-0.4,0-0.7,0.1-1,0.1c0.1,0.8-0.1,1.5,0.3,2.2
		c0.3,0.5-0.1,1.1-0.7,1.3C35,84.7,34.3,84.3,34.2,83.8z M79.2,83.5c0.1-0.2,0.3-0.4,0.4-0.7c0.3,0.1,0.6,0.2,0.9,0.3v1.1
		c-0.3,0.1-0.6,0.2-0.9,0.3C79.5,84.1,79.4,83.8,79.2,83.5z M80.7,81.5v-3.3c0.4,0.2,0.7,0.4,0.9,0.5c0.6-0.3,0.6-0.3,0.7-1
		c-0.5-0.3-1.1-0.7-1.6-1.1v-6.4h2c0.2-0.3,0.3-0.4,0.4-0.6c-0.1-0.2-0.2-0.4-0.2-0.5c-0.7-0.5-1.5-0.1-2.2-0.4v-1.9
		c-0.3-0.4-0.7-0.3-1-0.1v1.9c-0.5,0.3-0.9,0.2-1.4,0.2c-0.6,0-1,0.2-1.1,0.8c0.1,0.2,0.2,0.4,0.4,0.6h1.9c0.2,0.8,0.2,5,0,5.8
		c-0.3-0.2-0.6-0.3-0.9-0.5c-0.2,0.1-0.4,0.2-0.6,0.4v0.7c0.5,0.3,1,0.7,1.6,1v3.9c-0.4,0.3-0.8,0.6-1.3,1c-0.1-0.3-0.2-0.5-0.3-0.9
		h-7c0-0.3-0.1-0.5-0.1-0.7c0.2-1.7,0.6-3.3,1.5-4.7c0.4-0.6,1-1.1,1.7-1.5c0.8-0.4,1.5-0.4,2.2,0c0.2,0.1,0.4,0.2,0.6,0.3
		c0.4-0.3,0.8-0.5,1.2-0.8v-0.9c-1.9-0.1-3.7,0-5.6,0c-1.8,0-3.7,0-5.6,0c-0.2-0.3-0.4-0.5-0.7-0.8c0.2-0.3,0.5-0.6,0.7-0.9h9.9
		c-0.4-0.4-0.8-0.8-1.2-1.1c0,0,0.1-0.1,0.1-0.1V69c0.4-0.6,0.8-1.1,1.5-1.4c0.3-0.1,0.5-0.4,0.6-0.6c0.6-1,1.2-2,1.8-2.9
		c0.1-0.2,0.2-0.3,0.4-0.5c0.6,0.6,0.9,1.4,1.4,2c0.4,0.7,0.8,1.3,1.3,2c1,0,1.4,0.7,1.8,1.3c0.1,1.3,0,1.5-1.2,2.6h1.1
		c2.8,0,5.6,0,8.4,0c0.4,0,0.8-0.1,1.1,0.3v1c-0.3,0.3-0.6,0.4-1,0.4c-2.4,0-4.9,0-7.3,0h-3.5c0,0.9,0,1.7,0,2.5
		c0,0.1,0.1,0.3,0.3,0.4c0.3-0.3,0.7-0.6,0.9-0.9c0.4-0.5,1-0.7,1.5-0.9c0.3-0.1,0.7-0.1,1,0c1.1,0.3,2,1.1,2.5,2.1
		c0.4,0.7,0.7,1.5,0.9,2.3c0.3,0.8,0.3,1.6,0.3,2.4c0,0.1-0.1,0.2-0.1,0.3h-7.2c-0.1,0.4-0.2,0.7-0.3,1.1
		C81.5,82.2,81.1,81.9,80.7,81.5z M64.9,79.6c0.1-1.1,0.3-2.2,0.7-3.2c0.3-0.8,0.7-1.7,1.7-2.1c0.3,0.2,0.6,0.5,0.8,0.8
		c0.5,0.7,0.8,1.4,0.9,2.3c0.1,0.6,0.3,1.3,0.4,1.9c0.2,0.7,0.1,1.5,0.1,2.3H65C64.7,80.9,64.9,80.3,64.9,79.6z M91,81.1
		c0.2-1.5,0.2-3,0.7-4.4c0.3-0.9,0.6-1.9,1.7-2.3c0.5,0.3,0.9,0.8,1.2,1.3c0.5,1,0.7,2.1,1,3.2c0.2,0.8,0,1.7,0,2.6h-4.5
		C91,81.3,91,81.2,91,81.1z M88.4,74.4c0.5-0.2,0.9-0.1,1.4-0.1c0.4,0,0.9,0,1.3,0c0.2,0.6-0.3,1-0.4,1.4c-0.2,0.5-0.3,1-0.5,1.5
		C89.6,76.3,89,75.4,88.4,74.4z M69.3,74.4H72c-0.5,0.7-0.9,1.4-1.6,2.5c0,0,0,0.1-0.1,0.1c0,0-0.1,0-0.1,0
		C69.9,76.1,69.6,75.3,69.3,74.4z M70.4,76.9C70.4,76.9,70.4,76.9,70.4,76.9C70.4,76.9,70.5,76.8,70.4,76.9z M68.4,70.2
		c0.3-0.9,0.5-1.8,0.8-2.7c0.3-1,0.5-1.9,0.8-2.9c0-0.1,0-0.2,0.1-0.4c0.5-1.6,1-3.2,1.5-4.8c0.4-1.3,0.8-2.6,1.2-3.9
		c0.4-1.2,0.7-2.5,1.1-3.7c0.2-0.9,0.4-1.8,0.7-2.7c0.2-0.7,0.3-1.4,0.6-2c0.3-0.7,0.4-1.3,0.6-2c0.2-1,0.6-1.9,0.9-2.9
		c0.1-0.3,0.2-0.7,0.3-1.1h0.9c0.2,1.1-0.1,3-0.3,3.5c-0.2,1.2-0.4,2.2-0.5,3.1c-0.2,1.1-0.3,2.2-0.5,3.3c-0.3,1.5-0.5,3-0.7,4.4
		c-0.2,1.2-0.5,2.5-0.6,3.7c-0.1,1.2-0.4,2.4-0.6,3.6c-0.2,1.6-0.4,3.2-0.6,4.8c-0.1,0.9-0.4,1.9-0.6,2.8c-0.8,0-1.7,0-2.5,0
		C70.1,70.3,69.3,70.4,68.4,70.2z M86.3,70.2c-0.2-1.2-0.6-2.3-0.7-3.5c-0.1-1.3-0.4-2.5-0.5-3.7c-0.1-1.2-0.4-2.4-0.6-3.6
		c-0.3-1.6-0.4-3.2-0.6-4.7c-0.1-0.4-0.1-0.8-0.2-1.2c-0.4-1.6-0.4-3.3-0.9-5c-0.1-0.5,0-1.1-0.3-1.7c-0.1-0.2-0.1-0.5,0-0.8
		c0-0.9-0.2-1.7-0.4-2.6c-0.2-0.7-0.2-1.5-0.3-2.4h1.6c0.4,1.3,0.7,2.5,1.1,3.7c0.4,1.4,0.8,2.7,1.2,4.1c0.5,1.9,1.1,3.8,1.6,5.6
		c0.4,1.3,0.8,2.6,1.1,3.9c0.4,1.3,0.7,2.6,1.1,3.9c0.4,1.2,0.7,2.5,1.1,3.8c0.4,1.4,0.8,2.8,1.1,4.1c-0.1,0-0.1,0.1-0.2,0.1
		c-1.7,0-3.3,0-5,0C86.4,70.3,86.3,70.2,86.3,70.2z M75.2,68.5L75,68.4c0-0.3,0-0.6,0.1-0.9c0.2-1.1,0.5-2.1,0.5-3.2
		c0-0.8,0.3-1.6,0.4-2.3c0-0.1,0.1-0.1,0.1-0.2c0-1.4,0.4-2.7,0.6-4c0.1-0.9,0.3-1.8,0.4-2.7c0.2-1.3,0.4-2.7,0.6-4
		c0.1-1.2,0.3-2.4,0.4-3.5c0-0.1,0-0.1,0-0.2c0.3-0.8,0.4-1.7,0.4-2.6c0-0.5,0.1-0.9,0.2-1.4c0.1-0.1,0.2-0.2,0.3-0.3
		c0.1-0.7-0.1-1.3,0.2-2h1.5v1.4c0.2,0.2,0.3,0.4,0.4,0.5c0.1,1,0.2,2.1,0.3,3.3c0,0,0.2,0.2,0.3,0.3c0.2,1.8,0.3,3.6,0.7,5.4
		c0,0.1,0.1,0.2,0.1,0.4c-0.1,1.2,0.3,2.3,0.5,3.5c0,0.1,0,0.2,0,0.4c-0.1,1.1,0.3,2.2,0.5,3.4c0.1,1,0.2,1.9,0.4,2.9
		c0.3,1.5,0.3,3.1,0.7,4.5c0.1,0.3,0,0.7,0,1.1L84.4,68c-0.7-1-1.3-2.1-2-3.1c-0.6-1.1-1.3-2.1-1.9-3.2c-0.3,0-0.5,0-0.7-0.1
		C78.2,63.9,76.7,66.2,75.2,68.5z M91.7,66.8c-0.4-1.3-0.7-2.5-1.1-3.7c0,0,0.1-0.1,0.1-0.2h1.5v5C92,67.4,91.8,67.1,91.7,66.8z
		 M68.2,67.7v-4.8c0.6-0.1,1.1-0.2,1.6,0.1c-0.5,1.6-1,3.1-1.5,4.7C68.3,67.7,68.3,67.7,68.2,67.7z M79.1,38.3
		c1.4-1,2.5,0.3,2.6,1.8c-1.1,0.1-2.1,0.1-3.2,0.2C78.2,39.4,78.6,38.9,79.1,38.3z M75.9,40c0.1-0.6,0.2-1.1,0.3-1.6
		c0.2-0.1,0.4-0.3,0.5-0.4c0.7,0.2,0.7,0.9,0.9,1.4c0.1,0.3,0,0.4-0.3,0.8C76.9,40.2,76.5,40.1,75.9,40z M82.3,39.8
		c0.2-0.7,0.3-1.4,0.9-1.9c0.2,0.2,0.4,0.3,0.6,0.5c0.1,0.5,0.2,0.9,0.3,1.4C83.5,40.2,82.9,40.2,82.3,39.8z M80,37.3
		c-0.8,0-1.4,0.6-1.8,1.2c-0.3-0.4-0.6-0.6-0.8-0.9c-0.1-0.2-0.3-0.5-0.3-0.7c0-1.7,0-3.4,0-5.1c0-0.2,0.1-0.3,0.1-0.5H83
		c0,0.3,0,0.6,0,0.8c0,1.5,0,2.9,0,4.4c0,0.5-0.1,0.9-0.5,1.2c-0.3,0.2-0.4,0.6-0.6,0.9C81.4,37.9,80.9,37.3,80,37.3z M77.2,29.9
		c-0.2-1.6-0.1-2,0.2-2.6h5.5c0.4,0.4,0.2,0.9,0.2,1.3c0,0.4,0,0.9,0,1.3C82.3,30,78.4,30,77.2,29.9z M75.9,26
		c-1-0.9-1.1-1.9-0.7-3.1c0.5-1.4,1.4-2.4,2.3-3.5c0.5-0.6,1.1-1.1,1.5-1.8c0.5-0.8,0.6-1.7,0.8-2.6c0.1,0,0.3,0,0.5-0.1
		c0.4,0.8,0.5,1.6,0.8,2.3c0.4,0.9,0.9,1.6,1.5,2.4c0.5,0.7,1.1,1.3,1.6,2c0.9,1.1,0.9,3.1,0.1,4.3C83.7,26.1,77.5,26.1,75.9,26z
		 M79,12.5c0.7-1.1,0.4-2.3,0.4-3.5c-0.4-0.3-0.8-0.5-1.3-0.9c0.1-0.3,0.2-0.7,0.2-1.1c0.4,0,0.7,0,1,0.1V3.3H78
		c-0.2-0.2-0.3-0.5-0.5-0.7c0.2-0.2,0.3-0.5,0.5-0.6c0.6-0.1,1-0.1,1.6-0.2V0.4c0.2-0.2,0.4-0.3,0.6-0.4c0.6,0.3,0.6,0.3,0.7,1.7
		c0.5,0.5,1.4-0.1,1.9,0.7c0.1,0.2-0.1,0.5-0.4,0.8c-0.5,0-1,0-1.6,0.1c-0.1,1.6,0,3.1-0.1,4.6c0.4,0.6,1.3,0.7,1.4,1.5
		c-0.1,0.1-0.2,0.3-0.3,0.5c-0.3,0-0.7,0.1-1,0.1c0,0.8-0.2,1.7,0.5,2.3c-0.2,0.8-0.6,1.2-1.1,1.2C79.5,13.5,79.2,13.2,79,12.5z"/>
</g>
</svg>
