<?xml version="1.0" encoding="utf-8"?>
<!-- Generator: Adobe Illustrator 25.0.0, SVG Export Plug-In . SVG Version: 6.00 Build 0)  -->
<svg version="1.1" id="Layer_1" xmlns="http://www.w3.org/2000/svg" xmlns:xlink="http://www.w3.org/1999/xlink" x="0px" y="0px"
	 viewBox="0 0 134 127.4" style="enable-background:new 0 0 134 127.4;" xml:space="preserve">
<style type="text/css">
	.st0{fill-rule:evenodd;clip-rule:evenodd;fill:#FFFFFF;}
</style>
<g>
	<path class="st0" d="M131.7,123.9c-0.1-2.5-0.2-5.1,0-7.6c0.2-3-0.7-5.4-3.2-7.2c-0.5-0.4-0.7-1-1-1.5c0.1-0.4,0.2-0.7,0.3-0.8
		c3.8-1.6,4.2-4.6,3.9-8.2c-0.2-2.3,0-4.6,0-7.1c-1.2-0.8-2.2-1.5-3.7-2.4c-1.5,4.6,0,9-1,13.1h-6.3c-1.7-3.4,0-7.6-1.3-11.4
		c0,4.5,0,9,0,13.6c0,1,0.4,1.9,0.3,2.9v11.1c0,0,0,0,0,0c0-1.2-0.1-2.4,0-3.6c0.3-2.8,2.8-5.1,5.3-4.9c2.6,0.1,4.9,2.5,5,5.2
		c0.1,3.7,0,7.5,0,11.2c-4.5,1.3-8.6,0.2-13.1,0.1c-1.2-4.2,0.1-8.7-0.8-13.2h-14.9c0,2.3,0.1,4.6,0,6.9c-0.1,2.2,0.8,4.7-1.3,6.4
		c-2-0.4-1.9-1.9-1.9-3.2c0-3.5-0.1-7.1,0-10.6c0.1-3.2-0.8-5.9-3.4-7.8c-0.3-0.2-0.5-0.7-1-1.4c1.3-1.5,2.6-2.9,4.3-4.8v-15
		c-0.8-0.6-1.8-1.3-2.7-2c-0.3,0.1-0.5,0.2-0.8,0.4v12.1c-1.4,0.7-2.5,1.2-3.7,1.8c-1.2-0.5-2.4-1-4.1-1.7V81.1
		c-1.9,1.1-2.9,1.8-4.2,2.6v16.9c0.4-0.2,0.9-0.4,1.7-0.8c1,1.3,2,2.5,3.3,4c-0.9,0.8-2,1.3-2.4,2.2c-1.1,2.4-2.3,4.8-2.6,7.3
		c-0.5,3.3-0.1,6.6-0.1,10c0,1.1-0.2,2.1-0.2,3.2c-2.2,0-2.1-1.3-2.1-2.5c0-2.8,0-5.5,0-8.3c0-1.1,0-2.2,0-3.4
		c-1.3-0.3-2.4-0.5-3.7-0.8c-0.6-4.6-3.1-8-7.8-10.3c3.8-3.1,8.2,0.5,11.5-3.3V83.4c-0.8-0.7-1.6-1.4-3-2.6
		c-1.9,5.4,0.3,10.7-1.6,16.1c-1.9-2-3.6-2.1-5.3-0.3c-0.9-0.5-1.8-1-2.6-1.4c-0.9,0.5-1.8,0.9-2.8,1.4c-1.6-2.4-3.2-0.9-5.2,0.3
		c-0.2-1.2-0.6-2.1-0.6-3c-0.1-3,0-6-0.1-9c0-1.1-0.3-2.3-0.6-4c-1.5,1.1-2.5,1.9-3.6,2.8v15.5c1.9,0.2,3.8,0.4,5.7,0.7
		c1.8,0.3,4.2-1.7,5.6,1.6c-4.8,1.6-6.4,5.8-7.4,10.1c-1.4,0.2-2.5,0.3-4.1,0.6v14.2c-2.4,0.4-2.3-0.9-2.3-1.9c0-3.4-0.2-6.9,0-10.3
		c0.2-3.9-1.1-7.1-4.1-9.6c-0.2-0.2-0.4-0.5-0.7-1c1-1.2,2.1-2.4,3.2-3.6c0.5,0.3,0.9,0.5,1.5,0.7v-17c-1-0.6-2.2-1.3-4.1-2.4v12.8
		c-1.4,0.8-2.4,1.3-3.5,1.9c-1.2-0.5-2.4-0.9-4.1-1.6V81.4c-1.8,0.9-2.7,1.4-3.7,1.9v17.3c0.3-0.2,0.6-0.4,1.1-0.7
		c1,1.1,2,2.3,3.1,3.6c-0.2,0.5-0.3,1-0.6,1.3c-3.3,2.4-4.1,5.8-3.8,9.7c0.2,3.1,0.1,6.2,0,9.3c0,1-0.6,2-1.4,3
		c-2.3-4.3-0.8-8.8-1.3-13.4h-15c-1.3,4.4,0.5,9-1.3,13.2c-4.5,0.3-8.7,1.1-13.3,0c0-4-0.1-7.9,0.1-11.7c0.1-2.3,2.4-4.4,4.5-4.8
		c2.1-0.4,4.3,1.1,6.3,4.6c-0.2-2.8-0.4-5-0.6-7.1c0,0,0.1,0,0.1,0V91c-0.1,0-0.3,0-0.4,0v11.3H7.2C6,98.3,7.6,93.8,6.1,89
		c-1.4,1.1-2.2,1.9-3.2,2.6c0.2,4.5-0.8,8.9,0.6,13c1.4,0.9,2.5,1.6,3.8,2.4c-0.4,0.6-0.5,1.2-0.9,1.5c-3,2.1-3.7,5-3.5,8.4
		c0.1,2.3,0.1,4.7-0.1,7c-0.1,1-0.7,2-1.1,2.9c-0.3,0-0.6-0.1-1-0.1C0.4,126,0,125.3,0,124.5c0-14.2,0-28.4,0-42.6
		c0-0.2,0.1-0.4,0.3-1c4.2-2.5,9.1-0.4,13.8-1.5c1.4-3.6,2.9-7.1,2.7-11.3c-0.3-7.2-0.1-14.4-0.1-22.4c0.5-4.1,3.7-7.2,7.3-10l0.1,0
		v-3.8L23,31.2l0.6-1l0.7,0.4v-1.6h-3.4v-2.3h3.4v-3.3h2.3v3.3H30v2.3h-3.4v2.9l1.3,0.7l-0.6,1l-0.7-0.4v2.3l0.5-0.1
		c0.9,0.9,2,1.8,3.1,2.8c3,2.9,4.7,6.1,4.3,10.6c-0.4,4.7-0.1,9.5-0.1,14.5h11.4c0.1-1,0.2-2,0.2-3.1c0-6,0-12,0-18
		c0-6.3,2.4-11.3,7.5-15.1c3.1-2.3,6.1-4.7,9.2-7c0.3-0.2,0.8-0.1,1.2-0.2L64,20c0.4-0.8,0.8-1.6,1.3-2.6v-5.3l-2.1-1.2l0.9-1.6
		l1.2,0.7V7.8h-4.8V4.6h4.8V0h3.2v4.6h4.8v3.1h-4.8v4l2.1,1.2l-0.9,1.6l-1.2-0.7V17c0,0.2,0.1,0.3,0.1,0.5c3.2,2.5,6.7,5.6,10.5,8.2
		c6,4.1,9.4,9.4,9.1,16.9C88,48.3,88.2,54,88.1,59.6c0,1.2,0,2.4,0,3.8h11.5c0.1-1.2,0.3-2.3,0.3-3.3c0-4.1-0.1-8.2-0.1-12.3
		c-0.1-4.8,2.3-8.5,6.1-9.9c-0.3,0.9-0.6,1.8-1,2.6c-0.9,1.6-1.7,3.3-1.3,5.4h1.8c0.6-2.8,1.2-5.4,1.8-8h-0.6c0,0.3,0,0.6,0,0.9
		c0,0.1,0,0.2,0,0.3l0,0c0-0.1,0-0.2,0-0.3c0-0.3,0-0.6-0.1-0.9H106c0.5-0.9,0.9-1.7,1.5-2.8V32l-1.4-0.8l0.6-1.1l0.8,0.5v-1.6h-3.4
		v-2.3h3.4v-3.3h2.3v3.3h3.4v2.3h-3.4v2.9l1.4,0.8l-0.6,1.1l-0.8-0.5v2.1l0.3,0.1c3.6,2.9,7,6.1,7.4,11.1c0.5,10.9-2.4,22,2.4,32.8
		c4.5,1,9.4-0.8,14.1,1.3c0,15,0,30,0,44.9c0,0.4-0.6,0.8-1.4,1.8C132.1,125.8,131.8,124.9,131.7,123.9z M61.9,126.6
		c-0.4-0.5-0.7-0.6-0.7-0.8c-0.8-5.7-1.3-11.4,0.3-17c0.9-3.2,3.5-5.2,5.8-5.1c2.3,0.1,5.6,2.8,5.8,5.7c0.3,5.6,0.1,11.2,0.1,17.1
		C69.2,127.3,65.4,127.2,61.9,126.6z M38.2,126.4c0-5.4-0.3-10.6,0.1-15.7c0.2-3.2,2.8-5.1,5.5-5.2c2.7,0,5.2,1.7,5.6,5.1
		c0.6,5,0.6,10.1,0.9,15.5C45.9,127.4,42.2,127.2,38.2,126.4z M84.5,126c0-1.5,0-3.2,0-4.9c0-3-0.1-6,0.1-8.9
		c0.1-3.6,2.5-6.4,5.3-6.6c2.9-0.2,5.8,1.7,6,4.9c0.4,5.2,0.1,10.5,0.1,15.7C92.9,127.3,87.9,127.3,84.5,126z M104,124.8v-10.1
		c3.3-0.4,6.4-0.7,9.7,0.3v9.5C110.5,125.5,107.4,125.1,104,124.8z M20.8,114.8c3.2-0.9,6.2-0.5,9.6-0.3v10.3h-9.2
		C20.2,121.5,20.7,118.3,20.8,114.8z M11.4,122.2c1.3-5.7,0.8-7.6-2.4-9c-2.4,2.6-2.8,6.6-1,9.4C9.2,122.4,10.3,122.3,11.4,122.2z
		 M124.8,113.1c-3.5,2.5-2.6,5.7-2.3,9.1h5.1C127.5,118.5,128.7,115.1,124.8,113.1z M33.4,106.2V87.1c-0.8-0.6-1.7-1.3-3.1-2.3
		c-1.7,4.5-0.1,8.8-1.2,12.8c-1.1,0.5-2.2,1.1-3.4,1.6c-1.2-0.6-2.4-1.2-3.5-1.8c-0.7-4.1,0.3-8.2-0.7-12.5
		c-1.3,0.6-2.1,1.1-3.2,1.6v15.6c1.9,1.1,4,2.3,6.1,3.6c0.1-0.2,0.1-0.4,0.2-0.6C27.4,105.5,30.1,105.8,33.4,106.2z M110.9,105
		c1.4-0.6,4.2-1.1,5.3-3.7V86.5c-1.1-0.5-2.1-0.9-3.6-1.6c-1,4.4-0.2,8.5-0.7,12.8c-1.2,0.5-2.2,1-3.5,1.6c-1.1-0.6-2.2-1.1-3.2-1.6
		c-0.4-4.3,0.5-8.3-0.8-12.8c-1.5,1-2.5,1.6-3,1.9v19.5C104.6,105.8,107.3,105.5,110.9,105z M131.4,88.1v-2.3c-1,0-2.1,0-3.1,0h-3
		c-2,0-3.9,0.2-5.8,0.8C123.3,88.9,127.5,86.9,131.4,88.1z M14.8,86.1H3.1c0.1,0.8,0.1,1.3,0.1,1.8h10.6C14,87.6,14.3,87,14.8,86.1z
		 M33.4,83.8v-2.4h-15c0,0.9-0.1,1.6-0.1,2.4C23.6,83.8,28.5,83.8,33.4,83.8z M116.4,82.7c-0.1-0.4-0.2-0.8-0.4-1.3h-14.9
		c0.1,0.9,0.2,1.5,0.2,2.3h14.8C116.3,83.3,116.4,82.9,116.4,82.7z M51.5,77.4H36.4V80h15.5C51.8,79.2,51.6,78.3,51.5,77.4z
		 M97.5,77.3h-15v2.6h15.4C97.7,78.9,97.6,78.2,97.5,77.3z M79.3,77.3H54.7c-0.2,0.9-0.3,1.8-0.4,2.5H80
		C79.7,78.7,79.5,78,79.3,77.3z M32.9,78.2c-1.1-5.1-4.3-7.6-8.4-6.9c-3.5,0.6-6.1,3.6-5.6,6.9H32.9z M115.8,78.1
		c-0.5-4.5-3.9-7.3-8.1-6.9c-3.8,0.4-6.2,3.1-5.9,6.9H115.8z M23.2,77.1c-1.1-1.1-1.1-3,0-4.1c1.1-1.1,3-1.1,4.1,0
		c1.1,1.1,1.1,3,0,4.1C26.2,78.3,24.4,78.3,23.2,77.1z M106.5,77.1c-1.1-1.1-1.1-3,0-4.1c1.1-1.1,3-1.1,4.1,0c1.1,1.1,1.1,3,0,4.1
		C109.5,78.3,107.7,78.3,106.5,77.1z M51.6,74.4c-1.8-5.1-4.3-7.3-7.8-7.2c-3.5,0.1-6,2.3-7.6,7.1C41.5,74.5,46.5,74.4,51.6,74.4z
		 M91.2,67.2c-3.5-0.5-7.8,2.3-7.9,7h14.1C97.4,70.5,94.8,67.7,91.2,67.2z M66.3,63.2c-5.6,0.4-10.4,5.7-9.9,11h21.9
		C77.9,67.5,72.4,62.8,66.3,63.2z M41.7,73.1c-1.1-1.1-1.1-3,0-4.1c1.1-1.1,3-1.1,4.1,0c1.1,1.1,1.1,3,0,4.1
		C44.7,74.3,42.8,74.3,41.7,73.1z M88.1,73.1c-1.1-1.1-1.1-3,0-4.1c1.1-1.1,3-1.1,4.1,0c1.1,1.1,1.1,3,0,4.1
		C91.1,74.3,89.2,74.3,88.1,73.1z M64.2,72.3c-1.8-1.8-1.8-4.7,0-6.5c1.8-1.8,4.7-1.8,6.5,0s1.8,4.7,0,6.5
		C68.9,74.1,66,74.1,64.2,72.3z M54.9,49.8h3c-3.1-0.9-6.2-0.4-9.1-0.6c-1.7,3.6-1.9,11.7-0.2,14.2c0-1.7,0-2.9,0-4
		c0-2.3-0.1-4.7,0.1-7c0.1-2.3,0.6-2.5,3.3-2.4c2.7,4,0.7,8.7,1.6,13.5C54.7,58.8,52.7,54.1,54.9,49.8z M82,49.9c-0.7,0-1.3,0-2,0
		c0.1,4.5,0.3,9.1,0.4,13.6h1.2C81.7,58.9,81.8,54.4,82,49.9z M86.4,63.2V50.4c-1.5-1.7-2.9-2.2-4.4-0.6h2.9
		C87.2,54,85.3,58.5,86.4,63.2z M109.2,51.2c-1.7,0.4-2.9,1.2-3,2.9c-0.1,2.6,0,5.3,0,8.1h5.1C110.7,58.2,112.6,54.3,109.2,51.2z
		 M27.7,62.2v-10c-1-0.3-2-0.7-3.5-1.1c-1.3,4.1-0.9,7.6-0.5,11.2H27.7z M60,49.9c-0.7,0-1.3,0-2,0c0.1,4,0.2,7.9,0.3,11.8
		c0.4,0,0.7,0,1.1,0C60.3,57.8,59.4,53.8,60,49.9z M77,49.8h2.9c-0.9-0.3-1.8-0.6-2.8-0.7c-0.6-0.1-1.2,0.5-1.9,0.4
		c-4.4-0.2-8.8-0.5-13.2-0.7c-0.6,0-1.3,0.6-1.9,0.9h2.6c2.4,2.8,0.7,6,1.7,8.9c1-3-1.2-6.7,2.2-9c2.4,0,2.8,1.5,2.8,3.3
		c0,2,0.1,4,0.2,5.9c0.3,0,0.6,0,0.9-0.1c0-2.1,0-4.1,0-6.2c0.1-1.9,0.7-3.2,3.1-2.8c2.9,3.4,0.8,7.6,1.9,11.6
		C76.5,57.5,74.7,53.5,77,49.8z M60.1,49.8H60c0,0,0,0,0,0L60.1,49.8C60.1,49.8,60.1,49.8,60.1,49.8z M58.1,49.8h-0.2
		C57.9,49.8,58,49.8,58.1,49.8L58.1,49.8C58.1,49.8,58.1,49.8,58.1,49.8z M80,49.8h-0.2C79.9,49.8,79.9,49.8,80,49.8L80,49.8
		C80,49.8,80,49.8,80,49.8z M82,49.9C82,49.8,82,49.8,82,49.9L82,49.9C82,49.8,82,49.8,82,49.9C82,49.9,82,49.9,82,49.9z M22.6,44.9
		c0.6-2.3,1.1-4.7,1.6-7l0,0c-0.3,0.3-0.5,0.6-0.8,0.9c0,0.1,0,0.2,0,0.3l0,0c0-0.1,0-0.2,0-0.3c-1.8,2-3.6,4.1-2.6,7.8
		C21.6,45.8,22.4,45.4,22.6,44.9z M110.3,38.3c1.6,7.2,1.6,7.2,3.2,8C114.4,42.7,112.9,40.5,110.3,38.3z M27.7,38.6
		c0.3,2.4,0.6,4.6,0.9,6.9c0.6,0.1,1.2,0.3,1.9,0.5C31.2,42.8,30.2,40.6,27.7,38.6z M69.7,41.4c1.2-7.4-0.6-14-2.5-20.8
		c-1.6,6.8-4.1,13.5-2.5,20.9c1,0.1,1.9,0.1,2.8,0.1C68.1,41.6,68.7,41.5,69.7,41.4z M69.7,20.9c1.5,3.3,3.6,6.3,4.8,9.7
		c1.2,3.4,1.6,7.2,2.4,10.9h4.8C82.3,31.6,75.5,26.6,69.7,20.9z M57.8,39.7c-0.1-5.6,2-10.5,4.9-15.2c0.4-0.7,1-2.9,1.2-4
		c0-0.1,0-0.3,0-0.5c0,0.6-11.4,12.5-11.6,21.4h5.3C57.7,40.7,57.9,40.2,57.8,39.7z"/>
</g>
</svg>
