<?xml version="1.0" encoding="utf-8"?>
<!-- Generator: Adobe Illustrator 25.0.0, SVG Export Plug-In . SVG Version: 6.00 Build 0)  -->
<svg version="1.1" id="Layer_1" xmlns="http://www.w3.org/2000/svg" xmlns:xlink="http://www.w3.org/1999/xlink" x="0px" y="0px"
	 viewBox="0 0 162 170.4" style="enable-background:new 0 0 162 170.4;" xml:space="preserve">
<style type="text/css">
	.st0{fill-rule:evenodd;clip-rule:evenodd;fill:#B8B8B8;}
</style>
<g>
	<path class="st0" d="M0,170.4v-52.7h16.7c-1.3-1.9-0.5-3.8-0.8-5.8h3.6c0.3,0.3,0.5,0.5,0.8,0.8c-1.1,1.5-0.7,3.2-0.5,4.8
		c0.2,1.5,1.2,2.9,1.8,4.5h26.8c0-1.1-0.4-2.5,0.1-3.2c0.8-1,0.4-2.1,0.7-3.1c0.4-0.1,0.8-0.3,1.3-0.5V93.9
		c-1.3-1.6-1.9-2.7-2.2-4.8c1.4-0.1,2.8-0.1,4.4-0.2v-3.4c0.8-0.1,1.4-0.2,2.4-0.4c-0.5-1.1-0.9-2.1-1.5-3.3v-3.6
		c0.4-0.1,0.7-0.2,1.2-0.3c0.7-1.8-0.3-3.3-1.2-4.7c0.3-0.3,0.7-0.7,1-1c0.6,1.2,1.3,2.4,2.1,4c0.3-0.8,0.4-1.1,0.7-1.7
		c0.5,0,1.1-0.1,1.9-0.1c0.1,0.8,0.1,1.3,0.2,2c1,0.5,2.8-0.1,2.9,2.2c-0.5,0.1-1,0.1-1.5,0.3c-0.4,0.2-0.8,0.5-1.1,0.7
		c-0.1,0.3-0.3,0.6-0.3,0.7c0.1,0.8-0.1,1.6,0.4,2.4c1,1.5,1.7,3.2,2.6,4.9h3.2c0.4-0.6,0.8-1.4,1.4-1.9c0.5-0.5,1.5-0.6,1.7-1.1
		c0.3-0.8,0.8-1.3,1.7-1.5V63c-0.5-0.6-1-1.4-1.7-2.3c1.5-0.3,2.7-0.6,3.9-0.9V56c0.7,0,1.3-0.1,2-0.1c0.3-0.9,0.6-1.8,0.8-2.5
		c-0.2-1.6-0.3-3-0.5-4.4c-0.2-1.3-0.5-2.5-0.8-3.8c1.3-0.7,2.4-0.5,3.8,0.4c0.2-5.3,2-31.2,2-31.5c-0.7-0.1-2,0.5-3.2,0.3
		c1.2-0.9,2.1-1.5,3.2-2.3c-1.7-0.7-3.6,0.3-4.2-2c2.8,1,6,0.9,9.7,0.1c-1.4,1.5-1.4,1.5-3.7,1.8c0.9,0.7,1.7,1.3,3.1,2.3
		c-1.6,0.3-3-0.3-3.9-0.1l2.2,31.3c1.4-0.3,2.7-0.6,4.3-0.9c-0.5,1.4-1.2,2.4-1.4,3.6c-0.2,1.3,0.4,2.9-0.2,4
		c-0.8,1.4,0.6,2.3,0.2,3.6h2.9c0.4,1.2,0.7,2.4,1.1,4c0.6,0.2,1.5,0.5,2.4,0.8c0,0.1,0.2,0.3,0.2,0.6c-0.2,2.2-1.7,4-1.5,6.4
		c0.2,2.3,0,4.7,0,7v6.9c0.9,2.7,3.6,3.6,4.9,6h3l0.2,0h0.3c0.9-1.7,1.6-3.4,2.6-4.9c0.6-0.8,0.3-1.6,0.4-2.4c0-0.2-0.2-0.4-0.3-0.7
		c-0.3-0.2-0.7-0.5-1.1-0.7c-0.5-0.2-1-0.2-1.5-0.3c0.1-2.3,1.9-1.7,2.9-2.2c0-0.7,0.1-1.3,0.1-2c0.8,0.1,1.5,0.1,1.9,0.1
		c0.2,0.6,0.4,1,0.7,1.7c0.9-1.6,1.5-2.8,2.2-4c0.3,0.3,0.6,0.6,0.9,0.9c0-0.1,0.1-0.1,0.1-0.1c0.1,0.1,0.1,0.1,0.2,0.2l-0.5,0.5
		c-0.8,1.3-1.6,2.6-1,4.3c0.5,0.1,0.8,0.2,1.2,0.3v3.6c-0.6,1.3-1,2.3-1.5,3.3c1,0.2,1.7,0.3,2.4,0.4v3.1h-2.4l2.7,0.4h4.5
		c-0.2,0.6-0.2,1-0.4,1.2c-1.5,1.5-2,3.4-2,5.4c0,4.2-0.1,8.3,0,12.5c0.1,3.2,0.3,6.4,0.5,9.7c0.7,0.5,1.3,0.9,1.6,1.2
		c-0.3,1.1-0.5,1.8-0.8,2.8h28.2c-0.6-3,1.8-5.9,0.1-9c0.9-1.8,2.6-0.8,4.1-1.1v5.8c5.2,0.3,10.3,0,15.4,0.2c0.6,1,1.1,2,1.4,2.5
		c-0.2,2.3-0.5,4.1-0.5,5.8c0,13.6,0,27.2,0,40.8v3.7H0z M87.2,165.8v-30.3c-2-1.4-2.3-1.4-4.1-0.1l-0.2,30.4
		C84.5,167.2,85.8,167.4,87.2,165.8z M104,166.7v-32.1h-3.4v32.3C101.9,166.8,103,166.8,104,166.7z M112.1,166.7v-32.2
		c-1.3,0.2-2.5-0.4-3.4,1.1v30.2C109.7,167.2,110.9,166.9,112.1,166.7z M35.7,166.8v-32.3c-1.3,0.1-2.4,0.1-3.4,0.2v32.1H35.7z
		 M61.4,166.8v-32.1h-4.2v32.1H61.4z M78.3,166.8v-32.2h-3.4v32.2H78.3z M95.2,166.8v-32.2h-3.4v32.2H95.2z M52.7,166.7v-32.1h-3.5
		c-0.4,10.4-0.2,31.7,0.1,32.1H52.7z M26.7,134.5h-3.1c-0.1,0.4-0.2,0.9-0.2,1.3c0,10.2,0,20.3,0,30.4c0,0.2,0.2,0.4,0.3,0.5h3.3
		C27.3,156.2,27.1,135,26.7,134.5z M43.8,166.7v-32c-1.3-0.2-2.5-0.5-3.5,0.9v31.1H43.8z M120.9,166.7v-32.1h-3.5v32.1H120.9z
		 M70.3,166.7v-32.1h-4.2v32.1H70.3z M129.8,166.7v-32.1h-4.2v32.1H129.8z M138.6,166.7v-32.1h-4.2v32.1H138.6z M19.8,159.5v-26.9
		c0.4-0.4,0.6-0.6,1-1c0.9,0,1.9,0,2.8,0c0.1,0,0.3-0.3,0.4-0.4c-0.5-0.6-1-1.3-1.5-1.8c0.7-0.9,1.3-1.7,2.1-2.7h-4.1
		c0,0.9,0,1.6,0,2.4c-0.3,0.3-0.7,0.7-1.1,1.1H2.2v29.3H19.8z M159.5,158.7c-0.1-9.5-0.3-18.9-0.4-28.5h-16.6
		c-2.3-0.8-1.3-2.5-1.8-3.7c-1,0-2,0-3,0c-0.1,0-0.3,0.3-0.6,0.6c0.6,0.4,1.2,0.8,1.8,1.2c-0.3,1.2-0.5,2.1-0.7,3.2
		c1.1,0.2,2.4-0.4,3.6,1.5v26.3h18.4C159.8,159,159.5,158.8,159.5,158.7z M5.1,146v-7.6h10v8.6H6C5.7,146.7,5.5,146.4,5.1,146z
		 M146.2,146v-7.8h10v8.7h-9.1C146.8,146.7,146.5,146.4,146.2,146z M41,131.5c-0.5-1-1-1.7-1.7-3c0.6-0.6,1.3-1.3,1.9-1.9h-6.4
		c0.7,1.1,1.3,1.9,1.9,3c-0.7,0.7-1.1,1.2-1.9,2.1C37.3,131.5,39.1,131.8,41,131.5z M118.7,131.5c-1-0.5-1.5-0.7-2.2-1.1
		c0.4-1.1,0.8-2.2,1.1-3c0.5-0.2,0.9-0.3,1.3-0.5c0-0.1-0.1-0.2-0.1-0.3h-7.1c0.7,1.6,2.3,3,0.5,5
		C114.4,131.6,116.3,131.7,118.7,131.5z M134.9,131.5c-1-1.5-0.6-2.9-0.6-4.1c0.7-0.2,1-0.4,1.4-0.5c0-0.1,0-0.2-0.1-0.3h-7.7
		c1,0.5,1.4,0.7,1.9,0.9c0.1,1.4,0.2,2.7-0.5,4.1C131.3,131.6,133.1,131.7,134.9,131.5z M55.2,131.6c0.9,0,1.8-0.1,3-0.2
		c-1.5-1-0.9-2.2-1-3.6c0.4-0.2,1-0.6,2.2-1.3h-8c1.2,0.6,1.7,1.5,1.8,2.2c-0.2,0.8-0.3,1.3-0.5,1.7c-0.2,0.3-0.5,0.5-1,1.1
		C53.2,131.6,54.2,131.6,55.2,131.6z M101.6,131.4c-0.9-0.4-1.4-0.7-2.1-1c0.5-1.3,1.1-2.5,1.6-3.8h-6.3c0.2,1.5,1.8,2.5,1.1,4.1
		c-0.5,0.2-0.8,0.3-1.2,0.5C97,131.4,99.1,131.9,101.6,131.4z M33.5,131.5c-1.1-0.5-1.6-0.8-2.4-1.1c0.5-1.3,1.1-2.5,1.6-3.8h-6.4
		c0.6,1.4,1.8,2.5,1.3,4.1c-0.5,0.2-0.8,0.3-1.2,0.5C28.7,131.6,30.8,131.7,33.5,131.5z M107.7,128.6c0.6-0.6,1.4-1.3,2.3-2.2
		c-2.1,0-4.1,0-6.1,0c-0.1,0-0.3,0.3-0.6,0.7c0.6,0.7,1.2,1.5,1.8,2.3c-0.6,0.7-1.1,1.3-1.7,2.1h6.1
		C108.8,130.5,108.3,129.8,107.7,128.6z M66,127.6c0-0.2,0.9-0.5,1.4-0.7c-2.4-0.3-4.9-0.5-7.3,0.1c0.4,0.2,0.8,0.3,1.5,0.6
		c-0.1,1.3-0.3,2.6-0.4,4h5.7C65.4,130.2,66.1,128.8,66,127.6z M90.8,129.5c0.6-0.9,1.2-1.8,2-2.9h-7.7c1.3,1.1,2.1,1.7,2.8,2.2
		c-0.5,0.9-0.9,1.7-1.3,2.6h6C91.9,130.7,91.3,130.2,90.8,129.5z M74.2,128.7c0.6-0.6,1.3-1.3,1.8-1.9c-3.2-0.5-6.6-0.5-7.3,0.2
		c0.6,0.4,1.1,0.9,1.4,1.1v2.6c-0.6,0.2-0.9,0.3-1.3,0.5l0.1,0.3h5.9C74.7,130.5,74.5,129.7,74.2,128.7z M82.2,129
		c1.1-0.7,1.1-0.7,1.7-2.3c-2.2,0-4.5,0-6.8,0c0,0-0.1,0.2-0.1,0.3c0.3,0.1,0.7,0.2,1.3,0.3c0.3,1,0.7,2.1,1.1,3.2
		c-0.7,0.3-1.2,0.5-2.3,0.9h6.5C83.1,130.5,82.6,129.8,82.2,129z M48,130.6c0.4-0.9,1.2-1.7,1-2.3c-0.4-1.3,1.7-0.7,1.4-1.7h-7.1
		c0.4,1.7,2.4,3,0.7,4.9h6.6C49.4,131,49,130.9,48,130.6z M125.4,127.7c0.3-0.1,0.9-0.5,2.3-1.1h-8c0.7,0.8,1.4,1.7,1.7,2
		c-0.2,1.3-0.3,2.1-0.4,2.8h5.5C125.1,130.5,125.6,129.3,125.4,127.7z M111.7,117.7h-3.1v-2c0.7-0.2,1.1-0.4,1.3-0.4V96.4h-2v18.2
		c-1.1,1.1-2,2-2.9,2.8c-0.2-0.2-0.5-0.5-1-1c0.6-3.8-1.1-7.6-0.7-11.6c0.3-2.7,0.1-5.6,0.1-8.5c-0.9,0.1-1.5,0.1-2.3,0.2v16.6
		c-1.4-0.1-1.4-0.1-4.5-1.9V96.5h-2.7v12.8c-1.3,1.1-2.6,2.1-4.5,1.7V97.3c-0.5-0.4-1-0.8-1.6-1.2c-0.5,0.6-0.9,1.1-1.3,1.5
		c0,2.3-0.4,4.7,0.1,6.9c0.2,0.7,0,1.4-0.2,2.1c-1.1-1.2-2.6-2.1-4.3-2.3v-7.8h-2.9c0,2.7,0,5.3,0,7.9c-1.9,0.4-3.5,1.5-4.5,3.1
		c0,0,0-0.1,0-0.1V96.5h-2.2v14.8c-1.6-0.5-2.9-0.8-4.3-1.3V96.5h-2.9c0,4.1,0,8,0,11.9c0,3-1.1,4.1-4.4,4.7V97.6
		c-0.5-0.6-0.8-1-1.2-1.4c-0.9,0.4-1.7,0.8-2.5,1.2c1.3,1.5,0.6,3.2,0.7,4.8c0.1,1.7,0,3.4,0.1,5.1c0.1,1.8-0.4,3.5-0.7,5.2
		c-0.3,1.6-0.1,3.3-0.1,5.2c-1.3-1.1-2.4-1.9-3.7-2.9c0-5.8,0-11.9,0-18c0-0.2-0.3-0.3-0.5-0.5c-0.3,0.1-0.6,0.2-1,0.3
		c0.5,7-0.6,14.1,0.8,21h-2.1v1.9c0.7,0.3,1.3,0.6,1.8,0.9c1.2-0.6,2.4-1.3,4-2.1c0.7,0.1,1.9-0.2,2.7,0.3c1.1,0.6,1.9,0.7,3.2-0.7
		c0.3,0.7,0.7,1.3,0.9,1.9c0.5-0.3,0.8-0.7,1-0.7c1.4,0.2,2.8-0.4,4.2,0.5c1.1,0.7,2.7,0.3,3.9-0.3c1.4,1.1,3,0.3,4.4,0.6
		c0.2-0.7,0.4-1.1,0.5-1.4h0.3c1,0.5,2.2,0.8,3.4,0.8c1.2,0,2.4-0.3,3.4-0.8h0.7c0.1,0.5,0.2,0.8,0.3,1.2c1.5,0.2,3,0.5,4.3-0.7
		c1.2,0.9,2.3,1,3.7,0.5c1.9-0.7,3.8-0.7,5.7,0.1c0.1-0.4,0.3-0.8,0.5-1.3c1,1.2,2.2,1,3.3,0.5c1.2-0.6,2.1-0.2,3.3,0
		c1.5,0.2,2.4,1.4,3.8,2C110.3,119.8,110.9,118.9,111.7,117.7z M75.8,111.7c0-2.8,2.3-5.1,5.1-5.1c2.8,0,5.1,2.3,5.1,5.1
		s-2.3,5.1-5.1,5.1C78,116.8,75.8,114.5,75.8,111.7z M106.8,89.1H55.1c-0.3,0.7-0.5,1.3-0.8,2h53.5
		C107.4,90.4,107.2,89.8,106.8,89.1z M59.3,85.2V84h-2.7C57.8,84.6,58.5,84.9,59.3,85.2z M105.2,84h-2.7v1.3
		C103.2,84.9,103.9,84.6,105.2,84z M86.5,82.9V67.7c-0.4-0.4-0.7,0.3-1.5-0.3c0.2,5.7-0.1,10.7,0.2,15.8
		C85.8,83.1,86.1,83,86.5,82.9z M82,83V67.8h-2.7v15.4C80.3,83.1,81.2,83,82,83z M76.9,83.1V67.8h-2v15.3H76.9z M77.4,9.5L78,6
		l-2.5-2.4L79,3.1L80.5,0L82,3.1l3.5,0.5L83,6l0.6,3.4l-3.1-1.6L77.4,9.5z"/>
</g>
</svg>
