<?xml version="1.0" encoding="utf-8"?>
<!-- Generator: Adobe Illustrator 25.0.0, SVG Export Plug-In . SVG Version: 6.00 Build 0)  -->
<svg version="1.1" id="Layer_1" xmlns="http://www.w3.org/2000/svg" xmlns:xlink="http://www.w3.org/1999/xlink" x="0px" y="0px"
	 viewBox="0 0 122 144.7" style="enable-background:new 0 0 122 144.7;" xml:space="preserve">
<style type="text/css">
	.st0{fill-rule:evenodd;clip-rule:evenodd;fill:#B8B8B8;}
</style>
<g>
	<path class="st0" d="M44.4,142.8c0.1-0.3,0.2-0.6,0.3-0.8H0v-28.6c0.9,0.1,1.6,0.2,2.3,0.3c0.2,1.7,0.4,3,0.6,4.4
		c0.3,0,0.5,0,0.8,0c0.2-1.5,0.5-3,0.8-4.8c0.9,0.1,1.6,0.2,2.3,0.3c0.2,1.6,0.4,3,0.6,4.4c0.2,0,0.5,0,0.7,0
		c0.2-1.4,0.4-2.9,0.6-4.5c0.7-0.1,1.4-0.1,2-0.1c0.3,1.7,0.6,3.2,0.8,4.7c0.3-0.1,0.6-0.1,1-0.2c0.1-1.5,0.2-3,0.3-4.6
		c0.9,0,1.7,0.1,2.4,0.1c0.3,1.6,0.5,3,0.7,4.3c0.2,0,0.5,0,0.7,0c0.2-1.4,0.5-2.8,0.7-4.5c0.9,0.1,1.7,0.2,2.5,0.2
		c0.1,1.7,0.2,3,0.3,4.4c0.2,0,0.5,0.1,0.7,0.1c0.3-1.5,0.6-3,0.9-4.7h1.9c0.3,1.6,0.6,3.1,0.8,4.6c0.2,0,0.5,0,0.7-0.1
		c0.1-1.4,0.2-2.9,0.3-4.6c1,0.1,1.8,0.1,2.5,0.1c0.3,1.7,0.5,3,0.8,4.4c0.2,0,0.5,0,0.7-0.1c0.2-1.4,0.4-2.9,0.7-4.5
		c0.9,0.1,1.6,0.1,2.3,0.1c0.2,1.6,0.3,3,0.5,4.5c0.3,0,0.6,0,0.9,0.1c0.3-1.5,0.5-3,0.8-4.7c0.8,0.1,1.4,0.2,2,0.3
		c0.3,1.6,0.5,3,0.8,4.4c0.2,0,0.4-0.1,0.6-0.1c0.2-1.4,0.4-2.9,0.6-4.4H41c0.3,1.6,0.5,3.1,0.7,4.5c0.2,0,0.4,0,0.7,0
		c0.1-1.4,0.3-2.9,0.4-3.9c1-0.8,1.7-1.5,2.4-1.9c0.7-0.4,1.6-0.6,2.7-1l0.1,17.2h-3.6v2h3.6l0,1.4h-3.6v2h3.6l0.1,11
		C46.5,143.9,45.5,143.3,44.4,142.8z M73.9,144.7l0.1-11h3.6v-2h-3.6l0-1.4h3.6v-2H74l0.1-17.2c1.1,0.4,1.9,0.6,2.7,1
		c0.8,0.5,1.4,1.1,2.4,1.9c0.1,1,0.3,2.4,0.4,3.9c0.2,0,0.4,0,0.7,0c0.2-1.5,0.5-3,0.8-4.5h2.4c0.2,1.5,0.4,3,0.6,4.4
		c0.2,0,0.4,0.1,0.6,0.1c0.2-1.4,0.5-2.8,0.8-4.4c0.6-0.1,1.3-0.2,2-0.3c0.3,1.6,0.5,3.2,0.8,4.7c0.3,0,0.6,0,0.9-0.1
		c0.1-1.4,0.3-2.8,0.4-4.5c0.7,0,1.4-0.1,2.3-0.1c0.2,1.6,0.5,3,0.7,4.5c0.2,0,0.5,0.1,0.7,0.1c0.2-1.4,0.5-2.7,0.8-4.4
		c0.7,0,1.5-0.1,2.5-0.1c0.1,1.7,0.2,3.2,0.3,4.6c0.2,0,0.5,0.1,0.7,0.1c0.3-1.5,0.6-3.1,0.8-4.6h1.9c0.3,1.6,0.6,3.2,0.9,4.7
		c0.2,0,0.5-0.1,0.7-0.1c0.1-1.4,0.2-2.7,0.3-4.4c0.8-0.1,1.6-0.1,2.5-0.2c0.3,1.7,0.5,3.1,0.8,4.5c0.2,0,0.5,0,0.7,0
		c0.2-1.4,0.4-2.8,0.7-4.3c0.7,0,1.5-0.1,2.4-0.1c0.1,1.6,0.2,3.1,0.3,4.6c0.3,0.1,0.6,0.1,1,0.2c0.3-1.5,0.6-3,0.9-4.7
		c0.6,0,1.2,0.1,2,0.1c0.2,1.6,0.4,3.1,0.6,4.5c0.2,0,0.5,0,0.7,0c0.2-1.4,0.4-2.8,0.6-4.4c0.7-0.1,1.4-0.2,2.3-0.3
		c0.3,1.7,0.5,3.2,0.8,4.8c0.3,0,0.5,0,0.8,0c0.2-1.4,0.4-2.8,0.6-4.4c0.6-0.1,1.4-0.2,2.3-0.3v28.6H77.4c0.1,0.3,0.2,0.6,0.2,0.8
		C76.5,143.3,75.5,143.9,73.9,144.7z M60.4,143.2c0.1-0.1,0.3-0.1,0.4-0.2c0.1,0.3,0.3,0.6,0.4,1c-0.2,0.1-0.3,0.1-0.5,0.2
		C60.6,143.8,60.5,143.5,60.4,143.2z M58.5,143.1c0.1-0.1,0.3-0.1,0.4-0.2l0.4,1l-0.5,0.2C58.7,143.8,58.6,143.5,58.5,143.1z
		 M51.4,144.1V125h8.9c0.1,0.9,0.1,1.9,0.1,2.8c0.4,0,0.8,0.1,1.1,0.1c0,0,0,0,0-0.1c0,0,0.1,0.1,0.1,0.1c0,0-0.1,0-0.1,0
		c-0.2,0.4-0.3,0.7-0.7,1.6c-0.3-0.8-0.4-1.2-0.5-1.6c-0.4,0.3-0.8,0.6-1.2,1.1c-0.5-0.4-1.1-0.8-1.9-1.3v16.5H51.4z M62.3,143.9
		c0-0.2,0.1-0.4,0.1-0.6c0.3,0.1,0.7,0.2,1,0.3c0,0.1-0.1,0.3-0.1,0.4C63,144,62.6,143.9,62.3,143.9z M64.2,129.2
		c0.3-0.4,0.6-0.7,0.9-1.1c-0.4,0.3-0.8,0.6-1.2,0.8c-0.8-0.4-1.5-0.7-2.3-1.1c0,0,0,0,0,0l-0.1-0.1c0,0,0,0,0.1,0
		c-0.2-0.8-0.3-1.6-0.6-2.8h10.1v19h-5.9C64.5,139.1,66.1,134,64.2,129.2z M58.6,141.5c0.1-0.3,0.2-0.6,0.3-1
		c0.2,0.1,0.3,0.1,0.5,0.2c-0.1,0.3-0.2,0.6-0.4,0.9C58.9,141.6,58.7,141.5,58.6,141.5z M60.4,141.3c0.1-0.2,0.1-0.5,0.1-0.7
		c0.2,0.1,0.4,0.2,0.6,0.3c-0.1,0.2-0.3,0.4-0.4,0.6C60.7,141.4,60.6,141.4,60.4,141.3z M62.4,141.2c0-0.2,0-0.3-0.1-0.5h0.9
		c-0.1,0.2-0.2,0.5-0.4,0.7C62.8,141.4,62.5,141.2,62.4,141.2z M58.5,139.1c0.3-0.1,0.5-0.3,0.8-0.4c0.1,0.2,0.3,0.4,0.4,0.5
		c-0.2,0.2-0.5,0.4-0.7,0.6C58.9,139.6,58.7,139.4,58.5,139.1z M60.4,139.1c0.3-0.1,0.5-0.2,0.8-0.3c0.1,0.1,0.1,0.2,0.2,0.4
		l-0.7,0.5C60.5,139.4,60.4,139.2,60.4,139.1z M62.3,138.8h1.1c0,0.1,0.1,0.2,0.1,0.3c-0.4,0.1-0.8,0.3-1.1,0.4
		C62.4,139.2,62.4,139,62.3,138.8z M58.7,136.4l0.4-0.1c0.1,0.4,0.1,0.8,0.2,1.3c-0.2,0-0.3,0-0.5,0.1
		C58.7,137.3,58.7,136.8,58.7,136.4z M60.5,137.6v-1c0.1,0,0.2-0.1,0.3-0.1l0.4,1C60.9,137.6,60.7,137.6,60.5,137.6z M62.4,137
		c0.3,0,0.5,0,0.8,0.1c0,0.1,0,0.2,0,0.3c-0.3,0-0.5,0-0.8,0.1C62.4,137.3,62.4,137.1,62.4,137z M58.6,134.4c0.2,0,0.3-0.1,0.5-0.1
		c0.1,0.2,0.2,0.4,0.3,0.7l-0.5,0.2C58.8,134.9,58.7,134.6,58.6,134.4z M60.7,134.3c0.2,0.1,0.4,0.3,0.9,0.6c-0.6,0.1-0.8,0.1-1,0.1
		C60.6,134.8,60.7,134.5,60.7,134.3z M62.3,134.5c0.4,0,0.8,0.1,1.1,0.1c0,0.1,0,0.2,0,0.3h-1.1C62.3,134.7,62.3,134.6,62.3,134.5z
		 M54,132.7c-0.2-0.1-0.4-0.1-0.7-0.1v1c0.1,0,0.2,0.1,0.3,0.1C53.8,133.4,53.9,133.1,54,132.7z M68.1,132.6c-0.1,0-0.2,0-0.3,0.1
		v0.9c0.2,0,0.3,0,0.5,0C68.2,133.2,68.2,132.9,68.1,132.6z M58.6,132.5c0.1-0.1,0.3-0.1,0.4-0.2c0.2,0.3,0.3,0.6,0.5,0.8
		c-0.1,0.1-0.3,0.2-0.4,0.3C58.9,133,58.7,132.7,58.6,132.5z M60.4,132.6c0.1-0.1,0.2-0.3,0.3-0.4l0.8,0.6l-0.3,0.3
		C60.9,133,60.7,132.8,60.4,132.6z M62.3,132.6c0.4,0.1,0.9,0.1,1.3,0.1c0,0.1,0,0.3,0,0.4h-1.3C62.3,132.9,62.3,132.8,62.3,132.6z
		 M62.2,130.4c0.2-0.1,0.4-0.2,0.6-0.3c0.2,0.3,0.4,0.7,0.6,1c-0.2,0.1-0.3,0.2-0.5,0.3C62.7,131.1,62.5,130.7,62.2,130.4z
		 M60.5,131.3v-1.4c0.1,0,0.3,0,0.4,0v1.4H60.5z M58.9,131.3v-1.4c0.1,0,0.3,0,0.4,0l0.1,1.3C59.2,131.3,59,131.3,58.9,131.3z
		 M65.3,127.9c0-0.1,0.1-0.2,0.1-0.2C65.4,127.7,65.3,127.8,65.3,127.9C65.3,127.9,65.2,127.9,65.3,127.9c-0.1,0-0.2,0.1-0.2,0.2
		C65.1,128,65.2,128,65.3,127.9z M51.4,124.2v-16c-1.1-0.1-1.8-0.2-2.8-0.2c-0.2,0.9-0.3,1.7-0.5,2.8h-3.1V99.7h31.5v11.1H74
		c-0.2-1-0.4-1.8-0.6-2.7h-2.1V124h-8.5c-0.3-0.3-0.8-1-1.6-1.9c-0.8,0.8-1.5,1.4-2.3,2.1H51.4z M69.7,122c-0.5-1.2-0.9-2.2-1.2-3.1
		c-0.3,0-0.5,0.1-0.8,0.1c-0.1,1-0.3,2.1-0.5,3.3C68.2,122.2,68.7,122.1,69.7,122z M54.8,122l-0.2-0.5c-0.3,0.2-0.7,0.3-1,0.5
		c0,0.1,0.1,0.2,0.1,0.3C54.1,122.2,54.4,122.1,54.8,122z M67.7,120.8c0.3-0.1,0.6-0.2,0.9-0.3c0.1,0.2,0.2,0.4,0.3,0.6
		c-0.3,0.1-0.6,0.3-0.9,0.4C67.9,121.3,67.8,121.1,67.7,120.8z M62.8,120.3v-4.8h-4v4.8H62.8z M54.7,119.6h-1.4c0,0.2,0,0.5,0,0.7
		h1.4C54.7,120.1,54.7,119.8,54.7,119.6z M59.5,118c0-0.8,1.1-1.6,1.8-2.4c0.3,0.2,0.6,0.3,0.8,0.5v3.6c-0.2,0.2-0.5,0.3-0.7,0.5
		C60.7,119.5,59.5,118.7,59.5,118z M69.1,112.3v-2.5l-1.1,0c0.1,0.9,0.1,1.7,0.2,2.6C68.5,112.4,68.8,112.3,69.1,112.3z M66.3,109.9
		c-0.3,0-0.7-0.1-1-0.1c-0.1,0.8-0.2,1.7-0.3,2.5c0.3,0,0.7,0.1,1,0.1C66.2,111.5,66.2,110.7,66.3,109.9z M60,112.3l0.1-2.5
		c-0.4,0-0.7,0-1.1,0v2.5C59.4,112.3,59.7,112.3,60,112.3z M53.9,112.1c-0.1-0.8-0.3-1.5-0.4-2.3c-0.3,0.1-0.6,0.1-0.9,0.2
		c0.1,0.8,0.3,1.6,0.5,2.3C53.3,112.2,53.6,112.2,53.9,112.1z M62.9,109.8c-0.2,0-0.3,0-0.5,0c-0.2,0.8-0.3,1.5-0.6,2.4h1.6
		C63.2,111.3,63,110.6,62.9,109.8z M56.8,112.2c-0.1-0.8-0.2-1.5-0.3-2.3c-0.2,0-0.4,0-0.6,0c-0.1,0.8-0.2,1.5-0.3,2.3
		C56,112.2,56.4,112.2,56.8,112.2z M61,104.9v-2.6c-0.1,0-0.3,0-0.5,0v2.6C60.7,104.9,60.9,104.9,61,104.9z M68.9,97.7
		c-0.8,1-2.1,1.8-3.4-0.4c-0.7,0.5-1.4,1-2.3,1.7c-0.8-0.5-1.7-1-2.5-1.6c-1.4,2.4-2.8,1.3-4.2,0.6h-3.8c0-0.2,0-0.5,0-0.7
		c-0.5,0.4-0.9,0.8-1.4,1.1c-0.2,0.1-0.3,0.2-0.2,0.1h-5.9c-0.2-3.8-0.4-7.7-0.6-11.8c4,0,7-0.1,10.1,0.1c0.4,0,0.7,0.9,0.8,0.9
		c-0.2,2.6-0.3,4.8-0.5,7.2h11.2v-8.1h10.3v12.3C74,98.7,71.7,98.2,68.9,97.7z M56.6,85.3c1.9,1,3.1,1.5,4.4,2.1
		c1-0.5,2.3-1.1,4.3-2.1C65,89,66.4,92,63.5,94.4h-5.1C55.5,92.2,57,89.1,56.6,85.3z M52.7,92.8v-4.2h-2.4v4.2H52.7z M71.6,92.8
		v-4.2h-2.4v4.2H71.6z M45.9,70.4c0.3-0.1,0.6-0.2,0.8-0.3c0.3,0.8,0.8,1.6,0.9,2.4c0.3,2.1,0.5,4.3,0.8,6.4c0,0.2,0.6,0.3,1,0.5
		c0.6-0.8,1.2-1.6,1.8-2.4c0,0,0-0.1-0.1-0.1c0,0,0,0,0,0c-0.3-0.4-0.7-0.9-1.2-1.5c0.4-0.7,0.9-1.4,1.2-1.8h6
		c1.1,0.7,2.4,1.1,3.9,1.1c1.4,0,2.8-0.4,3.9-1.1h5.6c0.9,2.1,1.6,3.7,2.2,5.3l0.7-0.1l1.6-9c0.2,0,0.4,0,0.7-0.1
		c0.4,5.1,0.8,10.1,1.3,15.5h-9.3c0.7-2.6,1.2-4.7,1.8-6.9c0,0,0,0,0,0c0,0,0,0,0,0c0,0,0,0,0,0l0,0.1c-1.2-0.2-2.4-0.5-3.6-0.7
		l-0.2-0.2c-0.6-0.2-0.6-0.2,0,0l0.2,0.2c0.3,1.7,0.7,3.3,1.2,5.6c-2-1.6-4.5-4.4-5.9-5.5l-6.6,6c0.2-2.4,0.3-3.8,0.4-5.1
		c-1.2-0.6-2.6-1.2-3.9-1.8c0,0,0,0,0,0c0,0,0,0,0,0c0.6,0.9,1.1,1.8,1.8,2.8v5.4h-8.6C45,80.1,45.5,75.3,45.9,70.4z M61,80.4
		l4.6,3.4h-8.3C57,83.7,59.5,81.8,61,80.4z M71,83.2l0.6,0v-4l-0.6,0V83.2z M47.6,81.7c-0.3-0.1-0.7-0.3-1-0.4
		c-0.2,0.5-0.4,1-0.6,1.5l0.7,0.4C47,82.7,47.3,82.2,47.6,81.7z M51.3,82.9c-0.1-1.3-0.1-2.6-0.2-4c-0.8,0.3-1.2,0.5-1.6,0.6
		c0.2,1.2,0.5,2.4,0.7,3.6C50.6,83.1,51,83,51.3,82.9z M75.6,82.5c-0.1-0.4-0.1-0.8-0.2-1.1c-0.1,0-0.2,0-0.4,0.1
		c0.1,0.4,0.1,0.8,0.2,1.1C75.3,82.5,75.5,82.5,75.6,82.5z M49.5,79.5C49.5,79.5,49.5,79.4,49.5,79.5L49.5,79.5
		C49.5,79.5,49.4,79.5,49.5,79.5C49.4,79.5,49.5,79.5,49.5,79.5z M69.6,78.3L69.6,78.3L69.6,78.3L69.6,78.3L69.6,78.3L69.6,78.3z
		 M55.7,67.7c0-3,2.4-5.4,5.4-5.4c3,0,5.4,2.4,5.4,5.4c0,3-2.4,5.4-5.4,5.4C58.1,73.1,55.7,70.7,55.7,67.7z M51.4,71.6v-3.8
		c0.9,0.1,1.8,0.2,2.6,0.3c0.1,1.5,0.6,2.8,1.4,3.9C54.1,71.9,52.8,71.7,51.4,71.6z M68.2,68H70c0.3,1,0.5,2.1,0.9,3.6h-3.8
		C67.7,70.5,68.2,69.3,68.2,68z M45.4,68.8v-2.1h1.8v2.1H45.4z M74.4,68.8v-2.1h1.8v2.1H74.4z M63.5,68.5v-0.8h-2.3v-3.4h-0.8v4.2h0
		v0H63.5z M51.9,66c-0.1-2.3-0.1-5.4-0.2-10.1h19c-0.2,3.5-0.4,6.8-0.6,10.1c-0.4,0-0.7,0.1-1.1,0.1c-0.4-3-0.9-6-1.3-8.9
		c-0.4,0-0.8,0-1.2-0.1l-0.3,5.8c-1.3-1.4-3.2-2.3-5.2-2.3c-2.1,0-4.1,1-5.4,2.5c-0.1-2.4-0.3-5-0.5-6.4c-0.4,0.3-0.8-0.2-1,0.1
		c-0.5,3.2-0.7,6.2-1.3,9.3C52.5,65.9,51.9,66.4,51.9,66z M67.3,52.1c-0.6,0.8-1.1,1.6-1.7,2.5c-0.9,0-1.9,0-2.9,0
		c-0.5-0.8-1.1-1.7-1.7-2.7c-0.6,1.1-0.9,1.8-1.3,2.6h-3.5c-0.3-0.7-0.8-1.4-1.3-2.5c-0.6,0.9-1.1,1.6-2.1,3
		c-0.7-1.1-1.3-1.9-1.8-2.7c2.4-2.2,4.4-3,6-1.5h7.2c0,0.1,0,0.2-0.1,0.3c1.6-0.4,3.2-0.8,4.4-1c0.9,1.1,1.4,1.7,2.3,2.8
		c-0.3,0.4-0.7,1.1-1.5,2.3C68.5,53.9,67.9,53.1,67.3,52.1z M57.6,46.4c-0.5,1.4-0.8,2.3-1.1,3.2c-0.2,0-0.4,0.1-0.6,0.1
		c-0.3-1.9-0.6-3.7-0.9-5.6c-0.3,0-0.5,0-0.8-0.1c-0.3,1.8-0.5,3.6-0.8,5.4c-0.2,0-0.4,0.1-0.6,0.1c-0.5-1.2-1-2.4-1.5-3.6
		c0.5-1,1.1-2.2,1.6-3.3h0c0,0,0-0.1,0.1-0.1c-0.3-0.6-1.1-1.3-0.9-1.8c1.3-5.2,2.7-10.4,4-15.6c0.9-3.6,2.2-9.3,3.1-13.2
		c1.6,0,1.8,0,3,0c1,3.8,2.1,7.3,3,10.8c1.3,5.1,2.6,10.2,3.8,15.3c0.3,1.2,0.4,2.6,0.6,3.9c0,0.2,0.1,0.4,0.1,0.6
		c-0.1-0.1-0.3-0.2-0.4-0.3c0.1-0.1,0.2-0.2,0.3-0.3c-0.1,0.1-0.2,0.2-0.3,0.3c-0.7-0.6-1.4-1.3-2.3-2.2c-0.3,0.4-0.6,0.8-2,2.7
		l-0.2,0.3c0,0,0,0-0.1,0.1c0-0.1,0,0,0,0l0,0c0,0,0,0,0,0h0v0v0c0,0,0,0,0,0l0,0c0,0,0,0,0,0l0,0l0,0l0,0l0,0l0,0l0,0l0,0v0v0l0,0
		h0l0,0c0,0,0,0,0,0v0l0,0v0l0,0l0,0l0,0l0,0v0c0,0,0,0,0,0c0,0,0,0,0,0l0,0l0,0.1c0,0,0.1-0.1,0,0l0,0c0,0,0,0,0,0
		c0.9-0.4,1.8-0.8,3.1-1.4c0.8,1.2,1.8,2.4,2.6,3.5c-0.4,1.5-0.8,2.9-1.1,4.3l-0.6,0.1c-0.3-1.9-0.6-3.7-0.9-5.6
		c-0.2,0-0.5,0-0.7-0.1c-0.3,1.9-0.6,3.7-0.8,5.6c-0.2,0-0.5,0-0.7,0c-0.4-0.9-0.8-1.8-1.4-3.1c-0.5,1.2-0.9,2.1-1.2,3
		c-0.2,0-0.3,0-0.5,0c-0.3-1.9-0.5-3.8-0.8-5.6c-0.3,0-0.6,0-0.9,0.1c-0.1,1.8-0.2,3.6-0.3,5.4c-0.3,0.1-0.5,0.2-0.8,0.4
		C59,48.9,58.5,47.9,57.6,46.4z M58.6,43.1C58.6,43.1,58.6,43.2,58.6,43.1C58.6,43.1,58.6,43.1,58.6,43.1c-0.6-0.2-1.2-0.4-1.8-0.6
		c0,0,0,0,0,0.1c0,0,0,0,0,0c0.1,0.8,0.3,1.5,0.4,2.3c0.3,0,0.6,0.1,0.8,0.1C58.2,44.4,58.4,43.7,58.6,43.1z M64.6,43.2
		C64.6,43.2,64.6,43.2,64.6,43.2C64.6,43.1,64.6,43.1,64.6,43.2c-0.1-0.1-0.1-0.1-0.1-0.1c0,0,0,0-0.1,0c0,0-0.1,0,0,0c0,0,0,0,0,0
		l0,0l0,0l0,0c0,0,0,0,0,0v0h0l0,0c0,0,0,0,0,0l0,0l0,0l0,0l0,0l0,0l0,0l0,0l0,0l0,0l0,0l0,0l0,0l0,0c0,0,0,0,0,0l0,0c0,0,0,0,0,0
		l0,0c0,0,0,0,0,0c0,0-0.1,0,0,0C64,42.7,64,42.7,64,42.6l-0.1-0.1c-0.3-0.2-0.4-0.3-0.6-0.4c-0.3-0.2-0.2-0.2,0,0l-2.6-1.9
		c-0.7,0.9-1.4,1.9-2.1,2.9c0,0,0,0,0,0c0,0,0,0,0,0c0.7-0.4,1.5-0.8,2.5-1.4c1,0.9,2.1,1.9,3.3,3C64.4,44.2,64.5,43.7,64.6,43.2z
		 M64.6,43.1C64.6,43.1,64.6,43.1,64.6,43.1C64.6,43.1,64.6,43.1,64.6,43.1z M64.6,43.1L64.5,43c0,0,0,0,0,0
		C64.5,43,64.6,43.1,64.6,43.1z M64.5,43L64.5,43C64.5,43,64.5,43,64.5,43L64.5,43L64.5,43l0.1,0.1C64.5,43,64.5,43,64.5,43z
		 M64.6,43.1L64.6,43.1c-0.1,0-0.1-0.1-0.1-0.1C64.6,43.1,64.6,43.1,64.6,43.1z M64.6,43.1L64.5,43l0,0c0,0,0,0,0,0
		C64.6,43.1,64.6,43.1,64.6,43.1z M64.6,43.1 M64.7,43L64.7,43C64.7,43.1,64.7,43.1,64.7,43z M64.7,43L64.7,43
		C64.7,43.1,64.7,43.1,64.7,43C64.7,43.1,64.7,43.1,64.7,43z M64.7,43.1C64.7,43,64.7,43.1,64.7,43.1C64.7,43.1,64.7,43.1,64.7,43.1
		z M64.7,43.1L64.7,43.1C64.7,43.1,64.7,43.1,64.7,43.1C64.7,43.1,64.7,43,64.7,43.1z M64.6,43.1L64.6,43.1L64.6,43.1
		C64.7,43.1,64.7,43.1,64.6,43.1z M64.7,43.1L64.7,43.1L64.7,43.1C64.7,43,64.7,43.1,64.7,43.1C64.7,43.1,64.7,43.1,64.7,43.1z
		 M64.7,43C64.7,43,64.7,43,64.7,43C64.7,43,64.7,43.1,64.7,43C64.7,43.1,64.7,43.1,64.7,43z M64.6,43.1L64.6,43.1
		C64.7,43,64.7,43,64.6,43.1C64.7,43.1,64.7,43.1,64.6,43.1z M64.7,43L64.7,43C64.7,43,64.7,43,64.7,43z M64.7,43.1L64.7,43.1
		L64.7,43.1C64.7,43,64.7,43,64.7,43.1L64.7,43.1z M64.5,43C64.5,43,64.5,43,64.5,43L64.5,43C64.5,43,64.5,43,64.5,43L64.5,43z
		 M64.7,43L64.7,43L64.7,43L64.7,43z M64.7,43L64.7,43L64.7,43C64.7,43,64.7,43,64.7,43L64.7,43C64.7,43,64.7,43,64.7,43
		C64.7,43,64.7,43,64.7,43z M64.7,43L64.7,43L64.7,43C64.7,43,64.7,43,64.7,43z M64.7,43L64.7,43L64.7,43L64.7,43L64.7,43z M64.7,43
		L64.7,43L64.7,43L64.7,43z M64.7,43L64.7,43C64.7,43,64.7,43,64.7,43L64.7,43L64.7,43L64.7,43z M64.7,43L64.7,43L64.7,43L64.7,43z
		 M64.7,43L64.7,43L64.7,43C64.7,43,64.7,43,64.7,43C64.7,43,64.7,43,64.7,43z M64.7,43L64.7,43L64.7,43z M64.7,43L64.7,43L64.7,43z
		 M64.7,43L64.7,43L64.7,43z M64.5,43 M64.7,43L64.7,43L64.7,43L64.7,43z M64.5,43L64.5,43L64.5,43L64.5,43L64.5,43z M64.7,43
		L64.7,43L64.7,43z M64.7,43L64.7,43C64.7,43,64.7,43,64.7,43C64.7,43,64.7,43,64.7,43z M64.7,43L64.7,43C64.7,43,64.7,43,64.7,43z
		 M64.7,43L64.7,43L64.7,43C64.7,43,64.7,43,64.7,43z M64.7,43L64.7,43C64.7,43,64.7,43,64.7,43z M64.7,43L64.7,43
		C64.7,43,64.7,43,64.7,43L64.7,43z M64.7,43L64.7,43L64.7,43L64.7,43z M64.7,43L64.7,43C64.7,43,64.7,43,64.7,43L64.7,43z M64.5,43
		L64.5,43L64.5,43L64.5,43L64.5,43L64.5,43C64.5,43,64.5,43,64.5,43z M64.7,43L64.7,43C64.7,43,64.7,43,64.7,43z M64.7,43
		C64.8,43,64.7,43,64.7,43L64.7,43L64.7,43z M64.7,43L64.7,43C64.7,43,64.7,43,64.7,43z M64.7,43L64.7,43C64.7,43,64.7,43,64.7,43z
		 M64.7,43L64.7,43L64.7,43L64.7,43z M64.7,43L64.7,43L64.7,43L64.7,43z M64.7,43 M64.7,43 M64.7,43 M64.7,43L64.7,43L64.7,43
		L64.7,43L64.7,43L64.7,43L64.7,43L64.7,43L64.7,43L64.7,43L64.7,43z M64.7,43 M64.7,43L64.7,43L64.7,43z M64.7,43L64.7,43L64.7,43
		L64.7,43L64.7,43z M64.7,43 M64.7,43C64.8,43,64.8,42.9,64.7,43L64.7,43L64.7,43L64.7,43z M64.7,43L64.7,43L64.7,43
		C64.7,43,64.7,43,64.7,43z M64.7,43L64.7,43L64.7,43L64.7,43z M64.7,43 M64.7,43C64.7,43,64.7,43,64.7,43L64.7,43L64.7,43L64.7,43z
		 M64.7,43L64.7,43L64.7,43L64.7,43z M64.7,43L64.7,43L64.7,43L64.7,43L64.7,43z M64.5,43L64.5,43L64.5,43C64.5,43,64.5,43,64.5,43z
		 M64.7,43L64.7,43C64.7,43,64.7,43,64.7,43z M64.7,43C64.7,43,64.7,43,64.7,43L64.7,43z M64.7,43L64.7,43L64.7,43
		C64.7,43,64.7,43,64.7,43L64.7,43L64.7,43z M64.5,43L64.5,43L64.5,43C64.5,43,64.5,43,64.5,43z M64.5,43L64.5,43L64.5,43L64.5,43z
		 M64.5,43L64.5,43L64.5,43L64.5,43z M64.5,43L64.5,43L64.5,43L64.5,43z M64.5,43L64.5,43L64.5,43L64.5,43L64.5,43L64.5,43z
		 M64.5,43C64.5,43,64.5,43,64.5,43L64.5,43z M64.7,43L64.7,43L64.7,43L64.7,43L64.7,43L64.7,43L64.7,43z M64.7,43L64.7,43L64.7,43
		L64.7,43z M64.7,43C64.7,43,64.7,43,64.7,43L64.7,43C64.8,43,64.7,43,64.7,43L64.7,43L64.7,43L64.7,43z M64.7,43L64.7,43
		C64.7,43,64.7,43,64.7,43L64.7,43z M64.7,43L64.7,43L64.7,43L64.7,43L64.7,43z M64.5,43L64.5,43L64.5,43L64.5,43z M64.5,43L64.5,43
		L64.5,43C64.4,43,64.4,43,64.5,43L64.5,43L64.5,43L64.5,43L64.5,43L64.5,43L64.5,43L64.5,43z M64.7,43L64.7,43L64.7,43
		C64.8,43,64.7,43,64.7,43L64.7,43L64.7,43z M64.7,43L64.7,43L64.7,43L64.7,43L64.7,43L64.7,43L64.7,43z M64.7,43L64.7,43L64.7,43
		L64.7,43L64.7,43L64.7,43L64.7,43z M64.7,43L64.7,43L64.7,43L64.7,43L64.7,43L64.7,43L64.7,43L64.7,43L64.7,43L64.7,43L64.7,43
		L64.7,43L64.7,43L64.7,43L64.7,43L64.7,43L64.7,43L64.7,43z M64.5,43L64.5,43L64.5,43L64.5,43z M64.7,43C64.8,43,64.8,43,64.7,43
		L64.7,43z M64.7,43 M64.7,43L64.7,43L64.7,43L64.7,43z M64.7,43L64.7,43L64.7,43L64.7,43L64.7,43z M64.7,43L64.7,43L64.7,43
		L64.7,43L64.7,43z M64.7,43L64.7,43L64.7,43L64.7,43L64.7,43z M64.7,43 M64.8,43L64.8,43L64.8,43L64.8,43z M64.7,43L64.7,43
		C64.8,43,64.8,43,64.7,43z M64.8,43L64.8,43C64.8,43,64.8,43,64.8,43z M64.8,43L64.8,43L64.8,43L64.8,43z M64.8,43L64.8,43L64.8,43
		L64.8,43z M64.4,43L64.4,43L64.4,43z M64.8,43L64.8,43L64.8,43L64.8,43z M64.4,43L64.4,43L64.4,43L64.4,43L64.4,43L64.4,43
		C64.4,42.9,64.4,43,64.4,43z M64.8,43L64.8,43L64.8,43z M64.8,43L64.8,43L64.8,43L64.8,43L64.8,43z M64.8,43L64.8,43
		C64.8,42.9,64.8,42.9,64.8,43z M64.8,43L64.8,43L64.8,43L64.8,43z M64.4,42.9L64.4,42.9L64.4,42.9L64.4,42.9z M64.4,42.9L64.4,42.9
		L64.4,42.9z M64.8,42.9L64.8,42.9C64.8,42.9,64.8,42.9,64.8,42.9L64.8,42.9z M64.8,42.9L64.8,42.9C64.8,42.9,64.8,42.9,64.8,42.9
		L64.8,42.9L64.8,42.9L64.8,42.9z M64.8,42.9L64.8,42.9L64.8,42.9L64.8,42.9z M64.8,42.9L64.8,42.9C64.8,42.9,64.8,42.9,64.8,42.9z
		 M64.4,42.9L64.4,42.9L64.4,42.9L64.4,42.9z M64.4,42.9L64.4,42.9L64.4,42.9L64.4,42.9L64.4,42.9z M64.4,42.9
		C64.4,42.9,64.4,42.9,64.4,42.9L64.4,42.9L64.4,42.9L64.4,42.9L64.4,42.9L64.4,42.9C64.4,42.9,64.4,42.9,64.4,42.9L64.4,42.9z
		 M64.8,42.9L64.8,42.9L64.8,42.9L64.8,42.9z M64.8,42.9L64.8,42.9L64.8,42.9L64.8,42.9z M64.8,42.9L64.8,42.9L64.8,42.9L64.8,42.9z
		 M64.4,42.9L64.4,42.9L64.4,42.9C64.4,42.9,64.4,42.9,64.4,42.9L64.4,42.9z M64.8,42.9L64.8,42.9L64.8,42.9L64.8,42.9z M64.8,42.9
		L64.8,42.9L64.8,42.9L64.8,42.9L64.8,42.9z M64.8,42.9L64.8,42.9L64.8,42.9C64.8,42.9,64.8,42.9,64.8,42.9z M64.8,42.9L64.8,42.9
		L64.8,42.9C64.8,42.9,64.8,42.9,64.8,42.9z M64.4,42.9L64.4,42.9L64.4,42.9C64.4,42.9,64.4,42.9,64.4,42.9z M64.4,42.9L64.4,42.9
		L64.4,42.9L64.4,42.9L64.4,42.9z M64.4,42.9L64.4,42.9L64.4,42.9L64.4,42.9z M64.8,42.9 M64.8,42.9L64.8,42.9L64.8,42.9L64.8,42.9
		L64.8,42.9z M64.4,42.9L64.4,42.9L64.4,42.9L64.4,42.9L64.4,42.9z M64.4,42.9L64.4,42.9L64.4,42.9C64.4,42.9,64.4,42.9,64.4,42.9z
		 M64.4,42.9L64.4,42.9L64.4,42.9L64.4,42.9z M64.4,42.9L64.4,42.9L64.4,42.9z M64.8,42.9L64.8,42.9L64.8,42.9L64.8,42.9L64.8,42.9
		L64.8,42.9C64.8,42.9,64.8,42.9,64.8,42.9C64.8,42.9,64.8,42.9,64.8,42.9L64.8,42.9c0.2-0.2,0.2-0.3,0.2-0.3
		C65,42.6,65,42.6,64.8,42.9L64.8,42.9L64.8,42.9L64.8,42.9z M64.4,42.9L64.4,42.9L64.4,42.9z M64.4,42.9L64.4,42.9
		c-0.2-0.1-0.3-0.2-0.4-0.3c0,0,0,0,0,0l0.2,0.2L64.4,42.9c-0.1-0.1-0.1-0.1-0.1-0.1l0,0h0l0,0C64.3,42.8,64.3,42.8,64.4,42.9
		L64.4,42.9L64.4,42.9L64.4,42.9C64.3,42.9,64.3,42.9,64.4,42.9L64.4,42.9L64.4,42.9L64.4,42.9L64.4,42.9L64.4,42.9z M64.4,42.9
		L64.4,42.9C64.4,42.9,64.4,42.9,64.4,42.9z M64.3,42.9L64.3,42.9L64.3,42.9L64.3,42.9z M64.3,42.9L64.3,42.9L64.3,42.9
		C64.3,42.9,64.3,42.9,64.3,42.9z M64.8,42.9L64.8,42.9L64.8,42.9L64.8,42.9L64.8,42.9z M64.8,42.9L64.8,42.9L64.8,42.9L64.8,42.9z
		 M64.8,42.9L64.8,42.9C64.8,42.9,64.8,42.9,64.8,42.9z M64.3,42.9L64.3,42.9L64.3,42.9C64.3,42.9,64.3,42.9,64.3,42.9z M64.3,42.9
		L64.3,42.9L64.3,42.9L64.3,42.9L64.3,42.9z M64.3,42.9L64.3,42.9L64.3,42.9C64.3,42.9,64.3,42.9,64.3,42.9z M64.3,42.9L64.3,42.9
		L64.3,42.9L64.3,42.9z M64.3,42.9L64.3,42.9L64.3,42.9L64.3,42.9z M64.8,42.9L64.8,42.9C64.9,42.8,64.9,42.8,64.8,42.9
		C64.8,42.8,64.8,42.8,64.8,42.9z M64.3,42.9C64.3,42.8,64.3,42.8,64.3,42.9C64.3,42.9,64.3,42.9,64.3,42.9z M64.3,42.9L64.3,42.9
		L64.3,42.9C64.3,42.8,64.3,42.8,64.3,42.9z M64.2,42.8L64.2,42.8L64.2,42.8C64.3,42.8,64.3,42.8,64.2,42.8z M64.2,42.8L64.2,42.8
		C64.2,42.8,64.2,42.8,64.2,42.8C64.2,42.8,64.2,42.8,64.2,42.8C64.2,42.8,64.2,42.8,64.2,42.8z M64.2,42.8L64.2,42.8
		C64.2,42.8,64.2,42.8,64.2,42.8C64.2,42.8,64.2,42.8,64.2,42.8z M63.9,42.6L63.9,42.6C63.9,42.6,64,42.6,63.9,42.6
		C63.9,42.6,63.9,42.6,63.9,42.6z M65,42.6C65,42.6,65,42.6,65,42.6C65,42.6,65,42.6,65,42.6z M63.9,42.6l-0.6-0.4c0,0,0,0,0,0
		C63.5,42.3,63.6,42.4,63.9,42.6z M56.7,42.6C56.7,42.5,56.7,42.5,56.7,42.6C56.7,42.5,56.7,42.5,56.7,42.6c-0.6-0.9-1.2-1.7-2-2.9
		c-0.8,1.4-1.2,2.1-1.6,2.9c0,0,0,0,0,0c0,0,0,0,0,0.1C54.3,42.6,55.5,42.6,56.7,42.6z M57.1,37.8v-3.3h-0.2v3.2
		C57,37.7,57.1,37.7,57.1,37.8z M64.4,36.1v-2.8c-0.1,0-0.1,0-0.2,0v2.8C64.3,36.1,64.4,36.1,64.4,36.1z M58.3,30.6v-3.1
		c0,0-0.1,0-0.1,0v3.1C58.2,30.6,58.3,30.6,58.3,30.6z M63.8,29.3v-2.8c-0.1,0-0.1,0-0.2,0v2.8C63.7,29.4,63.7,29.4,63.8,29.3z
		 M59.1,23.8v-2.6c-0.1,0-0.1-0.1-0.2-0.1v2.7C58.9,23.8,59,23.8,59.1,23.8z M62.7,22.5v-2.6l-0.2-0.1v2.7
		C62.5,22.5,62.6,22.5,62.7,22.5z M60.2,17.4l0.6-4.5c-0.1,0-0.1,0-0.2,0L60,17.4H60.2z M62.1,15.8L62,14.7c-0.1,0-0.1,0-0.1,0v1.2
		C61.9,15.9,62,15.8,62.1,15.8z M57.1,11.7l0.7-4.2l-3.1-3l4.3-0.6L61,0l1.9,3.9l4.3,0.6l-3.1,3l0.7,4.2l-3.8-2L57.1,11.7z"/>
</g>
</svg>
