<?xml version="1.0" encoding="utf-8"?>
<!-- Generator: Adobe Illustrator 25.0.0, SVG Export Plug-In . SVG Version: 6.00 Build 0)  -->
<svg version="1.1" id="Layer_1" xmlns="http://www.w3.org/2000/svg" xmlns:xlink="http://www.w3.org/1999/xlink" x="0px" y="0px"
	 viewBox="0 0 250 223.1" style="enable-background:new 0 0 250 223.1;" xml:space="preserve">
<style type="text/css">
	.st0{fill-rule:evenodd;clip-rule:evenodd;fill:#FFFFFF;}
</style>
<g>
	<path class="st0" d="M0,223V75.8c1.2-0.6,2.4-1.3,3.4-2.4c1.5-1.5,2.5-3.3,3-5.2h32c0.5,1.9,1.5,3.7,3,5.2c1,1,2.2,1.8,3.5,2.4
		l0,147.1H0z M10.4,152.9h23.3v-2.2H10.5c0.5-9.6,1.2-18.1,1.9-25.5h19.5c2,20.4,3.4,49.1,3.4,86h1.5c0-116.6-13.4-154.9-22-113.5
		h-0.1v0.3c-4.1,19.8-7.1,57.5-7.1,113.2h1.5C9.1,188.6,9.6,169.2,10.4,152.9z M16.1,99.9h12c1.3,5.7,2.5,13.4,3.5,23.1h-19
		C13.6,113.3,14.8,105.6,16.1,99.9z M16.7,97.7c3.4-13.5,7.5-13.5,10.9,0H16.7z"/>
	<path class="st0" d="M77.4,222.8v-114c2.7-23.6,9.1-37.9,34.7-37.9v151.9H77.4z M109.6,198.8v-1.5H79.9v1.5H109.6z M109.6,196.3
		v-1.5H79.9v1.5H109.6z M109.6,193.8v-1.5H79.9v1.5H109.6z M109.6,191.3v-1.5H79.9v1.5H109.6z M109.6,188.9v-1.5H79.9v1.5H109.6z
		 M109.6,185.9v-5H79.9v5H109.6z M109.6,179.9v-1.5H79.9v1.5H109.6z M109.6,177.5V176H79.9v1.5H109.6z M109.6,175v-1.5H79.9v1.5
		H109.6z M109.6,172.5V171H79.9v1.5H109.6z M109.6,170v-1.5H79.9v1.5H109.6z M109.6,167v-5H79.9v5H109.6z M109.6,160.8v-1.5H79.9
		v1.5H109.6z M109.6,158.4v-1.5H79.9v1.5H109.6z M109.6,155.9v-1.5H79.9v1.5H109.6z M109.6,153.4v-1.5H79.9v1.5H109.6z M109.6,150.9
		v-1.5H79.9v1.5H109.6z M109.6,148.2v-5H79.9v5H109.6z M109.6,141.8v-1.5H79.9v1.5H109.6z M109.6,139.3v-1.5H79.9v1.5H109.6z
		 M109.6,136.8v-1.5H79.9v1.5H109.6z M109.6,134.3v-1.5H79.9v1.5H109.6z M109.6,131.9v-1.5H79.9v1.5H109.6z M109.6,129.4v-5H79.9v5
		H109.6z M109.6,123.4v-1.5H79.9v1.5H109.6z M109.6,120.9v-1.5H79.9v1.5H109.6z M109.6,118.5V117H79.9v1.5H109.6z M109.6,116v-1.5
		H79.9v1.5H109.6z M109.6,113.5V112H79.9v1.5H109.6z M109.6,110.5v-5h-29c-0.2,1.6-0.5,3.3-0.7,5H109.6z M109.6,104.1v-1.5H81
		c-0.1,0.5-0.2,1-0.3,1.5H109.6z M109.6,101.6v-1.5H81.5c-0.1,0.5-0.2,1-0.3,1.5H109.6z M109.6,99.1v-1.5H82c-0.1,0.5-0.2,1-0.3,1.5
		H109.6z M109.6,96.7v-1.5H82.7c-0.1,0.5-0.3,1-0.4,1.5H109.6z M109.6,94.2v-1.5H83.5c-0.2,0.5-0.3,1-0.5,1.5H109.6z M109.6,91.2v-5
		H86.3c-0.9,1.5-1.6,3.2-2.3,5H109.6z M109.6,85.3v-1.5H87.9c-0.3,0.5-0.7,1-1,1.5H109.6z M109.6,82.8v-1.5H90
		c-0.5,0.5-0.9,1-1.3,1.5H109.6z M109.6,80.3v-1.5h-17c-0.6,0.5-1.2,1-1.7,1.5H109.6z"/>
	<path class="st0" d="M214.8,131.4c3.8,39.7,13.2,70.9,26.8,91.7H215C204.5,194.4,207.5,160.6,214.8,131.4z M230.4,207.1h-18.3
		c0.1,0.5,0.2,1,0.3,1.5h18.7C230.8,208.1,230.6,207.6,230.4,207.1z M229.3,204.6h-17.7c0.1,0.5,0.2,1,0.3,1.5h18
		C229.7,205.6,229.5,205.1,229.3,204.6z M228.2,202.1h-17c0.1,0.5,0.1,1,0.2,1.5h17.4C228.6,203.1,228.4,202.6,228.2,202.1z
		 M227.2,199.6h-16.4c0.1,0.5,0.1,1,0.2,1.5h16.8C227.6,200.6,227.4,200.1,227.2,199.6z M226.3,197.2h-15.7c0.1,0.5,0.1,1,0.2,1.5
		h16.1C226.7,198.2,226.5,197.7,226.3,197.2z M224.1,191H210c0.1,1.7,0.3,3.3,0.4,5h15.4C225.2,194.3,224.7,192.7,224.1,191z
		 M223.1,188h-13.3c0,0.5,0,1,0.1,1.5h13.7C223.5,189,223.3,188.5,223.1,188z M222.4,185.5h-12.6c0,0.5,0,1,0,1.5h13
		C222.7,186.5,222.5,186,222.4,185.5z M221.6,183h-12c0,0.5,0,1,0,1.5h12.4C221.9,184,221.8,183.5,221.6,183z M221,180.6h-11.3
		c0,0.5,0,1,0,1.5h11.7C221.2,181.6,221.1,181,221,180.6z M220.3,178.1h-10.6c0,0.5,0,1,0,1.5h11
		C220.6,179.1,220.4,178.6,220.3,178.1z M218.8,171.9h-8.8c-0.1,1.7-0.1,3.3-0.2,5H220C219.6,175.2,219.1,173.6,218.8,171.9z
		 M218.1,168.9h-8c0,0.5-0.1,1-0.1,1.5h8.4C218.3,169.9,218.2,169.4,218.1,168.9z M217.5,166.4h-7.2c0,0.5-0.1,1-0.1,1.5h7.7
		C217.8,167.4,217.6,166.9,217.5,166.4z M217,164h-6.5c-0.1,0.5-0.1,1-0.1,1.5h7C217.2,164.9,217.1,164.4,217,164z M216.6,161.5
		h-5.8c-0.1,0.5-0.1,1-0.2,1.5h6.2C216.7,162.5,216.6,162,216.6,161.5z M216.1,159h-5c-0.1,0.5-0.1,1-0.2,1.5h5.5
		C216.3,160,216.2,159.5,216.1,159z"/>
	<polygon class="st0" points="146.3,222.8 146.3,215.4 148.7,215.4 148.7,181.4 146.3,181.4 146.3,147.5 148.7,147.5 148.7,113.5 
		146.3,113.5 146.3,78.1 148.7,78.1 148.7,44.6 150.5,44.6 150.5,38.9 165.6,38.9 165.6,44.6 170.1,44.6 170.1,78.8 167.8,78.8 
		167.8,112.8 170.1,112.8 170.1,146.7 167.8,146.7 167.8,180.7 170.1,180.7 170.1,222.8 	"/>
	<path class="st0" d="M125.4,222.8V0c25.6,0,32,14.3,34.7,37.9v184.9H125.4z M157.7,193.3v-1.5h-29.2v1.5H157.7z M157.7,190.8v-1.5
		h-29.2v1.5H157.7z M157.7,188.4v-1.5h-29.2v1.5H157.7z M157.7,185.9v-1.5h-29.2v1.5H157.7z M157.7,183.4v-1.5h-29.2v1.5H157.7z
		 M157.7,180.4v-5h-29.2v5H157.7z M157.7,174.5V173h-29.2v1.5H157.7z M157.7,172v-1.5h-29.2v1.5H157.7z M157.7,169.5V168h-29.2v1.5
		H157.7z M157.7,167v-1.5h-29.2v1.5H157.7z M157.7,164.6v-1.5h-29.2v1.5H157.7z M157.7,161.6v-5h-29.2v5H157.7z M157.7,155.6v-1.5
		h-29.2v1.5H157.7z M157.7,153.2v-1.5h-29.2v1.5H157.7z M157.7,150.7v-1.5h-29.2v1.5H157.7z M157.7,148.2v-1.5h-29.2v1.5H157.7z
		 M157.7,145.7v-1.5h-29.2v1.5H157.7z M157.7,142.8v-5h-29.2v5H157.7z M157.7,136.3v-1.5h-29.2v1.5H157.7z M157.7,133.8v-1.5h-29.2
		v1.5H157.7z M157.7,131.4v-1.5h-29.2v1.5H157.7z M157.7,128.9v-1.5h-29.2v1.5H157.7z M157.7,126.4v-1.5h-29.2v1.5H157.7z
		 M157.7,123.4v-5h-29.2v5H157.7z M157.7,117.5V116h-29.2v1.5H157.7z M157.7,115v-1.5h-29.2v1.5H157.7z M157.7,112.5V111h-29.2v1.5
		H157.7z M157.7,110v-1.5h-29.2v1.5H157.7z M157.7,107.6v-1.5h-29.2v1.5H157.7z M157.7,104.6v-5h-29.2v5H157.7z M157.7,98.4v-1.5
		h-29.2v1.5H157.7z M157.7,95.9v-1.5h-29.2v1.5H157.7z M157.7,93.4v-1.5h-29.2v1.5H157.7z M157.7,91v-1.5h-29.2V91H157.7z
		 M157.7,88.5V87h-29.2v1.5H157.7z M157.7,85.8v-5h-29.2v5H157.7z M157.7,79.3v-1.5h-29.2v1.5H157.7z M157.7,76.8v-1.5h-29.2v1.5
		H157.7z M157.7,74.3v-1.5h-29.2v1.5H157.7z M157.7,71.9v-1.5h-29.2v1.5H157.7z M157.7,69.4v-1.5h-29.2v1.5H157.7z M157.7,66.9v-5
		h-29.2v5H157.7z M157.7,61v-1.5h-29.2V61H157.7z M157.7,58.5V57h-29.2v1.5H157.7z M157.7,56v-1.5h-29.2V56H157.7z M157.7,53.5V52
		h-29.2v1.5H157.7z M157.7,51.1v-1.5h-29.2v1.5H157.7z M157.7,48.1v-5h-29.2v5H157.7z M157.7,41.6v-1.5h-29.2v1.5H157.7z
		 M157.5,37.7h-29v1.5h29.2C157.6,38.7,157.5,38.2,157.5,37.7z M157.1,35.2h-28.7v1.5h28.9C157.3,36.2,157.2,35.7,157.1,35.2z
		 M156.7,32.7h-28.3v1.5H157C156.9,33.7,156.8,33.2,156.7,32.7z M156.3,30.2h-27.8v1.5h28.1C156.5,31.2,156.4,30.7,156.3,30.2z
		 M154.8,23.8h-26.3v5H156C155.6,27,155.2,25.4,154.8,23.8z M154,21.3h-25.5v1.5h26C154.3,22.3,154.1,21.8,154,21.3z M153,18.8
		h-24.6v1.5h25.2C153.4,19.8,153.2,19.3,153,18.8z M151.9,16.4h-23.5v1.5h24.2C152.4,17.3,152.1,16.8,151.9,16.4z"/>
	<polygon class="st0" points="114,222.8 114,70.4 118.3,70.4 118.3,64.7 133.4,64.7 133.4,70.4 137.8,70.4 137.8,222.8 	"/>
	<polygon class="st0" points="47.1,222.8 47.1,26.3 52.8,26.3 52.8,20.6 71.9,20.6 71.9,26.3 77.9,26.3 77.9,222.8 	"/>
	<polygon class="st0" points="169.8,222.8 220.9,222.8 220.9,201.5 215.8,196.4 215.8,124.9 208.4,117.5 208.4,68.6 192.6,52.8 
		192.6,30.7 178.4,16.6 178.4,96.2 174.9,99.7 174.9,165.8 170,170.4 	"/>
	<path class="st0" d="M215.9,72.4h26.5c10.5,28.6,9.1,58.9,1.7,88.2C231.4,133,221.4,103.9,215.9,72.4z M243.6,154.9L243.6,154.9
		c-0.1,0-0.1,0.1,0,0.1C243.5,155,243.6,154.9,243.6,154.9z M244.1,152.4h-1.7c0.2,0.5,0.5,1,0.7,1.5h0.8
		C243.9,153.4,244,152.9,244.1,152.4z M244.5,149.9h-3.3c0.2,0.5,0.4,1,0.7,1.5h2.4C244.3,150.9,244.4,150.4,244.5,149.9z
		 M245.6,143.7h-7.1c0.7,1.7,1.4,3.3,2.2,5h4.1C245.1,147.1,245.3,145.4,245.6,143.7z M246,140.8h-8.8l0.1,0.3
		c0.1,0.2,0.3,0.7,0.5,1.2h8C245.9,141.8,246,141.3,246,140.8z M246.4,138.3h-10.1c0.2,0.5,0.4,1,0.6,1.5h9.4
		C246.3,139.3,246.3,138.8,246.4,138.3z M246.7,135.8h-11.4c0.2,0.5,0.4,1,0.6,1.5h10.7C246.6,136.8,246.6,136.3,246.7,135.8z
		 M247,133.3h-12.6c0.2,0.5,0.4,1,0.6,1.5h11.9C246.9,134.3,246.9,133.8,247,133.3z M247.2,130.9h-13.8c0.2,0.5,0.4,1,0.5,1.5h13.1
		C247.1,131.9,247.2,131.3,247.2,130.9z M247.7,124.9h-16.4c0.6,1.7,1.2,3.3,1.8,5h14.3C247.5,128.2,247.6,126.6,247.7,124.9z
		 M247.9,121.9h-17.6c0.2,0.5,0.3,1,0.5,1.5h17C247.8,122.9,247.8,122.4,247.9,121.9z M248,119.5h-18.5c0.2,0.5,0.3,1,0.5,1.5h18
		C247.9,120.4,247.9,120,248,119.5z M248,117h-19.4c0.2,0.5,0.3,1,0.5,1.5H248C248,118,248,117.5,248,117z M248,114.5h-20.2
		c0.2,0.5,0.3,1,0.5,1.5H248C248,115.5,248,115,248,114.5z M248,112h-20.9c0.1,0.5,0.3,1,0.5,1.5H248C248,113,248,112.5,248,112z
		 M247.7,105.8h-22.5c0.5,1.7,1,3.3,1.5,5H248C247.9,109.1,247.9,107.5,247.7,105.8z M247.5,102.8h-23.1c0.1,0.5,0.3,1,0.4,1.5h22.8
		C247.6,103.8,247.6,103.4,247.5,102.8z M247.3,100.4h-23.6c0.1,0.5,0.3,1,0.4,1.5h23.3C247.4,101.4,247.3,100.9,247.3,100.4z
		 M247,97.9h-23.9c0.1,0.5,0.3,1,0.4,1.5h23.7C247.1,98.9,247.1,98.4,247,97.9z M246.7,95.4h-24.2c0.1,0.5,0.3,1,0.4,1.5h24
		C246.8,96.4,246.7,95.9,246.7,95.4z M246.3,92.9h-24.4c0.1,0.5,0.2,1,0.4,1.5h24.3C246.5,93.9,246.4,93.4,246.3,92.9z M245.1,86.7
		h-24.7c0.4,1.7,0.7,3.3,1.1,5h24.5C245.8,90,245.5,88.4,245.1,86.7z M244.4,83.8h-24.6c0.1,0.5,0.2,1,0.3,1.5h24.7
		C244.6,84.8,244.5,84.3,244.4,83.8z M243.8,81.3h-24.5c0.1,0.5,0.2,1,0.3,1.5h24.6C244,82.3,243.9,81.8,243.8,81.3z M243,78.8
		h-24.3c0.1,0.5,0.2,1,0.3,1.5h24.4C243.3,79.8,243.2,79.3,243,78.8z M242.3,76.3h-24c0.1,0.5,0.2,1,0.3,1.5h24.2
		C242.6,77.3,242.4,76.8,242.3,76.3z M241.4,73.9h-23.6c0.1,0.5,0.2,1,0.3,1.5h23.8C241.8,74.8,241.6,74.3,241.4,73.9z"/>
	<path class="st0" d="M219.9,90.7c-6.3,19.5-7.7,39.7-4.2,60.5c5.1,23.9,8.9,48,25,71.1c2.9-19.4,6.7-38.8,6.2-58.2
		C236.2,144.2,226.8,117,219.9,90.7z"/>
</g>
</svg>
