<?xml version="1.0" encoding="utf-8"?>
<!-- Generator: Adobe Illustrator 25.0.0, SVG Export Plug-In . SVG Version: 6.00 Build 0)  -->
<svg version="1.1" id="Layer_1" xmlns="http://www.w3.org/2000/svg" xmlns:xlink="http://www.w3.org/1999/xlink" x="0px" y="0px"
	 viewBox="0 0 144 64" style="enable-background:new 0 0 144 64;" xml:space="preserve">
<style type="text/css">
	.st0{fill:#FFFFFF;}
</style>
<g>
	<path class="st0" d="M73.6,2.3c0.1-0.4,0.2-0.8-0.3-1.1C72.9,1.9,72.9,1.9,73.6,2.3 M73.4,48.7c0.4-0.3,0.3-0.6,0.2-1
		c-0.2,0-0.3,0-0.5,0C73,48.1,72.9,48.5,73.4,48.7 M73.4,24.5c-0.4,0.2-0.4,0.6-0.2,1h0.5C73.7,25.1,73.8,24.7,73.4,24.5 M71.6,1.6
		c-0.6-0.2-0.8,0-1,0.4c0.2,0.1,0.3,0.3,0.5,0.5C71.4,2.1,71.5,1.9,71.6,1.6 M73.1,43.2c0,0.8,0,0.8,0.5,1v-1H73.1z M73.6,29.1
		c-0.2,0-0.4,0.1-0.5,0.1c-0.1,0.5-0.1,0.9,0.5,1V29.1z M73.1,11.5c0.5,0.1,0.7,0,0.8-0.4c-0.1-0.4-0.4-0.5-0.8-0.3V11.5z
		 M73.6,39.7c0.1-0.6,0.3-1-0.2-1.4C73,38.5,73,38.8,73,39.1C73.1,39.3,73.3,39.5,73.6,39.7 M73.1,20.9c0.3,0,0.4-0.1,0.6-0.1
		c0-0.4,0-0.7-0.1-1h-0.6V20.9z M71.1,49c0.2-0.4,0.3-0.6,0.5-0.9c-0.1-0.1-0.3-0.3-0.5-0.5c-0.2,0.3-0.4,0.5-0.4,0.7
		C70.7,48.4,70.9,48.6,71.1,49 M73.6,34.9v-1c-0.2,0-0.4,0-0.5,0v1H73.6z M73.6,6h-0.5v1h0.5V6z M73.6,7 M71.2,24.5
		c-0.6,0.2-0.5,0.6-0.5,1c0.4,0.1,0.7,0,0.8-0.4C71.4,24.9,71.3,24.7,71.2,24.5 M71.1,30.3c0.6-0.7,0.6-0.7-0.1-1.1
		C70.6,29.7,70.6,29.7,71.1,30.3 M71,39.6c0.2-0.2,0.4-0.4,0.6-0.6c-0.1-0.3-0.3-0.5-0.4-0.7C70.6,38.8,70.6,38.8,71,39.6 M71.1,5.9
		c-0.4,0.3-0.5,0.6-0.3,1c0.3,0.2,0.6,0,0.7-0.3C71.6,6.3,71.5,6.1,71.1,5.9 M70.7,15.3c0,0.5-0.1,0.9,0.5,1c0.1-0.3,0.5-0.6,0.2-1
		H70.7z M72.8,15.6c0.2,0.3,0.3,0.5,0.5,0.7c0.1,0.1,0.2,0.1,0.3,0.1c0.1-0.2,0.2-0.4,0.3-0.7c-0.1-0.1-0.2-0.3-0.4-0.4
		C73.3,15.3,73.1,15.4,72.8,15.6 M70.7,20.8c0.5,0.2,0.7,0,0.8-0.4c0.1-0.3-0.1-0.5-0.4-0.6c-0.1,0-0.3,0-0.4,0.1V20.8z M70.7,34.8
		c0.5,0.2,0.7,0,0.8-0.4c0.1-0.3-0.1-0.6-0.4-0.6c-0.1,0-0.3,0-0.4,0.1V34.8z M71,44.3c0.4-0.1,0.5-0.3,0.5-0.9
		c-0.1-0.1-0.3-0.2-0.5-0.4C70.6,43.7,70.6,43.7,71,44.3 M71.2,11.8c0.1-0.3,0.4-0.5,0.3-0.7c-0.1-0.3-0.3-0.5-0.5-0.7
		C70.6,11.1,70.6,11.1,71.2,11.8 M12.3,48.5c0,0.1,0.1,0.2,0.1,0.2c1.3,0,2.5,0,3.8,0c0.2,0,0.5,0,0.7,0c0.6,0,1.2,0,1.7-0.5
		c-0.3-0.6-0.3-0.6-0.7-1c-0.8,0.4-1.6,0.5-2.5,0.5c-0.1,0-0.3,0-0.4,0.1C14,48,13.2,48.2,12.3,48.5 M70.9,27.8
		c0.5,0.5,0.9,1,1.6,1.1c0.4-0.4,0.8-0.8,1.1-1.1v-0.7c-0.4-0.5-0.7-0.8-1.1-1.2c-0.7,0.1-1.2,0.5-1.7,1.1V27.8z M72.2,35.1
		c-0.5,0.5-1,0.9-1.5,1.4c0.3,0.8,0.9,1.4,1.6,1.8c0.5-0.4,0.9-0.8,1.4-1.1v-0.9C73.1,36,72.9,35.2,72.2,35.1 M70.7,46.1
		c0.5,0.5,0.8,0.9,1.2,1.3h0.7c0.4-0.4,0.7-0.7,1.1-1.1c0-0.2,0-0.6,0-0.9c-0.4-0.4-0.7-0.7-1.1-1H72C71.6,45.1,70.7,45.3,70.7,46.1
		 M70.7,17.8c0.1,1,0.8,1.3,1.2,1.8h0.6c0.4-0.3,0.8-0.7,1.2-1.1c0-0.3,0-0.7,0-1c-0.5-0.4-0.9-0.7-1.3-1
		C71.6,16.7,71.3,17.5,70.7,17.8 M73.6,4.6V3.7c-0.4-0.4-0.8-0.8-1.2-1.2c-0.8,0.2-1,0.8-1.5,1.2v0.9c0,0,0.1-0.1,0.1-0.1
		c0.4,0.4,0.8,0.9,1.2,1.4C72.8,5.5,73.2,5,73.6,4.6 M22.2,46.5c-1,0.3-1.9,0.5-3,0.8c0,0.5-0.3,0.9,0.3,1.3
		c0.8,0.1,1.6-0.1,2.3,0.2c0.3,0.1,0.6,0,0.7-0.2c0.1-0.5,0.2-1,0.3-1.5c0-0.1,0-0.2,0-0.3C22.5,46.6,22.4,46.5,22.2,46.5 M70.7,9.1
		c0.6,0.3,0.8,1.2,1.6,1.3c0.5-0.5,0.9-0.8,1.3-1.2V8.3c-0.1,0-0.1,0.1-0.2,0.1c-0.4-0.4-0.7-0.8-1.1-1.3c-0.6,0.1-0.9,0.6-1.2,0.9
		C70.9,8.3,70.6,8.5,70.7,9.1 M71.8,33.6h0.4c0.6-0.5,1-0.8,1.4-1.1v-0.9c-0.1,0.1-0.1,0.1-0.2,0.1c-0.3-0.4-0.7-0.9-1.1-1.3
		c-0.8,0.4-1.2,1-1.7,1.5C70.8,32.7,71.7,32.9,71.8,33.6 M133.1,48.6c-2.1-0.9-4.3-0.8-6.5-1.4c-0.1,0.3-0.2,0.6-0.4,0.9
		c0.2,0.2,0.4,0.4,0.6,0.6C128.9,48.7,131,48.8,133.1,48.6 M72.5,24.3c0.5-0.4,0.8-0.7,1.1-1v-1.1c-0.4-0.4-0.8-0.8-1.3-1.2
		c-0.7,0.4-1.2,1-1.7,1.6C71,23.6,71.5,24.2,72.5,24.3 M71.9,39.8c-0.4,0.4-0.8,0.8-1.2,1.2c0.2,1.1,0.9,1.6,1.8,2
		c0.4-0.4,0.8-0.8,1.2-1.2v-1.1c-0.3-0.3-0.7-0.6-1-0.9H71.9z M122.1,46.7v1.6c0.2,0.2,0.4,0.3,0.5,0.4c0.9,0.2,1.7-0.2,2.6,0.1
		c0.2-0.2,0.4-0.4,0.5-0.5c0-0.4,0.2-0.9-0.1-1c-1.2-0.3-2.1-0.6-3.1-0.8C122.3,46.5,122.2,46.6,122.1,46.7 M70.6,13.7
		c0.6,0.5,1,1.3,1.7,1.5c0.5-0.5,0.9-0.8,1.3-1.2v-1c-0.4-0.5-0.8-0.9-1.2-1.3C71.6,12,70.9,12.6,70.6,13.7 M26.7,45.2
		c-1.2,0.4-2.4,0.5-3.3,1.2c-0.1,0.6,0.1,1,0,1.5c0,0.2,0.2,0.4,0.2,0.5c0.6,0.1,1.1,0.4,1.5,0.2c0.5-0.2,0.9,0.1,1.5,0
		C27.3,47.7,27,46.5,26.7,45.2 M121.4,46.2c-1.2-0.1-2.1-1-3.4-0.8c-0.1,0.1-0.2,0.2-0.2,0.3c0,0.9,0,1.8,0,2.7
		c0.5,0.5,1.1,0.3,1.7,0.3c0.6,0,1.2-0.1,1.9-0.2c0-0.3,0-0.4,0-0.6C121.4,47.4,121.4,46.9,121.4,46.2 M30.9,43.9
		c-0.8,0.3-1.5,0.6-2.3,0.8c-0.4,0.1-0.7,0.3-0.9,0.7c0.2,1-0.2,2.1,0.3,3.2c0.3,0,0.7,0,1,0c0.3,0,0.8,0.2,1,0.1
		c0.4-0.3,0.6,0.2,0.9,0c0.1-0.1,0.3-0.3,0.4-0.5C31.3,47,31.3,44.1,30.9,43.9 M114,48.7c1-0.1,1.9-0.1,2.8-0.2
		c0.4-0.5,0.4-0.9,0.3-3.5c-1-0.3-2.1-0.7-3.1-1c-0.2,0.1-0.4,0.2-0.5,0.3v4.1C113.7,48.4,113.8,48.6,114,48.7 M112.4,48.7
		c0.4-0.4,0.4-5,0.2-5.2c-1.2-0.5-2.1-0.9-3-1.3c-0.3,0.2-0.3,0.5-0.3,0.8c0,1.7,0,3.5,0,5.3c0.2,0.2,0.4,0.4,0.6,0.5
		C110.9,48.5,111.5,48.5,112.4,48.7 M35.2,42.2c-1.1,0.5-2.1,1-3.2,1.5c0,0.2,0,0.4,0,0.5c0.2,0.4,0.1,4.2,0.6,4.7
		c0.9-0.3,1.8,0.1,2.7-0.1c0.1-0.1,0.2-0.1,0.2-0.2c0.1-1.5,0.1-5.6,0.1-6.1C35.4,42.3,35.3,42.2,35.2,42.2 M38.8,40.5
		c-0.7,0.8-2,0.6-2.7,1.6c0.2,1.1,0.1,5.3,0.2,6c0,0.2,0.2,0.4,0.2,0.6h2.9c0.1-0.4,0.2-7.7,0.2-8.3H38.8z M105.6,48.7
		c0,0,0-0.1,0-0.1c0.3,0,0.6,0,1,0.1c0.6,0.1,1.3,0.2,1.8-0.3c0.1-0.4,0.1-6.3,0-6.7c-1.2-0.5-2.2-1-3.3-1.5
		c-0.1,0.2-0.2,0.3-0.2,0.5c0,2.6,0.1,5.2,0.1,7.8C105.2,48.5,105.4,48.6,105.6,48.7 M104.1,48.5v-8.8c-0.8-0.4-1.5-0.9-2.3-1.3
		c-0.4-0.2-0.8-0.5-1.3-0.2c0.1,0.7,0.1,9.9,0.3,10.2c1,0.7,2-0.1,2.9,0.3C103.8,48.8,103.9,48.6,104.1,48.5 M43.8,48.8
		c0.1-0.2,0.3-0.3,0.3-0.5c0.1-3.4,0-6.8,0-10.4c-1.4,0.6-2.5,1.3-3.6,2c0.1,0.5,0.1,8.2,0.4,8.7C41.7,48.9,42.7,48.6,43.8,48.8
		 M99.9,37.5c-0.9-0.6-1.8-1.3-2.7-1.9c-0.4-0.1-0.7-0.1-0.8,0.2c0.1,0.6,0.1,1.1,0.1,1.5c0,3.5,0,7.1,0,10.7c0,0.2,0,0.4,0,0.6
		c0.2,0.1,0.4,0.2,0.5,0.3c0.5,0,0.9-0.1,1.3-0.1c0.4,0,0.9,0.1,1.4,0.1c0.1-0.4,0.2-0.8,0.2-1.2C99.9,44.2,99.9,40.9,99.9,37.5
		 M44.8,37.9c0.1,0.5,0.1,10.3,0.3,10.7c0.4,0,0.9,0.1,1.3,0.1c0.6,0,1.2-0.2,2-0.3c0.1-0.3,0-12.7-0.1-13.2c-0.8,0.5-1.5,1-2.3,1.4
		C45.4,37,44.9,37.4,44.8,37.9 M95.6,48.3c-0.1-1.5-0.1-11.1,0-12.5c0-0.8-0.3-1.4-0.9-1.8c-0.7-0.4-1.3-0.9-1.8-1.4
		c-0.2-0.2-0.4-0.3-0.6-0.1v16c0.5,0.7,0.9,0,1.4,0.1c0.5,0.1,1,0.1,1.5,0.1C95.3,48.6,95.5,48.4,95.6,48.3 M52.9,48.1
		c-0.8-0.8,0.1-14.7-0.2-15.6c-0.1-0.1-0.2-0.2-0.4-0.3c-1.1,0.8-2.1,1.7-3.1,2.4v13.5c0.2,0.2,0.4,0.3,0.6,0.5
		c0.8-0.3,1.6-0.3,2.4-0.1C52.3,48.5,52.6,48.4,52.9,48.1 M53.5,31.5c0,0.5,0,16.5,0,16.8c0.2,0.1,0.5,0.3,0.6,0.4
		c0.9-0.2,1.8,0,2.8-0.2c0.5-0.7,0.5-18.9,0.1-19.7c-0.1,0-0.3,0-0.3,0C55.6,29.6,54.6,30.5,53.5,31.5 M91.3,48.3V31.5
		c-1-0.9-2.1-1.9-3.3-2.9c-0.2,0.2-0.3,0.4-0.4,0.5c0,6.1,0.2,19.1,0.3,19.6c1,0,1.9,0.1,2.9,0.1C91,48.6,91.2,48.4,91.3,48.3
		 M87.1,48.3V27.8c-0.2-0.3-0.4-0.5-0.6-0.7c-0.6-0.7-1.3-1.3-1.9-2.1c-0.3-0.4-0.6-0.6-1-0.7c-0.1,0.1-0.1,0.1-0.1,0.1
		c0,0.9-0.3,23.8,0.3,24.2c0.9,0.1,1.8-0.1,2.8,0.3C86.8,48.6,86.9,48.5,87.1,48.3 M57.9,28.9c-0.1,0.5-0.2,17.4-0.1,19.2
		c0,0.1,0,0.1,0.1,0.2c0.2,0.1,0.5,0.3,0.7,0.4c0.6-0.4,1.1-0.2,1.7,0c0.4-0.2,0.7-0.3,1.1-0.5V24.6c-0.1-0.1-0.3-0.2-0.4-0.4
		c-0.2,0.1-0.3,0.2-0.4,0.3c-0.8,0.8-1.5,1.7-2.3,2.5C57.7,27.6,57.5,28.2,57.9,28.9 M82.6,48.5c0.2-0.8,0.1-17.1,0.1-23.9
		c0-0.4,0.1-0.7,0.2-1.2c-0.7-1.9-2.3-3.2-3.2-5.1c-0.2,0.2-0.3,0.3-0.3,0.4c0,1-0.1,28.7,0,29.3c0,0.2,0.1,0.4,0.2,0.6
		c0.9,0,1.7,0.1,2.5,0.1c0,0.1,0,0.1,0,0.1C82.2,48.7,82.4,48.6,82.6,48.5 M62.5,48.7c0.7-0.2,1.2-0.2,2.3,0.1
		c0.3-0.2,0.5-0.3,0.8-0.5c0.1-9.3,0.1-29-0.1-29.8c-0.3-0.1-0.5,0.1-0.7,0.3c-0.2,0.3-0.3,0.6-0.5,0.9c-0.8,1.1-1.5,2.2-2.2,3.2
		v25.5C62.1,48.5,62.3,48.6,62.5,48.7 M68.6,10.3c0,0.4,0,0.8-0.1,1.1c-0.5,1.5-1.2,2.9-1.9,4.3c-0.3,0.5-0.5,1.1-0.3,1.6
		c0.1,0.6,0.3,28.6,0,31c0.1,0.2,0.3,0.3,0.3,0.3c0.9,0.1,1.7,0.1,2.3,0.1c0.6-0.8,0.7-37.9,0.3-38.7c0,0-0.1-0.1-0.2-0.1
		C68.8,10.1,68.7,10.1,68.6,10.3 M78.4,48.5c0.1-0.7,0.2-21.2,0.2-30.8c0-0.8-0.2-1.4-0.5-2.1c-0.4-0.9-0.9-1.7-1.2-2.7
		c-0.4-1.1-1-2.3-1.1-3.5c0-0.2-0.2-0.3-0.4-0.6c-0.1,0.6-0.2,0.9-0.3,1.3c0,0.9,0,32,0,37.9c0,0.1,0,0.1,0.1,0.3
		c0.2,0.1,0.5,0.3,0.7,0.4c0.3-0.1,0.5-0.2,0.7-0.2C77.2,48.8,77.7,48.6,78.4,48.5 M20,45.5c0.6-0.2,1.3-0.4,1.9-0.5
		c0.8-0.1,1.5-0.4,2.3-0.6c1.2-0.3,2.3-0.6,3.5-1c2-0.6,3.9-1.4,5.8-2.2c1.5-0.6,3-1.3,4.5-2.1c0.8-0.4,1.6-0.9,2.4-1.3
		c0.7-0.4,1.5-0.7,2.2-1.1c2.1-1.2,4.1-2.4,6.1-3.9c1.7-1.3,3.5-2.6,5.2-4.1c1.8-1.5,3.4-3.2,5-4.9c0.7-0.7,1.3-1.5,1.9-2.3
		c0.9-1.2,1.8-2.5,2.7-3.7c0.4-0.6,0.8-1.2,1.1-1.9c0.6-1.2,1.3-2.5,1.8-3.8c0.3-0.9,0.7-1.8,1-2.7c0.5-1.6,0.8-3.3,1.2-4.9
		c-0.2-0.9,0.2-1.8,0-2.9c-0.3-0.1-0.6-0.3-1-0.6c0-0.3-0.2-0.8,0.3-1.1h8.5c0.5,0.2,0.3,0.7,0.3,1.1c-0.3,0.1-0.5,0.3-0.8,0.4
		c-0.2,1.1-0.1,2.3,0.2,3.3c0.2,0.7,0.1,1.5,0.3,2.3c0.5,1.7,0.9,3.5,1.6,5.1c0.7,1.6,1.6,3.2,2.4,4.7c0.5,0.8,1,1.6,1.5,2.4
		c0.9,1.5,2.1,2.7,3.2,4.1c1.6,2,3.5,3.8,5.4,5.5c1.7,1.6,3.5,3,5.4,4.3c1,0.6,1.9,1.5,2.9,2c1.5,0.7,2.8,2,4.5,2.4
		c0.8,0.7,1.8,1.1,2.7,1.6c1.4,0.7,2.8,1.2,4.2,1.9c0.6,0.3,1.1,0.5,1.7,0.7c2,0.7,3.9,1.5,6,2.1c0.8,0.2,1.6,0.3,2.3,0.6
		c0.9,0.3,1.8,0.4,2.7,0.7c0.8,0.3,1.7,0.4,2.5,0.5c1.1,0.2,2.2,0.5,3.4,0.7c0.3,0.1,0.5,0.1,0.8,0.1c0.9,0,1.9,0.2,2.8,0.4
		c0.8,0.2,1.7,0.2,2.5,0.3c1.3,0.1,2.6,0.2,3.9,0.4c0.3,0,0.6,0,0.9,0c1.2,0,2.5,0,3.8,0c0.4,1.3,0.4,2.5,0,3.8H138
		c-0.7,0.5-0.8,1.3-1.2,1.8c0.1,0.4,0.9,8.9,1,9.8c0,0.2,0,0.4,0,0.6c-0.5,0.3-10.6,0.1-11.1,0.1c0-0.3,0.1-0.6,0.1-0.9
		c0-0.1,0.8-9.8,0.6-10.3c-0.5-1-0.5-1-1.4-1.3c-0.5,0.1-0.9,0.1-1.3,0.1c-14.9,0-29.8,0-44.6,0c-0.7,0-1.5,0-2.2,0
		c-0.7,0.5-0.8,1.3-1.2,1.9c0.5,3.5,0.8,6.9,1.2,10.4C77.4,64,67.2,64,66.6,63.9c0.1-0.4,0.1-0.6,0.1-0.9c0-0.1,0.7-8.9,0.7-10.1
		c-0.2-0.4-0.5-0.9-0.8-1.4h-49c-0.3,0.6-0.7,1.2-0.9,1.7c0.4,3.5,0.8,7,1.1,10.5C17.5,64.1,6.8,64,6.6,63.8
		c0.1-0.2,0.9-9.9,0.9-10.4c-0.2-0.6-0.4-1.3-1.1-1.9h-6c-0.1-0.1-0.3-0.3-0.4-0.4C0,50,0,49,0,48c0-0.1,0.1-0.2,0.3-0.3
		c0.8,0,1.6,0.1,2.5,0c1.6-0.1,3.1-0.1,4.7-0.4c0.3-0.1,0.6,0,0.8,0c1.5,0,2.9-0.2,4.3-0.6c0.3-0.1,0.6,0,0.8-0.1
		c0.8-0.1,1.5-0.2,2.3-0.3c1.1-0.2,2.2-0.3,3.2-0.7c0.3-0.1,0.6,0,1,0L20,45.5z"/>
</g>
</svg>
