<?xml version="1.0" encoding="utf-8"?>
<!-- Generator: Adobe Illustrator 25.0.0, SVG Export Plug-In . SVG Version: 6.00 Build 0)  -->
<svg version="1.1" id="Layer_1" xmlns="http://www.w3.org/2000/svg" xmlns:xlink="http://www.w3.org/1999/xlink" x="0px" y="0px"
	 viewBox="0 0 121 172.9" style="enable-background:new 0 0 121 172.9;" xml:space="preserve">
<style type="text/css">
	.st0{fill:#FFFFFF;}
</style>
<g>
	<path class="st0" d="M117.6,13.7c-0.2,0-0.4,0-0.5,0l0.2,2.2c0.1,0,0.2,0,0.3,0L117.6,13.7z M90.5,154.4c1.6-2.9,3.2-5.5,4.6-8.2
		c1.5-2.7,2.9-5.5,4.1-8.3c1.6-3.7,2.9-7.5,4.3-11.2c0.8-2.2,1.6-4.5,2.3-6.7c1.1-3.8,3.3-11.9,3.4-12.1c1.5-4.1,4.5-27,3.7-29
		c-0.3,2.3-0.6,4.5-1,6.6c-0.6,3.3-1.3,6.6-2,10c-0.7,3.3-1.5,6.6-2.4,9.8c-0.6,2.3-1.5,4.5-2.4,6.7c-0.8,2.1-1.7,4.3-2.4,6.4
		c-1.2,3.6-2.9,6.9-4.5,10.3c-1.2,2.5-2.7,4.8-3.9,7.2c-2.3,4.6-4.9,8.9-7.8,13.1c-1.1,1.7-2.2,3.4-3.4,5.3
		C85.8,154.7,88.1,154.5,90.5,154.4 M1.5,158.4h3.1c37.4,0,74.7,0,112.1,0c0.7,0,1.5,0,2.2,0c0.3,0,0.5-0.2,0.9-0.4
		c-0.2-0.8-0.3-1.5-0.4-2.2c-6.2-0.6-116.9-0.4-117.7,0.4C1.7,156.7,1.6,157.4,1.5,158.4 M115.3,38.8c-0.6,4.5-1.3,9.1-2.1,13.6
		c-0.7,4.5-1.5,9.1-2.4,13.6c-0.8,3.7-1.8,7.3-2.8,10.9c-0.1,0.5-0.3,1.1-0.5,1.6c-0.8,2.9-1.6,5.8-2.5,8.7c-0.8,2.5-1.7,5-2.5,7.5
		c-0.8,2.4-1.5,4.9-2.5,7.2c-0.9,1.9-3.8,9.7-4.8,11.4c-2.1,3.8-4.1,7.6-6.5,11.3c-3.1,4.7-6.3,9.3-9.8,13.7c-3.4,4.3-7,8.4-11.1,12
		c-1.3,1.1-2.5,2.5-4.3,4.2c3.5,0,6.2,0.1,8.9-0.1c0.6,0,1.3-0.7,1.8-1.2c2.4-2.7,4.7-5.3,6.9-8.1c5.9-7.5,11-15.4,15.1-24.1
		c0.7-1.4,1.1-2.9,1.9-4.2c1.9-3.4,3.4-7,4.7-10.7c1.5-4.1,3-8.2,4.5-12.4c0.7-2.1,1.4-4.2,1.9-6.3c0.7-3.1,1.3-6.3,2-9.4
		c0.8-3.9,1.1-7.8,1.9-11.7c0.9-2.2,4.8-39.4,4.1-41.6C116.8,29.5,116.2,34.1,115.3,38.8z M97.1,154c1.5,0.9,2.9,0.4,4.4,0.5
		c0.4-0.6,0.9-1.2,1.1-1.8c1.4-2.8,6.6-28.5,6.8-32.2c0.3-2.4,1.3-8.7,1-11.1C107.7,124.7,103.5,139.6,97.1,154z M0.4,172.6
		c-0.5-2.3-0.5-15.7-0.1-18.3c1.7-0.1,3.4-0.2,5.1-0.2c4.7,0,9.4-0.1,14.2,0c1.5,0,2.8-0.3,4-1c3.3-1.7,6.6-3.5,9.8-5.5
		c4.9-3,9.8-6.1,14.5-9.3c4.6-3.1,8.9-6.5,13-10.2c1.8-1.6,3.6-3.2,5.3-4.9c4.4-4.2,8.3-8.7,12-13.6c1.7-2.3,3.6-4.4,5.4-6.6
		c0.2-0.3,3.9-6.6,4.7-7.7c1.7-2.2,3-4.7,4.3-7.1c1.5-2.5,2.8-5.1,4.1-7.8c1.5-3.1,2.9-6.3,4.2-9.5c0.9-2.1,1.7-4.2,2.5-6.4
		c0.9-2.6,1.8-5.2,2.6-7.8c0.9-2.7,1.9-5.4,2.5-8.1c0.4-1.7,1.7-6.6,2.9-11.6s4.3-17.5,4.5-20.2c0,1.3,0.2,2.7-0.1,4
		c-0.1,2.1-4.7,27.8-5.5,28.8c-0.9,3.5-1.9,6.7-2.8,10.2c-0.7,2.5-1.6,4.9-2.4,7.3c-0.9,2.8-1.7,5.6-2.7,8.4c-0.6,1.7-1.3,3.4-2,5.1
		c-1.7,3.9-3.3,7.9-5,11.8c-1.6,3.6-3.1,7.3-5.1,10.6c-2.4,3.9-4.7,7.9-7.4,11.6c-3.1,4.3-6.6,8.3-10,12.3
		c-3.3,3.8-6.8,7.4-10.5,10.8c-5.3,4.7-10.8,9.1-17.1,12.6c-2,1.1-3.9,2.3-5.8,3.5c0.2,0.7,1.1,0.6,1.8,0.6c3.4,0,6.8,0,10.3,0
		c3.9-2.2,7.5-4.8,10.8-7.8c3-2.7,6-5.5,8.8-8.3c3.6-3.7,6.8-7.6,9.7-11.9c1.5-2.3,3-4.7,4.7-6.9c7.7-10.8,15.9-30.7,16.8-34.9
		c1.1-3.2,2-6.4,3.1-9.6c0.9-2.6,1.4-5.3,2.1-8c0-0.2,0.1-0.4,0.1-0.5c1.4-3.7,7.5-33.1,7.5-36.6c0.4-3,0.9-6,1.2-9
		c0.3-2.5,0.1-5-1.6-7c0.7-1.1,1.4-2.1,2-3.1c0.5-3.6,0-7.4,2.6-10.7c1.1,3.6,1.1,6.9,0,10.4c0.1,1.3,2,2.2,1.2,4
		c-0.3,0.1-0.7,0.3-1.2,0.4c-0.1,0.2-0.2,0.3-0.2,0.5c0,1.6-0.1,3.1-0.1,4.7c0.1,4.3-0.6,8.4-0.9,12.7c-0.3,3.8-0.5,7.5-0.8,11.3
		c-0.2,3.2-0.5,6.4-0.7,9.7c-0.3,3.9-0.6,7.9-0.9,11.8c-0.2,3.1-0.5,6.3-0.8,9.4c-0.3,3.9-0.6,7.7-0.9,11.6
		c-0.2,2.9-0.5,5.9-0.7,8.8c-0.3,3.9-0.6,7.7-0.9,11.6c-0.2,2.7-0.5,5.3-0.7,8c-0.3,3.7-0.6,7.4-0.9,11c-0.2,2.6-0.5,5.1-0.7,7.7
		c-0.3,3.8-0.6,7.5-1,11.3c-0.2,2.6-0.6,5.1-0.9,7.7c-0.1,0.4,0,0.9,0,1.6h12.5v18.4C118.9,173,3.8,173.1,0.4,172.6L0.4,172.6z"/>
</g>
</svg>
