<?xml version="1.0" encoding="utf-8"?>
<!-- Generator: Adobe Illustrator 25.0.0, SVG Export Plug-In . SVG Version: 6.00 Build 0)  -->
<svg version="1.1" id="Layer_1" xmlns="http://www.w3.org/2000/svg" xmlns:xlink="http://www.w3.org/1999/xlink" x="0px" y="0px"
	 viewBox="0 0 60 162.3" style="enable-background:new 0 0 60 162.3;" xml:space="preserve">
<style type="text/css">
	.st0{fill:#B8B8B8;}
</style>
<g>
	<path class="st0" d="M4.9,133.3C4.9,133.3,4.9,133.3,4.9,133.3l-0.1,0.5c0,0,0,0,0.1,0V133.3z M2.7,141.3c0.1,0,0.1,0,0.2,0
		c0-0.1,0-0.3,0-0.4c0,0-0.1,0-0.1,0V141.3z M2.5,143L2.5,143l-0.1,0.4h0.1V143z M3.4,144.4c0.1,0,0.1,0,0.2,0c0-0.2,0-0.3,0-0.5
		l-0.1,0C3.4,144.1,3.4,144.3,3.4,144.4 M2.8,122c0,0-0.1,0-0.1,0c0,0.1,0,0.3,0,0.4c0,0,0.1,0,0.1,0C2.8,122.3,2.8,122.2,2.8,122
		 M4.4,119.4C4.4,119.4,4.4,119.4,4.4,119.4c-0.1,0.1-0.1,0.3-0.1,0.4c0,0,0.1,0,0.1-0.1C4.4,119.7,4.4,119.6,4.4,119.4 M3.1,133.4
		c0.1,0,0.1-0.1,0.2-0.1c-0.1-0.1-0.1-0.2-0.2-0.3c0,0-0.1,0-0.1,0C3,133.2,3.1,133.3,3.1,133.4 M5,135.6c0,0,0.1,0,0.1,0
		c0-0.1,0-0.3,0-0.4C5.1,135.4,5.1,135.5,5,135.6 M4.2,151.5H4.1v0.7c0,0,0.1,0,0.1,0C4.2,152,4.2,151.8,4.2,151.5 M39.9,114
		c0,0-0.1,0-0.1,0c0,0.2,0,0.5,0,0.7c0,0,0.1,0,0.1,0C39.9,114.4,39.9,114.2,39.9,114 M3.2,112.1c0.1,0,0.1,0,0.2,0.1
		c0-0.2,0-0.4,0.1-0.5c0,0-0.1,0-0.1,0C3.4,111.8,3.3,111.9,3.2,112.1 M4.2,144c-0.1,0-0.1,0-0.2-0.1c-0.1,0.2-0.1,0.3-0.1,0.5
		c0,0,0.1,0,0.1,0.1C4.1,144.3,4.2,144.1,4.2,144 M39.9,122.3c0,0-0.1,0-0.1,0c0,0.2,0,0.4,0.1,0.6c0,0,0.1,0,0.1,0V122.3z
		 M4.2,149.1C4.2,149.1,4.2,149.1,4.2,149.1l-0.1,0.7c0,0,0.1,0,0.1,0C4.2,149.6,4.2,149.4,4.2,149.1 M3.6,144.9c0,0-0.1,0-0.1,0
		v0.5c0.1,0,0.1,0,0.1,0V144.9z M3.7,134.7C3.7,134.7,3.7,134.7,3.7,134.7l-0.1,0.7c0,0,0.1,0,0.1,0V134.7z M3.6,118.2h0.1v-0.7
		c0,0-0.1,0-0.1,0V118.2z M4.3,117.7L4.3,117.7l0.1-0.7c0,0-0.1,0-0.1,0V117.7z M3.6,107.3C3.7,107.3,3.7,107.3,3.6,107.3l0.1-0.6
		c0,0-0.1,0-0.1,0V107.3z M3.7,127.9c0,0,0.1,0,0.1,0.1c0.1-0.1,0.2-0.1,0.2-0.2c0-0.1,0-0.2-0.1-0.5C3.8,127.6,3.7,127.8,3.7,127.9
		 M3.5,156.3C3.4,156.3,3.4,156.3,3.5,156.3l-0.1,0.7c0,0,0,0,0.1,0V156.3z M3.5,114.2c0,0-0.1,0-0.1,0c0,0.2,0,0.4,0.1,0.6
		c0,0,0.1,0,0.1,0C3.5,114.6,3.5,114.4,3.5,114.2 M3.2,143.5c0.1,0,0.1,0,0.2,0c0-0.2-0.1-0.4-0.1-0.6H3.2V143.5z M3.6,148.9
		c0,0,0.1,0,0.1,0c0-0.2,0-0.4,0-0.6c0,0-0.1,0-0.1,0C3.6,148.5,3.6,148.7,3.6,148.9 M4.2,113.7c-0.2,0.4-0.5,0.6,0,0.7V113.7z
		 M2.7,146.5C2.7,146.5,2.7,146.5,2.7,146.5l0.1-0.9c0,0-0.1,0-0.1,0V146.5z M3.2,129.6c0.1,0,0.2,0,0.3,0.1c0-0.2,0.1-0.4,0.1-0.5
		c0,0-0.1,0-0.1,0C3.3,129.2,3.3,129.4,3.2,129.6 M3.9,125.1c0.1,0,0.1,0,0.2,0.1l0.1-0.5c-0.1,0-0.1,0-0.2-0.1
		C4,124.7,3.9,124.9,3.9,125.1 M3.9,143.5c0.1,0,0.2,0,0.3,0V143c0,0-0.1,0-0.1,0C4,143.2,3.9,143.4,3.9,143.5 M3.5,140
		c-0.3,0.3-0.5,0.5,0,0.8V140z M2.3,140C2.3,140,2.3,140,2.3,140l-0.1,0.9c0,0,0.1,0,0.1,0V140z M5,127.2c-0.1,0-0.1,0-0.2-0.1
		c-0.1,0.2-0.1,0.3-0.2,0.5c0.1,0,0.1,0.1,0.2,0.1C4.8,127.6,4.9,127.4,5,127.2 M2.6,134.6c0-0.2-0.1-0.4-0.1-0.7
		C2.2,134.4,2.2,134.4,2.6,134.6 M4,104.4c-0.1,0-0.1-0.1-0.2-0.1c-0.1,0.2-0.2,0.3-0.2,0.5l0.2,0.1C3.9,104.7,3.9,104.5,4,104.4
		 M2.9,144.6c-0.4,0.4-0.4,0.4-0.2,0.8C2.8,145.1,2.8,144.9,2.9,144.6 M3,153.5C3,153.5,3,153.4,3,153.5l-0.1,1c0,0,0.1,0,0.1,0
		V153.5z M4,121.4c-0.1,0-0.1-0.1-0.2-0.1L3.6,122c0.1,0,0.1,0,0.2,0.1C3.8,121.8,3.9,121.6,4,121.4 M2.9,137.4c0.1,0,0.1,0,0.2,0
		c0.1-0.1,0.1-0.3,0.2-0.4c0-0.1,0-0.2-0.1-0.3c-0.1,0-0.1,0-0.2,0L2.9,137.4z M2.3,155.8c0-0.6,0.1-1.2,0.1-1.8
		C2.1,154.6,2.1,154.6,2.3,155.8 M2.7,129.3c0,0,0.1,0,0.1,0v-1.9c0,0-0.1,0-0.1,0V129.3z M3,138.1c0,0-0.1,0-0.1,0v1.8
		c0,0,0.1,0,0.1,0V138.1z M2.3,153.6c0.4-0.4,0.3-0.8,0.2-1.3C1.9,152.8,2.4,153.3,2.3,153.6 M4.1,144.9c-0.1,0.5-0.5,0.9-0.2,1.4
		C4.4,145.9,4.3,145.4,4.1,144.9 M4.5,148.4c0-0.3,0-0.6,0-0.9c0-0.3,0-0.7-0.1-1c-0.1,0-0.2,0-0.3,0C4.1,147.2,4.4,147.8,4.5,148.4
		 M5.9,158.4l-0.1,0.1v2.3c0,0,0.1,0,0.1,0V158.4z M3.3,154.6c0.5-0.6,0.4-1.2,0.3-1.8C3.5,153.3,3.4,154,3.3,154.6 M2.2,137.4
		c0.2-0.8,0.4-1.5,0.5-2.2c0-0.1-0.1-0.2-0.3-0.3C2.2,135.8,2.1,136.5,2.2,137.4 M4.1,138.5c0.4-0.7,0.5-1.8,0.2-3.3
		C4.4,136.3,4.4,137.4,4.1,138.5 M1.9,149.5c-0.5,0.6-0.6,2.1-0.3,3.5C1.7,151.6,1.8,150.6,1.9,149.5 M2.9,155.8
		c-0.3,0.3-0.4,0.4-0.4,0.5c-0.1,1-0.1,2-0.1,3c0,0.1,0,0.3,0.1,0.4c0.1,0,0.1,0,0.2,0C2.6,158.4,2.8,157.3,2.9,155.8 M15.8,35.8
		c0.4-1.2,0.3-2.2-0.1-2.8C15.6,34.1,15.6,34.9,15.8,35.8 M4.6,142.6c0.1-0.8,0.4-1.6,0.2-2.3c-0.2-0.7,0.1-1.4,0-2.1
		c-0.6,1.2,0,2.6-0.5,3.8C4.4,142.3,4.5,142.4,4.6,142.6 M24.4,33c0.1,0,0.2,0,0.2,0c0.2-0.5,0.1-1,0.1-1.4c0-0.5,0.2-1-0.3-1.5V33z
		 M49.5,74.4c0.1,0,0.2,0,0.3,0c0-0.9,0-1.8,0-2.7c0-0.1-0.1-0.2-0.3-0.5V74.4z M35.9,62.3c0.3-1.4,0.3-2.7,0-3.2
		C35.7,60,35.7,61.1,35.9,62.3 M13.2,76c0.3-1.2,0.3-2.4-0.1-3C13,74.1,13,75,13.2,76 M32.7,48c-0.4,1.2-0.3,2.4,0.1,3.1
		C32.8,50,32.9,49,32.7,48 M30.1,47.8c-0.4,0.8-0.4,2.2,0,3.1C30.3,49.8,30.2,48.8,30.1,47.8 M21.3,50.2c0.2-1,0.3-1.9-0.1-2.9
		C21.1,48.3,21,49.3,21.3,50.2 M33.3,65.6c0.3-1.4,0.3-2.5-0.1-3C33.1,63.7,33.1,64.6,33.3,65.6 M51,49.1c0.4-1.2,0.3-2.4-0.1-3
		C50.8,47.1,50.8,48.1,51,49.1 M30.4,51.6v2.7c0.1,0,0.2,0,0.4,0v-2.7H30.4z M29.9,61.6c0.1,0,0.2,0,0.3,0c0-0.9,0-1.8,0-2.8
		c0-0.1-0.2-0.1-0.4-0.3C29.9,59.6,29.7,60.6,29.9,61.6 M25.3,46.9c0.3-1.2,0.3-2.4-0.2-3.1C25.1,45,25,46,25.3,46.9 M20.5,40.3
		c-0.1,1-0.3,1.9-0.1,2.9c0,0,0.1,0,0.3,0C20.8,42.2,20.8,41.2,20.5,40.3 M26.1,54.7c-0.3,1-0.3,2.4,0,3.1
		C26.3,57.1,26.3,56.2,26.1,54.7 M24.6,39.9c0.4-1.4,0.3-2.5-0.1-3C24.4,37.9,24.3,38.9,24.6,39.9 M26,62.2
		c-0.3,1.2-0.3,2.4,0.2,3.1C26.2,64.1,26.3,63.2,26,62.2 M26.6,54c0.1,0,0.2,0,0.3,0c0-1,0.1-1.9-0.1-3c-0.2,0.1-0.3,0.2-0.4,0.2
		C26.5,52.2,26.5,53.1,26.6,54 M49.8,59.8c0-1.1,0.1-2.1,0.1-3.1c-0.1,0-0.2-0.1-0.3-0.1C49.3,58,49.3,59.1,49.8,59.8 M30.6,58
		c0.1,0,0.2,0,0.3,0c0.1-1,0.1-2,0-3c-0.2,0.1-0.3,0.2-0.4,0.2C30.5,56.2,30.5,57.1,30.6,58 M35,37.5c0,1.1-0.1,2.1,0.3,3
		c0.1-0.9,0.1-1.8,0.1-2.8C35.4,37.7,35.3,37.7,35,37.5 M24.6,84.2c0.3-0.5,0.2-1,0.2-1.6c0-0.5,0.2-1.1-0.3-1.8
		C24.3,82.2,24.3,83.2,24.6,84.2 M35.9,66.5c-0.4,1.4-0.3,2.7,0.1,3.2C36.1,68.6,36.2,67.5,35.9,66.5 M25.8,40.6c0,0.5,0,0.8,0,1.2
		c0,0.4-0.1,0.8-0.1,1.2c0,0.2,0.2,0.3,0.3,0.6c0.2-1.2,0.2-2.2,0-3.2C25.9,40.5,25.8,40.6,25.8,40.6 M38.1,37.3v-2.7
		c-0.2,0-0.3,0.1-0.5,0.1v2.7C37.9,37.3,38,37.3,38.1,37.3 M18.3,32.6c0.2,0,0.3,0,0.5,0c-0.1-0.9-0.2-1.8,0-2.8
		c-0.1-0.1-0.3-0.1-0.5-0.2V32.6z M36.5,77.3c0.2-0.1,0.3-0.2,0.3-0.3c0-1,0.2-2-0.2-3C36.3,75.1,36.4,76.1,36.5,77.3 M21.1,80.3
		c0.2-0.1,0.3-0.2,0.3-0.2c0-1,0.2-2-0.2-3C21,78.1,21.1,79.2,21.1,80.3 M13.9,91.8c0.4-1.3,0.3-2.6-0.1-3.2
		C13.7,89.7,13.7,90.8,13.9,91.8 M21.2,84.9c-0.1,1-0.3,2.1-0.1,3.1c0,0,0.1,0,0.3,0.1C21.5,87,21.6,85.9,21.2,84.9 M21.3,92.7
		c-0.4,1.4-0.3,2.9,0.1,3.4C21.5,95.3,21.5,93.8,21.3,92.7 M51.2,102c0.4-0.9,0.4-2.5,0-3.1C51.1,99.9,51,100.9,51.2,102 M13.3,83.8
		c0.2-0.5,0.2-1.1,0.2-1.6c0-0.5,0.2-1.1-0.3-1.8C13,81.7,13,82.7,13.3,83.8 M31.7,58.2c0.3-0.2,0.4-0.2,0.5-0.3v-2.8
		c-0.1,0-0.3,0-0.5,0V58.2z M13.1,64.7c0.1,0,0.2,0,0.3,0c0-1,0.1-2,0.1-3.1c-0.1,0-0.2-0.1-0.5-0.1C13.1,62.6,12.9,63.6,13.1,64.7
		 M13.8,99.8c0.1,0,0.2,0,0.3,0c0-1.1,0.1-2.1,0.1-3.2c-0.1,0-0.3,0-0.5,0.1C13.8,97.8,13.6,98.8,13.8,99.8 M43.6,85.5
		c0.1,0,0.2,0,0.3,0c0.1-1,0.1-2.1,0.2-3.2c-0.1,0-0.3,0-0.5,0C43.5,83.4,43.4,84.4,43.6,85.5 M19.5,104.9c-0.2,0.1-0.3,0.2-0.3,0.2
		c-0.2,0.9,0,2.7,0.3,3.2C19.6,107.2,19.7,106.1,19.5,104.9 M53,140.1c-0.3,1.2-0.3,3,0,3.6C53.2,143,53.2,141.6,53,140.1
		 M53.2,106.2c0.3-0.5,0.2-1.1,0.2-1.7c0-1.3,0-1.3-0.2-1.7C52.9,103.6,52.9,105.2,53.2,106.2 M53.6,127.6c-0.2,0.6-0.1,1.1-0.2,1.7
		c0,1.3,0,1.3,0.3,1.7C53.9,130.1,53.9,128.5,53.6,127.6 M47.9,134.8c0.4-1.3,0.3-2.9-0.1-3.5C47.7,132.5,47.7,133.7,47.9,134.8
		 M19.4,113.2c-0.3,0.6-0.2,1.1-0.2,1.7c0,1.3,0,1.3,0.4,1.9C19.6,115.5,19.7,114.3,19.4,113.2 M14.7,104.3c0.3-1.4,0.2-2.9,0-3.6
		C14.4,101.5,14.4,103.1,14.7,104.3 M19.4,138.9c-0.3,1.1-0.2,2.2-0.2,3.3c0,0.1,0.1,0.1,0.4,0.4C19.5,141.2,19.7,140.1,19.4,138.9
		 M46.8,114.6c-0.4,1.3-0.3,2.9,0.1,3.5C47,116.9,47,115.8,46.8,114.6 M24.3,96.8c0.1,1.3-0.1,2.4,0.1,3.5c0.1,0,0.2,0,0.2,0
		c0-1.1,0.1-2.2,0.1-3.3C24.8,97,24.7,97,24.3,96.8 M20.1,112.4c0.2-1.1,0.2-2.3,0.1-3.5c-0.2,0.2-0.3,0.2-0.5,0.3
		C20.1,110.2,19.7,111.3,20.1,112.4 M49.3,35c0-1,0.1-1.9-0.1-2.8c-0.2,0.1-0.4,0.1-0.5,0.1v2.6C49,34.9,49.1,34.9,49.3,35
		 M19.2,147.7c0,1.1,0,2.2,0,3.2c0,0.1,0.1,0.3,0.1,0.4c0,0,0.1,0,0.1,0C19.7,150.5,19.7,148.5,19.2,147.7 M42,148.4
		c-0.2,0.4-0.1,0.8-0.2,1.2c0,0.4,0,0.9,0,1.3c0,0.4-0.1,0.8,0.2,1.2C42.3,151.1,42.3,149.3,42,148.4 M15.9,138.1c0.1,0,0.2,0,0.3,0
		c0.1-0.6,0.1-1.2,0.1-1.8c0-0.6,0.2-1.3-0.3-2.1c0,0.4-0.1,0.6-0.1,0.8C15.9,136,15.9,137,15.9,138.1 M16.1,143
		c-0.3,1-0.3,3.1-0.1,3.8C16.3,146.1,16.4,144.6,16.1,143 M18.4,20.6c-0.3,1.7-0.2,3.4,0.1,3.9C18.7,23.4,18.7,21.6,18.4,20.6
		 M16,125.7c-0.2,0.6-0.2,1.2-0.2,1.8c0,1.4,0,1.4,0.3,1.8C16.3,128.6,16.3,126.6,16,125.7 M14.9,84.8c0.1,0.6,0.2,1.1,0.3,1.5
		c0.1,0.5-0.2,1,0.3,1.6v-3.4C15.3,84.7,15.2,84.7,14.9,84.8 M9.5,142.6c0.3-1.7,0.2-3.4-0.1-3.9C9.2,139.8,9.2,141.5,9.5,142.6
		 M19.2,130.2c0,0.7,0,1.2,0,1.8c0,0.6-0.1,1.2,0.2,1.8c0.4-1.2,0.1-2.4,0.3-3.6C19.6,130.2,19.4,130.2,19.2,130.2 M19,36.7
		c-0.1,2.4-0.1,2.4,0.3,2.9c0.7-1-0.2-2,0.3-2.9H19z M41.9,143.8c-0.2,2.2-0.2,3.2,0.3,3.9c0-1.3,0.1-2.4,0.1-3.7
		C42.3,144,42.2,143.9,41.9,143.8 M30.6,151.6c0.1-0.4,0.1-0.8,0.1-1.2c0-0.4,0-0.9,0-1.3c0-0.4,0.1-0.8-0.4-1.4
		c0,1.4-0.1,2.5-0.1,3.7c0,0,0.1,0.1,0.2,0.2C30.4,151.6,30.5,151.6,30.6,151.6 M52.6,131.7l-0.2,0c-0.1,1.1-0.2,2.2-0.3,3.3
		c0,0.1,0.1,0.1,0.1,0.2c0.1,0,0.1,0.1,0.2,0.1c0.1,0,0.2-0.1,0.2-0.1C52.6,133.9,52.6,132.8,52.6,131.7 M37,41.4v2.7
		c0.2-0.1,0.4-0.1,0.5-0.1v-2.6H37z M24.4,142.6c0.1,0,0.2,0,0.3,0c0-1.2,0.1-2.4,0.1-3.7c-0.1,0-0.3,0-0.4,0V142.6z M24.4,51.1
		c0,1.1-0.1,2,0.1,3c0.2-0.1,0.3-0.1,0.5-0.2v-2.8C24.8,51.1,24.7,51.1,24.4,51.1 M40.6,157.1c-0.3,1-0.2,2.7,0.1,3.5
		c0.3-0.4,0.1-0.8,0.2-1.1c0-0.4,0-0.9,0-1.3c0-0.4,0.1-0.7,0.2-1.1H40.6z M21.6,112.5v-3.3c-0.2,0-0.3,0-0.5,0.1v3.2
		C21.3,112.4,21.4,112.4,21.6,112.5 M31.7,81.5c0,1,0,1.9,0,2.8c0,0.1,0.1,0.3,0.2,0.6c0.5-1.2,0.1-2.3,0.4-3.3
		C32.1,81.6,32,81.6,31.7,81.5 M5.1,24c-0.3-1.2,0-2.4-0.3-3.8c-0.3,0.9-0.4,2.7-0.1,3.9C4.8,24,4.9,24,5.1,24 M47.4,41.6v-2.8
		c-0.2,0-0.4,0.1-0.5,0.1v2.7C47,41.5,47.2,41.6,47.4,41.6 M24.6,116.9c0.4-1.1,0.1-2.3,0.5-3.4c-0.3,0-0.5,0.1-0.7,0.1
		C24.5,114.6,24.2,115.8,24.6,116.9 M47.1,90.5c-0.1-0.1-0.3-0.1-0.5-0.2v3.5c0.2-0.1,0.3-0.2,0.5-0.2V90.5z M24.5,160.3
		c0.1,0,0.2,0,0.2,0c0-0.7,0-1.3,0-2c0-0.6,0.2-1.3-0.3-2.1C24.3,157.5,24.3,159.5,24.5,160.3 M19.1,88.8v3c0,0,0.1,0.1,0.2,0.2
		c0.1,0,0.1,0,0.2,0c0.2-1.2,0.2-2.7-0.1-3.4C19.2,88.7,19.2,88.8,19.1,88.8 M49.7,82.2c0-1,0.1-1.9,0.1-2.8c0-0.1-0.1-0.3-0.2-0.4
		c-0.1,0-0.2,0-0.2,0c0.2,1.1-0.5,2.1-0.1,3.2C49.4,82.1,49.5,82.2,49.7,82.2 M7.7,28.8c0.1-1.3,0.2-2.5,0-3.8c0,0-0.1,0-0.2,0
		C7.3,26.3,7.3,28,7.7,28.8 M32.1,108.8c0-1.2,0.1-2.3,0.1-3.5c-0.1,0-0.3,0.1-0.3,0.1c-0.1,0.9-0.3,1.8-0.3,2.6
		C31.4,108.4,31.4,108.8,32.1,108.8 M32.9,139.2c0,1.3-0.1,2.6,0.1,3.8c0.5-1.2,0-2.6,0.5-3.8C33.3,139.2,33.2,139.2,32.9,139.2
		 M48.8,130.8c0-1.2,0-2.2,0-3.3c0-0.1-0.2-0.2-0.3-0.4c-0.1,0.1-0.2,0.3-0.3,0.4c0.5,1,0.1,2.1,0.1,3.2
		C48.5,130.7,48.6,130.8,48.8,130.8 M16,104.1c0.4-1.3,0.3-2.9,0-3.4C15.3,101.8,15.9,103,16,104.1 M46.9,32v2.8
		c0.2,0,0.4-0.1,0.5-0.1V32C47.2,32,47.1,32,46.9,32 M30.3,134.6v1.4c0,0.5,0,0.9,0,1.4c0,0.4-0.1,0.8,0.3,1.4
		c0.3-1.4,0-2.7,0.3-3.9C30.7,134.8,30.6,134.7,30.3,134.6 M9.8,15.7v-4c-0.1,0-0.3-0.1-0.4-0.1C9.1,13.7,9.2,15,9.8,15.7
		 M21.6,120.9v-3.5c-0.2,0-0.3,0-0.5,0.1v3.4H21.6z M24.4,147.7c0,1.1,0,2.2,0,3.2c0,0.3,0,0.5,0.5,0.5v-3.8
		C24.7,147.7,24.6,147.7,24.4,147.7 M32.1,117.1c0-1.1,0-2.2,0-3.2c0-0.1-0.1-0.1-0.3-0.3c0,0.7,0,1.3-0.1,1.8
		c-0.1,0.6-0.3,1.1-0.1,1.7H32.1z M41.3,48.1c0.3-0.9,0.3-1.9,0.2-2.9c-0.2,0-0.4,0-0.5,0.1C40.8,47,40.8,47.4,41.3,48.1 M19.5,65.5
		c-0.1,0-0.2,0-0.3,0c-0.2,1-0.5,2-0.2,3.2c0.2,0,0.4-0.1,0.5-0.1V65.5z M48.3,135.7c0,1.2,0,2.3,0,3.5c0,0.1,0.1,0.1,0.3,0.2
		c0.1-1.1,0.2-2.1,0.3-3.2C48.9,135.9,48.8,135.6,48.3,135.7 M40.9,31.5c0,1-0.1,1.8,0.1,2.7c0.2,0,0.3-0.1,0.5-0.1v-2.7H40.9z
		 M41,38.3c-0.1,0.9-0.1,1.8,0,2.8c0.2,0,0.4-0.1,0.5-0.1c0-0.9,0.1-1.8-0.1-2.7H41z M21.5,36.1c-0.1-1,0.1-1.9-0.2-2.8
		c-0.2,0.1-0.3,0.1-0.5,0.1v2.6H21.5z M43.5,35c0,1-0.1,1.8,0.1,2.8c0.2,0,0.3,0,0.5,0V35C43.9,35,43.8,35,43.5,35 M37.8,85.8
		c-0.3,1.2-0.2,2.7,0.1,3.2c0.3-1,0.5-2.1,0.2-3.2H37.8z M7.3,36.2c-0.5,0-0.6,0.3-0.6,0.6c0,0.7,0,1.3,0,2c0,0.1,0.3,0.3,0.5,0.5
		V36.2z M49.5,49.4v3c0.2,0,0.4,0,0.5-0.1v-2.9C49.8,49.5,49.7,49.5,49.5,49.4 M37.7,48.5c-0.2,2.1-0.1,2.4,0.3,2.9
		c0.3-0.7,0.3-1.8,0.1-2.9H37.7z M42,160.8c0.1,0,0.1-0.1,0.2-0.1v-3.6h-0.4C41.8,158,41.9,160.6,42,160.8 M27.2,44
		c-0.1,0.3-0.3,0.5-0.3,0.6c0,0.8-0.1,1.6,0.1,2.5c0.2-0.1,0.3-0.1,0.5-0.1c0-0.9,0-1.7,0-2.5C27.6,44.3,27.4,44.2,27.2,44
		 M42.7,78.2c-0.3,0.1-0.4,0.2-0.4,0.2c-0.1,1-0.1,2-0.1,3h0.6V78.2z M42.6,131.2v3.6H43c0-0.7,0.5-3,0.1-3.7
		C42.9,131.2,42.8,131.2,42.6,131.2 M26.9,112.6c0-1.1,0-2.1,0-3.1c0-0.1-0.1-0.2-0.1-0.3c-0.5,0.1-0.5,0.4-0.5,0.8
		c0,0.8,0.3,1.6,0,2.5c0,0,0.1,0.1,0.1,0.2H26.9z M15.7,152h-0.5v3.6h0.5V152z M15.7,155.6 M30.8,134.1c-0.3-1.2,0.1-2.5,0-3.7
		c-0.2,0-0.4,0.1-0.5,0.1v3.6C30.5,134.1,30.6,134.1,30.8,134.1 M30.6,156.7c-0.1,0-0.2,0-0.3,0c-0.1,1.2-0.2,2.4-0.3,3.7
		c0.3,0,0.4,0,0.6,0V156.7z M31.3,58.7c-0.1,0.1-0.2,0.2-0.2,0.3c0,0.9,0,1.8,0,2.7c0,0.1,0.3,0.2,0.4,0.3
		C31.8,60.3,31.7,59.3,31.3,58.7 M26.2,69.7c-0.3,0-0.4,0.1-0.7,0.1c0.4,0.7,0.2,1.2,0.1,1.9c0,0.2,0,0.5,0,0.7
		c0,0.2,0.2,0.3,0.3,0.5c0.1-0.2,0.3-0.3,0.3-0.4C26.2,71.7,26.2,70.8,26.2,69.7 M8.2,60.7v-3c-0.2,0-0.4,0.1-0.5,0.1v2.9
		C7.9,60.7,8,60.7,8.2,60.7 M54,139.5h0.5v-3.4H54V139.5z M37.7,70.5c-0.2,1.2-0.2,2.2,0.1,3c0.1,0,0.3-0.1,0.4-0.1v-2.9H37.7z
		 M40.7,126.1c0.1,0,0.2,0,0.3,0c0.1-1.1,0.2-2.1,0.2-3.2c0-0.3-0.2-0.5-0.6-0.4V126.1z M27.1,77.2c-0.1,1.2-0.1,2.2-0.1,3.3h0.6
		c0-0.6-0.1-1.1-0.1-1.6C27.5,78.3,27.9,77.7,27.1,77.2 M43.5,56.1c0,1-0.1,2,0.1,3c0.2,0,0.3,0,0.5,0c0-1,0.1-2,0-2.9H43.5z
		 M41.5,69.8v-2.9c-0.2,0-0.4,0-0.5,0v2.9C41.2,69.9,41.3,69.9,41.5,69.8 M44.2,51.9c-0.1-1,0.1-2-0.2-3C43.8,49,43.7,49,43.6,49
		v2.8H44.2z M38.2,58.5c0.1-1,0.1-2,0-3c-0.2,0-0.3,0.1-0.6,0.1c0,1,0,2,0,2.9H38.2z M40.9,52.3c0,1,0,1.9,0,2.8
		c0,0.1,0.1,0.1,0.1,0.2c0.1,0,0.3,0,0.4-0.1c0-0.9,0-1.8,0-2.7c0-0.1-0.1-0.1-0.1-0.2H40.9z M37.9,77.5c0.1-0.3,0.3-0.4,0.3-0.5
		c0-0.9,0.1-1.8-0.1-2.8c-0.2,0-0.3,0.1-0.5,0.1C37.5,76.2,37.5,76.7,37.9,77.5 M47,126.3c0-1.1,0-2,0-3c0-0.1-0.1-0.3-0.1-0.5
		c-0.2,0.1-0.3,0.1-0.5,0.2c0.1,0.6,0.3,1.1,0.2,1.6c-0.1,0.6-0.3,1.1-0.1,1.7H47z M21.6,152.1c-0.1,0-0.3-0.1-0.5-0.2
		c-0.2,2-0.1,3.7,0.1,3.9c0.1,0,0.2-0.1,0.3-0.1V152.1z M37.5,101.7v3.3c0.2,0,0.3,0,0.5,0v-3.4C37.8,101.7,37.7,101.7,37.5,101.7
		 M41.2,59.3c-0.4,0.8-0.4,2.9-0.2,3.2c0.1,0,0.2,0,0.2,0c0.1,0,0.1-0.1,0.2-0.1C41.7,60.6,41.6,60,41.2,59.3 M19.5,80.8
		C19,81.2,19,81.2,19,81.4c0,0.9,0,1.8,0,2.7c0.3,0,0.4-0.1,0.6-0.1C19.5,82.9,19.7,81.9,19.5,80.8 M43.4,73.9
		c0-1.1,0.1-2.2-0.1-3.2c-0.4,0-0.6,0.2-0.6,0.5c0,0.9,0,1.8,0,2.7H43.4z M15.5,76.9c-0.4-0.1-0.6,0.2-0.6,0.5c0,0.9,0,1.8,0,2.7
		h0.6V76.9z M24.9,133.9c0-0.3,0-0.5,0-0.8c0-0.8,0.1-1.5,0.1-2.3c0-0.4-0.1-0.6-0.6-0.6v3.6C24.6,133.9,24.7,133.9,24.9,133.9
		 M21.6,134.5c-0.1,0-0.3,0-0.5,0c0,1.2,0,2.3,0,3.5c0,0.1,0.1,0.1,0.1,0.2c0.1,0,0.3,0,0.4-0.1V134.5z M21.1,143.2v3.7
		c0.2,0,0.3,0,0.6,0c-0.1-0.6-0.2-1.2-0.2-1.8c0-0.6,0.1-1.2,0.2-1.9H21.1z M34.7,25.7c0.3-1.2-0.1-2.4,0.2-3.7c0,0,0-0.1,0-0.1
		c0,0-0.1,0-0.1-0.1c-0.1,0-0.3,0-0.4,0C34.2,23.8,34.2,25,34.7,25.7 M21.6,125.2v-3.4h-0.5v3.4C21.3,125.1,21.4,125.1,21.6,125.2
		 M37.6,78c0,1.1-0.1,2.2,0.1,3.2c0.2,0,0.3-0.1,0.5-0.1c0-1.1,0.1-2.1-0.1-3.1H37.6z M13.8,109c-0.2,2.1-0.1,2.9,0.2,3.4
		c0.4-0.5,0.4-0.9,0.3-3.2c0-0.1-0.1-0.1-0.1-0.2H13.8z M21.4,16.6c-0.1,0-0.3,0-0.5,0v3.7c0.2,0,0.4,0,0.5-0.1V16.6z M41.3,89.9
		c-0.1,0-0.2-0.1-0.2-0.1c-0.1,0.2-0.3,0.4-0.3,0.6c0,0.9,0,1.9,0,2.9c0.3,0,0.4,0,0.6-0.1V89.9z M40.7,106.1c0,1.1-0.1,2.2,0.1,3.3
		c0.2,0,0.4-0.1,0.5-0.1c0-1.2,0.1-2.3-0.1-3.5C41,105.9,40.9,106,40.7,106.1 M43.7,97.5c0.3-0.9,0.3-3.2,0-3.5c-0.1,0-0.3,0-0.4,0
		c0,1.1,0,2.1,0,3.2C43.4,97.4,43.6,97.4,43.7,97.5 M30.4,109c0.2-0.2,0.5-0.3,0.5-0.5c0.1-1,0.1-2.1,0-3.1c-0.2,0-0.4,0.1-0.6,0.1
		C30.3,106.6,30.2,107.7,30.4,109 M43.9,102.1c-0.3,0-0.4,0.1-0.6,0.1c0,1,0,2.1,0,3.1c0,0.1,0.1,0.2,0.2,0.3c0.1,0,0.1,0,0.4,0.1
		C43.9,104.4,43.9,103.3,43.9,102.1 M41.3,97.8c-0.2,0-0.4,0.1-0.6,0.1c0,1,0,1.9,0,2.7c0,0.3,0.2,0.6,0.6,0.6V97.8z M17,155.6
		c0-1.3,0.1-2.5-0.1-3.7c-0.2,0.1-0.4,0.2-0.5,0.2v3.5C16.6,155.6,16.7,155.6,17,155.6 M41.3,117.6c0-1.2,0.1-2.3-0.1-3.5
		c-0.2,0-0.4,0-0.5,0.1c0,1.2-0.1,2.3,0.1,3.4H41.3z M37.4,109.9c0,1.2-0.1,2.3,0.1,3.5c0.2,0,0.3-0.1,0.6-0.1
		c-0.1-1.2,0.1-2.3-0.1-3.4H37.4z M21.1,126v3.5c0.2,0,0.4,0,0.5-0.1V126H21.1z M32.7,121.3c0.2-0.9,0.2-3.2,0-3.4
		c-0.1,0-0.3,0-0.4,0.1v3.4H32.7z M46.4,130.6c0.3,0,0.4-0.1,0.5-0.1v-3.4c-0.2,0-0.4,0.1-0.5,0.1V130.6z M32.7,113.1v-3.5
		c-0.2,0-0.4,0-0.6,0.1c0,1.2-0.1,2.3,0.1,3.4C32.4,113.1,32.5,113.1,32.7,113.1 M30.3,113.7c0,1.2-0.1,2.3,0.1,3.5
		c0.2,0,0.4-0.1,0.5-0.1v-3.4H30.3z M30.8,129.7c0.1-0.7,0.1-3,0.1-3.6c-0.3,0-0.4,0-0.6,0.1v3.7C30.6,129.8,30.7,129.8,30.8,129.7
		 M25.6,142.6c0.2,0,0.4-0.1,0.6-0.1c-0.1-1.2,0.1-2.4-0.2-3.7c-0.2,0.2-0.4,0.3-0.4,0.4C25.6,140.3,25.6,141.4,25.6,142.6
		 M43.3,110.1c0,1.3-0.1,2.5,0.1,3.7c0.2-0.1,0.4-0.1,0.5-0.2c0-1.2,0.1-2.3-0.1-3.5C43.6,110.1,43.5,110.1,43.3,110.1 M41.5,13.7
		c-0.3,0-0.4,0.1-0.5,0.1v3.7c0.2,0,0.4-0.1,0.5-0.1V13.7z M18,12.1c0,1.3-0.1,2.5,0.1,3.7c0.2,0,0.4-0.1,0.5-0.1v-3.6H18z
		 M14.5,156.4v3.7c0.2,0,0.3,0,0.6,0c0-1.2,0-2.3,0-3.5c0-0.1-0.1-0.1-0.1-0.2H14.5z M35.5,126.4v3.7c0.2,0,0.4-0.1,0.5-0.1v-3.6
		H35.5z M26.8,138.3v-3.7c-0.2,0-0.4,0.1-0.5,0.1v3.6H26.8z M38.2,21.5v-3.7c-0.2,0-0.4,0.1-0.5,0.1c0,1.2,0,2.3,0,3.4
		c0,0.1,0.1,0.1,0.1,0.2H38.2z M35.9,148.1c0.1,1.3-0.1,2.5,0.1,3.7c0.2,0,0.4-0.1,0.5-0.1c0-1.2,0.1-2.4,0-3.6H35.9z M36.6,156.1
		c-0.1-1.3,0.1-2.5-0.1-3.7c-0.2,0-0.3,0.1-0.5,0.1c0,1.2-0.1,2.4,0,3.6H36.6z M38.3,156.3c0.2-1,0.2-3,0-4.1
		c-0.2,0.3-0.4,0.5-0.4,0.7c0,1,0,2.1,0,3.2C38,156.2,38.2,156.3,38.3,156.3 M41.5,26.2v-3.7c-0.2-0.1-0.3-0.1-0.4-0.2
		c-0.2,1.1-0.2,3.1,0,3.9H41.5z M40.8,152.1c0.1,0,0.2,0,0.3-0.1c0-1.3,0-2.6,0-3.9c-0.3,0-0.4,0.1-0.6,0.1c0,1.1,0,2.2,0,3.3
		C40.5,151.7,40.7,151.9,40.8,152.1 M15.3,20c0-1.2,0-2.4,0-3.6c0-0.1-0.1-0.2-0.2-0.4c-0.2,0.2-0.4,0.4-0.4,0.5
		c0,1.2-0.1,2.3,0,3.5H15.3z M38.2,30.4c0-1.4,0.1-2.6,0-3.9c-0.2,0-0.4,0.1-0.5,0.1c0,1.2,0,2.5,0,3.7c0,0.1,0.1,0.1,0.1,0.2H38.2z
		 M21.2,29.5c0.3-0.8,0.4-3.1,0.1-4.2c-0.1,0-0.3,0-0.4,0.1C20.7,27.8,20.8,28.8,21.2,29.5 M43.6,31.3c0.2-0.2,0.5-0.4,0.5-0.5
		c0-1.2,0-2.5,0-3.7h-0.6c0,1.2,0,2.4,0,3.6C43.5,30.8,43.6,31,43.6,31.3 M32.5,40.3h1v-2.6h-1V40.3z M35.8,73.1
		c-0.5-0.9-0.3-2.8-0.2-2.9h-1.2v2.9H35.8z M13.6,35.8h1.2v-2.7h-1.2V35.8z M6.2,43.3v2.9h1.1c0-1,0-1.9,0-2.9H6.2z M46.8,45.5
		c0.1,1.2-0.1,2.2,0.1,3.1h1v-2.7C47.6,45.8,47.3,45.7,46.8,45.5 M47.6,52.8v2.9c0.4,0.1,0.7,0.2,1,0.3V53
		C48.3,53,47.9,52.9,47.6,52.8 M32.2,58.9c0.5,1,0,2,0.3,2.9h1c-0.1-1,0.1-2-0.1-2.9H32.2z M50.6,42.1v-3h-1.1v2.7
		C49.8,41.9,50.1,42,50.6,42.1 M35,54.8c0.4,0,0.7,0,1.1-0.1v-2.9H35V54.8z M22.1,58.2h-1v2.9h1V58.2z M22.1,61.1 M30.9,65.4v-3
		c-0.4,0-0.7,0.1-1,0.1v2.9H30.9z M13.4,53.6c0-1,0.1-2-0.1-2.9h-1c0,1-0.1,2,0.1,2.9H13.4z M16,40h-1v2.9h1V40z M15,46.5
		c0.4,0,0.8,0,1.1-0.1v-2.9H15V46.5z M47.6,60.1V63c0.3,0,0.7,0,1,0.1v-3H47.6z M29.9,69.1c0.3,0.2,0.7,0.2,1,0v-2.8
		c-0.3-0.1-0.7-0.2-1-0.3V69.1z M29.9,73c0.4-0.1,0.7-0.1,1-0.1V70c-0.3-0.1-0.7-0.2-1-0.3V73z M23.7,72.7c0.4,0,0.7-0.1,1-0.1v-2.8
		c-0.3-0.1-0.7-0.2-1-0.4V72.7z M12.4,60.9h1.1V58c-0.3-0.1-0.6-0.1-1-0.2C12.2,58.8,12.4,59.8,12.4,60.9 M29.9,76.7h1v-2.9
		c-0.4-0.1-0.7-0.2-1-0.3V76.7z M43.6,77.6c0.3,0.1,0.7,0.2,1.1,0.3v-3.2c-0.3,0-0.7,0-1.1,0V77.6z M50.5,67v-2.9
		c-0.3-0.1-0.6-0.2-1.1-0.3c0,1.2-0.1,2.2,0.1,3.3H50.5z M33.5,76.9c0-1.1,0-2.1,0-3.1h-1v3.1H33.5z M32.4,77.4v3.3
		c0.2,0,0.4,0,0.6,0.1c0.1,0,0.3,0.1,0.5,0.1v-3C33.2,77.7,32.9,77.6,32.4,77.4 M37,62.9c0.1,1,0.1,2,0.2,2.9h1.1c0-1,0.1-2-0.1-2.9
		H37z M33.5,73.2c0-1.1,0.1-2.2-0.1-3.2c-0.4,0-0.7,0-1,0.1c0,1.1-0.1,2.1,0.1,3.2H33.5z M35.3,65.8c0.1-0.1,0.2-0.2,0.2-0.2
		c-0.1-0.8-0.1-1.7-0.2-2.4c0.1-0.2,0.2-0.3,0.3-0.5h-1.3v2.8C34.7,65.7,35,65.8,35.3,65.8 M8.6,32.9c-0.5,0-0.8,0.1-1.2,0.1v2.6
		h1.2V32.9z M25.5,105.2h-1v3.1c0.4,0.1,0.7,0.1,1,0.2V105.2z M35.6,77.8h-1.3c0,1.1-0.1,2.1,0.1,3.1h1.2 M42.9,89.4h1v-3.1
		c-0.3-0.1-0.6-0.2-1-0.3V89.4z M22.1,65.8h-1c-0.1,1-0.2,1.9-0.3,2.9c0.5,0.1,0.9,0.2,1.3,0.3V65.8z M48.5,82.8
		c0.1,1.1-0.1,2.1,0.1,3.1h1.2c-0.2-1-0.2-2,0.1-2.9C49.4,82.6,49,82.7,48.5,82.8 M21.6,104.3v-3.3h-1.2v3.1
		C20.8,104.1,21.2,104.2,21.6,104.3 M12.1,36.5c0.1,1-0.1,1.8,0.1,2.7c0.5,0.1,0.8,0.1,1.2,0.2v-2.8H12.1z M18.5,96.7v3.4
		c0.4,0,0.7,0,1.1-0.1c-0.1-1.2,0.1-2.3-0.1-3.4H18.5z M48.3,156.5h1V153c-0.4,0-0.7,0.1-1,0.1V156.5z M16.3,117.2h-1v3.4
		c0.3,0.1,0.7,0.1,1,0.2V117.2z M33.5,21.9c-0.3-0.1-0.7-0.2-1.2-0.3c0.3,0.3,0.4,2.7,0.1,3.7c0,0,0.1,0.1,0.1,0.2h0.9V21.9z
		 M35.5,77v-3h-1.2v2.8C34.7,77.1,35.1,77.4,35.5,77 M9.4,46.2v-2.9H8.2C8,44.8,8,45.5,8.3,46.2H9.4z M28.1,125.4
		c-0.1-1.2-0.1-2.3,0.1-3.4H27c0.1,1.2-0.1,2.3,0.1,3.4H28.1z M7.5,57.1c0.1-1.1,0.1-2,0-2.9c-0.4-0.4-0.8-0.3-1.2-0.2v2.9
		C6.6,56.9,7,57,7.5,57.1 M48.3,144.4v3.5c0.4,0,0.7,0.1,1,0.1c0-1.2,0-2.3,0-3.4c0-0.1-0.1-0.1-0.1-0.2H48.3z M42.6,121.7
		c0.4,0.1,0.7,0.2,1,0.3c0-1.2,0.1-2.3,0.1-3.5c-0.3-0.3-0.7-0.2-1.2-0.1V121.7z M43.5,152.9c-0.2-0.1-0.6-0.2-0.9-0.3
		c-0.1,0.2-0.3,0.3-0.3,0.4c0,1.1-0.1,2.2,0,3.3c0.4,0,0.7,0,1,0C43.5,155.1,43.3,154,43.5,152.9 M23.7,54.6c0,1-0.1,2,0.1,2.9H25
		c0-1,0.1-2-0.1-2.9H23.7z M38,121.6c0-1.2,0.1-2.3,0-3.4c-0.5,0-0.9,0.1-1.3,0.1c0.3,1.1,0.4,2.1,0.1,3.2
		C37.1,121.7,37.5,121.6,38,121.6 M39.9,135.2c0.1,1.3-0.1,2.5,0.1,3.7c0.4,0,0.7,0,0.9-0.1v-3.6H39.9z M13.2,20.6h-1
		c0,1.2,0,2.3,0,3.5c0,0.1,0.1,0.1,0.2,0.2c0.1,0,0.3,0,0.4,0c0.1,0,0.3,0,0.4-0.1V20.6z M31.4,139.1c-0.4,0-0.7,0.1-1.1,0.1
		c0,0.7,0,1.2,0,1.8c0,0.6-0.1,1.2,0.1,1.9c0.3,0,0.7,0,1-0.1V139.1z M35.4,113.1c0-1.2,0.1-2.3-0.1-3.5c-0.4,0-0.7,0-1,0.1
		c0,0.6,0.1,1.2,0,1.7c-0.1,0.6-0.3,1.1-0.1,1.7H35.4z M43.1,152h1c0.1-1.2-0.1-2.4,0.2-3.6h-1.3V152z M8.9,68.2c0-1,0.1-2-0.1-3.1
		C8.2,65,8.2,65,7.7,65.2v3H8.9z M25,65.2V62h-1.2v3.1C24.2,65.1,24.5,65.1,25,65.2 M34.7,130.2c0-1.4,0-2.6,0-3.8
		c-0.3,0-0.4,0-0.6,0c-0.1,0-0.3,0-0.5,0.1c-0.5,1.1-0.1,2.2,0,3.3C33.9,129.9,34.2,130,34.7,130.2 M41.1,43.8v-1.5
		c0.2-0.2,0.3-0.4,0.5-0.6c-0.7,0-1.3-0.1-1.9,0.1v2.6c0.5,0.1,1,0.2,1.6,0.3c0.1-0.3,0.1-0.5,0.2-0.7
		C41.4,43.8,41.3,43.8,41.1,43.8 M38.8,134.6c-0.6-0.7,0.3-3.1-0.3-3.8c-0.3,0-0.7,0-1.1,0.1v3.3C37.8,134.4,38.2,134.5,38.8,134.6
		 M19.2,156.4c-0.1,1-0.1,1.9-0.1,2.8c0,0-0.1,0-0.1,0c0.1,0.3,0.2,0.5,0.3,0.8c0.3,0.1,0.6,0.1,1,0.2c0.1-1.4,0.1-2.6,0.1-3.9H19.2
		z M33.6,48.1c0.4,1,0.1,2,0.3,2.8c0.5,0.1,1,0.2,1.5,0.3c0.1-0.1-0.4-2.4,0.2-2.9C34.9,48.2,34.3,48.2,33.6,48.1 M42.4,130.3v-3.4
		c-0.4-0.1-0.7-0.1-1-0.2c-0.8,1.2,0,2.4-0.2,3.6H42.4z M34.6,44.8c0,0,0.1,0,0.1,0l0-0.1c-0.5-0.1-1-0.2-1.6-0.3v3H35
		c-0.2-0.3-0.3-0.6-0.5-0.9C34.6,46,34.6,45.4,34.6,44.8 M14.6,25.1c-0.4-0.1-0.7-0.1-1.1-0.2v4h1.1V25.1z M44.2,143.3
		c0.1-1.2,0.1-2.3,0.1-3.4c-0.4-0.4-0.8-0.4-1.3,0c0,1.1-0.1,2.2,0.1,3.4H44.2z M34.1,143.7c0,1.3-0.1,2.5,0.1,3.7
		c0.4,0,0.8-0.1,1.2-0.1c0.2-0.7,0-1.2-0.1-1.8c-0.1-0.6,0-1.2,0-1.8H34.1z M47.4,35.6c-0.6-0.4-1.2-0.3-1.8-0.3V38
		c0.6-0.1,1.1,0.6,1.8,0c-0.5-0.7,0-1.5-0.4-2.2C47.2,35.7,47.3,35.7,47.4,35.6 M27.6,117.7h-1.2v3.4h1.2V117.7z M27.6,121.1
		 M36.7,139.4c-0.2,1.9-0.1,3.5,0.1,3.7c0.3,0,0.6,0,0.8,0c0.2-1.3,0.5-2.4,0.2-3.7H36.7z M31.6,147.1c0.5,0,0.8,0,1,0
		c0.3-1.2,0.3-2.3,0.2-3.4c-0.4-0.1-0.7-0.2-1-0.3C31.4,144.2,31.3,145.1,31.6,147.1 M36.7,143.6v3.7c0.4,0.1,0.8,0.2,1.2,0.3
		c0-0.5-0.1-3.5-0.1-3.8C37.5,143.7,37.2,143.7,36.7,143.6 M33.6,43.8c0.6,0.1,1.2,0.1,1.9,0.2c-0.3-0.9-0.5-1.9,0-2.8h-1.8V43.8z
		 M35.8,55.4c-0.8-0.1-1.4-0.1-2,0c0,0.5,0.1,0.9,0.1,1.3c0,0.4-0.1,0.9-0.1,1.4c0.6,0.3,1.2,0.2,2.1,0.1L35.8,55.4 M21.1,39.6h1.7
		v-2.7h-1.7V39.6z M21.1,36.9 M23,40.5c0,1-0.1,1.8,0.1,2.7c0.6,0.1,1.1,0.1,1.6,0.1v-2.8H23z M32.5,33.5h1.7v-2.7h-1.7V33.5z
		 M32.5,30.8 M41.6,37.6c-0.2-0.5-0.3-0.9-0.4-1.2c0.1,0,0.1-0.1,0.2-0.1c0,0.1,0.1,0.2,0.1,0.4c0.1-0.7,0.1-1.1-0.2-1.3
		c0.1-0.2,0.2-0.3,0.3-0.5h-1.8c-0.1,0.5-0.1,0.9-0.1,1.3c0,0.4,0,0.8,0.1,1.3C40.2,37.5,40.8,37.5,41.6,37.6 M23,33.5
		c-0.1,1-0.2,1.9,0,2.8h1.7v-2.6C24.2,33.6,23.7,33.5,23,33.5 M27.2,47.6C27.2,47.7,27,47.8,27,48c0,0.8-0.1,1.7,0.1,2.5
		c0.6,0.1,1.1,0.1,1.7,0.2c-0.1-0.9-0.2-1.7-0.2-2.5c0.2-0.2,0.3-0.2,0.4-0.3C28.4,47.8,27.9,47.7,27.2,47.6 M11.2,100.5v3.3h1.6
		c0.4-0.5-0.2-0.6-0.3-1c0.2-0.6-0.3-1.4,0.3-2.1C12.3,100.6,11.8,100.6,11.2,100.5 M45.7,42.1v2.9c0.6,0,1.2,0.1,1.8-0.1
		c-0.1-0.8-0.3-1.6-0.4-2.3c0.2-0.1,0.3-0.2,0.5-0.4C46.9,42,46.3,42.1,45.7,42.1 M31.5,134c0.2,0.1,0.4,0.2,0.5,0.3
		c0.3-0.1,0.5-0.2,0.8-0.3v-3.3c-0.4-0.1-0.8-0.2-1.2-0.3V134z M35.1,69.4c-0.3-0.4-0.4-0.6-0.4-0.7c-0.1-0.7-0.1-1.3-0.2-2
		c0.1-0.1,0.2-0.2,0.4-0.3c-0.6-0.1-1.1-0.2-1.7-0.3v3.2H35.1z M21.1,69.5v3c0.6-0.1,1.2,0.4,1.8,0l0.1-2.8
		c-0.1-0.1-0.1-0.2-0.2-0.2H21.1z M31.5,134.9c0,0.7,0,1.2,0,1.8c0,0.6-0.1,1.2,0.2,1.7c0.4,0,0.7,0.1,1.2,0.1
		c0-1.3,0.1-2.5-0.1-3.7H31.5z M28.2,138.3h1.2v-3.7c-0.4,0-0.8,0.1-1.2,0.1V138.3z M37.7,31.1c0,1-0.1,1.9,0.1,2.8h1.7v-2.6
		C38.8,31.2,38.3,31.2,37.7,31.1 M32.8,129.8c0.1-1,0.1-2,0.2-3.2c-0.4-0.1-0.8-0.3-1.2-0.5c-0.1,0.2-0.5,3.2-0.2,3.7H32.8z
		 M50.2,114.9c-0.6-0.1-1.1-0.2-1.7-0.2v3.3c0.5,0.1,1,0.2,1.5,0.3c0.6-0.6-0.5-1-0.2-1.6C50,116.1,49.5,115.4,50.2,114.9
		 M20.8,30.1c0,1-0.1,1.8,0.1,2.7H23c-0.2-0.4-0.4-0.7-0.4-0.9c-0.1-0.4,0-0.7,0-1.2c0.1-0.1,0.2-0.3,0.3-0.5H20.8z M34.1,139.2v3.5
		c0.3,0.1,0.7,0.2,1,0.3c0.1-0.1,0.2-0.1,0.2-0.2c0.2-1,0-2,0.1-3c0-0.2,0-0.4,0-0.7c-0.3,0.1-0.4,0.1-0.6,0.1
		C34.6,139.3,34.3,139.2,34.1,139.2 M13.8,151.1H15v-3.7h-1.2V151.1z M45.6,56.2v2.9c0.6,0.1,1.1,0.1,1.6,0.2c0.3-0.4,0.1-0.7-0.1-1
		c0.3-0.5,0.1-1.1,0.1-1.6c0.1-0.1,0.1-0.2,0.2-0.3c-0.1-0.1-0.2-0.2-0.2-0.2C46.7,56.3,46.3,56.3,45.6,56.2 M33.5,51.6h-1.8v2.9
		c0.6,0.1,1.2,0.1,1.8-0.1C33.3,53.5,33.1,52.6,33.5,51.6 M33.7,34.2c-0.2,0.9-0.2,1.8,0,2.8h1.7c0-0.9,0.1-1.8-0.1-2.7
		C34.8,34.3,34.3,34.3,33.7,34.2 M11.9,11.9c0,1.3-0.1,2.5,0,3.7c0.5,0,0.9,0,1.3-0.1c0-1.3,0.1-2.5,0-3.7H11.9z M21.1,84.2
		c0.6-0.1,1.2,0.3,1.9-0.1c-0.1-0.3-0.3-0.7-0.4-1c0.1-0.1,0.1-0.2,0.1-0.1c-0.2-0.7-0.3-1.3,0.1-1.8h-1.7V84.2z M39.4,38.2
		c-0.6-0.1-1.1-0.2-1.7-0.2v2.9c0.6,0,1.2,0.1,1.7-0.1V38.2z M48.5,126.5c0.5,0.2,1,0.1,1.5,0c-0.1-0.6-0.2-1.1-0.2-1.6
		c0-0.6,0-1.1,0-1.7c-0.4-0.1-0.8-0.1-1.3-0.2V126.5z M24.5,49.4c0.4-0.6-0.3-1.3,0.4-1.9c-0.6-0.1-1.1-0.1-1.7-0.2
		c-0.3,0.7-0.4,1.9-0.1,2.9c0.5,0.1,1.1,0.1,1.6,0.2c0.1-0.2,0.2-0.4,0.3-0.6C24.9,49.7,24.8,49.6,24.5,49.4 M45.3,34.6v-2.8
		c-0.6,0-1.2-0.1-1.7,0.1v2.6C44.1,34.5,44.7,34.5,45.3,34.6 M6.6,28.8c-0.1-1.3-0.2-2.6-0.2-3.9c-0.3,0-0.7-0.1-1.2-0.2
		c0,1.4,0,2.7,0,4.1H6.6z M23.1,101.1v3.2h1.7c-0.3-1-0.4-1.9-0.3-2.9c0.1-0.1,0.2-0.2,0.4-0.3C24.1,100.8,23.9,100.8,23.1,101.1
		 M15.7,39.4h1.8c0-0.5,0-0.9,0-1.3c0-0.5,0.1-0.9-0.1-1.3c-0.6-0.1-1.1-0.1-1.7-0.2V39.4z M21.1,54.5c-0.1,1-0.1,2,0,3.1h1.7v-2.9
		C22.2,54.6,21.8,54.5,21.1,54.5 M18.8,40.3c-0.6-0.1-1.2-0.2-1.9-0.3v2.9c0.7,0.1,1.3,0.1,2,0c-0.1-0.8-0.2-1.6-0.3-2.4
		c0,0,0.1,0,0.1-0.1C18.8,40.4,18.8,40.3,18.8,40.3 M30.8,47.2v-2.8c-0.5-0.4-1.1-0.2-1.6-0.2v2.9H30.8z M49.7,130.8
		c0.5-0.1,1,0.1,1.5-0.1c0.1-1.1,0.1-2.2,0.2-3.3h-1.6C50.1,128.5,49.5,129.6,49.7,130.8 M45.7,49.2c-0.1,0.9-0.1,1.8-0.2,2.7
		c0.8,0.3,0.9,0.3,1.9,0.1v-2.8H45.7z M41.5,48.8c-0.6-0.1-1.2-0.1-1.8-0.1v2.9c0.6-0.1,1.1,0.4,1.8,0.1c0-0.8,0.2-1.6-0.2-2.3
		C41.4,49.1,41.5,48.9,41.5,48.8 M35.4,138.9c0-0.8,0-1.4,0-2c0-0.7,0.1-1.3-0.1-2c-0.4,0-0.8,0.1-1.2,0.1v3.6
		C34.5,138.7,34.9,138.8,35.4,138.9 M22.6,45.9c0.3-0.5,0.3-1.1-0.1-1.6c0.1-0.1,0.2-0.2,0.5-0.5h-2c0,1-0.1,2,0.1,2.9H23
		C22.8,46.4,22.7,46.2,22.6,45.9 M50,94.6c-0.1,1.1-0.2,2.3-0.1,3.4h1.6v-3.1C51,94.7,50.5,94.7,50,94.6 M12,32.9
		c-0.7,0-1.2-0.1-1.8,0.1v2.6c0.6,0.1,1.1,0.2,1.7,0.3C12.1,34.9,12,33.9,12,32.9 M45.3,41.4c0-1,0.1-1.9-0.1-2.9
		c-0.6,0-1.1-0.1-1.7-0.1v2.8C44.2,41.3,44.7,41.4,45.3,41.4 M37.6,44.9v2.7c0.6,0.1,1.1,0.5,1.8,0.2c0-1,0.1-1.9-0.1-2.9H37.6z
		 M27,57.8h2.1l0.1-2.9c-0.9,0-1.5-0.1-2.2,0V57.8z M43.6,18.2v3.7c0.6,0.3,0.6,0.3,1.2,0.1v-3.7C44.4,18.3,44,18.3,43.6,18.2
		 M9,57.1h1.7v-2.9H9V57.1z M9,54.2 M16,80.8c0.2,1,0.2,1.6,0,2.5c-0.1-0.4-0.2-0.5-0.3-0.7V84h1.7c0-1.1,0.1-2.1-0.1-3.1h-1.7V82
		C15.8,81.6,15.8,81.3,16,80.8 M41.5,58.8c0-0.7-0.1-2.7,0.1-3c-0.7,0-1.3-0.1-1.8,0.1v2.9H41.5z M46.8,139
		c-0.1-1.2-0.7-2.3,0.1-3.4c-0.5-0.1-1-0.2-1.7-0.3c0,0.5,0,1,0,1.4c0,0.4-0.1,0.7-0.1,1.1c0,0.4,0.1,0.8,0.1,1.1H46.8z M27.1,68.9
		c0.6,0.1,1.1,0.2,1.7,0.2l0.3-3.1h-2C27.2,67,26.7,67.9,27.1,68.9 M50.9,135c-0.3-0.5-0.4-0.8-0.6-1.1v-2c0.1-0.1,0.2-0.2,0.4-0.3
		c-0.6-0.1-1.1-0.2-1.7-0.2v3.6H50.9z M23,88.2c0.7,0,1.2,0.1,1.8,0.1c-0.1-1.1-0.5-2.2-0.1-3.2H23V88.2z M29,62.2h-1.9v2.9
		c0.6,0.1,1.1,0.6,1.9,0.1L29,62.2z M50.2,109.9c0.5-0.6-0.4-0.8-0.3-1.4c0.1-0.5,0-1,0-1.4c0.2-0.3,0.3-0.4,0.5-0.7
		c-0.8,0.1-1.3-0.1-1.8,0.1v3.3C49.1,109.9,49.7,109.9,50.2,109.9 M30.2,80.8v-3.2c-0.6-0.1-1.2-0.2-1.8-0.3l0,3.4
		C29,80.7,29.5,80.7,30.2,80.8 M41.6,63.1c-0.7,0-1.3-0.1-1.9,0.1c0,1,0,1.9,0,2.8c0.6,0.1,1.1,0.1,1.7,0.2
		C41.7,65.3,41.3,64.2,41.6,63.1 M45.3,48.3v-2.9h-1.8c0,1-0.2,1.9,0.1,2.9H45.3z M39.4,54.9c0-1,0.1-2-0.1-2.9h-1.7
		c0,1-0.1,1.9,0.1,2.9H39.4z M22.8,54v-3.1h-1.7c0,1-0.1,2,0.1,2.9C21.7,53.8,22.2,53.9,22.8,54 M11.7,57.1h1.8c0-1,0.1-2-0.1-2.9
		h-1.7V57.1z M24.8,92.9H23V96c0.6,0.1,1.1,0.2,1.7,0.3C24.7,95.2,24.3,94.1,24.8,92.9 M11,65.3v3.2h1.8c-0.1-1.1-0.5-2.1,0.1-3.2
		H11z M45.3,62.7c0-1,0.1-2-0.1-2.9c-0.6-0.1-1.1-0.1-1.6-0.2c-0.2,0.8-0.2,2.1,0,3H45.3z M37.6,62.3h1.8c0-0.5,0-1,0-1.4
		c0-0.5,0.1-1-0.1-1.5c-0.3,0-0.5,0-0.8,0c-0.3,0-0.5-0.1-0.8-0.1c-0.1,0.1-0.2,0.2-0.2,0.3C37.6,60.4,37.6,61.3,37.6,62.3 M29,58.7
		c-0.5-0.1-1.1-0.2-1.6-0.3c-0.1,0.1-0.3,0.3-0.3,0.4c0,0.9-0.1,1.8,0.1,2.7c0.7,0.1,1.4,0.4,2-0.3c-0.8-0.7-0.2-1.6-0.5-2.3
		C28.8,58.8,28.9,58.8,29,58.7 M16.3,60.9c0-1,0.1-2-0.1-2.9h-1.7v2.9H16.3z M45.3,55.5c0-0.9,0.1-1.8,0.1-2.7
		c-0.8-0.3-0.9-0.3-1.9-0.1c0,0.9,0,1.8,0,2.8H45.3z M27.7,54.3c0.7,0,1.2,0.1,1.8-0.1v-2.9c-0.6,0.1-1.2-0.1-1.8,0.1V54.3z
		 M51.4,114v-3.1c-0.5-0.1-0.9-0.2-1.4-0.3c-0.1,0-0.7,2.9-0.2,3.4H51.4z M27,72.6c0.6,0.1,1.1,0.5,1.8,0.2c0.1-0.2,0.1-0.4,0.2-0.6
		l0-2.5h-2V72.6z M45.3,94.3v3.1c0.5,0.1,1.1,0.1,1.6,0.2v-2.9c0.1,0,0.2-0.1,0.5-0.4H45.3z M16.9,33.1c0,1-0.1,2,0.1,2.9
		c0.7-0.1,1.3,0.4,1.9-0.2c-0.2-0.8-0.3-1.7-0.1-2.5C18.2,33,17.6,33.2,16.9,33.1 M39.4,69.9v-3.2c-0.6,0-1.2-0.1-1.7,0.1v2.8
		C38.2,69.7,38.8,69.8,39.4,69.9 M14.5,64.7c0.6-0.1,1.2,0.1,1.8-0.2c0-1,0-1.9,0-2.8c-0.6-0.1-1.2-0.2-1.8-0.3V64.7z M48.2,67.5
		c-0.2,0.8-0.2,2.3,0,3.1c0.5,0.1,1.1,0.1,1.7,0.2v-3.1C49.3,67.6,48.8,67.5,48.2,67.5 M23,58.4c0.1,0.9-0.2,1.9,0.1,2.8
		c0.6,0.2,1.2,0.1,1.8,0.1c0.3-0.5-0.2-0.7-0.3-1c0.1-0.2,0.2-0.5,0.2-0.7c-0.1-0.3-0.1-0.4,0.1-0.5c-0.1-0.1-0.2-0.3-0.3-0.4
		c0.2-0.1,0.3-0.2,0.4-0.3C23.5,58.2,23.5,58.2,23,58.4 M20.8,76.4v-3h-1.9c0.1,1-0.1,2,0.1,2.9C19.6,76.3,20.2,76.3,20.8,76.4
		 M13.6,72.3c0.7-0.1,1.3,0.1,1.9-0.1v-2.9c-0.7,0-1.3-0.1-1.9,0V72.3z M16.2,113.5c-0.5,1-0.2,2.1-0.4,3c0.6,0,1.2,0.1,1.7,0.1
		c0.1-1.1,0.1-2.2,0-3.3h-1.8C16,113.3,16.1,113.4,16.2,113.5 M23,97.2c-0.1-0.1-0.1-0.2-0.2-0.3c-0.6,0-1.1-0.1-1.6,0.1v3.1
		c0.6,0,1.2,0,1.8,0.1c-0.4-0.9,0.1-1.9-0.4-2.8C22.7,97.3,22.8,97.2,23,97.2 M50.2,152.3c0.6,0.1,1,0.1,1.6,0.1v-3.6h-1.6V152.3z
		 M50.7,106c0.4-1.2-0.1-2.3,0.3-3.5c-0.7,0-1.2-0.1-1.8,0.1v3.1C49.7,105.8,50.2,105.9,50.7,106 M23.2,109.2
		c0.1,1.2-0.2,2.3,0.1,3.4H25c-0.2-1.1-0.2-2.2,0-3.3C24.4,109.1,23.9,109.2,23.2,109.2 M15.7,104.9c0.2,0.2,0.4,0.3,0.4,0.5
		c0,0.6-0.1,1.2-0.1,1.7c0,0.3,0,0.7-0.1,1c0.7,0,1.2,0.1,1.8,0v-3.2C17,105.1,16.5,104.4,15.7,104.9 M46.2,74.7v3.2
		c0.6,0,1.1,0.5,1.7,0.2v-3C47.3,74.9,46.8,74.8,46.2,74.7 M43.5,70.1c0.6,0.1,1.1,0.2,1.7,0.3v-3.2h-1.7V70.1z M13.4,29.6h-2
		c0,0.9-0.1,1.8,0,2.7h2V29.6z M12.2,104.7c-0.7,0-1.2-0.1-1.8,0.1c0,0.1,0.1,0.2,0.1,0.3c0.1,0,0.2-0.1,0.4-0.1
		c0,0.3-0.1,0.6-0.1,0.9c-0.1-0.2-0.2-0.3-0.4-0.5c0,1-0.1,1.9,0,2.7h1.8V104.7z M13,112.2c-0.1-1-0.2-2-0.3-3
		c0.1-0.1,0.2-0.1,0.5-0.4c-0.8,0-1.4-0.1-2-0.1v3.5H13z M48.5,90.4c0,1.1,0,2.2,0,3.2c0.6,0.1,1.2,0.2,1.8,0.3
		c-0.1-1.2-0.1-2.2-0.2-3.3C49.6,90.6,49.1,90.5,48.5,90.4 M10.8,60.9v-3.3c-0.6,0.1-1.2-0.1-1.7,0.1v3
		C9.6,60.8,10.1,60.9,10.8,60.9 M41.6,73.7c-0.2-1,0.3-1.9-0.3-2.7c0.1-0.1,0.2-0.1,0.2-0.2c-0.5-0.2-1.1-0.5-1.7-0.2
		c0,1-0.1,1.9-0.1,2.9C40.1,73.9,40.8,73.6,41.6,73.7 M23,105.2c-0.1-0.1-0.1-0.2-0.2-0.3c-0.6,0-1.1-0.1-1.7,0.1v3.4
		c0.6,0,1.2,0.1,1.9-0.1c-0.1-0.4-0.3-0.7-0.4-1v-1.8C22.7,105.3,22.9,105.3,23,105.2 M16,96.7c-0.1,1.1-0.2,2.1-0.2,3
		c0.6,0.4,1.2,0.5,1.8,0.2v-3.2h-1.9C15.7,96.8,15.9,97.1,16,96.7 M25,117.6c-0.8-0.2-1.4-0.5-1.9,0c-0.1,1.2-0.1,2.2-0.2,3.3
		c0.7,0.1,1.2,0.3,1.9,0.2C24.9,120.8,24.8,117.8,25,117.6 M11.2,121.5c0,1.2-0.1,2.3,0,3.4H13c-0.1-0.7-0.2-1.2-0.2-1.8
		c0-0.5-0.2-1,0.1-1.6H11.2z M23,77.3v2.9c0.6,0.2,1.1,0.5,1.8,0.2c0-1,0-2.1,0-3.1H23z M27,76.7h1.7c0.1-0.3-0.2-2.5,0.4-3.2H27
		V76.7z M21.2,62c-0.2,0.8-0.2,2.2,0,3.2c0.5-0.1,1.1,0.2,1.6-0.2v-3H21.2z M17.1,104.1c0.7,0,1.2,0.1,1.8-0.1
		c-0.1-1.1-0.4-2.2-0.1-3.3c-0.6,0-1.2-0.1-1.7,0.1V104.1z M17.7,117.4c0.1,1.2-0.1,2.3,0.1,3.4h1.7c-0.1-1.1-0.2-2.2-0.3-3.2
		c0.1-0.1,0.2-0.1,0.3-0.1c0,0,0,0-0.1-0.1H17.7z M21.1,116.7c0.7,0,1.2,0.1,1.8-0.1c-0.1-1-0.1-3.2,0.1-3.4c-0.7,0-1.3-0.1-1.8,0.1
		V116.7z M39.5,86c0,1.1-0.1,2.2,0.1,3.2h1.7c0.4-1-0.2-1.9,0.3-3.2C40.8,86.1,40.3,85.5,39.5,86 M46.4,85.7
		c0.1-1.6,0.1-1.6-0.2-2.7c0.1-0.1,0.2-0.3,0.3-0.5c-0.6-0.1-1.1-0.2-1.6-0.3c-0.5,0.5-0.2,1.1-0.3,1.7c0,0.6-0.1,1.2,0.1,1.7H46.4z
		 M35.1,81.6c-0.8-0.1-1.4-0.2-1.9,0v3.1h1.7v-2.3c-0.1-0.1-0.2-0.2-0.3-0.3C34.7,82,34.8,81.9,35.1,81.6 M17.4,29.6
		c-0.4,0-0.7,0-1,0c-0.3,0-0.7,0-1,0.1c0.1,1,0.1,1.9,0.2,2.9c0.6,0.1,1.2,0.1,1.9,0V29.6z M33.6,88.7h1.7v-3.2h-1.7V88.7z
		 M33.6,85.6 M50.9,89.9v-3.2c-0.6,0.1-1.2-0.1-1.7,0.1v3.1H50.9z M39.7,74.1c-0.1,1.2-0.1,2.2-0.2,3.2c0.7,0.1,1.2,0.1,2,0.2
		c-0.1-1,0.2-2-0.3-2.9c0.1,0,0.1-0.1,0.3-0.2C40.9,74.4,40.4,74.3,39.7,74.1 M51.4,122.6v-3.4c-0.6-0.1-1.1-0.2-1.6-0.3
		c0,0-0.1,2.5-0.1,3.3C50.3,122.3,50.8,122.5,51.4,122.6 M15.7,91.8h1.8v-3.1h-1.8V91.8z M15.7,76.2h1.7V73h-1.7V76.2z M15.7,73
		 M50.2,98.6h-1.8c0,1.1-0.1,2.1,0.1,3.1h1.7V98.6z M9.6,53.3c0.7,0.1,1.3,0.1,1.9,0.2v-2.9c-0.6-0.1-1.2-0.5-1.9,0V53.3z
		 M28.7,108.6v-3.4H27c0,1.2-0.1,2.3,0.1,3.4H28.7z M44.9,143.3c0.7,0.1,1.3,0.1,1.8,0.2c0.1-1.2-0.1-2.4,0.1-3.5h-1.6
		C45.1,141,45,142.1,44.9,143.3 M24.9,121.9c-0.5-0.4-1.1-0.2-1.6-0.2c-0.6,1.1-0.2,2.3-0.3,3.4c0.7,0.1,1.2,0.1,2,0.2
		C24.8,124.7,24.7,122.2,24.9,121.9 M14.3,54.4c0,0.6,0.1,1.1,0,1.5c-0.1,0.5-0.2,0.9,0.1,1.4c0.6,0,1.2,0.1,1.8,0.1v-2.9
		C15.6,54.3,14.9,53.8,14.3,54.4 M37.5,89.7c0,1.2,0.1,2.2,0.1,3.3h1.8c-0.1-1.1,0.1-2.1-0.1-3.1C38.7,89.8,38.1,89.7,37.5,89.7
		 M44.7,86.3v3.2c0.6-0.1,1.1,0.4,1.7,0.1v-3C45.9,86.2,45.4,86.3,44.7,86.3 M17.8,125.7l0,3.6c0.6,0,1.2,0.1,1.8-0.1v-3.5
		C19,125.8,18.5,125.8,17.8,125.7 M46.2,161c0.6-0.2,1.1,0.3,1.7-0.1v-3.6c-0.6,0-1.2-0.1-1.7,0.1V161z M40.9,85.2
		c0.5,0.3,1.1,0.4,1.7,0.3v-3.1c-0.5-0.5-1.1-0.4-1.7-0.3V85.2z M39.8,78c-0.3,0.5-0.4,1.6-0.2,3.1c0.6,0,1.2,0.6,1.9,0.1v-2.9
		C40.9,78.2,40.3,78.1,39.8,78 M45.3,102.1c-0.2,1.2-0.1,2.3-0.1,3.3c0.6,0.1,1.1,0.2,1.7,0.3c0-0.6,0.1-1.1,0.1-1.7
		c0-0.6,0-1.1,0-1.8c-0.2,0-0.5,0-0.8,0C46,102.3,45.7,102.2,45.3,102.1 M50,156.7c0.6,0.1,1.1,0.2,1.7,0.3v-3.8h-1.5
		C50.1,154.3,50,155.4,50,156.7 M43.3,90c0,0.7,0,1.2,0,1.8c0,0.6-0.1,1.1,0.1,1.7h1.7c0.1-1.1-0.1-2.1,0.1-3.1
		C44.6,90.2,44,90.1,43.3,90 M32.8,160.4c0.5,0.1,1.1,0.3,1.6,0.1c0.4-0.6-0.2-1.1,0-1.7c0.1-0.5-0.1-1.1-0.1-1.6
		c0.1-0.1,0.2-0.2,0.3-0.3h-2C32.7,158.1,32.7,159.2,32.8,160.4 M35.4,96.8v-3.1c-0.6-0.1-1.1-0.6-1.7-0.2v3.3H35.4z M11.2,130
		c0,1.2-0.1,2.4,0,3.6H13c-0.1-1.2-0.4-2.4,0-3.6H11.2z M25.1,65.7c-0.8,0-1.5-0.1-2.1,0.1c0,1.1,0,2.1,0,3.1h1.9 M13.6,120.6v-3.4
		c-0.6,0-1.2-0.1-1.7,0v3.4H13.6z M17.6,133.6v-3.4c-0.6-0.1-1.2-0.2-1.7-0.2c0,0.1,0,0.1-0.1,0.2c0.1,0.1,0.3,0.2,0.4,0.3
		c-0.1,0.1-0.2,0.2-0.3,0.3v2.9H17.6z M45.2,110.4c0,1.2-0.1,2.3,0,3.4h1.7v-3.4H45.2z M13.4,84.7c-0.7-0.2-1.5-0.1-2.2,0v3.1
		c0.8,0,1.5,0.1,2.2-0.1V84.7z M23.2,134.6c-0.3,0.8-0.3,2.6,0,3.5c0.6,0,1.1,0.1,1.7,0.1c-0.1-1.1-0.1-2.2-0.1-3.3
		c0.1-0.1,0.2-0.1,0.3-0.2c0-0.1,0-0.1-0.1-0.2H23.2z M35.4,104.8v-3.4h-1.7v3.5C34.2,104.9,34.7,104.8,35.4,104.8 M45.1,114.4h-1.7
		v3.4h1.7V114.4z M43.3,109.5c0.7,0.1,1.2,0.1,1.8,0.1v-3.5c-0.6,0-1.2-0.1-1.8,0.1V109.5z M39.6,105.3h1.7v-3.4
		c-0.6,0-1.2-0.1-1.7,0c-0.1,0.6-0.2,1.1-0.2,1.7S39.5,104.6,39.6,105.3 M45.2,118.7v3.4c0.6,0.1,1.2,0.1,1.7,0.2v-3.5H45.2z
		 M11.9,125.7v3.4c0.6,0.1,1.1,0.1,1.7,0.1c0-1.2,0.1-2.3-0.1-3.6H11.9z M19.6,152h-1.8v3.8c0.6,0,1.1,0.1,1.8,0.1
		c-0.1-1.2-0.2-2.3-0.3-3.3C19.5,152.3,19.5,152.2,19.6,152 M15.9,147.4v3.7h1.8c0-1.2,0.1-2.4-0.1-3.6
		C17.1,147.5,16.5,147.4,15.9,147.4 M28.3,117.9c0.1,1.2,0.1,2.2,0.2,3.2c0.6,0.1,1.1,0.2,1.7,0.2c0.2-1.4,0.1-2.8-0.1-3.6
		C29.4,117.7,28.8,117.5,28.3,117.9 M39.3,152.5v3.7H41c0-0.5,0.2-2.8,0-3.6C40.4,152.6,39.9,152.6,39.3,152.5 M17.8,143.2
		c0,1.3-0.1,2.5,0,3.7h1.7v-3.7H17.8z M21.1,133.8h1.7v-3.6h-1.7V133.8z M21.1,130.2 M39.6,109.8c-0.1,0.3-0.3,0.5-0.3,0.7
		c0,0.6,0.1,1.2,0.1,1.8c0,0.4-0.1,0.8,0.1,1.2h1.7v-3.3C40.7,110,40.2,109.9,39.6,109.8 M23.1,129.5c0.6,0,1.3,0.1,2,0.1
		c-0.1-0.9-0.2-3.3-0.1-3.5c-0.7-0.4-1.2-0.2-1.8-0.2C22.7,127.1,23.2,128.3,23.1,129.5 M13.7,137.9c0-1.3,0-2.5,0-3.5
		c-0.6,0-1.2-0.1-1.7-0.1v3.7H13.7z M17.7,156.5h-1.7c-0.1,1.2-0.1,2.4-0.2,3.7c0.7,0,1.3,0.1,1.9,0V156.5z M32.1,97.4
		c0.6,1.1-0.3,2.2,0.3,3.4c0.6,0.1,1.2,0.2,1.7-0.1c0.3-0.6-0.1-1.1,0-1.6c0-0.6,0.3-1.1,0.1-1.7H32.1z M23.6,152
		c-0.2,0.1-0.4,0.2-0.6,0.3c0.1,1.2-0.1,2.4,0.1,3.5c0.6,0.1,1.1,0.2,1.7,0.3c-0.1-1.3-0.1-2.5-0.2-3.9c-0.2-0.1-0.4-0.2-0.7-0.3
		c0-0.2,0-0.3,0.1-0.4c-0.1,0-0.1,0-0.2,0C23.7,151.6,23.7,151.8,23.6,152 M45.1,126.4c-0.1-1.4,0.1-2.6-0.1-3.7h-1.7v3.4
		C43.9,126.2,44.4,126.3,45.1,126.4 M39.3,121.8h1.9v-3.4c-0.6-0.1-1.2-0.1-1.9-0.2C39.8,119.5,39,120.6,39.3,121.8 M9.6,69.1v3.2
		c0.7,0,1.3,0.1,1.9-0.1v-3.1H9.6z M24.9,143.4c-0.6-0.1-1.2-0.5-1.8-0.1c-0.2,1-0.2,2.7,0,3.5h1.6
		C24.9,145.7,24.7,144.6,24.9,143.4 M11.9,146.6c0.6,0.1,1.2,0.1,1.7,0.2V143c-0.7-0.3-1.2,0.1-1.7,0.2V146.6z M32.9,108.8
		c0.7-0.1,1.3,0.5,2,0.2c-0.1-1.1-0.2-2.2-0.2-3.2c-0.5-0.4-1.1-0.4-1.7-0.3V108.8z M48.7,18.2v-3.7c-0.5,0-1.1-0.1-1.8-0.1v3.5
		C47.4,18.3,48,18.1,48.7,18.2 M37.1,160.5c0.7,0.1,1.2,0.2,1.8,0.2c0-1.2,0.1-2.5,0.1-3.8c-0.5,0-1.2-0.1-1.9,0.1
		c0,0.6,0.1,1.1,0.1,1.7C37.2,159.3,37.2,159.9,37.1,160.5 M39.2,125.9c0.1-1.1-0.1-2.3,0.2-3.5h-1.9v3.6
		C38,126,38.5,126,39.2,125.9 M46.7,152.9c-0.6,0-1.2-0.1-1.7,0.1v3.6h1.7V152.9z M28.4,33.8c0,1-0.1,1.9,0.1,2.8
		c0.8-0.3,1.6,0.6,2.3,0v-2.6C30.1,33.6,29.3,33.9,28.4,33.8 M39.1,117.5c0.3-1.1,0-2.2,0.2-3.3c-0.6-0.1-1.1-0.2-1.7-0.3
		c-0.1,0.1-0.3,0.3-0.3,0.5c-0.1,0.7,0,2.6,0.2,3.2H39.1z M32.9,113.7v3.4c0.6,0.4,1.1,0.2,1.8,0.2c0-0.7,0-1.2,0-1.8
		c0-0.6,0.1-1.2-0.1-1.8H32.9z M43.3,127c0,1.2-0.2,2.3,0,3.7c0.6-0.5,1.2,0.2,1.8-0.4c0-1,0-2.1,0-3.2
		C44.3,126.9,44.3,126.9,43.3,127 M21.1,142.6c0.7-0.1,1.2,0.1,1.8-0.1v-3.6c-0.6,0-1.2-0.1-1.8,0.1V142.6z M27,139
		c0,0.7,0,1.2,0,1.8c0,0.6-0.1,1.2,0.1,1.8c0.6,0.1,1.1,0.2,1.7,0.2v-3.5C28,138.9,28,138.9,27,139 M39.3,143.9
		c0,0.7-0.1,3.1,0.1,3.6h1.8c0-0.6,0.1-3-0.1-3.6H39.3z M37.5,101c0.7,0.1,1.3,0.2,1.9,0v-3.1c-0.7,0.1-1.3-0.5-2-0.1
		C37.7,98.8,37.1,99.8,37.5,101 M38.4,138.8c0.1-1.2,0.1-2.3,0.1-3.5c-0.5-0.4-1.2-0.1-1.9-0.2v3.3
		C37.2,138.9,37.7,138.9,38.4,138.8 M21,147.7c0.1,1.3-0.1,2.5,0.1,3.6h1.7c0-0.6,0-1.2,0-1.8c0-0.6,0.1-1.2-0.1-1.8H21z
		 M44.8,157.1h-1.8c0,1.2-0.1,2.4,0,3.6h1.7V157.1z M31,43.6c-0.3-0.6-0.5-1.1-0.4-1.6c0.2-0.1,0.2-0.1,0.3-0.1
		c-0.2-0.2-0.3-0.4-0.4-0.6c0.2-0.1,0.3-0.2,0.4-0.3c-0.8-0.2-1.6-0.5-2.4-0.2v2.8H31z M17.5,65.5c-0.8,0.3-1.6-0.5-2.3-0.1
		c-0.1,1.2-0.1,2.1-0.2,3.1c0.9,0.1,1.6,0.2,2.5,0.3V65.5z M8.3,36.3c-0.5,0.4-0.2,0.9-0.3,1.4c0,0.5-0.1,1,0.1,1.4h2.3v-2.6
		C9.8,36.4,9.1,36.3,8.3,36.3 M28.9,125.3c0.4,0,0.7,0,1,0.1c0.3,0.1,0.6,0.3,0.9,0c0-0.5,0-1,0-1.5c-0.1-0.5,0.2-1.1-0.2-1.5
		c0.1-0.1,0.2-0.1,0.3-0.2c-0.6-0.5-1.3-0.2-2-0.2V125.3z M39.5,17.2v-3.6h-1.8c0,1.2-0.1,2.4,0,3.6H39.5z M39.3,134.5h1.8
		c-0.1-1.1-0.2-2.3,0.1-3.5c-0.6-0.4-1.2-0.2-1.9-0.2V134.5z M45.7,18.4v3.7c1,0.4,1,0.4,1.7,0.2v-3.5
		C46.8,18.6,46.3,18.5,45.7,18.4 M32.3,16.7h1.9c0-0.7,0-1.2,0-1.8c0-0.6,0.1-1.2-0.1-1.8c-0.7,0-1.3-0.1-1.8,0V16.7z M30,147.1
		c0.1-0.7,0.1-1.2,0.2-1.8c0-0.6,0-1.2-0.1-1.8h-1.9c0.2,0.2,0.3,0.4,0.4,0.5c-0.1,0.1-0.3,0.2-0.3,0.2v2.9H30z M29.4,30.5
		c-0.8,0.1-1.5-0.5-2.4-0.2V33c0.8-0.1,1.6,0.5,2.6,0.1C29,32.3,29.7,31.5,29.4,30.5 M22.9,160.4c-0.1-1.5,0.1-2.7-0.1-3.9h-1.7v3.6
		C21.7,160.2,22.2,160.3,22.9,160.4 M13.1,156.4c-0.6,0-1.2-0.1-1.8,0.1v3.6h1.8V156.4z M17.4,24.5c-0.1-1.1-0.1-2.1-0.1-3.1
		c0-0.3-0.1-0.5-0.1-0.7h-1.8c0,0.7,0,1.3,0,1.9c0,0.7-0.1,1.3,0.1,2H17.4z M39.4,109.4c0-1.3,0-2.4,0-3.5c-0.7-0.1-1.2-0.1-1.8-0.2
		c-0.3,0.7-0.3,2.1-0.1,3.3C38.1,109.1,38.7,109.2,39.4,109.4 M18.6,20.3c0-0.7,0-1.4,0-2c0-0.7,0.1-1.3-0.1-1.9h-1.7V20
		C17.4,20.1,18,20.2,18.6,20.3 M45.8,131.6c0.2-0.1,0.3-0.1,0.4-0.2c-0.6-0.1-1.1-0.5-1.7-0.2c-0.1,0.2,0,3.1,0,3.6h1.7V132
		C46.1,131.9,46,131.8,45.8,131.6 M33.6,17.3c0,1.3-0.1,2.6,0.1,3.8h1.8c0-0.6,0.1-1.2,0.1-1.8c0-0.6-0.1-1.2-0.1-1.8
		C34.9,17.5,34.4,17.4,33.6,17.3 M44.9,63.4c0.1,1-0.1,2.1,0.1,3.1c0.4,0,0.8,0,1.1,0s0.7,0.1,1,0.1v-2.6c0.1-0.1,0.2-0.2,0.3-0.4
		C46.6,63.6,45.8,63.5,44.9,63.4 M39.7,21.6c0.6,0.1,1.1,0.1,1.6,0.2c0.3-0.8,0.3-2.5,0.1-3.8c-0.6,0-1.2-0.1-1.8-0.1
		C39.6,19.2,39.7,20.4,39.7,21.6 M18.8,88c0.5-0.5-0.4-0.8-0.3-1.3c0.1-0.5,0-1-0.1-1.5c0.2-0.1,0.3-0.2,0.4-0.2
		c-0.8,0.2-1.5-0.7-2.4-0.1v3C17.3,87.9,18,87.9,18.8,88 M17.2,15.8v-3.6c-0.6-0.1-1.1-0.2-1.8-0.3c0,1.4-0.1,2.7,0,4H17.2z
		 M39.1,151.8v-3.7c-0.6,0-1.2-0.1-1.7,0.1c-0.1,1.2-0.1,2.4-0.2,3.6H39.1z M7.4,29.3v2.8c0.6,0.1,2.2,0.1,2.4,0.3
		c0.1-1,0.1-1.9,0-2.8C9.1,29.3,8.3,29.5,7.4,29.3 M23,16.6v3.9c0.6,0.1,1.2,0.2,1.7,0v-3.6c-0.3-0.1-0.6-0.2-0.9-0.3
		C23.6,16.6,23.3,16.6,23,16.6 M39.4,25.9v-3.6c-0.6-0.2-1.1-0.5-1.8-0.3v3.8H39.4z M16.4,72.4c1.6,0.2,2.3,0.2,2.5-0.1l-0.1-2.8
		c-1.1-0.3-1.3-0.3-2.5-0.1V72.4z M46.8,22.9c0,0.8,0,1.5,0,2.1s-0.2,1.2,0.2,1.9h1.6v-3.7C48.2,23.1,47.6,23,46.8,22.9 M41.9,138.8
		c0.9,0.1,1.6,0.2,2.5,0.3c0-1.3,0.1-2.5,0-3.7l-2.4,0V138.8z M47.2,74.1v-2.7c0.1,0,0.2-0.1,0.4-0.2c-1-0.1-1.8-0.6-2.6-0.2v3.1
		H47.2z M30.9,88.5c-0.2-0.6-0.4-1.1-0.4-1.7c0-0.5-0.1-1,0.4-1.5h-2.4v3.2H30.9z M29.5,40.2v-2.7c-1.1-0.4-1.1-0.4-2.4-0.3v2.7
		C27.8,40,28.6,40.1,29.5,40.2 M17.1,61.7c0.1,1-0.1,2,0.1,2.9c0.8,0.1,1.6,0.1,2.4,0.2c-0.1-0.9-0.2-1.8-0.3-2.6
		c0.2-0.2,0.2-0.3,0.4-0.5H17.1z M43.5,26.4c0.7-0.2,1.3,0.4,1.9,0.1v-3.7c-0.3,0-0.6-0.1-0.9-0.1c-0.3,0-0.6-0.1-1-0.1
		C43.5,23.9,43.5,25.1,43.5,26.4 M13.5,157.1c0.2-1,0.2-4.2,0-5.1h-1.7c0,0.7,0,1.2,0,1.8c0,0.6-0.1,1.2,0.1,1.8
		c0.5,0,0.8,0.1,1.3,0.1C13.3,156.1,13.4,156.5,13.5,157.1 M43.5,17.7c0.7-0.2,1.3,0.3,2,0.1v-3.5c-1.1-0.4-1.1-0.4-2-0.2V17.7z
		 M21.1,92c0.9,0.1,1.7,0.1,2.6,0.2c-0.2-0.5-0.5-0.9-0.5-1.4c-0.1-0.5,0-1,0-1.3c0.2-0.3,0.3-0.4,0.5-0.7c-1,0.1-1.8-0.1-2.6,0.1
		V92z M9.1,80.6v3.1h2.4V83c-0.2,0-0.3-0.1-0.3-0.1v-1.8c0.1-0.1,0.2-0.3,0.5-0.5H9.1z M17.1,50h2.5v-2.7c-0.8,0.1-1.6-0.5-2.5-0.2
		V50z M19.7,57.3c-0.3-0.5-0.3-1-0.1-1.5c0.1-0.2,0-0.5-0.1-0.5c-0.5-0.3,0-0.5,0.1-0.8c-0.1,0-0.2-0.1-0.3-0.1c-0.7,0-1.4,0-2.1,0
		v2.9H19.7z M19.5,46.5v-2.7c-0.8,0-1.6-0.5-2.4-0.2v2.9H19.5z M35.5,26.3c-0.6,0-1.2-0.1-1.8,0.1v3.8c0.6,0,1.2,0.1,1.8,0.1V26.3z
		 M47.4,27.5c-0.6-0.3-1.1-0.5-1.7-0.2v3.8c0.6,0.1,1.1,0.5,1.7,0.2V27.5z M24.8,29.5c0-0.7,0-1.3,0-2c0-0.7,0.1-1.3-0.1-1.9
		c-0.6-0.1-1.1-0.2-1.7-0.3c0,0.7,0,1.4,0,2.1c0,0.7-0.1,1.4,0.1,2.1H24.8z M17.1,60.8c0.8,0.5,1.6,0.4,2.4,0.3c0.1-1,0-1.8-0.3-2.7
		c0.1-0.1,0.2-0.1,0.3-0.2c-0.8-0.2-1.6-0.5-2.4-0.2V60.8z M39.7,26.8v3.8c0.6-0.1,1.1,0.5,1.8,0.2v-4H39.7z M4.8,107.9h2.1v-3.2
		c-0.8-0.2-1.6-0.4-2.4-0.1c0.3,0.8,0.5,1.5-0.2,2.1C5,106.9,4.7,107.4,4.8,107.9 M16.4,80.1h2.4v-3C18,77,17.3,77,16.4,76.9
		C16.3,77.9,16.4,78.9,16.4,80.1 M45.4,81.6c0.8,0.3,1.5,0.5,2.2,0.3c0.1-1.1,0.2-2.1,0.3-3.1c-0.8-0.1-1.6-0.2-2.4-0.3
		C45.3,79.6,45.4,80.6,45.4,81.6 M52,136c-1-0.2-1.4-0.2-2.3,0v3.3h2.2C52.1,138.2,51.4,137.1,52,136 M24.8,76.5c0-1-0.1-2-0.1-2.9
		c-0.7-0.2-1.5-0.5-2.3-0.2v3.1H24.8z M9,72.8C9,73.9,9,74.9,9.1,76h2.5c-0.1-0.3-0.2-0.5-0.2-0.8c0.4-0.7,0.1-1.6,0.2-2.4H9z
		 M30.9,96.7c0-0.4,0.1-0.7-0.1-0.8c-0.5-0.6-0.1-1.2-0.4-1.8c-0.1-0.1,0.2-0.4,0.3-0.7c-0.7-0.4-1.6-0.1-2.4-0.2v3.2
		C29.2,96.4,30,96.5,30.9,96.7 M19,92.6c-0.7,0-1.1,0-1.4,0c-0.4,0-0.8-0.1-1.2,0.1v3.1c0.8,0.1,1.6,0.2,2.4,0.3
		c-0.1-1-0.2-2-0.3-2.9C18.7,93,18.8,92.9,19,92.6 M11.5,49.8v-2.8c-0.9-0.2-1.7-0.1-2.6-0.1c0,1-0.1,2,0.1,2.9H11.5z M27,92.2
		c0.8,0.1,1.6,0.2,2.4,0.3c0.4-0.4,0-0.7-0.1-1c0-0.7,0.3-1.4-0.1-2c0.1-0.1,0.2-0.2,0.4-0.4H27V92.2z M18.9,112.4
		c-0.3-1.2-0.4-2.3-0.1-3.4h-2.5c0.1,1.2,0.2,2.3,0.3,3.4H18.9z M27,84.5c0.9,0,1.7,0.1,2.5-0.1c0-0.5,0.1-1,0-1.4
		c-0.1-0.4,0.1-0.9-0.3-1.2c0.1-0.1,0.2-0.2,0.4-0.4H27V84.5z M28.3,20.7c0.9,0.1,1.6,0.1,2.3,0.2c0.2-0.5,0-0.9-0.3-1.2
		c0.4-0.5-0.2-1.2,0.2-1.6c-0.1-0.2-0.2-0.3-0.3-0.5c0.2-0.1,0.3-0.2,0.6-0.3c-0.9-0.5-1.7-0.2-2.6-0.2V20.7z M12.2,64.7v-3.2
		c-0.9,0-1.8-0.1-2.6,0.1c0.1,1-0.2,2,0.2,2.8C10.6,64.5,11.4,64.6,12.2,64.7 M12.8,76.9h-2.5V80h2.5V76.9z M12.8,80 M29.3,160.2
		c-0.1-0.6-0.2-1.1-0.2-1.7c0-0.6-0.1-1.2,0.3-1.7c-0.8-0.2-1.6-0.1-2.3-0.1v3.7C27.8,160.2,28.5,160.8,29.3,160.2 M30.7,104.7
		c0.2-1,0-2-0.1-3.1c0.1-0.1,0.2-0.1,0.4-0.3c-1-0.3-1.8-0.2-2.6-0.1v3.4C29.2,104.6,29.9,104.6,30.7,104.7 M32.3,90.1v2.5
		c0.8,0.4,1.6,0.2,2.4,0.2v-3.1c-0.8-0.3-1.6-0.6-2.5-0.1c0.2,0.1,0.3,0.2,0.4,0.3C32.5,90,32.4,90,32.3,90.1 M29.7,97.1
		c-1.1,0-1.9-0.1-2.6,0.1v3c0.8,0.6,1.6,0.1,2.5,0.4c-0.1-1.1,0.2-2.1-0.3-2.9C29.3,97.5,29.4,97.4,29.7,97.1 M18.3,121.6
		c-0.8-0.3-1.6-0.2-2.4-0.1v3.6c0.8-0.3,1.6,0.3,2.4-0.1V121.6z M28.4,112.9c0.9,0,1.7,0.1,2.6-0.1c-0.1-0.7-0.2-3.1-0.1-3.2
		c-1-0.2-1.6-0.2-2.5,0V112.9z M38.8,93.8V97c0.8-0.2,1.6,0.4,2.5,0.1c0-1.1,0.1-2.2-0.1-3.4H38.8z M43.3,98.1v3.2
		c0.8,0.4,1.6,0.2,2.4,0.2c0-1.2,0.1-2.2-0.1-3.4C44.9,98,44.2,98.1,43.3,98.1 M29.5,126.2c-0.9-0.1-1.6-0.1-2.4-0.2
		c-0.2,1.1-0.2,3,0.1,3.9c0.7-0.6,1.5,0.2,2.3-0.2V126.2z M52.5,156.8c0.8,0.1,1.6,0.1,2.4,0.2c0.1-1.2,0.1-2.3,0-3.6h-2.4V156.8z
		 M31,29.8c-0.7-0.8-0.5-1.6-0.6-2.4c0-0.2,0-0.4,0-0.6c0-0.2-0.1-0.3-0.1-0.5c0.2-0.1,0.4-0.1,0.7-0.2c-1-0.5-1.8-0.3-2.6-0.3v3.9
		C29.3,29.8,30,30.2,31,29.8 M10,19.8c0.9,0,1.7,0.1,2.5,0.1v-3.8c-0.9,0-1.7-0.1-2.5,0.1V19.8z M27,116.8c0.3,0.1,0.7,0.2,1,0.4
		c0,0,0-0.1,0-0.1h1.4v-3.4c-0.8-0.3-1.6-0.2-2.4-0.2V116.8z M27,25c0.4,0.1,0.8,0.1,1.2,0.2c0.4,0.1,0.8,0.2,1.3,0l0.2-3.8H27V25z
		 M27,12.7v3.6c0.9-0.2,1.6,0.5,2.4,0.1v-3.5C28.6,12.7,27.9,12.4,27,12.7 M28.2,152.1v3.7c0.8,0.1,1.6,0.1,2.5,0.2
		c-0.2-1.1,0.3-2.3-0.3-3.4c0.1,0,0.1-0.1,0.3-0.2C29.9,152.3,29.1,152.2,28.2,152.1 M29.5,134.2c-0.1-1.3,0.1-2.5-0.1-3.7H27v3.5
		C27.9,134,28.6,134.1,29.5,134.2 M19.6,134.4c-0.9,0-1.7-0.1-2.4,0.1v3.6c0.9-0.2,1.6,0.3,2.4-0.1V134.4z M39.9,126.7
		c-0.9-0.1-1.6-0.2-2.4-0.3v3.8c0.9-0.4,1.6,0.4,2.4,0V126.7z M27,151.4c0.8-0.1,1.6,0.5,2.4,0.1v-3.6c-0.8,0.2-1.6-0.4-2.4-0.1
		V151.4z M13,138.7c-0.9,0-1.7-0.1-2.5,0.1v3.6c0.8,0,1.7,0.1,2.5-0.1V138.7z M4.9,121.2c0.7,1.3,0.2,2.5,0.4,3.6h2.5
		c0-0.6,0-1.2,0-1.7c0-0.6,0.1-1.2-0.1-1.8C6.8,121.1,6,121.2,4.9,121.2 M21.6,16c0.9,0,1.7,0.1,2.5-0.1v-3.6
		c-0.8,0-1.7-0.1-2.5,0.1V16z M13,151.1v-3.7c-0.8,0-1.7-0.1-2.6,0.1c0.1,1.2-0.1,2.4,0.1,3.6H13z M39.4,82.1
		c-0.8-0.4-1.2-0.4-2.9-0.3c-0.1,1-0.1,2-0.2,3.1c1,0.1,2,0.2,3.1,0.2V82.1z M51.3,143.7c-0.1-1.2,0.1-2.4-0.1-3.5h-2.9v3.3
		C49.2,143.6,50.2,143.6,51.3,143.7 M4.9,112.9c0.1,1.1,0.2,2.3,0.3,3.5c0.9-0.1,1.8,0.1,2.5-0.1v-3.4H4.9z M7.8,15.3
		c0-1.2,0.1-2.4,0-3.7c-0.9,0.1-1.8-0.1-2.6,0.1v3.5H7.8z M20.9,20.9v3.9h2.4v-3.6c-0.5-0.1-0.8-0.2-1.2-0.3
		C21.7,20.9,21.3,20.9,20.9,20.9 M5.8,16.1c0.2,1.2,0,2.5,0.2,3.7h2.5c0-1.2,0.1-2.4,0-3.7C7.5,16.1,6.7,15.6,5.8,16.1 M16.1,25.1
		c0,0.7,0,1.3,0,2c0,0.7-0.1,1.3,0.1,1.9h2.5c-0.1-1.3,0.1-2.6-0.1-3.9H16.1z M37.6,5v7.9h1.3c0.1-2.7-0.3-5.2-0.1-7.9H37.6z
		 M9.6,28.9c0.9,0.1,1.7,0.3,2.4,0.1v-4H9.3C9.4,26.2,9.5,27.6,9.6,28.9 M9,99.9c0.6,0,1.1,0,1.6,0c0.5,0,1.1,0.1,1.6-0.1v-3.4
		c-1.1,0-2.1-0.1-3.2,0.1V99.9z M9.8,113c0,1.2-0.1,2.3,0,3.4H13c-0.1-1-0.2-2-0.3-2.7c0.1-0.3,0.2-0.4,0.3-0.6H9.8z M9.2,88.4
		c0,0.1-0.1,0.2-0.1,0.3c0,1,0,2,0,3.1h3.2v-3.4H9.2z M39.3,143c0.9,0.7,2,0.1,3,0.4c0.1-1.3-0.3-2.5,0.2-3.7
		c-1.1-0.1-2.1-0.1-3.2-0.1V143z M16.2,50.1V47h-3.8v2.8C13.7,49.9,14.9,50,16.2,50.1 M11.2,95.8h1.5c0.1-0.1,0.2-0.2,0.3-0.4
		c0.1,0.2,0.2,0.3,0.2,0.3h1.7v-3.1c-1.2,0.1-2.4-0.5-3.6-0.2V95.8z M10.2,43.2c0,1.1-0.1,2.1,0.1,3c1.3,0.1,2.5-0.1,3.8,0.3
		c0-1,0.1-2-0.1-2.9C12.8,43.4,11.6,43.3,10.2,43.2 M14.5,142.4c1.1,0,2.2,0.1,3.2-0.1c-0.2-1.2,0.1-2.4-0.1-3.5h-3.1V142.4z
		 M43.1,144.1c-0.1,2.9-0.1,3,0.3,3.6c1.1-0.3,2.2,0.4,3.4-0.1c-0.1-1.1-0.5-2.3,0-3.5H43.1z M9.9,24.3c0-0.7,0-1.3,0-2
		c0-0.7,0.1-1.3-0.1-1.9H6V24C7.3,24.1,8.5,24.2,9.9,24.3 M4.5,108.7c0.2,0.3,0.3,0.4,0.4,0.6c-0.1,0.2-0.3,0.4-0.4,0.6
		c0.2,0,0.3,0,0.5,0v2.2c1.3,0,2.6,0.1,3.9,0v-3.4H4.5z M16.5,11.5c0.1-2.7,0-5.3,0-8.1c-0.7,0.1-1.3-0.1-1.8,0.1v7.8
		C15.3,11.3,15.9,11.4,16.5,11.5 M9.7,125.7c-0.7-0.3-1.4-0.1-2.2-0.1c-0.7-0.1-1.5-0.1-2.4-0.1c0.6,1.2,0.2,2.4,0.4,3.6
		c1.4,0,2.7,0,4.2,0V125.7z M39.7,5.1c0,2.7-0.3,5.3,0.1,8.1c0.6,0,1.2,0.1,1.7,0.1c0.2-1.5,0.1-7.1,0-7.9
		C40.9,5.2,40.3,5.2,39.7,5.1 M4.4,100.5c0.1,1.2,0.3,2.3,0.4,3.4c0.7,0,1.4,0,2.1,0c0.7,0,1.4,0.1,2-0.1v-3.4H4.4z M49.8,159.9
		c0,0.4,0.1,0.7,0.1,1.1c0.6,0.3,1.2,0.3,1.8,0.3s1.2,0.1,1.9,0c0-0.7,0-1.2,0-1.8c0-0.6,0.1-1.2-0.1-1.8c-0.6-0.1-1.2-0.1-1.7-0.1
		c-0.5,0-1.1,0-1.7,0v2.2h-1c0-0.8,0.1-1.5,0.1-2.3c-0.2,0-0.4,0.1-0.5,0.1v3.6h0.5v-1.1C49.4,159.9,49.6,159.9,49.8,159.9
		 M8.2,42.6c1.6,0.2,4.5,0.1,5.3-0.1c0-0.8,0.1-1.7,0-2.6c-1.8,0.1-3.5-0.5-5.3-0.1C8.1,40.8,8,41.7,8.2,42.6 M4.2,92.4
		c0.1,1.1,0.2,2.1,0.3,3.1c1.4,0.2,2.9,0.1,4.4,0.1c0.1-1.1,0-2.2,0.1-3.3H4.2z M46.9,5.9c-0.1,2.7-0.1,5.3,0,7.9
		c0.7,0.1,1.2,0.2,1.8,0V6C48.2,6,47.6,6,46.9,5.9 M32.9,122.2v3.5h1.8v-2.9h0.7v3.2c0.3-0.1,0.5-0.2,0.6-0.3v-3.5
		c-0.2-0.1-0.4-0.2-0.7-0.3c0-1.2,0-2.5,0-3.7c0-0.1-0.1-0.2-0.1-0.3c-0.3,0-0.6,0-0.9,0.1c-0.5,1.3-0.3,2.5-0.3,3.8
		c0.2,0.1,0.4,0.2,0.8,0.4C34.1,122.1,33.5,122.2,32.9,122.2 M14.3,53.6c0.9,0,1.8,0,2.6,0c0.9,0,1.7,0.5,2.6,0.1v-2.8
		c-1.8-0.3-3.5-0.5-5.3-0.3V53.6z M34.8,12.6c0.2-2.6-0.1-5.2,0-7.9c-0.6-0.3-1.2-0.1-1.9-0.1c-0.2,2.5-0.1,7.1,0.1,7.9
		C33.6,12.5,34.2,12.6,34.8,12.6 M12.5,11.3c0-1.5,0-2.8,0-4.1c0-1.3,0-2.6,0-3.9c-0.4,0-0.6-0.1-0.9-0.1c-0.3,0-0.6-0.1-1-0.1
		c-0.4,2.8,0.2,5.4,0.1,8.1C11.3,11.3,11.8,11.3,12.5,11.3 M45,152.1c1.5-0.3,2.9,0.5,4.3,0.1v-3.6H45V152.1z M9.6,120.6
		c0-1.2,0.1-2.3-0.1-3.5c-0.8,0-1.6-0.1-2.3,0c-0.8,0.1-1.5-0.4-2.3-0.1c0.1,0.4,0.2,0.7,0.3,1.1c0,0.3,0.1,0.6,0,0.9
		c-0.1,0.3-0.2,0.6-0.3,0.8c0.1,0.3,0.2,0.5,0.3,0.8H9.6z M17.3,11.5c0.4,0,0.7,0.1,1,0.1s0.6,0,0.9-0.1V3.6c-0.7,0-1.3-0.1-2,0
		V11.5z M55,144.6c-0.9,0-1.7,0-2.5,0c-0.8,0-1.6-0.5-2.3-0.1v3.6c0.8,0,1.6,0,2.4,0c0.8,0,1.6,0.5,2.4,0.1V144.6z M5.2,137.7
		c0.1,0.1,0.1,0.1,0.2,0.2c0.8,0,1.6,0,2.5,0c0.8,0,1.7,0.1,2.5-0.1v-3.6H5.5c0.3,0.6,0.3,1.2,0.1,1.7
		C5.4,136.6,5.9,137.2,5.2,137.7 M46.1,13.6V5.8c-0.4,0-0.8,0-1.2-0.1c-0.4-0.1-0.8-0.3-1.3,0v7.8C44.4,13.3,45.2,13.9,46.1,13.6
		 M6.5,11c0.9,0.2,1.8,0.1,2.7,0.1C9.1,8.4,9,5.8,8.9,3.1c-0.8,0-1.7-0.1-2.5,0V11z M22,3.9c0.1,2.6,0.2,5.2,0.3,7.9
		c0.9,0,1.7,0.1,2.5,0c0-2.7,0-5.2,0-7.8H22z M27.5,4.3c0,2.6-0.1,5.2,0.2,7.7c0.9,0,1.7,0.5,2.5,0.2V4.2
		C29.3,4.6,28.5,3.8,27.5,4.3 M8.5,160.2v-4.5c0.7,0,1.2-0.1,1.8-0.1V152c-0.3-0.1-0.7-0.3-0.9-0.3c-0.9,0.3-1.9,0.1-2.8,0.1
		c-0.2,0-0.4,0.1-0.6,0.1c0.1,0.7,0.1,1.2,0.1,1.8c0,0.6,0,1.2,0,1.7c0.7,0.3,1.5-0.2,2.1,0.5c-0.7,0.6-1.8,0.2-2.6,0.7
		c0.1,0.1,0.2,0.2,0.3,0.3c0.1-0.2,0.2-0.3,0.4-0.5c0.1,1.4,0,2.6,0.1,3.8C7.2,160.3,7.7,160.2,8.5,160.2 M34,151.6
		c0-1.2,0-2.5-0.1-3.7h-1.8c0,1.2-0.1,2.4,0,3.7L34,151.6c0,0.2,0,0.4,0,0.6c-0.2,0.1-0.4,0.2-0.6,0.2c0,0.6,0,1.2,0,1.7
		c0,0.6-0.1,1.2,0.1,1.8h1.7v-3.6c-0.2-0.1-0.4-0.1-0.6-0.2c0-0.2,0.1-0.3,0.1-0.6C34.4,151.7,34.2,151.7,34,151.6 M35.9,134.4
		c0.2,0,0.4-0.1,0.7-0.1c0-1.2,0-2.3,0-3.5c0,0-0.1-0.1-0.2-0.1c-0.4,0.6-0.5,1.3-0.4,2C36.1,133.2,36.1,133.8,35.9,134.4
		c-0.1,0-0.3,0-0.5,0c0-1.2,0-2.5,0-3.7h-1.3v3.7h1.3H35.9z M46.5,109.8c0.1,0,0.3-0.1,0.5-0.1c0-1,0-2,0-3c0-0.1-0.1-0.3-0.2-0.4
		c-0.1,0-0.1,0-0.2,0L46.5,109.8l-0.6,0.1c0,0.1,0,0.1,0,0.2C46.2,110,46.4,109.9,46.5,109.8 M1.2,160.4c-0.1,0.2-0.1,0.4-0.3,0.8
		C1.3,160.8,1.5,160.6,1.2,160.4c0.4-0.9,0.1-2,0.2-3c-0.2,0.5-0.3,0.9-0.4,1.4c0,0.3,0,0.6,0,0.9C1,159.9,1.1,160.1,1.2,160.4
		 M3.6,132.3c0,0.2,0,0.4,0,0.8C3.8,132.7,3.9,132.4,3.6,132.3c0.1-0.5,0.2-1,0-1.5C3.4,131.2,3.1,131.7,3.6,132.3 M4,155.2
		c0-0.1,0-0.3-0.1-0.6c-0.2,0.2-0.3,0.3-0.5,0.5C3.8,155.1,3.9,155.1,4,155.2c-0.2,0.4-0.4,0.9,0.2,1.6C4.2,156.1,4.4,155.6,4,155.2
		 M4.7,130.6c0-0.3-0.1-0.6-0.1-1.1C4.5,130.1,4.4,130.4,4.7,130.6c0.1,0.5,0.3,1,0.4,1.5c0,0,0.1,0,0.1,0v-1.7
		c0.5,0.1,0.5,0.5,0.5,0.9c0,0.7,0,1.5,0,2.3c0.7-0.1,1.4-0.1,2.1-0.2c-0.1-1.2,0.1-2.3-0.1-3.4H5.3c0,0.2-0.1,0.3-0.1,0.4
		C5.1,130.5,4.9,130.6,4.7,130.6 M2.8,147.9c-0.1-0.1-0.2-0.3-0.4-0.5c0,0.3,0,0.5,0,0.6C2.6,147.9,2.7,147.9,2.8,147.9
		c0.1,0.7-0.2,1.4,0.4,2.1c-0.1-0.6-0.1-1-0.2-1.5C3,148.3,2.9,148.1,2.8,147.9 M4.1,150.5c0-0.1-0.1-0.1-0.2-0.2
		c-0.1,0.3-0.2,0.5-0.3,0.7c-0.1,0.2-0.1,0.4-0.2,0.5l0.2,0.1c0.1-0.2,0.3-0.5,0.4-0.7c0.1,0,0.3,0.1,0.4,0.1v-0.7
		C4.3,150.4,4.2,150.5,4.1,150.5 M48,162.3h-1.4c0.1-0.1,0.1-0.3,0.1-0.4c-0.5-0.5-1.1-0.2-1.7-0.2c0,0.3-0.1,0.4-0.1,0.6h-1.4
		c-0.1-0.2-0.1-0.4-0.2-0.7c-0.1,0-0.1,0-0.2,0c0,0.2-0.1,0.4-0.1,0.6h-0.7c0-0.2-0.1-0.4-0.1-0.6h-0.4c-0.1,0.2-0.1,0.4-0.2,0.6
		h-0.7c0-0.2,0.1-0.4,0.1-0.7c-0.6-0.3-1.2-0.3-1.8,0c0,0.3,0,0.5,0.1,0.7h-1.4c0-0.3-0.1-0.6-0.1-0.9c-0.2,0-0.4,0-0.5,0.1
		c0,0.3-0.1,0.6-0.1,0.8H35c-0.1-0.2-0.2-0.4-0.2-0.6c0.2-0.1,0.3-0.2,0.4-0.3c-0.6-0.1-1.2-0.1-1.7-0.1c0,0.3-0.1,0.7-0.1,1h-2.6
		c0-0.4-0.1-0.7-0.1-1.1h-2.4c0,0.4-0.1,0.8-0.1,1.1h-3.3c0-0.4-0.1-0.9-0.1-1.3H23c0,0.4-0.1,0.8-0.1,1.3h-1.4
		c0-0.4,0.1-0.8,0.1-1.2c-0.1,0-0.3-0.1-0.5-0.2c0,0.5-0.1,1-0.1,1.4h-1.4c0-0.4-0.1-0.9-0.1-1.3h-1.7c0,0.5,0,0.9-0.1,1.3h-1.4
		c-0.1-0.4,0.1-0.9-0.2-1.5c-0.4,0.6-0.2,1.1-0.2,1.5h-2.1c0-0.5-0.1-0.9-0.1-1.3h-1.7c0,0.5-0.1,0.9-0.1,1.3h-1.4
		c0-0.5-0.1-0.9-0.1-1.3c-0.7-0.1-1.3-0.3-1.9-0.3c-0.6,0-1.2,0-1.8-0.1c-0.7,0.5-0.4,1.1-0.5,1.6H5c-0.2-0.3,0.3-0.7-0.3-0.9
		c0.5-1.1,0.6-2.4,0.3-3.9c-0.1,0-0.2,0.1-0.3,0.1c0.1-0.3,0.2-0.6,0.3-1c0.1-0.2,0.2-0.4,0.2-0.6c0-0.9,0.1-1.8,0.3-2.7
		c0.1-0.3,0.2-0.7-0.2-0.9l0,0c0.1-0.7,0.1-1.4,0.1-2c0-0.5,0.3-1-0.2-1.5c0.1-0.4,0.2-0.8,0.3-1.2c0.5,1.1,0.4,2.3,0.2,3.5h3.1
		v-3.7c-1.2-0.2-2.3,0.1-3.4-0.2c0-0.2,0.1-0.4,0.1-0.6h4.6v-3.8c-0.9,0-1.7,0-2.5,0c-0.8,0-1.6,0.2-2.3-0.3
		c0.7-0.4,1.5-0.2,2.3-0.3c0-0.6,0-1.2,0-1.8c0-0.6,0.1-1.2-0.1-1.8c-0.8,0-1.4-0.1-2.1-0.1c-0.1,0.4-0.2,0.9-0.3,1.4
		c0,0.3,0.1,0.6,0.1,0.9c0,0,0.1,0.1,0.1,0.1c-0.1,0.3-0.3,0.5-0.4,0.8c0.2,1,0.1,2,0,2.9h0.2c0,0,0.1,0.1,0.1,0.1
		c-0.2,0.4-0.4,0.7-0.5,0.9c0,1.1,0.1,2,0.1,3h0.4c-0.2,0.3-0.4,0.7-0.7,1.1c0,0.8,0,1.7,0,2.6c0,0.7-0.1,1.3-0.5,1.8
		c0.5,1.1,0.2,2.1,0.1,3.2c0.2,0,0.3,0,0.4,0c-0.1,0.2-0.3,0.5-0.4,0.7c0.1,0.2,0.1,0.4,0.2,0.7c-0.2,0.1-0.5,0.3-0.7,0.5v1.2
		c0.1-0.1,0.2-0.1,0.3-0.1c0.1,0.3,0.1,0.6,0.2,0.9c0.1,0,0.3,0,0.4,0.1c0.1,0.5-0.3,0.6-0.5,0.9H3.3c0.1-1.1-0.1-2.2,0.2-3.3
		c0.1,0,0.2-0.1,0.4-0.1v-1.4c-0.1,0-0.1,0-0.1,0c-0.1,0.5-0.3,1-0.4,1.6c-0.1,0.3-0.2,0.6-0.2,0.9c-0.1,0.8,0,1.6-0.1,2.4H2.1
		c0-0.6-0.1-1.2-0.1-1.8c-0.2,0.1-0.3,0.3-0.3,0.4c0,0.5,0.1,0.9,0.2,1.3H0.7c-0.1-0.2-0.1-0.3-0.2-0.5c0.2-0.8,0.2-2.8,0-3.7
		L0.5,158c0.1-0.2,0.3-0.5,0.4-0.6c0.1-1.1,0.1-2.2,0.2-3.3c-0.2,0.2-0.5,0.4-0.7,0.6c-0.1-0.1-0.1-0.1-0.1-0.1
		c0.2-0.3,0.5-0.7,0.7-0.9c0.1-1.1,0.2-2.2,0.3-3.3c-0.1,0-0.2,0.1-0.3,0.1c0,0-0.1-0.1-0.1-0.1c1-1.3,0.9-2.7,0.9-4.3
		c-0.2,0.1-0.3,0.1-0.4,0.2l-0.1-0.1c0.1-1.1,0.2-2.2,0.3-3.4H0.9c0.1-0.5,0.4-0.7,0.8-0.9c0.1,0.3,0.1,0.6,0.1,0.9
		c0,0.3,0,0.5,0,0.8c0,0.3,0.1,0.6,0.1,0.9c0,0.2,0,0.4-0.1,0.6c0.5-1.1,0.1-2.3,0.4-3.4c-0.2,0.1-0.4,0.2-0.6,0.2
		c0.1-0.6,0.2-1.1,0.2-1.7c0-0.8-0.1-1.6-0.2-2.4c-0.1-0.9,0.1-1.9,0.1-2.9c-0.1,0.1-0.2,0.1-0.3,0.2c0,0-0.1-0.1-0.1-0.1
		c0.3-0.5,0.5-0.9,0.7-1.2c0.1-1.2,0.2-2.2,0.3-3.2c-0.2,0.1-0.3,0.1-0.4,0.2l-0.1-0.1c0.1-1,0.2-2.1,0.3-3.3
		c-0.3,0.3-0.4,0.5-0.6,0.7c0-0.6,0.3-1.2,1.1-1.8c-0.1,0.2-0.1,0.5-0.1,0.7c0.3-0.3,0.3-0.3,0.1-0.7c0-1.1-0.1-2.2,0.1-3.2
		c-0.2,0.1-0.4,0.2-0.6,0.4l-0.1-0.1c0.4-1,0.2-2.1,0.2-3.2H1.7c0.5-0.5,0.8-0.9,1.2-1.3l0.2,0.5c0.1,0,0.1,0,0.2-0.1
		c0-0.2,0-0.3,0-0.5C3.1,119,3,119,2.8,119.1c0.1-1.1,0.1-2.1,0.2-3.2c-0.2,0.1-0.3,0.1-0.4,0.2L2.6,116c0.1-1,0.1-2.1,0.1-3.1
		c-0.1,0-0.2,0-0.4,0c0.1-0.2,0.2-0.4,0.3-0.6c0.5-0.7,0.7-1.5,0.7-2.4c0-0.5,0.1-1,0.1-1.5c-0.1,0-0.2,0.1-0.3,0.1
		c0,0-0.1-0.1-0.1-0.1v-2.8c-0.2,0.3-0.4,0.5-0.5,0.7c0.1-0.9,0.8-1.5,1-2.2c0.1-1,0.2-1.9,0.2-2.8H3.3c0-1,0.1-1.9,0.1-2.8
		c-0.1,0-0.2,0-0.4-0.1c0.3-0.4,0.6-0.7,0.8-1.1c0.1,0.1,0.1,0.3,0.2,0.4l0.2,0c0-0.2,0.1-0.4,0.1-0.6c0.4,0.1,0.3,0.4,0.3,0.7
		c0.1,0.7-0.1,1.4,0.1,2h2.2v-3.3H4.3c0,0.3,0,0.5,0,0.6c-0.2,0.1-0.3,0.2-0.5,0.2c0.1-0.9,0.1-1.9,0.2-2.8c0-0.1-0.1-0.1-0.1-0.2
		c-0.1,0-0.2,0-0.4,0.1c-0.1-1.1,0.6-2.2-0.1-3.2c0.2-0.4,0.4-0.7,0.7-1.2c0,0.7,0.1,1.2,0.1,1.7h2.5v-3.2c-0.9-0.2-2,0.2-3-0.2
		c-0.2,0.1-0.3,0.2-0.5,0.3c0,0-0.1-0.1-0.1-0.1c0.2-0.3,0.5-0.7,0.7-1c0,0,0.1,0.1,0.1,0.1c1.6,0.3,3.2,0,4.8,0.2v-3.3
		c-1.4,0-2.6,0-3.9,0c-0.3,0-0.6,0-0.9,0c-0.1,0-0.2-0.3-0.5-0.6h2.5v-3.1c-0.9-0.1-1.7-0.1-2.5-0.2c0-0.2,0.1-0.4,0.1-0.6h3.9
		c0-1.1,0.1-2.2-0.1-3.2c-0.7,0-1.4,0-2.1,0c-0.7,0-1.4,0.1-2-0.3c1.1-0.5,2.3-0.1,3.5-0.3c0-1.1,0.1-2.1-0.1-3.2H3.3
		c0-0.3,0-0.4,0-0.6c1.4,0,2.8,0.2,4.2,0v-3.4H5.9c-0.5,0-0.9,0-1.4,0c-0.5,0-1,0.2-1.4-0.3c1-0.4,2-0.1,3-0.3v-3.1
		c-1-0.2-2,0.2-3-0.4c0.2-0.1,0.4-0.2,0.6-0.2c1,0,2,0,3.1,0c0.3,0,0.5-0.1,0.7-0.1v-3.1c-0.5,0-0.8-0.1-1.2-0.1c-1,0-2,0-2.9,0
		c-0.2,0-0.3-0.1-0.5-0.2c0-0.1,0-0.2,0-0.3c1.1-0.2,2.2,0,3.3-0.2c0-1,0-2,0-2.9c-0.7,0-1.3,0-1.9,0c-0.5-0.1-1.2,0.2-1.7-0.5
		c0.9-0.7,2,0,2.8-0.4v-2.9c-0.8,0-1.6,0-2.4,0c-0.1,0-0.2-0.2-0.4-0.3c1.1-0.3,2.1-0.2,3.1-0.2c1,0,2,0.1,3-0.1v-2.9
		c-2.1-0.1-4.1-0.1-6.2-0.1c0,0-0.1-0.1-0.1-0.1c0-0.1,0.1-0.3,0.1-0.5c1.9,0,3.7,0.4,5.5,0.1c0-1,0-1.9,0-2.8
		c-1.8-0.1-3.5-0.2-5.2-0.3c-0.3,0-0.6,0.1-0.6-0.4c1-0.3,2.2,0,3.2-0.2v-2.7c-1.1-0.1-2.1-0.1-3.2-0.2c0.1-0.2,0.1-0.4,0.1-0.5h5
		v-2.8c-1.8-0.1-3.5,0-5.4-0.1C1.9,39.4,2,39.2,2,39h3.1v-2.8c-0.6,0-1.2,0.1-1.8,0c-0.5-0.1-1.2,0.3-1.7-0.5c1.7,0,3.3,0,4.9,0
		v-2.8c-0.6,0-1.1,0-1.7,0c-0.6,0-1.2-0.1-1.8-0.2c-0.5-0.1-1.1,0.2-1.6-0.4c0.7-0.3,1.2-0.2,1.8-0.2c0.6,0,1.2,0,1.8,0v-2.8
		c-0.7,0-1.3,0-1.9,0c-0.6,0-1.2,0.1-1.9-0.2C2.1,28.4,3,29,3.8,28.7c0-0.7,0-1.3,0-2c0-0.7,0.1-1.4-0.1-2.1C2.8,24.5,2,24.8,1,24.4
		c0.7-0.6,1.4-0.1,2-0.5c0-0.5,0-1.1,0-1.7C3,21.6,3.1,21,3,20.4c-0.7-0.2-1.4-0.1-2.2-0.5c1.1-0.5,2-0.1,3-0.4
		c-0.1-1.2-0.2-2.4-0.3-3.5c-1-0.2-1.9,0.1-2.8-0.2c0.2-0.3,0.3-0.5,0.4-0.7c0.6,0.4,1.1,0.4,2.4,0.2c0-1.2,0-2.3,0-3.5
		c-1-0.3-2.1,0.2-3.1-0.5C0.7,11.1,0.8,11,1,11c0.9,0,1.8,0.1,2.7,0.1c0.4,0,0.8,0.1,1.3-0.1c0-1.3,0-2.6,0-3.9c0-1.3,0.1-2.6-0.1-4
		H0.3c-0.4-1-0.4-1.6-0.1-2.7c1.8-0.1,3.5-0.2,5.3-0.3C8.9,0,12.3,0,15.7,0c2.2,0,4.4,0,6.6,0.1c2.9,0.2,5.8-0.1,8.7,0.3
		c1.5,0.2,3,0,4.5,0.2c2,0.2,4,0.2,6,0.3c1.7,0.1,3.5,0.2,5.2,0.3c0,0,0.1,0,0.1,0c1.8,0.1,3.6,0.3,5.4,0.4c0.2,0,0.5,0.1,0.6,0.1
		v4.6C51.8,6.8,51,6,50.1,6.4c0.1,2.6-0.1,5.1,0,7.7c0.9,0.1,1.6,0.2,2.4,0.3c0.1,0,0.2,0.2,0.3,0.4c-1.2,0.5-2.2-0.4-3.3,0
		c-0.1,1.1-0.1,2.1-0.2,3.1c0,0.2,0.1,0.3,0.2,0.5c1.1,0.1,2.1,0.2,3.1,0.3c0.1,0,0.2,0.2,0.4,0.4c-1.1,0.3-2-0.1-3-0.1v3.7
		c1,0.6,2.2,0.3,3.3,0.8c-0.1,0.2-0.1,0.3-0.1,0.3c-1.1,0.2-2-0.4-3.1-0.4c-0.2,0.7-0.1,1.4-0.1,2c0,0.7,0,1.3,0,2
		c0.7,0.1,1.3,0,1.8,0.2c0.5,0.2,1.3-0.2,1.7,0.5c-1,0.3-1.9,0-2.9-0.1c0,0.7,0,1.3,0,2c0,0.7-0.1,1.3,0.1,1.9
		c1.5,0.1,2.5,0.3,3,0.6c-1,0.7-2.1-0.3-3,0.1v2.7c0.6,0.1,1.2,0.2,1.8,0.2c0.4,0.1,0.8,0.1,1.2,0.2c0.1,0,0.2,0.3,0.4,0.7
		c-1.1-0.3-2-0.4-2.8-0.2v2.6c0.5,0.1,1,0.1,1.5,0.3c0.5,0.2,1.1-0.2,1.5,0.4c-1,0.6-2-0.3-3,0.1V42c1,0.6,2.3,0,3.2,0.9
		c-1.1,0.2-2.2-0.3-3.2,0v2.6c0.9,0.1,1.8,0.2,2.7,0.3c0.3,0,0.6,0.1,0.8,0.6c-1-0.1-1.9-0.1-2.8-0.1V49c1,0.5,2.1,0.1,3.1,0.8
		c-0.6,0.4-1.1,0.1-1.6,0.1c-0.5,0-1,0-1.5-0.1v2.7c1,0.7,2.2,0.1,3.3,0.8c-0.2,0.2-0.3,0.3-0.3,0.3c-1.5-0.1-2.9-0.4-4.3-0.4v2.9
		c0.8,0.1,1.6,0.3,2.3,0.3c0.7,0.1,1.5-0.1,2.2,0.6c-0.5,0.3-0.9,0.2-1.3,0C53.7,57,53.2,57,52.7,57c0,1.1-0.1,2,0.1,3
		c1.4,0.1,2.2,0.3,2.8,0.6c-0.5,0.3-1.1,0.2-1.6,0.2c-0.5,0-1-0.2-1.5-0.2c-0.5-0.1-1.1-0.1-1.7-0.1v3.1c0.2,0,0.4,0.1,0.6,0.1
		c1.1,0.1,2.3,0.2,3.4,0.3c0.4,0,0.9,0,1.1,0.6c-0.9,0.5-1.7-0.5-2.6,0.1v2.9c0.6,0.1,1.1,0.2,1.6,0.2c0.3,0,0.6,0,0.8,0.1
		c0.1,0.1,0.2,0.3,0.3,0.5c-1.6,0.1-3.1-0.5-4.7-0.3v3c0.6,0.1,1.2,0.1,1.9,0.2c0.9,0.1,1.8,0.2,2.7,0.3c0.1,0,0.2,0.2,0.4,0.3
		c-1.3,0.4-2.5-0.2-3.7-0.1v3.1c1.3,0.1,2.5,0.3,3.7,0.4c0,0.2,0,0.4,0,0.6c-1.7-0.1-3.3-0.3-4.8-0.4v3.1c1.7,0.2,3.4,0.4,5,0.6v0.7
		c-0.8-0.2-1.6-0.4-2.5-0.1c0.2,1.1-0.5,2.1-0.1,3.1c1.9,0.1,2.5,0.3,2.8,0.8c-1.6,0.3-3.2-0.5-4.8-0.1v2.9c1.6,0.4,3.3,0.3,4.9,0.6
		c0,0.2,0,0.4-0.1,0.6c-0.5-0.1-1-0.2-1.4-0.2c-0.5,0-1,0-1.5,0v3.1c1,0.1,1.9,0.2,2.9,0.4c0.1,0,0.3,0.2,0.4,0.3
		c0,0.1,0,0.2-0.1,0.2c-0.7,0-1.4,0.1-2.2-0.1c-0.7-0.2-1.5-0.1-2.3-0.2v3.2c0.8,0.1,1.6,0.2,2.4,0.3c0.8,0.1,1.7-0.2,2.5,0.6
		c-1,0.5-2-0.4-2.9,0.1v3.1c0.8,0.1,1.6,0.2,2.4,0.3c0.3,0,0.6,0.1,0.6,0.6c-0.7,0.3-1.4-0.2-2.2-0.1c-0.7,0.1-1.4-0.1-2.2-0.1
		c0,1.1-0.1,2.2,0.1,3.3c1.5,0.1,2.9,0.3,4.4,0.4c0.1,0.2,0.1,0.4,0.2,0.6c-1,0.1-1.8-0.4-2.7,0v3.1c0.9,0.1,1.8,0.2,2.7,0.3
		c0,0.2,0,0.4,0,0.7c-0.9-0.1-1.6-0.2-2.4-0.2c-0.8-0.1-1.5-0.1-2.2-0.2v3.4c1.3,0.1,2.5,0.2,3.7,0.3c0.3,0,0.6,0.1,0.9,0.2
		c0.1,0.1,0.2,0.2,0.4,0.5c-0.7,0-1.2,0-1.7,0c-0.5,0-0.9-0.5-1.4-0.1v3.3c1.1,0.1,2.1,0.3,3.3,0.4c-0.1,0.3-0.2,0.4-0.2,0.5
		c-0.9,0-1.8,0-2.6-0.1c-0.8-0.1-1.6-0.3-2.4-0.1v3.3c1.7,0.1,3.4,0.3,5.1,0.4c0.1,0.2,0.1,0.4,0.2,0.5c-1,0.5-2-0.3-2.9,0v3.3
		c1,0.1,2,0.3,3,0.4c0,0.2-0.1,0.4-0.1,0.5c-0.9,0-1.7-0.1-2.4-0.1c-0.8,0.1-1.6-0.5-2.4-0.2v3.4c1.3,0.1,2.5,0.1,3.7,0.2
		c0.4,0,0.7,0.1,1,0.2c0.1,0,0.3,0.2,0.6,0.5c-0.7,0-1.1,0.1-1.5,0c-0.4,0-0.8-0.1-1.2-0.1v3.5c0.8,0.1,1.6,0.2,2.4,0.4
		c0.1,0,0.2,0.2,0.5,0.4c-1.7,0.4-3.3-0.3-5-0.1v3.5c1.3,0.1,2.5,0.1,3.7,0.2c0.3,0,0.6,0.1,0.9,0.2c0.1,0.1,0.2,0.3,0.5,0.5
		c-0.9,0-1.7,0.1-2.4,0.1v3.4c0.9,0.2,1.8-0.2,2.6,0.7c-1.6,0.5-3-0.3-4.5,0c0,0.6,0,1.2,0,1.8c0,0.6-0.1,1.2,0.1,1.8
		c1.6,0.1,3.1-0.1,4.6,0.4c0,0.2,0,0.3-0.1,0.4h-2.7c-0.1,1.1-0.1,2.2-0.2,3.4c1,0.1,2,0.2,3,0.3c0.1,0.2,0.1,0.3,0.2,0.6
		c-0.3,0-0.5,0.1-0.7,0.1c-1-0.3-2.1-0.2-3.2-0.2c-0.3,0-0.7,0-1-0.1c-0.7-0.2-1.3-0.2-1.9-0.1v3.6c2.3,0.1,4.5,0.3,6.8,0.4v0.6
		h-3.1c-0.2,0.8-0.2,2.5,0,3.5c0.6,0.1,1.1,0.2,1.6,0.3c0.6,0.1,1.2,0,1.8,0.2c0,0.2,0,0.3,0,0.4h-4.7c0,1.1-0.1,2.3,0,3.5
		c1.3,0.1,2.5,0.2,3.7,0.2c0.6,0,1,0.1,1.2,0.7h-2.4c-0.2-0.3-0.5-0.3-0.7,0h-0.7c-0.2-0.3-0.5-0.3-0.7,0h-0.7
		c-0.4-0.3-0.8-0.3-1.2,0h-1.9c0-0.1-0.1-0.2-0.1-0.4H50c-0.1,0.2-0.1,0.3-0.1,0.4h-1.2c-0.1-0.1-0.2-0.4-0.3-0.4
		C48,161.7,48,162,48,162.3L48,162.3z"/>
</g>
</svg>
