<?xml version="1.0" encoding="utf-8"?>
<!-- Generator: Adobe Illustrator 25.0.0, SVG Export Plug-In . SVG Version: 6.00 Build 0)  -->
<svg version="1.1" id="Layer_1" xmlns="http://www.w3.org/2000/svg" xmlns:xlink="http://www.w3.org/1999/xlink" x="0px" y="0px"
	 viewBox="0 0 90 97.5" style="enable-background:new 0 0 90 97.5;" xml:space="preserve">
<style type="text/css">
	.st0{fill:#FFFFFF;}
</style>
<g>
	<path class="st0" d="M58.7,97.2c-0.9-0.6-0.6-1.6-0.6-2.4c0-8,0-16.1,0-24.1c0-0.6,0-1.2,0-1.8c-0.4-0.3-0.7-0.6-1.2-1
		c0.3-0.8,0.6-1.6,0.9-2.6c-0.1-0.3-0.1-0.8-0.2-1.3c-0.6-3-2.4-5-4.9-6.7c-3.5-2.3-7.1-2.5-11-1.7c-2.7,0.5-4.9,2-6.7,4
		c-0.6,0.7-1.1,1.5-1.4,2.4c-0.4,1.1-0.9,2.2-1.3,3.3c0.3,1,1.8,1.3,1.3,2.8c-0.4,0.2-0.8,0.4-1.4,0.7v28.5H2.6v-8.4
		c1.3-1.1,1.4-2.8,1.4-4.7c0-6.6,0-13.2,0.1-19.7c0-2.9,0.4-5.8,0.4-8.8c0-1.5-0.3-3.1-0.4-4.6c-0.1-0.6,0-1.1,0-2.1
		c0.7,1.5,1.3,2.6,1.9,4c1.3-1.3-0.5-2.3,0.2-3.3c1.5-2,1.9-2.1,4-0.9l0,16.8h1V48.1l0.4-0.4h5.2c0.2,0.3,0.4,0.7,0.6,1h6.2
		c0.1-0.2,0.4-0.6,0.5-0.9h6.5c-2.3,5.9-1.6,11.8-1,17.7c0,0.3,0.4,0.5,0.8,1c0.6-1.7,1.2-3.1,1.6-4.7c0.4-1.7,1.3-3,2.5-4.1
		c1.1-1,2.5-1.9,3.8-2.5c1.4-0.7,3-1,4.7-1.5v-3.8c1.6-0.4,3.1-0.4,4.7,0c-0.2,1.3-0.4,2.4-0.6,3.7c2.4,0.9,4.8,1.1,6.8,2.5
		c2,1.4,3.3,3.4,4.6,5.5c0.3,1.6,0.1,3.5,2,5.1c0.3-6.5,1.5-12.6-0.7-18.9c2.3-0.3,4.2-0.1,6.1-0.2c0.3,0.3,0.7,0.7,1,1.1h5.8
		c0.3-0.3,0.5-0.6,0.9-1.1h5.5v18h1v-18h3.8c0.7-0.9,1.4-1.7,1-3H16.8c-0.3-1.4-2-1.8-1.8-3.4c1.4-0.7,2.2,0.5,3.3,1
		c0.3-0.4,0.6-0.7,1.1-1.3h9.9c0.2-0.9,0.4-1.6,0.6-2.3c2-0.5,25.1-0.7,30.4-0.2c0.2,0.7,0.5,1.5,0.8,2.4h16.1
		c0.1-0.7,0.2-1.5,0.3-2.4c1,0,1.9-0.1,2.8-0.1c2.3,0,4.7,0,7,0c0.7,0,1.4,0.1,1.9-1H77.4C77.3,36,77.3,35,77.2,34
		c0.4-0.5,0.7-0.9,1-1.3v-9.6H36.7c-1.3,0-2.6,0.3-3.7-0.8c-0.3-0.3-1.2-0.1-1.7-0.2c0-0.3,0-0.4,0-0.5c0.1-0.1,0.1-0.1,0.2-0.1
		c15.4,0,30.8,0,46.2,0c0.3-0.5,0.4-0.9,0.7-1.4H66.8c-0.3-0.6-0.5-1-0.8-1.6H24.2c-0.3,0.4-0.7,0.9-1.1,1.4h-11
		c-0.1,0.5-0.1,0.9-0.3,1.5h17.9v1.6h-8c0.5,1.2,0.8,2.2,1.2,3c0.6,0.1,0.9,0.1,0.9,0.1c0.9,1.4,2.7,5.4,3.7,6.9
		c-2.4-0.4-13.6,0-14.7-0.6c0.9-0.1,1.6-0.3,2.3-0.4c0.5-1.5,1.2-2.8,2.6-3.5c0.4-1.4,0.7-2.7,1.1-4.4c0.4,0.7,0.7,1,0.9,1.5
		c0,0,0.2,0,0.2-0.1c0.4-0.7,0.8-1.4,1.3-2.3c-1.8-0.5-3.3-0.3-4.9-0.3c-1.5-0.1-2.9,0-4.6,0v9.7c0.3,0.3,0.8,0.9,1.3,1.5
		c-0.2,0.9-0.3,1.7-0.5,2.8c-0.6,0-1,0.1-1.4,0c-0.4-0.1-0.8-0.3-1.3-0.5c-2.3,1-4.7,0.4-7.1,0.6c-0.7,0.1-1.6-0.4-2.1,0.5l0,0l0,0
		c0,0,0,0,0,0c-0.3-0.2-0.6-0.5-1-0.7c1.1-1.4,2.5-0.5,3.8-0.9c0.1-0.5,0.3-1.1,0.4-1.8c0.7-0.1,1.4-0.2,2.1-0.3
		c0.4-0.8,0.7-1.5,1-2.2c0.5-0.3,0.9-0.5,1.4-0.7c-0.2-1.2-0.4-2.2-0.6-3.3c0.9-0.7,1.8-1.3,2.6-1.9v-2.2c-0.5-0.5-0.9-1-1.3-1.4
		c0.7-1.2,1.2-2.3,1.8-3.4c1.8-0.4,8.6-0.5,11.1-0.1c0.3-0.5,0.5-1.1,0.9-1.9h6.8c0.5-0.9,0.9-1.6,1.2-2.2c1.5,0,2.9,0.5,4.2-0.3
		c-0.6-0.9-1-1.7-1.5-2.4c-1.6,0.1-1.6,0.1-2.5,1.9c-0.8-0.3-0.7-0.9-0.4-1.5c0.7-1.4,1.5-2.8,2.3-4.4c-0.5-0.2-0.9-0.4-1.5-0.7
		c0.1-0.4,0.2-0.9,0.3-1.4c0.1-0.4,0.2-0.8,0.4-1.4c0.7,0,1.3-0.1,2.3-0.1c0.1,1.4,0.2,2.8,0.3,4.2c0.5,0.2,1,0.3,1.5,0.5
		c0.2-0.4,0.4-0.8,0.7-1.2c-0.2-0.6-0.5-1.3-0.8-2c0.2-0.5,0.5-1,0.7-1.6c0.5,0.1,0.9,0.1,1.4,0.2c0.4,1.5,0.7,2.9,1.1,4.3
		c0.4,0.2,0.8,0.4,1.2,0.6c0-1.6,1.4-3,0.1-4.5c0.7-0.4,1.2-0.8,1.8-1.2c-1.1-1.2-2.4-2-3-3.8h3c0.4,0.4,0.8,0.9,1.4,1.5
		c0.5-0.6,0.8-1,1.2-1.4c0.2,0.1,0.4,0.2,0.4,0.3c-0.1,0.9-0.2,1.8-0.3,2.9c0.4,0.5,0.9,1,1.2,1.4c0.3,1.8,0.5,3.3,0.7,4.9
		C48.3,9.3,48.7,9.1,49,9c0.3-1.4,0.6-2.9,0.9-4.4h1.7c1,1.5-0.7,3.1,0.6,4.5c2.6-0.6,1-3.1,2-4.6c0.5,0,1.2-0.1,2-0.1
		c0.2,1,0.4,1.9,0.6,2.9C56.4,7.5,56,7.7,55.5,8c0.8,2,2.2,3.6,2.3,6c-0.8-0.9-1.5-1.6-2-2.2c-1.5,0.3-1.6,1.6-2.3,2.4
		c1.4,1.2,3.2,0.2,5,0.8c0.2,0.4,0.5,1,0.9,1.8h6.7c0.5,0.7,0.9,1.3,1.3,1.9c3.7-0.4,7.4-0.1,10.9-0.2c0.7,1.4,1.4,2.6,2.1,4
		c-0.4,0.3-0.9,0.6-1.5,1v2.3c1,0.6,1.9,1.2,3.1,1.9c-0.2,1-0.4,2-0.6,2.9c0.9,1.1,1.7,2,2.8,3.3c0.2,0,0.9,0.1,1.7,0.2
		c0.3,0.6,0.7,1.3,1,1.9c1.1,0.4,2.2-0.3,3.1,0.6c-0.1,1.8-1,3.2-2.1,4.5c-0.5,0.1-1.1,0.2-1.6,0.3c-0.3,1.9-0.6,3.6-0.9,5.4
		c0.3,0.2,0.7,0.5,1.3,0.9c-0.3,1.6-0.6,3.1-0.8,4.7c-0.2,1.4-0.3,2.9-0.2,4.3c0,1.4,0.3,2.7,0.3,4.1c0.1,5.5,0,10.9,0.1,16.4
		c0.1,3.6,0.4,7.2,0.6,10.9c0.3,0.2,0.7,0.5,0.9,0.6c-0.1,2.9,0.1,5.6-0.1,8.1C85.6,97.5,61.8,97.6,58.7,97.2z M11.2,89.7v-22h-1v22
		H11.2z M80.1,89.7v-22h-1v22H80.1z M31.2,68.5h-1.6c0,0.9,0,1.6,0,2.2c0.1,5,0.3,10,0.5,14.9c0,1.1,0.4,2,1.1,3.1
		C31.7,86,31.6,70.3,31.2,68.5z M24.3,86.2c0-3.3,0-6.6,0-10.5c-1,1.2-1.6,1.8-1.9,2.3c0.2,1.5,0.4,2.7,0.5,3.3
		c-0.7,1.3-1.1,2-1.4,2.8c0.5,0.5,1,0.9,1.4,1.2c0.1,1.1,0.1,2.1,0.2,3.4C23.8,87.8,24.2,87.1,24.3,86.2z M18.5,84.3
		c-0.9-0.8-1.2-1.9-0.9-3.2c0.8-2.8,1.5-5.7,2.3-8.5h1.1c0.1,0.8,0.2,1.5,0.3,2.3c0.4,0.2,0.8,0.3,1.1,0.5c0.2-0.5,0.3-0.8,0.4-1.2
		c0.4,0.1,0.8,0.2,1.2,0.3v-6.1h-7.6c0,5.9,0,11.7,0,17.5c0,1,0.5,1.8,1.3,2.6C18.1,87.1,18.3,85.8,18.5,84.3z M67.9,88.4v-2.9
		c0.5-0.7,0.8-1.2,1.1-1.6c-0.4-0.8-0.7-1.5-1.1-2.2v-4.1c-0.6-0.7-1.1-1.4-1.7-2.1c0.3-0.4,0.5-0.7,0.8-1.1
		c0.3,0.7,0.5,1.1,0.7,1.4c0.6-0.3,1.1-0.6,1.4-0.8c0.2-0.8,0.4-1.6,0.6-2.4c1.5,3.6,3.5,7,3,11c-0.4,0.3-0.7,0.5-0.8,0.6
		c0.2,1.5,0.3,2.9,0.5,4.2c0.2,0,0.5,0,0.7,0c1.5-6.5,1-13.2,1.1-19.9H66c-0.4,6.7,0.5,13.3,0.5,20C67.1,88.5,67.4,88.4,67.9,88.4z
		 M60.6,68.4c-0.8,0.1-1.3,0.1-1.9,0.1c-0.4,5.5-0.2,18.1,0.2,19.9h0.9C60.7,81.9,60.8,75.2,60.6,68.4z M24.2,66.1
		c0.8-6.5,0.9-10.8,0.3-13.2h-8.4c0,4.5-0.3,8.9,0.7,13.3c1.3,0,2.4,0,3.6,0C21.7,66.2,23,66.4,24.2,66.1z M74,66V52.9h-8.3
		c-0.1,1.2-0.3,2.3-0.2,3.4c0.1,2.7,0.3,5.3,0.4,8c0,0.6,0.1,1.2,0.2,1.9c1.4,0,2.7,0,4,0C71.3,66.2,72.7,66.4,74,66z M80.7,65.6
		l0.1-0.1l-0.1,0L80.7,65.6z M66.6,63.6v-6.6c2-1.2,4.2-0.5,6.6-0.5c0,1.4,0,2.6,0,3.7c0,1,0,2,0,3.2C71,64,68.9,63.7,66.6,63.6z
		 M17,63.6c0.2-2.5-0.2-4.7,0.3-7c2.2-0.3,4.1-0.3,6.1,0c0.7,2.3,0.1,4.5,0.4,6.8C21.6,63.9,19.5,63.7,17,63.6z M30.9,58.1
		c-0.1-1.9-0.6-4,1.7-5.3c0.4-0.1,1-0.2,1.6-0.3C34,52.2,34,52,33.9,52c-1,0.1-2,0.3-2.9,0.4c-0.8-1.2,0-1.8,0.5-2.8h6.6
		c1.1,0.4,2.2,0.8,3.3,1.1c0,0.1,0,0.2,0,0.3c-0.9,0.1-1.8,0.2-2.7,0.3c-0.7,0.8-1.4,1.5-2.1,2.3c-1.1,0.3-2.2,0.7-3.4,1
		c0.1,0.5,0.3,1,0.4,1.4c-0.6,0.7-1.2,1.5-1.8,2.4C31.5,58.4,31.2,58.3,30.9,58.1z M57.6,57.1c-1.1-0.9-0.4-1.7-0.4-2.5
		c-2.1-0.5-4.4-0.8-5.3-3.3c-0.9-0.1-1.7-0.1-2.6-0.2c0.2-1.8,2.2-0.6,2.6-1.6h6.8c0.3,0.8,0.5,1.4,0.8,2.1
		c-0.5,0.3-1.1,0.6-1.7,0.9c0.6,0.9,1.2,1.9,1.8,2.9c-0.1,0.9-0.2,1.8-0.3,2.8C57.9,59,58.2,57.5,57.6,57.1z M15.2,44.5L4.8,44.4
		c-0.3-0.6-0.5-1.7-0.9-2.6C2.1,41.3,0.7,40.4,1,38c0,0,0,0,0,0l0,0c0,0,0,0,0,0c2.1,0.7,4.2,0.4,6.4,0.5c1.1,0,2.2,0,3.2,0
		C12.1,40.5,13.6,42.4,15.2,44.5z M30.2,33.5h29.9c0.8,0.9,0.7,2-0.3,3.1H30.2C29.2,35.5,29.4,34.6,30.2,33.5z M65.6,27.8
		c0.2-0.2,0.1-0.8,0.1-1.4c0.8-0.3,2.3,0.1,2.5-1.7c0,0-0.1-0.3-0.2-0.7c0.4-0.1,0.7-0.2,1-0.3c0.6,0.8,1.2,1.6,1.8,2.5
		c0.2-0.4,0.3-0.8,0.6-1.6c0.4,1.6,0.6,2.9,0.8,3.8c1.2,1.4,2.1,2.6,3.3,4.1c0.2,0,0.9,0.2,1.6,0.3l0,0.4H60.9
		C63.4,32.1,64,29.5,65.6,27.8z M32.8,31.5l0.1-6.5c1.9-0.4,20.3-0.5,24.1-0.1v6.6C48.9,31.6,41,31.5,32.8,31.5z M80.8,28.6
		c0-0.2-0.1-0.4-0.1-0.6l-0.2,0.1c0,0.2,0.1,0.4,0.1,0.5C80.7,28.6,80.8,28.6,80.8,28.6z M58.4,16.4c-0.9-0.1-1.8-0.4-2.7-0.4
		c-7.2,0-14.5,0-21.7,0c-0.9,0-1.8,0.3-2.7,0.4c0,0.1,0,0.2,0,0.3h27C58.4,16.7,58.4,16.6,58.4,16.4z"/>
</g>
</svg>
