<?xml version="1.0" encoding="utf-8"?>
<!-- Generator: Adobe Illustrator 25.0.0, SVG Export Plug-In . SVG Version: 6.00 Build 0)  -->
<svg version="1.1" id="Layer_1" xmlns="http://www.w3.org/2000/svg" xmlns:xlink="http://www.w3.org/1999/xlink" x="0px" y="0px"
	 viewBox="0 0 120 78.6" style="enable-background:new 0 0 120 78.6;" xml:space="preserve">
<style type="text/css">
	.st0{fill-rule:evenodd;clip-rule:evenodd;fill:#B8B8B8;}
</style>
<g>
	<path class="st0" d="M2.5,78.6c-2.5,0-2.5,0-2.5-2.4c0-4.3,0-8.6,0-12.9c0-6.3,0-12.6,0-19c0-1.9,0-1.9,1.9-2c5.5,0,11.1,0,16.6,0
		c0.7,0,1.5-0.3,1.9,0.8c0.1,0.3,1,0.6,1.6,0.6c6.4,0.1,12.8,0.1,19.2,0.1c9,0,17.9,0,26.9,0c9.9,0,19.8-0.1,29.7-0.1
		c0.8,0,1.7,0.2,2-1c0.1-0.3,0.9-0.4,1.4-0.4c5.6,0,11.2,0,16.9-0.1c1.3,0,1.8,0.5,1.8,1.8c0,10.9,0,21.7-0.1,32.6
		c0,1.8-0.1,1.8-2.4,1.8c-14.7,0-29.5,0-44.2,0H59.9v0.1H4.4C3.8,78.6,3.1,78.6,2.5,78.6z M24.4,73.8c0-1.6-0.1-3.3-0.1-4.9
		c-0.1-6.7-0.3-13.4-0.4-20.1c0-1.1,0-2.3,0-3.4h-3.3c0.1,1.4,0.3,2.6,0.2,3.7c-0.1,6.5-0.3,12.9-0.4,19.4c0,2-0.1,4.1-0.1,6.1
		c0,0.5,0.2,1.2,0.6,1.4C22.7,77,24.4,75.9,24.4,73.8z M45.9,73.7c-0.2-9.4-0.4-18.8-0.5-28.3h-3c-0.2,8-0.3,15.9-0.5,23.8
		c0,1.9-0.1,3.7-0.1,5.6c0,0.4,0.3,1.1,0.7,1.2C44.7,76.9,46,75.9,45.9,73.7z M83.3,74.1c0-0.5,0-0.9,0-1.4l0,0c0-0.5,0-1.1,0-1.6
		c0.1-1.3-0.4-1.9-1.9-1.9c-1.5,0-1.8,0.7-1.8,2c0.1,1.2,0,2.5,0.1,3.7c0,0.4,0.2,1,0.5,1.1C81.8,76.8,83.2,75.9,83.3,74.1z M51,74
		c0-1.2,0.1-2.3,0-3.5c0-0.4-0.4-1.1-0.8-1.2c-1.8-0.7-2.8,0.1-2.8,1.9c0,0.5,0,0.9,0,1.4h0c0,0.8-0.1,1.6,0,2.3
		c0.1,0.4,0.5,1,0.9,1.1C50.3,76.6,51,76,51,74z M61.8,74c0-0.4,0-0.8,0-1.2c0-0.7,0-1.4,0-2.1c0.1-1.1-0.3-1.6-1.4-1.5
		c-0.9,0.1-2.2-0.3-2.2,1.3c0,1.5-0.1,3,0.1,4.4c0,0.4,0.7,1,1.1,1.1C61.5,76.4,61.8,76.1,61.8,74z M99.7,73.4
		c-0.1-9.3-0.3-18.6-0.4-28h-3.5c0,4.2,0,8.2,0,12.2c0,5.6-0.1,11.2-0.1,16.8c0,0.9,0,1.6,1.3,1.7C99.7,76.2,99.8,76.3,99.7,73.4z
		 M78.2,73.7c-0.1-9.4-0.3-18.8-0.5-28.3h-3.4c0,7.6,0,14.9,0,22.3c0,2.3-0.1,4.7-0.2,7c0,1,0.4,1.3,1.4,1.4
		C78,76.3,78.2,76.2,78.2,73.7z M56.7,74.3c-0.1-0.8,0-1.6-0.1-2.3c-0.1-7.7-0.3-15.5-0.4-23.2c0-1.1,0-2.3,0-3.4H53
		c0,3.8,0,7.4,0,11c-0.1,5.9-0.3,11.7-0.3,17.6c0,2.2,0,2.2,2.2,2.3C56.2,76.2,56.8,75.7,56.7,74.3z M72.7,74.6
		c-0.1-1.3,0-2.6,0-3.9c0-1.1-0.5-1.4-1.6-1.4c-2,0-2,0-2.1,2c0,0.5,0,0.9,0,1.4c0,0.6,0,1.2,0,1.8c-0.1,1.1,0.2,1.7,1.5,1.6
		C71.6,76,72.8,76.3,72.7,74.6z M38.2,76.1c0.8-0.1,2,0.4,2.1-1.1c0-1.5,0-3,0-4.4c0-1-0.5-1.3-1.5-1.3c-2,0-2.1,0-2.1,2
		c0,0.5,0,0.9,0,1.4h0c0,0.8,0,1.6,0,2.3C36.6,76.1,37.4,76.2,38.2,76.1z M89,73.7c-0.1-3.4-0.3-6.7-0.3-10.1
		c-0.1-6.1,0-12.1,0-18.2h-3.3c0,1.7,0,3.2,0,4.7C85.2,58,85,65.8,84.9,73.6c-0.1,2.5,0,2.5,2.1,2.5C89,76.1,89,76.1,89,73.7z
		 M34.7,75.9c0.3-0.1,0.3-1.2,0.4-1.9c0.1-0.5,0-0.9,0-1.4c-0.1-9-0.3-18-0.4-27.2h-3.6c0.2,1.3,0.4,2.5,0.4,3.6
		c0,3.3-0.2,6.5-0.3,9.8c-0.1,5.2-0.1,10.4-0.2,15.7c0,0.5,0.2,1.4,0.4,1.4C32.6,76.1,33.7,76.1,34.7,75.9z M67,75.9
		c0.3-0.1,0.4-1.2,0.4-1.9c-0.1-7.2-0.3-14.3-0.4-21.5c0-2.4,0-4.7,0-7.1h-3.6c0.9,4.3,0.2,8.5,0.2,12.7c-0.1,5.5-0.1,10.9-0.2,16.4
		c0,0.5,0.2,1.4,0.4,1.4C64.8,76.1,66,76.1,67,75.9z M113,71.7c0-2.5,0-2.5-2.6-2.5c-0.5,0-1.1,0-1.6,0c-1.9,0-1.9,0-1.9,1.9
		c0,3.3-0.4,3,3,3C113,74.2,113,74.2,113,71.7z M13.1,72.4c0.1-3.2,0.2-3.2-3-3.2c-3.2,0.1-2.9-0.4-2.9,2.5c0,2.1,0,2.2,2.2,2.2
		c0.7,0,1.4,0,2.1,0C12.6,74.1,13.1,73.7,13.1,72.4z M40.1,65.4v-1h-3.3v1H40.1z M51,65.4v-1h-3.3v1H51z M61.8,65.4v-1h-3.3v1H61.8z
		 M72.4,65.4v-1h-3.3v1H72.4z M83.1,65.4v-1h-3.3v1H83.1z M29.3,64.2h0.2c0-2.4,0.1-4.8-0.1-7.1c-0.1-0.7-1-1.5-1.8-1.7
		c-0.4-0.1-1.5,0.9-1.6,1.5c-0.3,1.8-0.5,3.7,0.5,5.8c0.4-5,0.4-5,1.8-5.6C28.6,59.5,29,61.8,29.3,64.2z M94.1,57.4
		c0-1.4-0.8-2.3-1.8-2.2c-1.3,0.1-1.6,1.1-1.6,2.2c0,2.1,0.1,4.2,0.2,6.4c1-2.2-0.5-4.8,1.5-6.9c1.8,2.2,0.9,4.7,1.7,7
		C94.1,61.7,94.2,59.5,94.1,57.4z M111.4,63.5c1.2-0.1,1.6-0.5,1.6-1.7c0-2.3,0.1-4.5-0.1-6.8c0-0.7-0.5-1.4-1.1-1.8
		c-0.9-0.7-1.9-1.2-3.2-0.5c-1.3,0.7-2.1,1.5-1.8,3.1c0.1,0.8,0,1.7,0,2.6v0.9C106.9,63.7,106.9,63.6,111.4,63.5z M11.1,63.5
		c1.2,0,1.8-0.3,1.8-1.7c-0.1-2.2,0.1-4.4,0-6.5c0-2.2-2.2-3.3-4.2-2.3c-1.3,0.7-1.8,1.5-1.6,2.9c0.1,0.8,0,1.7,0,2.6
		c0,0.4,0,0.8,0,1.2C7.2,63.6,7.2,63.5,11.1,63.5z M8.5,61.8c0-1.5-0.1-3,0.1-4.4c0.1-0.6,1-1,1.5-1.5c0.5,0.5,1.1,1,1.3,1.6
		c0.2,0.6,0,1.4,0,2.1c0,0.7,0,1.4,0,2.1c0.1,1-0.4,1.4-1.4,1.4C9.1,63.1,8.5,62.8,8.5,61.8z M82.9,61.7c0-0.5,0-1.1,0-1.6
		c0-0.5,0-1.1,0-1.6c0-0.9-0.1-1.8-1.2-1.8c-1.1,0-1.4,0.8-1.4,1.8c0,1.1,0,2.2,0,3.2c-0.1,1,0.5,1.3,1.4,1.3
		C82.5,63,82.9,62.6,82.9,61.7z M71.8,62c0.2-0.6,0.1-1.4,0.1-2.1c0,0,0,0,0,0c0-0.8,0-1.6-0.2-2.3c-0.1-0.4-0.6-1-0.9-1
		c-0.4,0-1.1,0.5-1.1,0.9c-0.1,1.5-0.2,3.1-0.1,4.6c0,0.3,0.7,0.8,1.1,0.7C71.2,62.9,71.8,62.4,71.8,62z M50.5,62
		c0.1-1.4,0.2-2.8,0-4.1c-0.1-0.5-0.8-0.9-1.3-1.3c-0.4,0.5-1,0.9-1.2,1.4c-0.2,0.5,0,1.2,0,1.8c0,0.7-0.1,1.4,0.1,2.1
		c0.1,0.4,0.8,0.9,1.2,0.9C49.6,62.9,50.4,62.4,50.5,62z M61.1,62.3c0.1-1.7,0-3.4-0.1-5.1c0-0.3-0.7-0.6-1.1-0.6
		c-0.3,0-0.7,0.5-0.8,0.8c-0.2,0.8-0.1,1.5-0.2,2.3c0,0,0.1,0,0.1,0c0,0.8-0.1,1.6,0,2.3c0.1,0.3,0.6,0.7,0.9,0.7
		C60.4,62.9,61.1,62.5,61.1,62.3z M39.4,62c0.2-0.7,0.1-1.4,0.1-2.1h0c0-0.7,0.1-1.4,0-2.1c-0.1-0.4-0.5-0.8-0.8-1.2
		c-0.4,0.3-1.2,0.6-1.3,1c-0.2,1.4-0.2,2.9-0.1,4.4c0,0.3,0.7,0.8,1.1,0.8C38.8,62.9,39.3,62.4,39.4,62z M110.1,62.7
		c-0.6-0.1-1.4-0.6-1.4-1c-0.2-1.4-0.1-2.9,0.1-4.4c0.1-0.5,0.9-0.8,1.4-1.2c0.3,0.4,0.9,0.8,1,1.3c0.2,0.7,0,1.5,0,2.3h0
		c0,0.6,0,1.2,0,1.8C111.2,62.3,110.9,63,110.1,62.7z M49,52.3c2.6,0,2.7-0.1,2.6-2c0-1.9-0.2-2-2.5-2c-2.2,0-2.4,0.4-2.5,2.5
		c-0.1,1.3,0.5,1.5,1.1,1.5C48.2,52.3,48.6,52.2,49,52.3z M30,50.4c0-2-0.1-2.2-2.3-2.2c-2.3,0-2.3,0-2.3,1.8
		c-0.1,2.2-0.1,2.2,2.1,2.3C30,52.3,30,52.3,30,50.4z M73.1,50.3c0-2.1,0-2.1-2-2.1c-2.5,0-2.6,0.1-2.6,2.1c0,1.9,0,1.9,2.2,1.9
		C73.1,52.3,73.1,52.3,73.1,50.3z M40.7,50.2c0-2,0-2-2.3-2c-2.2,0-2.3,0.1-2.3,2.1c0,1.9,0,1.9,2.4,1.9
		C40.8,52.3,40.8,52.3,40.7,50.2z M62.4,50.3c0-2-0.1-2-2.4-2.1c-2.3,0-2.3,0-2.3,2c0,2,0,2,2.3,2C62.4,52.3,62.4,52.3,62.4,50.3z
		 M83.8,50.5c0.1-2.1-0.2-2.3-2.4-2.3c-2.3,0-2.5,0.2-2.5,2.3c0,1.8,0,1.8,2.3,1.8C83.8,52.3,83.8,52.3,83.8,50.5z M93.6,52.2
		c0.3,0,0.9-0.3,1-0.4c0.1-1,0.2-2.1-0.1-2.9c-0.1-0.5-1.2-0.6-1.9-0.8c-2.6,0.2-2.8,0.4-2.6,3c0.1,0.9,0.4,1.3,1.2,1.2
		C92.1,52.2,92.8,52.3,93.6,52.2z M26.1,41.8c-2.8-0.1-5.5-0.6-8.3-0.6c-5-0.1-10,0-15,0c-3.2,0-2.8,0.3-2.8-2.9
		c0-4.7,0-4.8,4.7-5.1c1.9-0.1,39.2,0.2,40.2,0.1c0-0.2,0-0.4-0.1-0.6H0.4c0-0.1,15.8-2.8,16.8-2.9c1.7-0.1,2.4-0.7,2.4-2.4
		c0.1-2.3,0-4.6,0-6.9c0-0.8,0.2-1.5,0.2-2.3c0.1-1.6,1-2,2.5-2c24.8,0.1,49.6,0.1,74.4,0.1c3.4,0,3-0.2,3.1,3c0,2.7,0,5.5,0,8.2
		c0,2,0.2,2.1,2.1,2.3c3.2,0.4,17.4,2.3,17.9,2.8h-46c0,0.2,0,0.4,0,0.6c1,0.1,30.1,0.2,43.6,0.2c2.5,0,2.5,0,2.5,2.4
		c0.1,5.3,0.1,5.3-5.3,5.3c-3.3,0-6.7-0.1-10.1,0c-23.4,1.2-46.9,0.3-70.4,0.6C31.5,41.7,28.8,41.9,26.1,41.8z M62.9,32.8
		c-1.8-0.6-3.6-1.5-5.8-0.4c-2.8,1.3-6,2.1-9,3c-4.6,1.5-9.2,2.9-13.8,4.4c0,0.1,0,0.2,0.1,0.3h49.9C77.1,37.5,70.1,35,62.9,32.8z
		 M109.4,38.7L109.4,38.7c1.8,0,3.6,0,5.4,0c1.4,0,1.2-1,1.1-1.8c0-0.8,0.2-1.8-1.2-1.8c-3.4,0.1-6.8,0.1-10.3,0
		c-1.4,0-1.5,0.8-1.5,1.8c0,1.1,0.2,1.8,1.5,1.8C106.2,38.6,107.8,38.7,109.4,38.7z M10.4,38.6L10.4,38.6c1.5,0,3.1-0.1,4.6,0
		c1.4,0.1,1.9-0.4,1.9-1.8c0-1.5-8.7-1.7-12.1-1.7c-0.3,0-0.6,0.1-0.8,0.3c-0.8,1.1-0.5,3.1,0.8,3.1C6.5,38.7,8.8,38.6,10.4,38.6z
		 M58.6,38.6c-1.3-0.1-2.5-0.3-3.8-0.3c-0.7,0-1.4,0.2-2.1,0.1c-1.8-0.1-3.7-0.2-5.5-0.3c1.2-2.2,1.6-2.3,4.3-1.6
		c0.3-1.9,1.9-2.7,3.4-1.8c0.1,0,0.1,0.1,0.1,0.2c1.3-1.3,2.5,0.8,3.7,0.1c0.3-0.2,0.5-0.6,0.9-1c0.4,1.1,0.8,1.9,1,2.9
		c0.1,0.5-0.2,1.2-0.6,1.6C59.7,38.8,59,38.6,58.6,38.6z M60.4,34.7c0.7-1.2,0.9,1.7,1.5-0.2c0-0.1,0.2-0.2,0.3-0.3
		c0.8,1.1,1.5,1.1,2.5,0.1c0.2-0.2,1.8,0.4,2.1,1c0.5,0.8,0.7,1.2,1.8,0.8c1.4-0.4,2,0.1,3,2h-9.8C61.2,36.8,60.7,35.6,60.4,34.7z
		 M51.7,30.9c4-1.4,7.7-3.5,11.8-1.2c0.5,0.3,1.2,0.5,1.8,0.6c0.5,0,1.4-0.1,1.5-0.4c0.2-0.7,0.5-1.6-0.5-2.2
		c-2.1-1.2-2.1-1.5-0.6-3.3c0.4,0.4,0.8,0.8,1.2,1.1C66,23.2,66,23.2,66,20.9c0-0.3-0.4-0.6-0.6-0.8c-0.2,0.3-0.6,0.5-0.7,0.8
		c-0.3,0.9-0.4,2-0.7,2.9c-0.3,0.6-0.8,0.7-0.9-0.3c0-0.2-0.1-0.5-0.2-0.5c-1.8-0.2-1.1-1.3-0.8-2.2c0.2-0.7,0.6-1.3,1-2.2
		c-0.7,0.5-2.1-0.6-1.5,1.1c-0.4,0-1,0.2-1,0c-0.4-0.7-0.7-1.5-1-2.3c-0.7,1-1.3,1.8-2,2.9c0-1.4-0.3-2-1.5-1.3
		c0.4,1,1.2,2.2,1.1,3.1c-0.1,0.8-1.3,1.4-2.3,2.4c-0.3-1.4-0.4-2.5-0.6-3.5c-0.1-0.3-0.5-0.5-0.7-0.8c-0.2,0.3-0.7,0.8-0.6,0.8
		c1.2,1.5,0,2.3-0.8,3.3c-0.2,0.3-0.2,0.7-0.5,1.4c0.8-0.7,1.2-1.1,1.7-1.5c0.3,0.8,0.4,1.4,0.8,1.9c0.3,0.4,0.7,0.7,1.3,1.1
		C51,27.7,50.8,27.7,51.7,30.9z M85.5,25.8c0.2-0.7,0.1-1.4,0.1-2.1h0c0-0.6,0.1-1.3,0-1.8c-0.1-0.5-0.6-0.8-0.9-1.2
		c-0.3,0.4-0.9,0.7-0.9,1.1c-0.1,1.3-0.1,2.6,0,3.9c0,0.3,0.6,0.9,0.8,0.9C84.9,26.6,85.4,26.1,85.5,25.8z M95.5,25.6
		c0.1-0.6,0-1.2,0-1.9l0,0c0-0.7,0.1-1.4,0-2.1c-0.1-0.4-0.5-0.6-0.8-0.9c-0.3,0.3-0.8,0.6-0.9,0.9c-0.1,1.4-0.1,2.8,0,4.2
		c0,0.3,0.6,0.5,0.9,0.8C95,26.3,95.4,26,95.5,25.6z M81.8,26.1c0-1.6,0-3.2-0.1-4.8c0-0.2-0.6-0.5-0.8-0.5
		c-0.3,0.1-0.6,0.5-0.6,0.8c-0.1,0.7,0,1.4,0,2.1h0c0,0.7-0.1,1.4,0,2.1c0,0.3,0.4,0.7,0.6,0.8C81.2,26.6,81.8,26.3,81.8,26.1z
		 M71.6,25.8c0.1-0.7,0-1.4,0-2.1s0.1-1.4,0-2.1c0-0.3-0.5-0.8-0.6-0.8c-0.4,0.1-1,0.4-1,0.7c-0.1,1.5-0.1,2.9,0,4.4
		c0,0.3,0.6,0.6,1,0.7C71.1,26.6,71.5,26.1,71.6,25.8z M91.9,25.7c0.2-0.6,0.1-1.2,0.1-1.8c0,0,0,0-0.1,0c0-0.7,0.1-1.4,0-2.1
		c-0.1-0.4-0.5-0.7-0.7-1.1c-0.4,0.3-1,0.7-1,1c-0.1,1.3-0.1,2.6,0,3.9c0,0.3,0.6,0.8,0.9,0.8C91.3,26.6,91.8,26.1,91.9,25.7z
		 M37,25.6c0.1-0.6,0-1.2,0-1.8c0,0,0,0,0,0c0-0.6,0.1-1.2,0-1.9c-0.1-0.3-0.3-0.6-0.5-0.9c-0.4,0.2-1,0.4-1,0.7
		c-0.1,1.4-0.1,2.8,0,4.2c0,0.2,0.6,0.5,0.9,0.5C36.5,26.3,36.9,25.9,37,25.6z M40.7,24.1c0-1,0.1-1.7-0.1-2.3
		c-0.1-0.3-0.6-0.5-0.9-0.8c-0.2,0.3-0.6,0.5-0.6,0.8c-0.1,0.7-0.2,1.4-0.1,2.1c0.1,0.9-0.7,2.4,0.7,2.5
		C41.4,26.4,40.4,24.7,40.7,24.1z M48.9,23.8c-0.4-1.1-0.7-2-1.1-2.9c-1.6,0.6-0.9,1.9-0.9,2.9c-0.1,0.9-0.7,2.4,1,2.5
		C48.2,26.3,48.6,24.7,48.9,23.8z M30.5,22.3c0.1-0.4-0.4-0.8-0.7-1.3c-0.4,0.4-1.1,0.8-1.1,1.2c0,1.3,0.3,2.7,0.4,4
		C30.6,25.1,30.3,23.6,30.5,22.3z M26.9,23.5c-0.2-0.8-0.5-1.6-0.7-2.4c-1.5,0.5-0.6,1.7-0.7,2.6c-0.1,0.8,0.3,1.7,0.5,2.5
		C27.5,25.6,26.2,24.3,26.9,23.5z M19.8,14.6c-0.3-1.1,0-2.3,1.1-2.5c2-0.4,2.4-1.3,1.7-3.1c-0.3-0.8,0.1-1.3,1-1.3
		c0.2,0,0.3,0,0.5,0c2.7-0.1,2.9,0,1.9,3c4.1-1.5,7.8-2.9,11.6-4.1c4-1.3,8.1-2.4,12.1-3.6c2-0.6,4.1-1.2,6.1-2.1
		c2.3-1,4.5-1,6.8-0.4c3.4,1,6.7,2.3,10.1,3.4c5.1,1.6,10.2,3.2,15.2,4.9c1.5,0.5,3,1,4.8,1.6c-0.1-1-0.2-1.6-0.3-2.2
		c0.8-0.1,1.5-0.2,2.3-0.3c1.1-0.1,1.3,0.4,1,1.4c-0.5,1.4,0,2.2,1.5,2.4c0.7,0.1,1.5,0.3,1.9,0.8c0.5,0.5,0.7,1.3,0.7,2
		c0,0.3-0.8,0.6-1.3,0.9c-0.2,0.1-0.5,0-0.7,0c-20.6,0.1-41.2,0.3-61.7,0.4c-1.9,0-3.7-0.4-5.6-0.3c-2.9,0-5.8,0.2-8.7,0.4
		C20.8,15.9,20.1,15.5,19.8,14.6z M84.2,10.2c-3.1-1-6.2-1.9-9.3-2.9C71,6,67.1,4.6,63.1,3.4c-0.2-0.1-0.4-0.1-0.7-0.2
		c-0.8-0.9-2-1.5-3.3-1.5c-1.4,0-2.6,0.6-3.4,1.6c-1.7,0.5-3.4,1.1-5.2,1.6c-4,1.3-7.9,2.6-11.8,4c-1.4,0.5-2.9,1-4.3,1.6
		c0,0.1,0,0.2,0,0.2h49.7C84.2,10.5,84.2,10.3,84.2,10.2z M78,9.7C75,9.6,65.3,9.6,61.6,9.7c0.2-0.2,0.5-0.3,0.7-0.5
		c1.2-1.2,1.5-2.9,1.1-4.3C68.2,6.4,74.6,8.6,78,9.7z M39.9,9.5c0.2-0.2,9.7-3,15-4.6c-0.4,1.5,0,3.1,1.1,4.2
		c0.2,0.2,0.4,0.4,0.6,0.5C49.9,9.6,40.2,9.7,39.9,9.5z M56.8,8.4c-1.3-1.3-1.3-3.4,0-4.7c1.3-1.3,3.4-1.3,4.7,0
		c1.3,1.3,1.3,3.4,0,4.7C60.2,9.7,58.1,9.7,56.8,8.4z"/>
</g>
</svg>
