<?xml version="1.0" encoding="utf-8"?>
<!-- Generator: Adobe Illustrator 25.0.0, SVG Export Plug-In . SVG Version: 6.00 Build 0)  -->
<svg version="1.1" id="Layer_1" xmlns="http://www.w3.org/2000/svg" xmlns:xlink="http://www.w3.org/1999/xlink" x="0px" y="0px"
	 viewBox="0 0 194 193.9" style="enable-background:new 0 0 194 193.9;" xml:space="preserve">
<style type="text/css">
	.st0{fill-rule:evenodd;clip-rule:evenodd;fill:#B8B8B8;}
</style>
<g>
	<path class="st0" d="M100.3,181.6c-0.1-1.1,0.7-2.3,1.1-3.5h-3.3c1.1,2.3,0.7,4.7,0.7,7.1c0,2.5,0,5,0,7.7
		c-0.8,0.3-1.6,0.6-2.4,0.9c-0.4-0.8-0.7-1.4-1.2-2.3c0.3-4.2-0.7-8.8,0.9-13.5c-1.1-0.1-2-0.1-2.8-0.1c-0.1,0.4-0.3,0.7-0.2,0.8
		c0.8,0.9,0.7,1.9,0.7,2.9c0,2.6-0.1,5.2,0,7.9c0.1,1.5-0.3,2.9-1.1,4.2h-1.7V178H88c0.4,0.4,0.6,0.7,0.9,0.9v14.3
		c-1.1,0.8-1.9,0.3-2.9-0.8c0-1.9,0.1-4,0-6.2c-0.1-1.9,0.5-4-0.5-6c0.4-0.5,0.9-1.2,1.7-2.3c-1.3-0.1-2.1-0.2-3.4-0.2
		c1.4,4.8,0.6,9.4,0.9,13.7c-0.5,0.9-0.8,1.5-1.2,2.3c-0.8-0.3-1.6-0.6-2.4-1v-14.8h-2.8c0,0.4-0.1,0.7,0,0.8
		c0.4,0.5,0.8,0.9,1.3,1.4v10.8c-0.9,1.1-1.6,1.8-2.4,2.7c-0.2-0.5-0.4-1-0.7-1.6l-0.4,0.3c0-2.5-0.1-5,0-7.5
		c0.1-2.3-0.5-4.7,0.9-7.1c-1-0.1-1.9-0.1-3-0.1v15.6H0.2v-54.7c0.3-0.3,0.5-0.5,0.9-0.9h21.2c0.5,1,1,2.2,1.5,3.1
		c1.3-0.1,2.4-0.4,3.5-0.4c8.1,0,16.2,0,24.3,0h3c-0.2-4.1-0.1-7.9,2-11.7c2.4,3.6,2.4,7.5,2.2,11.6h8.6V132c0-7.5,0.1-15,0-22.5
		c-0.1-3.6,0.4-7.2,0.8-10.8c0.1-0.7,0.6-1.4,0.9-2.1c1.5,1.3,2,3,2,6.5c0.9,1,1.7,2,2.8,3.2h47.9c0.1-0.6,0.2-1.3,0.3-1.9
		c0.4-0.1,0.7-0.2,1.1-0.3c0.3-1.2,0.7-2.4,0.9-3.7c0.3-1.3-0.5-2.9,1.4-4.2c0.5,2.2,1.1,4.3,1.5,6.3c1.4,6.3,0.5,12.7,0.7,19
		c0.1,6.5,0,13.1,0,19.7c2.4-0.7,4.6-0.8,7.1,0c1.6-1.6,0.4-3.9,0.9-6c1.5-1.3,1.5-3.2,1.3-4.9c0.5-0.5,0.8-0.8,1.5-1.4
		c-0.2,2.3,0.3,4.2,2.1,5.6v6.7c2.6-0.9,5.1-0.4,7.6-0.5c2.6-0.1,5.2,0,7.9,0c2.5,0,5-0.1,7.5,0c2.5,0.1,5.1-0.5,7.8,0.5
		c0.5-0.9-0.6-2.6,1.5-3.3h21.4v55.6h-72.7c-0.3-0.3-0.5-0.5-0.7-0.7c-0.2-4-0.4-8-0.5-12c0-0.1-0.2-0.2-0.6-0.7
		c0.4-0.2,0.9-0.3,1.2-0.6c0.3-0.3,0.5-0.7,0.9-1.4c-1.2-0.1-2.1-0.1-3.2-0.2c0.9,5.4,1.4,10.6-0.1,15.8c-0.7,0-1.2,0-1.7,0
		c-0.3-0.3-0.7-0.7-1.1-1.1V178h-2.5c0,0.2-0.1,0.4,0,0.5c1.1,1.2,1.2,2.6,1.2,4.2c-0.1,3,0,6,0,9.3c-0.6,0.4-1.4,0.9-2.5,1.5
		c0,0-0.6-0.4-1.1-0.8c0-2.6-0.1-5.1,0-7.6c0.1-2.3-0.7-4.7,1-7h-3.1v15.4h-1.9c0,0-0.3-0.2-0.3-0.4c0-2.3,0-4.5,0-6.8
		c0-1.5,0.4-3.2-0.1-4.6c-0.5-1.3,0.5-2.5,0-3.7h-2.8c1,2.3,0.7,4.7,0.7,7.1c0,2.5,0,5,0,7.8c-0.7,0.3-1.5,0.7-2.5,1.1
		C99.3,189.8,100.6,185.6,100.3,181.6z M145.2,192.1v-45.6h-1.1c-0.1,0.2-0.3,0.4-0.3,0.7c0,13.7,0,27.4-0.1,41
		C143.9,189.5,144.5,190.4,145.2,192.1z M159.7,191.8v-45.3h-2.1v43.2C158.1,190.3,158.7,190.9,159.7,191.8z M150.4,187.1
		c0-12.7,0-25.5,0-38.2v-2.5H149v45.4C150.4,190.1,150.4,188.6,150.4,187.1z M27.2,189.6c-0.1-0.1-0.2-0.2-0.2-0.3
		c-1-14.3,0-28.6-1-42.8v45.2C26.5,190.8,26.9,190.2,27.2,189.6z M31.5,191.3v-44.9h-1.2v44.1c0.1-0.1,0.2-0.2,0.3-0.3
		c0.2,0.4,0.3,0.8,0.5,1.3C31.2,191.5,31.4,191.4,31.5,191.3z M163.8,191.5v-45.1c-0.5,0.1-0.9,0.2-1.3,0.2c0,13.7,0,27.3,0,40.9
		C162.5,188.9,162.6,190.3,163.8,191.5z M155.2,190.5v-44h-1.9v44.9C154.1,191,154.7,190.7,155.2,190.5z M168.9,188.2
		c0-13.3,0-26.7,0-40v-1.8h-1.3v44.9C169.4,190.7,168.9,189.3,168.9,188.2z M50,191.4v-45c-0.5,0-0.8,0-1.2,0.1c0,0.4-0.1,0.7-0.1,1
		c0,13.4,0,26.9,0,40.4C48.8,189.4,48.8,189.4,50,191.4z M35.9,146.8c0-0.1-0.1-0.2-0.2-0.3c-0.1,0-0.2,0-0.4-0.1v44.8
		c0.2,0,0.4,0,0.6,0C35.9,176.5,35.9,161.7,35.9,146.8z M65.9,146.8c0-0.1-0.1-0.2-0.2-0.3c-0.1,0-0.2,0-0.4-0.1v44.8
		c0.2,0,0.4,0,0.6,0C65.9,176.5,65.9,161.7,65.9,146.8z M131.6,191.4v-44.8c-0.2,0-0.4,0-0.6,0c0,14.8,0,29.7,0,44.6
		c0,0.1,0.1,0.2,0.2,0.3C131.3,191.4,131.4,191.3,131.6,191.4z M129.5,191.3v-44.8c-0.4,0-0.6-0.1-1.3-0.2c0,14.4,0,28.5,0,42.6
		C128.2,189.6,128.8,190.2,129.5,191.3z M63.8,189.7c-0.2-0.2-0.3-0.3-0.3-0.3c-1-14.3,0-28.6-1-42.8v44.6
		C63.1,190.5,63.5,190.1,63.8,189.7z M41.5,189.6c-1-0.7-0.6-1.9-0.6-2.9c0-13.2,0-26.4,0-39.6c0-0.2-0.2-0.4-0.3-0.6
		c-0.2,0-0.5-0.1-1.1-0.1v44.8C40.2,190.7,40.8,190.1,41.5,189.6z M45.8,190.7v-44.2h-1.9v44.2H45.8z M138.1,189.9v-1.2
		c-0.2,0-0.4,0.1-0.6,0.1c0.1,0.4,0.2,0.8,0.3,1.2C137.8,190,138,189.9,138.1,189.9z M57.2,189.3c-0.4,0.1-0.8,0.2-1.2,0.3
		c0,0.1,0,0.2,0,0.3h1.2C57.2,189.7,57.2,189.5,57.2,189.3z M18.7,187.6c0-15.7,0-31.3,0-46.9c0-0.3-0.2-0.5-0.3-0.9
		c-0.4,0.4-0.6,0.6-1.1,1.1c0,15.5,0,31,0,46.4c0,0.1,0.3,0.3,0.5,0.5C18.1,187.9,18.4,187.7,18.7,187.6z M176.7,187.7v-48.2
		c-1.3,1.7-1.4,3.2-1.4,4.7c0,13.8,0,27.6,0,41.4v2.3C176,187.9,176.4,187.8,176.7,187.7z M181.1,187.8v-28.1c0-3.1-0.1-6.2,0-9.3
		c0.1-3-0.5-6,0.5-8.8c-0.3-0.6-0.6-1.1-0.9-1.8C180.1,145.8,180.3,185.4,181.1,187.8z M14.3,187.8v-47c-0.1,0.1-0.3,0.2-0.4,0.3
		c-0.1-0.4-0.3-0.9-0.4-1.3c-0.1,0.1-0.2,0.2-0.3,0.3v47.7H14.3z M9.4,187.8v-28.1c0-3.1-0.1-6.2,0-9.3c0.1-3-0.5-6,0.5-8.8
		c-0.3-0.6-0.5-1.1-1.2-2.4v4.3c0,13.6,0,27.1,0,40.7c0,1.2,0.2,2.4-0.6,3.6H9.4z M190.3,187.8V140c-1.2,1.2-1.3,2.5-1.3,4
		c0,14,0,28.1,0,42.1v1.7H190.3z M5,187.8V140c-1.2,1.2-1.3,2.6-1.3,4c0,14.4,0,28.8,0,43.2c0,0.2,0.2,0.4,0.3,0.6H5z M186,187.8
		v-47c-0.2,0.1-0.3,0.3-0.5,0.4c-0.1-0.4-0.2-0.9-0.4-1.3c-0.1,0.1-0.2,0.2-0.3,0.3v47.7H186z M125.2,187.7V185
		c-0.5,0.1-0.9,0.2-1.3,0.3C124.3,185.9,124.6,186.5,125.2,187.7z M138,187.2v-1.4h-0.4v1.4H138z M57.2,186.4
		c-0.4,0.1-0.8,0.2-1.2,0.3c0,0.1,0,0.2,0.1,0.3h1.2C57.2,186.9,57.2,186.6,57.2,186.4z M70.3,187c-0.1-0.6-0.2-1.3-0.3-1.9
		c-0.1,0-0.3,0-0.4,0v1.9C69.8,187,70,187,70.3,187z M57.3,183.4v-0.4h-1.4v0.4H57.3z M138.2,183.4v-0.2h-0.7v0.2H138.2z
		 M125.2,181.4c-0.4,0.6-0.7,1-0.9,1.4h1.2C125.3,182.2,125.2,181.9,125.2,181.4z M70.1,182.8v-1.9c-0.2,0-0.4,0-0.6,0.1l0.3,1.9
		C69.8,182.8,70,182.8,70.1,182.8z M138.1,181.3v-1.2c-0.2,0-0.4,0-0.6,0.1c0.1,0.4,0.2,0.8,0.3,1.2
		C137.8,181.4,138,181.3,138.1,181.3z M57.3,180.6v-0.4h-1.4v0.4H57.3z M125.8,179c-0.7-0.6-1.1-0.9-1.5-1.2
		c-0.1,0.1-0.3,0.3-0.5,0.5c0.1,0.3,0.1,0.6,0.2,1.1C124.5,179.3,124.9,179.2,125.8,179z M70,179.3v-1.4h-0.4v1.4H70z M138,178.6
		v-1.4h-0.4v1.4H138z M57.3,178.4v-0.4h-1.4v0.4H57.3z M124.9,176c0.8-1.9,0-1.7-0.9-1.5C124.3,175,124.6,175.4,124.9,176z
		 M70,175.7v-1.4h-0.4v1.4H70z M57.3,174.8l-0.1-0.3H56c0,0.2,0,0.4,0,0.6C56.5,175,56.9,174.9,57.3,174.8z M137.9,175v-0.7h-0.2
		v0.7H137.9z M120.9,173.8c-2.3,0.9-4.5,0.3-6.6,0.5c-0.4-0.4-0.7-0.7-1.2-1.2V168c-1.5-0.1-2.9-0.1-4.3-0.2v-59
		c-0.7,0.8-1,1.2-1.5,1.7v57.5c-0.5-0.1-0.8-0.1-1.3-0.2v-57.5c-0.8-0.3-1.4-0.6-2.2-0.9c0,19.5,0,38.8,0,58.1
		c0,0.2-0.3,0.3-0.5,0.5c-0.3-0.1-0.6-0.2-0.9-0.3c0-19.4,0-38.7,0-58c0-0.1-0.1-0.2-0.2-0.3c-0.1-0.1-0.2,0-0.2-0.1
		c-1.3,0.7-1,2-1,3.2c0,18.2,0,36.5,0,54.7c0,0.2-0.2,0.4-0.3,0.7c-0.3,0-0.6-0.1-1.2-0.1V109c-0.6,0.6-0.9,0.9-1.5,1.4
		c0,18.9,0,38.1,0,57.3c0,0.1-0.2,0.2-0.1,0.1H96v-57.3c0-0.2,0-0.5,0-0.7c0-0.1-0.1-0.2-0.2-0.3c-0.1-0.1-0.2-0.1-0.5-0.3v58.8
		c-0.9-0.1-1.5-0.1-2.3-0.1v-58.4l-0.6,0v58.5h-2v-57.5c-0.2,0.1-0.4,0.3-0.5,0.4l-0.5-1.6c-0.2,0.1-0.4,0.2-0.6,0.3v58.3h-2.2
		c0-19.5,0-38.9,0-58.3c0-0.1-0.2-0.1-0.2-0.2c-0.3,0.3-0.7,0.7-1.1,1.1v57.4c-1.2,0.1-2.4,0.1-3.5,0.2c-0.1,2.3,0.4,4.4-1,6.3
		c-2.3,0.3-4.6-0.2-6.8,0.7h47.2C121,174.4,120.9,174,120.9,173.8z M57.3,171.9c0-0.1,0-0.2-0.1-0.3H56c0,0.2,0,0.4,0,0.6
		C56.5,172.1,56.9,172,57.3,171.9z M70,172.2V170h-0.4v2.1H70z M137.9,172.2v-0.7h-0.2v0.7H137.9z M125.2,172.1v-2H124v2H125.2z
		 M138,170v-2.1h-0.4v2.1H138z M125.1,167.1c-0.5,0.1-0.8,0.2-1.4,0.3c0.6,0.5,0.9,0.9,1.8,1.8C125.3,167.9,125.2,167.5,125.1,167.1
		z M117.8,168.3c-0.6-0.7-0.9-1.3-1.6-2.2c0,0,0,0.1-0.1,0.1v-0.2l0,0v2.6C116.7,168.5,117.1,168.5,117.8,168.3z M70,168.6v-1.4
		h-0.4v1.4H70z M78.5,167.1c-0.4,0.1-0.7,0.1-1.1,0.2v1.3C79,168.6,79,168,78.5,167.1z M137.9,166.4v-0.7h-0.2v0.7H137.9z
		 M57.2,165.7c-0.4,0.1-0.8,0.2-1.2,0.3l0,0.3h1.2C57.2,166.1,57.2,165.9,57.2,165.7z M117.3,163.6h-1.2v2.4c0,0,0,0.1,0.1,0.1
		C116.7,165,117,164.4,117.3,163.6z M79.1,163.8c-0.7-0.1-1.1-0.2-1.8-0.3c0.1,0.9,0.2,1.5,0.4,2.6
		C78.3,165.1,78.6,164.6,79.1,163.8z M70,164.3v-1.4h-0.4v1.4H70z M125.1,163.4c-0.2,0.1-0.8,0.3-1.8,0.6
		C125.3,164.2,125.3,164.2,125.1,163.4z M137.9,163.6v-0.7h-0.2v0.7H137.9z M57.2,162.8c-0.4,0.1-0.8,0.2-1.2,0.3l0,0.4h1.2
		C57.2,163.2,57.2,163,57.2,162.8z M125.2,161.8v-2.4h-1.4C124.3,160.2,124.6,160.8,125.2,161.8z M79.1,161.2
		c-0.6-0.8-1-1.3-1.7-2.3v2.6C78,161.4,78.4,161.3,79.1,161.2z M116.7,160.2c-0.1-0.2-0.2-0.5-0.3-0.8c-0.1,0.1-0.3,0.1-0.4,0.1
		c0.1,0.6,0.1,1.3,0.1,1.9h1.4C117.2,160.8,116.9,160.5,116.7,160.2z M70.3,161.3l-0.3-1.9c-0.1,0-0.3,0-0.4,0v1.9
		C69.8,161.3,70,161.3,70.3,161.3z M138,160.7v-1.4h-0.4v1.4H138z M57.3,159.8c0-0.1,0-0.2-0.1-0.3H56c0,0.2,0,0.4,0,0.6
		C56.5,159.9,56.9,159.9,57.3,159.8z M117.8,157.6c-0.6-0.8-1-1.3-1.6-2.2v2.6C116.7,157.8,117.1,157.7,117.8,157.6z M78.8,157.8
		c0.1-1.6-0.5-1.6-1.5-1.1c0.1,0.4,0.1,0.7,0.2,1.1H78.8z M138.1,157.7v-1.2l-0.6,0.1c0.1,0.4,0.2,0.8,0.3,1.2
		C137.8,157.8,138,157.7,138.1,157.7z M125.4,156.9c-0.1-0.5-0.1-0.8-0.3-1.4c-0.5,0.6-0.9,0.9-1.8,1.8
		C124.6,157.1,125,157,125.4,156.9z M70.1,157v-1.9c-0.2,0-0.4,0-0.6,0l0.3,1.9C69.8,157,70,157,70.1,157z M117.3,152.9
		c-0.5,0-0.8,0-1.4,0.1c0.1,0.7,0.2,1.3,0.3,2.4C116.8,154.2,117,153.6,117.3,152.9z M79.1,153.3c-0.6-0.3-1-0.4-1.6-0.7v2.6
		C78.2,154.5,78.6,154,79.1,153.3z M138,155v-1.4h-0.4v1.4H138z M57.3,154.8v-0.4h-1.4v0.4H57.3z M125.6,153.3
		c-0.5-0.6-0.8-1-1.5-1.9v2.2C124.6,153.5,124.9,153.5,125.6,153.3z M70,153.6v-1.4h-0.4v1.4H70z M57.3,151.2v-0.4h-1.4v0.4H57.3z
		 M79.1,149.9c-0.6-0.6-1-1-1.7-1.6v2.9C78.2,150.6,78.6,150.3,79.1,149.9z M138.2,151.2v-0.2h-0.7v0.2H138.2z M117.4,150.5
		c-0.4-0.7-0.8-1.3-1.3-2.3v2.5C116.6,150.7,117,150.6,117.4,150.5z M124.9,150.1c0.4-1.3,0.3-1.9-0.5-1.5
		C124.5,149,124.7,149.5,124.9,150.1z M70.2,149.8l-0.3-1.2c-0.1,0-0.2,0-0.3,0.1v1.2C69.8,149.8,70,149.8,70.2,149.8z M57.3,148.4
		V148h-1.4v0.4H57.3z M138.2,148.3v-0.2h-0.7v0.2H138.2z M78.8,147c-0.1-0.5-0.2-0.9-0.3-1.8c-0.6,0.7-0.9,1.1-1.3,1.5
		c0.2,0.1,0.3,0.3,0.5,0.5C78.1,147.1,78.4,147,78.8,147z M117.2,147.1v-1.5c-0.5,0.1-0.8,0.2-1.3,0.3c0.1,0.5,0.2,0.9,0.3,1.3
		H117.2z M125.5,146.3c-0.6-0.8,0.6-2.2-1.5-2v2H125.5z M70.1,146.3v-1.9c-0.2,0-0.4,0-0.6,0l0.3,1.9
		C69.8,146.3,70,146.3,70.1,146.3z M138.2,146.2c-0.1-0.6-0.2-1.3-0.3-1.9c-0.1,0-0.2,0-0.4,0v1.9
		C137.8,146.3,138,146.3,138.2,146.2z M52.3,144.9v-1.2H23v1.2H52.3z M67.3,144.8v-1.2H61v1.2H67.3z M133.1,144.8v-1.2h-5.6v1.2
		H133.1z M171,144.8v-1.2h-28.5v1.2H171z M117.4,142.2h-1.2v2.7C116.7,143.6,117,142.9,117.4,142.2z M79.1,142.4
		c-0.7-0.1-1.1-0.2-1.7-0.3v2.6C78.2,143.7,78.6,143.1,79.1,142.4z M70.1,142.7v-1.2c-0.2,0-0.4,0-0.6,0l0.3,1.2
		C69.9,142.7,70,142.7,70.1,142.7z M125.1,142.4v-1.1c-0.5,0.1-0.8,0.1-0.9,0.2L125.1,142.4z M117.4,139.8c-0.4-0.7-0.8-1.3-1.3-2.3
		v2.5C116.6,139.9,117,139.8,117.4,139.8z M77.5,137.5v2.4h1.8C78.6,138.9,78.2,138.4,77.5,137.5z M70.1,138.4v-1.2l-0.6,0.1
		c0.1,0.4,0.2,0.8,0.3,1.2C69.9,138.4,70,138.4,70.1,138.4z M125.2,137.4l-0.9,0.9h1.1C125.3,137.9,125.2,137.5,125.2,137.4z
		 M1.2,129.2c0.3,0.3,0.7,0.6,1,0.9c0.1,1.1,0.2,2.2,0.3,3.3c0.2,0,0.3,0,0.5,0v-15h3.3c0.4-0.7,0.7-1.3,1.1-2.1H3v-2.1
		c0.6-0.1,1.3-0.2,2-0.3v-4h2.1c-0.1,0.7-0.2,1.5-0.3,2.8c0.1,0.1,0.4,0.7,1,1.7v-8.6c0.5-0.2,0.9-0.3,1.6-0.6
		c-0.3-1.2-0.5-2.5-0.9-3.9h5.6c1.3,1.3-1.4,2.6-0.3,4c0.3,0.1,0.7,0.2,1.2,0.3v8.3c1-1.2,0.6-2.6,0.8-4.1c0.6,0,1.2-0.1,2-0.1v4.2
		c0.8,0.1,1.4,0.2,2.1,0.3v2h-4.2c0.4,0.8,0.7,1.4,1,2.1h3.3v14.9l0.6,0c0.1-1,0.1-2.1,0.2-3.2c0.3-0.3,0.6-0.6,1-1
		c0.1,0.1,0.4,0.3,0.4,0.5c0.2,1.5-0.3,2.9,0.6,4.4c0.5,0.7,0.4,2.1-1,2.9H1C-1.7,134.4,2,131.9,1.2,129.2z M172.8,137l-1.6-1.6
		c-0.9-0.8,1.5-1.2,0.1-2.1c-0.2-0.1,0.3-1.1,0.5-1.7c0.2-0.7,0.4-1.5,1.2-2.4l0.3,1.3l0.6-0.4v3.4c0.9-2.4,0.7-4.8,0.7-7.1
		c0.1-2.5,0-5,0-7.7h2.4c0.4-0.8,0.7-1.4,1.1-2.2h-3.4c0-0.8-0.1-1.4-0.1-2.1c0.8-0.1,1.3-0.2,2.2-0.3c-0.3-1.3,0.6-2.7-0.7-3.8
		c0.3-0.3,0.7-0.7,1-1c0.3,0.3,0.7,0.6,1.1,1.1v3.9c1.7-2.5,1.7-2.6,0.9-5.1c-0.5-1.5,0.1-2.7,1.8-3.7c-0.5-1.3-1.6-2.4-1.2-4h5.6
		c0.1,2-0.4,4.2,1.3,5.8c-1.1,2.5-0.7,4.8,0.8,7V110h2.1v4c0.8,0.1,1.4,0.3,2.1,0.4c-0.2,0.6-0.5,1.1-0.8,2h-3.3v2.1h3.1
		c0.4,0.7,0.7,1.3,1,2c-0.8,1.7-0.9,6.9-0.1,13.1c0.1-1.7,0.5-3.2,1.7-4.6c0.4,0.6,0.7,0.8,0.7,0.9c0,2.4,0,4.7,0,7.2H172.8z
		 M78.8,136.2v-1h-1.5c0.1,0.5,0.2,0.8,0.3,1.3C78,136.3,78.4,136.3,78.8,136.2z M117.4,136.3c0.1-1.6-0.5-1.6-1.5-1.1
		c0.1,0.4,0.1,0.7,0.2,1.1H117.4z M125.2,136v-2.4h-1.4C124.3,134.4,124.6,135,125.2,136z M70,135.7v-2.1h-0.4v2.1H70z M117.3,131.5
		h-1.2v2.7C116.7,132.8,117,132.2,117.3,131.5z M79.7,131.9c-1.3-0.3-1.7-0.4-2.4-0.6c0.1,1,0.1,1.6,0.1,2.2
		C78.1,133.1,78.5,132.8,79.7,131.9z M188.1,131.3v-10.3c-2.1,3.5-0.9,6.9-1.3,10.6C187.5,131.4,187.9,131.3,188.1,131.3z
		 M6.9,122.1c-0.4,0.4-0.6,0.6-1.1,1.1c0,1.9-0.1,3.8,0,5.7c0.1,1.1,0.3,2.3,2.1,2.6C7.8,128.2,8.5,125.1,6.9,122.1z M178.9,131.2
		l-2-9.9c0,2.7-0.1,5.2,0.1,7.6c0.1,0.9,0.8,1.7,1.3,2.5C178.2,131.4,178.6,131.3,178.9,131.2z M125.4,131.3
		c-0.1-0.7-0.2-1.3-0.3-2.4c-0.5,1.1-0.7,1.7-1,2.5C124.5,131.3,124.8,131.3,125.4,131.3z M16.5,126.7c-0.1-1.5,0.3-3.1-0.3-4.9
		c-1.9,3.2-0.9,6.4-1.2,9.5h1.5C16.5,129.8,16.6,128.2,16.5,126.7z M183.9,131.3V125H182v6.3H183.9z M12.1,131.3V125H11v6.3H12.1z
		 M70.3,131.2l-0.3-1.9l-0.4,0v1.9C69.8,131.2,70,131.2,70.3,131.2z M79.1,129c-0.6-0.8-1-1.3-1.7-2.3v2.6
		C78,129.2,78.4,129.1,79.1,129z M116.1,126.7v2.4h1.4C117,128.3,116.7,127.7,116.1,126.7z M125.3,127.6v-1h-1.5
		c0.1,0.5,0.2,0.8,0.3,1.3C124.6,127.8,125,127.7,125.3,127.6z M70,127.8v-1.4h-0.4v1.4H70z M117.7,125.4c-0.5-0.6-0.8-1-1.5-1.9
		v2.2C116.7,125.6,117,125.6,117.7,125.4z M78.6,125.7v-1.5c-0.5,0.1-0.8,0.2-1.3,0.3c0.1,0.5,0.2,0.9,0.3,1.3H78.6z M70,124.2v-1.4
		h-0.4v1.4H70z M125.2,123.9v-1.2c-0.6,0.1-0.9,0.2-1.4,0.3C124.4,123.3,124.9,123.6,125.2,123.9z M117.3,120.7h-1.5
		c0.2,0.9,0.3,1.5,0.4,2.4C116.8,122,117,121.4,117.3,120.7z M79.1,121.1c-0.6-0.3-1-0.4-1.6-0.7v2.6
		C78.2,122.3,78.6,121.8,79.1,121.1z M13.8,122.1c1.2-1.2,1.2-3.2,0-4.5c-1.2-1.2-3.2-1.2-4.5,0c-1.2,1.2-1.2,3.2,0,4.5
		C10.5,123.3,12.6,123.3,13.8,122.1z M184.9,122.1c1.2-1.2,1.2-3.2,0-4.5s-3.2-1.2-4.5,0s-1.2,3.2,0,4.5
		C181.7,123.3,183.7,123.3,184.9,122.1z M125.2,120.6v-2H124v2H125.2z M70.3,120.5c-0.1-0.6-0.2-1.3-0.3-1.9c-0.1,0-0.2,0-0.4,0v1.9
		C69.8,120.5,70,120.5,70.3,120.5z M79.1,118.2c-0.6-0.8-1-1.3-1.6-2.2v2.6C78,118.4,78.4,118.4,79.1,118.2z M116.2,115.9v2.6h1.2
		C117,117.7,116.7,117,116.2,115.9z M125.1,115.6c-0.5,0.1-0.8,0.1-1.4,0.3c0.6,0.5,0.9,0.9,1.8,1.8
		C125.3,116.4,125.2,116,125.1,115.6z M70.1,117v-1.2c-0.2,0-0.4,0-0.6,0l0.3,1.2C69.9,117,70,117,70.1,117z M117.2,115.6v-2.2
		c-0.5,0.1-0.8,0.2-1.5,0.3C116.2,114.3,116.5,114.7,117.2,115.6z M78.6,113.4c-0.5,0.1-0.9,0.2-1.3,0.3v1h1.5
		C78.8,114.2,78.7,113.9,78.6,113.4z M70.1,112.7v-1.2c-0.2,0-0.4,0-0.6,0c0.1,0.4,0.2,0.8,0.3,1.2C69.9,112.7,70,112.7,70.1,112.7z
		 M125.2,112.7v-0.8c-0.4,0.1-0.9,0.3-1.5,0.5c0.1,0.1,0.1,0.2,0.2,0.3H125.2z M117.1,110.6c-0.3-0.7-0.5-1.1-0.7-1.5
		c-0.1,0.1-0.3,0.1-0.5,0.2c0.1,0.9,0.1,1.8,0.2,3.2C116.7,111.4,117,110.7,117.1,110.6z M79,110.4c-0.5-0.5-0.8-0.8-1.5-1.5v3.5
		C78.2,111.5,78.6,111,79,110.4z M72.6,103.4l-1-1v-2.3c0.7-0.5,1.7-1,2.4-1.6c0.6-0.5,0.9-1.2,1.7-2.3c-0.4-1.1,0.8-2.7,0.2-4.5
		c-0.2-0.7,0.6-1.9,1.2-2.6c0.3-0.4,1.2-0.5,1.7-0.8c2.1,2.7,0.9,5.7,1.4,8.6c0.3,0.1,0.6,0.1,1.1,0.2c0.1,0.6,0.3,1.3,0.4,2l0.4,0
		v-36c0.9,0.4,1.5,0.7,2,0.9c0.3,1.2,0.6,2.4-0.7,3.5c0.9,0.1,1.5,0.1,2.3,0.1c-1.1-1.9-0.5-3.7-0.7-5.6c1.1-0.6,2.2-1.2,3.4-1.8
		c0.5-5.2,0.4-7.9-0.5-9.8c0.3-0.7,0.7-1.4,1.1-2.1c0.5,0.6,1.1,1.3,1.7,1.9c-0.6,1.4-1,6.3-0.6,9.5c0.1,0.5,0.6,1,1.1,1.8
		c0.5-1.9,0.2-3.5,0.3-5c0.1-1.8,0-3.6,0-5.4c0-1.7,0.5-3.5-0.1-5c-0.7-1.6-0.4-3.1-0.6-4.4c1.4-1.1,2.5-2.1,3.9-3.3
		c-0.6-1.9-1.2-3.7-1.9-5.8c0.9-0.1,1.5-0.2,2.2-0.3c0.8-2.2-1.7-2.9-1.8-4.8c0.4-0.3,1-0.7,1.9-1.3c0-0.9-0.1-2,0-3.2
		c0.2-4,0.5-7.9,0.7-11.8c0-0.7,0-1.4,0-1.9c-1.1-0.8-2-1.5-2.8-2.1V2.7l1.5-0.1l1.2,4.3c0.2,0,3.3,0,3.5,0c0.1-1.3,0.8-3,0.9-4.4
		c0.1-0.1,1.1,0,1.2-0.1l0.2,4.1c-0.9,0.9-1.8,1.8-2.8,2.7c0,3-0.1,5.9,0,8.9c0.1,2.8,0.5,5.5,0.8,8.5c0.4,0.4,0.9,1,1.5,1.7
		c-0.6,0.7-1.1,1.3-1.6,1.8v2.3c0.7,0.1,1.3,0.2,2.1,0.3c0,0.5,0.1,1,0.1,1.6c-0.7,0.6-1.6,1.3-2.2,1.8v2.6c0.9,0.8,1.7,1.5,2.8,2.5
		c0.2,0,0.7,0.1,1.3,0.1c0.1,0.4,0.2,0.6,0.2,0.8c-0.9,2.1-1.3,4.3-1.4,6.6c-0.1,3.8,0,7.6,0,11.6c0.3,0.3,0.6,0.7,1.4,1.6V49.2h2
		V61c0.7,0.1,1.4,0.3,2.2,0.4v6.2c0.7,0,1.4,0.1,2.3,0.1V63c0.9,0.6,1.5,0.9,2.1,1.3v33.4c0.7-0.3,1.2-0.5,2.1-0.9
		c-0.2-1.8,0.6-3.8-0.6-5.9c0.5-0.8,1.1-1.7,1.8-2.7c0.9,1.2,1.7,2.3,2.6,3.4c-1.1,1.6,0.1,3.7,1.1,5.6c0.5,1,1.3,1.9,2.4,2.6
		c0.8,0.4,1.6,1.1,1.3,2.3c-0.6,0.4-1.1,0.8-1.9,1.3H72.6z M108.4,99V81.6c0.5,0.1,1.1,0.4,1.7,0.6v-3.3c-0.8,0.4-1.4,0.7-2,1
		c-0.6-0.3-1.2-0.5-2-0.9v3.2c0.7-0.3,1.2-0.7,1.7-0.7V99H108.4z M86.5,98.2c0-5.6,0-11.1,0-17.1c0.9,0.5,1.4,0.7,2.1,1.1V79
		c-1,0.3-2,0.6-2.9,0.8c-0.5-0.2-1.1-0.5-1.8-0.8v3c0.7,0,1.3,0.1,2.1,0.1v16.5C86.4,98.4,86.5,98.3,86.5,98.2z M100.1,95.8V80
		C99.3,85.9,99.4,93.4,100.1,95.8z M95,95.6V80.7c-0.1,0-0.2,0-0.3,0c-0.3,0.3-0.5,0.5-0.8,0.8v14C94.3,95.5,94.6,95.6,95,95.6z
		 M103.8,81c0-0.1-0.3-0.2-0.4-0.3c-0.3,0.3-0.5,0.5-0.9,0.9v14h1.3C103.8,90.7,103.8,85.8,103.8,81z M91.1,79.7v15.8
		C92,89.2,91.8,82,91.1,79.7z M96.7,80v15.5C97.7,90.2,97.6,82.2,96.7,80z M103.8,77.4l-2.2,0.3h-8.2l-2.2,0.7h11.7
		C103.1,78.1,103.5,77.7,103.8,77.4z M111,73.5h-1.5c0.2,1.4-0.2,2.8,0.4,4.5C110.3,76.3,110.7,74.9,111,73.5z M84.3,73.4
		c-0.4,1.4-0.6,2.9-0.3,4.3h1C84.7,76.1,84.5,74.8,84.3,73.4z M88.6,73.5c-0.1,0-0.2,0-0.3,0c-0.5,1.3-1,2.7-1.5,4.1h2.1
		C88.8,76.2,88.7,74.9,88.6,73.5z M106.1,73.5v4C106.6,76.2,107,74.9,106.1,73.5z M100.6,74.6c1.9-1.9,1.9-4.9,0-6.8s-4.9-1.9-6.8,0
		c-1.9,1.9-1.9,4.9,0,6.8C95.7,76.4,98.7,76.4,100.6,74.6z M89.6,64.3c-0.4-0.1-0.8-0.2-1.5-0.3c0.1,1.3-0.2,2.5,0.4,3.9
		C88.9,66.5,89.2,65.5,89.6,64.3z M105.4,63.4v4.1C105.8,66.5,106.3,65.3,105.4,63.4z M98.8,64.3h-2.2c0.1,0.5,0.2,0.8,0.3,1.5
		C97.5,65.3,97.9,65,98.8,64.3z M93.2,65.4c-0.1-0.5-0.2-0.9-0.2-1.2h-2.1c0.1,0.6,0.2,0.9,0.3,1.4C91.9,65.5,92.5,65.5,93.2,65.4z
		 M101.7,64.1l-1,0.2C101.2,64.3,101.5,64.2,101.7,64.1z M101.7,64.1l0.5-0.1C102.1,64.1,101.9,64.1,101.7,64.1z M95.9,61.2V46.3
		h-1.2v14.9H95.9z M99,45.9v15.2C99.8,55.8,99.7,48.5,99,45.9z M96.8,6.2V0h1.5v6.2H96.8z"/>
</g>
</svg>
