<?xml version="1.0" encoding="utf-8"?>
<!-- Generator: Adobe Illustrator 25.0.0, SVG Export Plug-In . SVG Version: 6.00 Build 0)  -->
<svg version="1.1" id="Layer_1" xmlns="http://www.w3.org/2000/svg" xmlns:xlink="http://www.w3.org/1999/xlink" x="0px" y="0px"
	 viewBox="0 0 24 24" style="enable-background:new 0 0 24 24;" xml:space="preserve">
<style type="text/css">
	.st0{fill:#005EFF;}
</style>
<path class="st0" d="M22.7,16.7c-1.7,0-3.3-0.3-4.8-0.8c-0.5-0.1-1,0-1.4,0.3l-2.9,2.9c-3.8-1.9-6.9-5-8.8-8.8l2.9-2.9
	c0.4-0.4,0.5-0.9,0.3-1.4C7.6,4.6,7.3,3,7.3,1.3C7.3,0.6,6.7,0,6,0H1.3C0.6,0,0,0.6,0,1.3C0,13.8,10.1,24,22.7,24
	c0.7,0,1.3-0.6,1.3-1.3V18C24,17.3,23.4,16.7,22.7,16.7 M21.3,12H24c0-6.7-5.4-12-12-12v2.7C17.1,2.7,21.3,6.8,21.3,12 M16,12h2.7
	c0-3.7-3-6.7-6.7-6.7V8C14.2,8,16,9.8,16,12L16,12z"/>
</svg>
