<?xml version="1.0" encoding="utf-8"?>
<!-- Generator: Adobe Illustrator 25.0.0, SVG Export Plug-In . SVG Version: 6.00 Build 0)  -->
<svg version="1.1" id="Layer_1" xmlns="http://www.w3.org/2000/svg" xmlns:xlink="http://www.w3.org/1999/xlink" x="0px" y="0px"
	 viewBox="0 0 16 16" style="enable-background:new 0 0 16 16;" xml:space="preserve">
<style type="text/css">
	.st0{fill:#FFFFFF;}
</style>
<path class="st0" d="M15.1,11.1c-1.1,0-2.2-0.2-3.2-0.5c-0.3-0.1-0.7,0-0.9,0.2l-2,2c-2.5-1.3-4.6-3.3-5.9-5.9l2-2
	c0.2-0.3,0.3-0.6,0.2-0.9C5.1,3.1,4.9,2,4.9,0.9C4.9,0.4,4.5,0,4,0H0.9C0.4,0,0,0.4,0,0.9C0,9.2,6.8,16,15.1,16
	c0.5,0,0.9-0.4,0.9-0.9V12C16,11.5,15.6,11.1,15.1,11.1 M14.2,8H16c0-4.4-3.6-8-8-8v1.8C11.4,1.8,14.2,4.5,14.2,8 M10.7,8h1.8
	c0-2.5-2-4.4-4.4-4.4v1.8C9.5,5.3,10.7,6.5,10.7,8L10.7,8z"/>
</svg>
