<?xml version="1.0" encoding="utf-8"?>
<!-- Generator: Adobe Illustrator 25.0.0, SVG Export Plug-In . SVG Version: 6.00 Build 0)  -->
<svg version="1.1" id="Layer_1" xmlns="http://www.w3.org/2000/svg" xmlns:xlink="http://www.w3.org/1999/xlink" x="0px" y="0px"
	 viewBox="0 0 320 311.7" style="enable-background:new 0 0 320 311.7;" xml:space="preserve">
<style type="text/css">
	.st0{fill-rule:evenodd;clip-rule:evenodd;fill:#FFFFFF;}
</style>
<path class="st0" d="M180.9,308c-0.1-2.2,1.6-4,3.8-4.1c10.5-0.5,21-4,30-10.7c14.5-10.8,22.1-27.4,22-44.1l-6.1,6.8
	c-1.5,1.6-4,1.8-5.6,0.3c-1.6-1.5-1.8-4-0.3-5.6l12.3-13.8c1.5-1.6,4-1.8,5.6-0.3l13.8,12.3c1.6,1.5,1.8,4,0.3,5.6
	c-1.5,1.6-4,1.8-5.6,0.3l-6.6-5.9c0.2,19.3-8.6,38.3-25.2,50.7c-10.4,7.7-22.4,11.7-34.4,12.3C182.9,311.9,181,310.1,180.9,308z
	 M0,289.2v-25.6c0-4.4,3.5-7.9,7.9-7.9h38.2v-17.6H7.9c-4.4,0-7.9-3.5-7.9-7.9v-25.6c0-4.4,3.5-7.9,7.9-7.9h38.2v-17.6H7.9
	c-4.4,0-7.9-3.6-7.9-7.9v-25.5c0-4.4,3.5-7.9,7.9-7.9H136c4.4,0,7.9,3.6,7.9,7.9v25.5c0,4.4-3.5,7.9-7.9,7.9v0H97.8v17.6H136
	c4.4,0,7.9,3.5,7.9,7.9v25.5c0,4.4-3.5,7.9-7.9,7.9H97.8v17.6H136c4.4,0,7.9,3.5,7.9,7.9v25.6c0,4.4-3.5,7.9-7.9,7.9H7.9
	C3.6,297.1,0,293.6,0,289.2z M135.4,288.6v-24.2H8.6v24.2H135.4z M88.3,276.5c0-2.4,1.9-4.3,4.3-4.3h0.9c2.4,0,4.3,1.9,4.3,4.3
	c0,2.4-1.9,4.3-4.3,4.3h-0.9C90.3,280.8,88.3,278.9,88.3,276.5z M114.8,276.5c0-2.4,1.9-4.3,4.3-4.3h0.9c2.4,0,4.3,1.9,4.3,4.3
	c0,2.4-1.9,4.3-4.3,4.3h-0.9C116.8,280.8,114.8,278.9,114.8,276.5z M19.6,276.5c0-2.4,1.9-4.3,4.3-4.3h47.7c2.4,0,4.3,1.9,4.3,4.3
	c0,2.4-1.9,4.3-4.3,4.3H23.9C21.5,280.7,19.6,278.8,19.6,276.5z M101.6,276.4c0-2.4,1.9-4.3,4.3-4.3h0.9c2.4,0,4.3,1.9,4.3,4.3
	c0,2.4-1.9,4.3-4.3,4.3h-0.9C103.5,280.7,101.6,278.8,101.6,276.4z M89.3,255.8v-17.6H54.7v17.6H89.3z M50.4,229.6h43.2
	c0.1,0,0.2,0,0.3,0h41.5v-24.2H8.6v24.2H50C50.2,229.6,50.3,229.6,50.4,229.6z M161.6,205V17.1c0-9.5,7.7-17.1,17.2-17.1h124.1
	c9.5,0,17.1,7.7,17.1,17.1V205c0,9.5-7.7,17.2-17.1,17.2H178.8C169.3,222.2,161.6,214.5,161.6,205z M88.3,217.5
	c0-2.4,1.9-4.3,4.3-4.3h1c2.4,0,4.3,1.9,4.3,4.3c0,2.4-1.9,4.3-4.3,4.3h-1C90.3,221.8,88.3,219.9,88.3,217.5z M114.8,217.5
	c0-2.4,1.9-4.3,4.3-4.3h1c2.4,0,4.3,1.9,4.3,4.3c0,2.4-1.9,4.3-4.3,4.3h-0.9C116.7,221.8,114.8,219.9,114.8,217.5z M19.6,217.4
	c0-2.4,1.9-4.3,4.3-4.3h47.7c2.4,0,4.3,1.9,4.3,4.3s-1.9,4.3-4.3,4.3H23.9C21.5,221.7,19.6,219.8,19.6,217.4z M101.6,217.4
	c0-2.4,1.9-4.3,4.3-4.3h0.9c2.4,0,4.3,1.9,4.3,4.3s-1.9,4.3-4.3,4.3h-0.9C103.5,221.7,101.6,219.8,101.6,217.4z M311.4,205V17.2
	c0-4.7-3.9-8.6-8.6-8.6H178.8c-4.7,0-8.6,3.9-8.6,8.6V205c0,4.7,3.9,8.6,8.6,8.6h124.1C307.6,213.6,311.4,209.8,311.4,205z
	 M204.8,202.8c0-2.4,1.9-4.3,4.3-4.3h41.5c2.4,0,4.3,1.9,4.3,4.3c0,2.4-1.9,4.3-4.3,4.3h-41.5C206.7,207.1,204.8,205.2,204.8,202.8z
	 M265.8,202.8c0-2.4,1.9-4.3,4.3-4.3h2.4c2.4,0,4.3,1.9,4.3,4.3c0,2.4-1.9,4.3-4.3,4.3h-2.4C267.7,207.1,265.8,205.2,265.8,202.8z
	 M89.3,196.8v-17.6H54.7v17.6H89.3z M177.7,187.7V34.4c0-2.4,1.9-4.3,4.3-4.3h117.6c2.4,0,4.3,1.9,4.3,4.3v153.3
	c0,2.4-1.9,4.3-4.3,4.3H182C179.6,192,177.7,190.1,177.7,187.7z M295.3,183.4V38.7h-109v144.7H295.3z M50.4,170.5h43.2
	c0.1,0,0.3,0,0.4,0h41.4v-24.2H8.6v24.2H50C50.1,170.6,50.2,170.5,50.4,170.5z M201.6,162.4c0-2.4,1.9-4.3,4.3-4.3h69.8
	c2.4,0,4.3,1.9,4.3,4.3s-1.9,4.3-4.3,4.3h-69.8C203.5,166.7,201.6,164.8,201.6,162.4z M88.3,158.5c0-2.4,1.9-4.3,4.3-4.3h0.9
	c2.4,0,4.3,1.9,4.3,4.3s-1.9,4.3-4.3,4.3h-0.9C90.3,162.8,88.3,160.9,88.3,158.5z M114.8,158.5c0-2.4,1.9-4.3,4.3-4.3h0.9
	c2.4,0,4.3,1.9,4.3,4.3s-1.9,4.3-4.3,4.3h-0.9C116.7,162.8,114.8,160.9,114.8,158.5z M19.6,158.4c0-2.4,1.9-4.3,4.3-4.3h47.7
	c2.4,0,4.3,1.9,4.3,4.3c0,2.4-1.9,4.3-4.3,4.3H23.9C21.5,162.7,19.6,160.8,19.6,158.4z M101.6,158.4c0-2.4,1.9-4.3,4.3-4.3h0.9
	c2.4,0,4.3,1.9,4.3,4.3c0,2.4-1.9,4.3-4.3,4.3h-0.9C103.5,162.7,101.6,160.8,101.6,158.4z M201.6,136.7c0-2.4,1.9-4.3,4.3-4.3h69.8
	c2.4,0,4.3,1.9,4.3,4.3c0,2.4-1.9,4.3-4.3,4.3h-69.8C203.5,141,201.6,139.1,201.6,136.7z M69.8,117.1L56,104.8
	c-1.6-1.5-1.8-4-0.3-5.6c1.5-1.6,4-1.8,5.6-0.3l6.6,5.9C67.7,85.5,76.4,66.4,93,54c10.4-7.7,22.4-11.7,34.4-12.3
	c2.2-0.1,4,1.6,4.1,3.8c0.1,2.2-1.6,4-3.8,4.1c-10.5,0.5-21,4-30,10.7c-14.5,10.8-22.1,27.4-22,44.1l6.1-6.8c1.5-1.6,4-1.8,5.6-0.3
	c1.6,1.5,1.8,4,0.3,5.6l-12.3,13.8C74,118.5,71.4,118.6,69.8,117.1z M201.6,111.1c0-2.4,1.9-4.3,4.3-4.3h69.8c2.4,0,4.3,1.9,4.3,4.3
	s-1.9,4.3-4.3,4.3h-69.8C203.5,115.4,201.6,113.4,201.6,111.1z M201.6,85.4c0-2.4,1.9-4.3,4.3-4.3h69.8c2.4,0,4.3,1.9,4.3,4.3
	c0,2.4-1.9,4.3-4.3,4.3h-69.8C203.5,89.7,201.6,87.8,201.6,85.4z M201.6,59.7c0-2.4,1.9-4.3,4.3-4.3h69.8c2.4,0,4.3,1.9,4.3,4.3
	c0,2.4-1.9,4.3-4.3,4.3h-69.8C203.5,64,201.6,62.1,201.6,59.7z M210.7,19.4c0-2.4,1.9-4.3,4.3-4.3h51.7c2.4,0,4.3,1.9,4.3,4.3
	s-1.9,4.3-4.3,4.3H215C212.6,23.6,210.7,21.7,210.7,19.4z"/>
</svg>
