<?xml version="1.0" encoding="utf-8"?>
<!-- Generator: Adobe Illustrator 25.0.0, SVG Export Plug-In . SVG Version: 6.00 Build 0)  -->
<svg version="1.1" id="Layer_1" xmlns="http://www.w3.org/2000/svg" xmlns:xlink="http://www.w3.org/1999/xlink" x="0px" y="0px"
	 viewBox="0 0 268.7 268.7" style="enable-background:new 0 0 268.7 268.7;" xml:space="preserve">
<style type="text/css">
	
		.st0{fill-rule:evenodd;clip-rule:evenodd;fill:#42CCCC;stroke:#42CCCC;stroke-width:0.69;stroke-linejoin:bevel;stroke-miterlimit:10;}
	.st1{fill:#FFFFFF;}
</style>
<path class="st0" d="M39.6,229.1c-52.3-52.3-52.3-137.2,0-189.5c52.3-52.3,137.2-52.3,189.5,0c52.3,52.3,52.3,137.2,0,189.5
	C176.8,281.4,91.9,281.4,39.6,229.1z M211.4,211.4c42.5-42.5,42.5-111.5,0-154.1c-42.5-42.5-111.5-42.5-154.1,0
	c-42.5,42.5-42.5,111.5,0,154.1C99.8,253.9,168.9,253.9,211.4,211.4z"/>
<g>
	<path class="st1" d="M137.7,189.2h-60c-3.7,0-6.6-3-6.6-6.6V76.6c0-3.7,3-6.6,6.6-6.6h22.7c0.8-1.4,2.2-2.2,3.8-2.2h3.1
		c1.1-2.5,3.1-4.6,5.7-5.7c5.6-2.4,12.1,0.1,14.5,5.7h3.1c1.6,0,3,0.8,3.8,2.2h22.7c3.7,0,6.6,3,6.6,6.6v28.7h33.1
		c3.7,0,6.6,3,6.6,6.6v75c0,3.7-3,6.6-6.6,6.6h-53C141.2,193.6,138.7,191.8,137.7,189.2z M199.1,187v-75c0-1.2-1-2.2-2.2-2.2h-53
		c-1.2,0-2.2,1-2.2,2.2v75c0,1.2,1,2.2,2.2,2.2h53C198.1,189.2,199.1,188.2,199.1,187z M137.3,184.7v-4.4h-53c-2.4,0-4.4-2-4.4-4.4
		V83.2c0-2.4,2-4.4,4.4-4.4h15.5v-4.4H77.7c-1.2,0-2.2,1-2.2,2.2v105.9c0,1.2,1,2.2,2.2,2.2H137.3z M137.3,175.9v-50.8H95.4
		c-1.2,0-2.2-1-2.2-2.2s1-2.2,2.2-2.2h6.6v-11c0-1.2,1-2.2,2.2-2.2s2.2,1,2.2,2.2v11h4.4v-13.2c0-1.2,1-2.2,2.2-2.2s2.2,1,2.2,2.2
		v13.2h4.4v-15.5c0-1.2,1-2.2,2.2-2.2s2.2,1,2.2,2.2v15.5h4.4V99.6l-0.7,0.6c-0.9,0.8-2.2,0.8-3.1,0c-0.9-0.8-0.9-2.2-0.1-3.1
		l4.4-4.4c0.9-0.9,2.3-0.9,3.1,0l4.4,4.4c0.8,0.8,0.8,2.2,0,3.1c-0.8,0.9-2.2,0.9-3.1,0.1l-0.6-0.6v21.1h4.4v-8.8
		c0-3.7,3-6.6,6.6-6.6h6.6V83.2h-16.1c-0.8,1.4-2.2,2.2-3.8,2.2h-26.5c-1.6,0-3-0.8-3.8-2.2H84.4v92.7H137.3z M159.4,105.3V76.6
		c0-1.2-1-2.2-2.2-2.2h-22.1v4.4h15.5c2.4,0,4.4,2,4.4,4.4v22.1H159.4z M130.7,81v-8.8H126c-1,0-1.9-0.7-2.1-1.7
		c-0.6-2.3-2.4-4.1-4.7-4.7c-3.5-0.9-7.2,1.2-8.1,4.7c-0.3,1-1.1,1.7-2.1,1.7h-4.7V81H130.7z"/>
	<path class="st1" d="M146.2,127.4v-8.8c0-2.4,2-4.4,4.4-4.4h39.7c2.4,0,4.4,2,4.4,4.4v8.8c0,2.4-2,4.4-4.4,4.4h-39.7
		C148.1,131.8,146.2,129.8,146.2,127.4z M190.3,127.4v-8.8h-39.7v8.8H190.3z"/>
	<path class="st1" d="M146.2,145v-4.4c0-2.4,2-4.4,4.4-4.4h4.4c2.4,0,4.4,2,4.4,4.4v4.4c0,2.4-2,4.4-4.4,4.4h-4.4
		C148.1,149.4,146.2,147.5,146.2,145z M155,145v-4.4h-4.4v4.4H155z"/>
	<path class="st1" d="M163.8,145v-4.4c0-2.4,2-4.4,4.4-4.4h4.4c2.4,0,4.4,2,4.4,4.4v4.4c0,2.4-2,4.4-4.4,4.4h-4.4
		C165.8,149.4,163.8,147.5,163.8,145z M172.6,145v-4.4h-4.4v4.4H172.6z"/>
	<path class="st1" d="M181.5,145v-4.4c0-2.4,2-4.4,4.4-4.4h4.4c2.4,0,4.4,2,4.4,4.4v4.4c0,2.4-2,4.4-4.4,4.4h-4.4
		C183.5,149.4,181.5,147.5,181.5,145z M190.3,145v-4.4h-4.4v4.4H190.3z"/>
	<path class="st1" d="M146.2,162.7v-4.4c0-2.4,2-4.4,4.4-4.4h4.4c2.4,0,4.4,2,4.4,4.4v4.4c0,2.4-2,4.4-4.4,4.4h-4.4
		C148.1,167.1,146.2,165.1,146.2,162.7z M155,162.7v-4.4h-4.4v4.4H155z"/>
	<path class="st1" d="M163.8,162.7v-4.4c0-2.4,2-4.4,4.4-4.4h4.4c2.4,0,4.4,2,4.4,4.4v4.4c0,2.4-2,4.4-4.4,4.4h-4.4
		C165.8,167.1,163.8,165.1,163.8,162.7z M172.6,162.7v-4.4h-4.4v4.4H172.6z"/>
	<path class="st1" d="M181.5,162.7v-4.4c0-2.4,2-4.4,4.4-4.4h4.4c2.4,0,4.4,2,4.4,4.4v4.4c0,2.4-2,4.4-4.4,4.4h-4.4
		C183.5,167.1,181.5,165.1,181.5,162.7z M190.3,162.7v-4.4h-4.4v4.4H190.3z"/>
	<path class="st1" d="M146.2,180.3v-4.4c0-2.4,2-4.4,4.4-4.4h4.4c2.4,0,4.4,2,4.4,4.4v4.4c0,2.4-2,4.4-4.4,4.4h-4.4
		C148.1,184.7,146.2,182.8,146.2,180.3z M155,180.3v-4.4h-4.4v4.4H155z"/>
	<path class="st1" d="M163.8,180.3v-4.4c0-2.4,2-4.4,4.4-4.4h4.4c2.4,0,4.4,2,4.4,4.4v4.4c0,2.4-2,4.4-4.4,4.4h-4.4
		C165.8,184.7,163.8,182.8,163.8,180.3z M172.6,180.3v-4.4h-4.4v4.4H172.6z"/>
	<path class="st1" d="M181.5,180.3v-4.4c0-2.4,2-4.4,4.4-4.4h4.4c2.4,0,4.4,2,4.4,4.4v4.4c0,2.4-2,4.4-4.4,4.4h-4.4
		C183.5,184.7,181.5,182.8,181.5,180.3z M190.3,180.3v-4.4h-4.4v4.4H190.3z"/>
	<path class="st1" d="M93.2,149.4c0-11,8.9-19.9,19.9-19.9c11,0,19.9,8.9,19.9,19.9c0,11-8.9,19.9-19.9,19.9
		C102.1,169.3,93.2,160.4,93.2,149.4z M119.3,163.6l-6.8-10.9l-10,8C107,164.9,113.6,166.1,119.3,163.6z M128.3,151.6H117l6,9.6l2-2
		C126.7,157.1,127.9,154.4,128.3,151.6z M99.7,157.3l11.1-8.9v-14.2c-2,0.3-3.9,1-5.7,2C97.8,140.5,95.4,149.9,99.7,157.3z
		 M115.3,134.2v13.1h13.1C127.3,140.5,122,135.1,115.3,134.2z"/>
</g>
</svg>
