<?xml version="1.0" encoding="utf-8"?>
<!-- Generator: Adobe Illustrator 25.0.0, SVG Export Plug-In . SVG Version: 6.00 Build 0)  -->
<svg version="1.1" id="Layer_1" xmlns="http://www.w3.org/2000/svg" xmlns:xlink="http://www.w3.org/1999/xlink" x="0px" y="0px"
	 viewBox="0 0 280 327.5" style="enable-background:new 0 0 280 327.5;" xml:space="preserve">
<style type="text/css">
	.st0{fill-rule:evenodd;clip-rule:evenodd;fill:#FFFFFF;}
</style>
<path class="st0" d="M62,256.2C24.6,231.1,0,188.4,0,140C0,62.7,62.7,0,140,0s140,62.7,140,140c0,48.4-24.6,91-61.9,116.2
	c-5.6,22.9-24.4,49.5-77.9,71.3C86.8,305.7,67.7,279.1,62,256.2z M208.5,237.8v-49.4c0-4.4-3.2-9-8.4-9
	c-18.9-1.2-37.8-10.6-53.2-21.3c-1.9-1.2-4.1-2.3-6.9-2.6c-2.8,0.3-4.9,1.4-6.8,2.6c-15.5,10.6-34.3,20.1-53.2,21.3
	c-5.2,0-8.3,4.6-8.4,9v49.4c0,21.9,10.4,52.5,68.7,76.2C198.5,290.2,208.5,259.7,208.5,237.8z M109.9,262.6V225
	c0-4.2,3.4-7.5,7.5-7.5h3.8V210c0-10.4,8.4-18.8,18.8-18.8s18.8,8.4,18.8,18.8v7.5h3.8c4.1,0,7.5,3.4,7.5,7.5v37.6
	c0,4.2-3.4,7.5-7.5,7.5h-45.1C113.3,270.1,109.9,266.8,109.9,262.6z M147.5,243.8c0-4.2-3.4-7.5-7.5-7.5c-4.2,0-7.5,3.4-7.5,7.5
	c0,4.1,3.4,7.5,7.5,7.5C144.1,251.3,147.5,248,147.5,243.8z M249.1,206.7l1.9-3.1h-30.8v34.7c0,0.4,0,0.9,0,1.4
	C231.6,230.4,241.4,219.3,249.1,206.7z M59.8,238.3v-34.7H29l1.9,3.1c7.7,12.6,17.5,23.7,29,32.9C59.8,239.2,59.8,238.7,59.8,238.3z
	 M151.3,217.5V210c0-6.2-5.1-11.3-11.3-11.3c-6.2,0-11.3,5-11.3,11.3v7.5H151.3z M59.8,191.5v-11.1c0-0.6,0.1-1.2,0.2-1.8
	c-1.6-9.5-2.6-19.4-3-29.6l-0.1-2.8H12.2l0.2,3.9c1.1,14.3,4.6,27.9,10,40.4l0.4,0.9H59.8z M257.1,191.5l0.4-0.9
	c5.4-12.6,8.9-26.2,10-40.4l0.2-3.9h-44.6l-0.1,2.7c-0.4,10.1-1.4,20-3.1,29.5c0.1,0.6,0.2,1.3,0.2,1.9v11.1H257.1z M130,146.3
	l-61.1,0c0.2,8.1,0.9,15.9,1.9,23.4C91.7,168.2,112.6,158,130,146.3z M211.1,146.4l-61.1,0c17.4,11.7,38.2,21.9,59.2,23.5
	C210.2,162.3,210.9,154.4,211.1,146.4z M56.9,134.3l0.1-3.4c0.5-14.1,2.4-27.9,5.3-40.8l0.3-1H22.6l-0.1,0.3
	c-5.4,12.6-8.9,26.2-10,40.4l-0.3,4.5H56.9z M134,134.3V89.1H74.8l-1,4.2c-2.8,12.5-4.5,26-4.9,40.3l0,0.7H134z M211.1,134.3l0-0.7
	c-0.4-14.4-2.1-28-4.8-40.5l-1-4H146v45.2H211.1z M267.8,134.3l-0.3-4.5c-1.1-14.3-4.6-27.9-10-40.4l-0.1-0.3h-39.8l0.2,0.9
	c2.9,12.9,4.7,26.7,5.3,40.9l0.1,3.4H267.8z M65.7,77l0.6-2c6.8-22,17-40.8,29.7-54.1l1.6-1.6L96,19.8c-27.3,10-50.2,29-65.2,53.4
	L28.6,77H65.7z M134,77V12.6l-0.9,0.1c-21.8,4-41.8,26.6-53.6,60.2L78.2,77H134z M201.9,77l-1.4-4.2c-11.7-33.6-31.7-56.1-53.6-60.1
	l-0.9-0.1V77H201.9z M251.3,77l-2.2-3.8c-15-24.4-37.9-43.4-65.2-53.4l-1.3-0.4l1.5,1.5c12.6,13.2,22.8,32,29.6,54l0.6,2.1H251.3z"
	/>
</svg>
