<?xml version="1.0" encoding="utf-8"?>
<!-- Generator: Adobe Illustrator 25.0.0, SVG Export Plug-In . SVG Version: 6.00 Build 0)  -->
<svg version="1.1" id="Layer_1" xmlns="http://www.w3.org/2000/svg" xmlns:xlink="http://www.w3.org/1999/xlink" x="0px" y="0px"
	 viewBox="0 0 42.5 50" style="enable-background:new 0 0 42.5 50;" xml:space="preserve">
<style type="text/css">
	.st0{fill-rule:evenodd;clip-rule:evenodd;fill:#F5BD0A;}
</style>
<g>
	<path class="st0" d="M15.2,13.9c0.6-1.1,2.6-2.8,4.3-2.9c2.2-0.1,3.9,1.2,5.9,2.1c1,0.7,0.5,1.5-0.9,2.4c-3.5,3-6.3,3.5-8.3,0.8
		C15.3,15.6,15.2,14.8,15.2,13.9z"/>
	<path class="st0" d="M27.6,47.6c0.6-3.6,0.7-7.2,0.6-10.9c0.3-1.8,1.2-2.1,2.6-1.1c1,3.8,3.5,2.9,6.1,0.4c0.8-0.7,1.3-0.3,1.5,1
		c0.1,1.5,0.7,2.8,2.5,3.6c1.5,0.8,1.9,1.8,0.1,3.2c-2.9,0.9-5.2,2.9-7.7,5.2c-1.3,0.8-2.6,0.9-4,0.3C28.4,49,27.9,48.4,27.6,47.6z"
		/>
	<path class="st0" d="M0.5,44.6c1-1.5,1.4-3.3,0.7-4.5c-0.2-1.7,0-3.2,1.9-3.2c1.7,0.2,2.5-0.3,2.7-1.6c0.7-1.1,1.6-1.5,3.2-0.6
		c1.3,1.3,2.3,2.8,3.2,4.4c3.4,4.3,5.1,7.9,2.9,9.7c-1.8,1.4-4.7,0.1-7.7-1c-1.8-0.6-3.4-0.9-5-1C1.2,46.5-0.3,46,0.5,44.6z"/>
	<path d="M21.1,47.4c-2.1,0-3.8,0.3-5,0.9v0c-0.8,1-1.7,1.5-3,1.5c-0.8,0-2.1-0.3-3.8-0.9c-1.7-0.6-3.3-1.1-4.6-1.4
		c-0.1,0-0.4-0.1-0.9-0.2S2.9,47.1,2.5,47c-0.3-0.1-0.8-0.2-1.2-0.3c-0.4-0.1-0.8-0.3-1-0.5C0.1,45.9,0,45.7,0,45.5s0.1-0.6,0.2-0.8
		c0.1-0.2,0.2-0.4,0.3-0.5c0.1-0.2,0.2-0.3,0.3-0.5C0.9,43.4,1,43.3,1,43.1c0.1-0.1,0.1-0.3,0.2-0.5c0-0.2,0.1-0.3,0.1-0.5
		c0-0.2-0.1-0.7-0.2-1.5c-0.1-0.9-0.2-1.4-0.2-1.6c0-0.7,0.2-1.3,0.5-1.7s0.7-0.6,1.1-0.6h1.9c0.1,0,0.4-0.1,0.7-0.3
		c0.1-0.3,0.2-0.5,0.3-0.7c0.1-0.2,0.1-0.3,0.1-0.4c0-0.1,0.1-0.2,0.1-0.3c0.1-0.1,0.2-0.2,0.3-0.4c-0.1-0.2-0.2-0.4-0.2-0.6
		c0-0.2,0-0.3,0-0.4c0-0.6,0.3-1.4,0.9-2.5l0.6-1C7.6,29,8,28.3,8.3,27.7c0.3-0.7,0.6-1.7,0.9-3c0.3-1.2,0.9-2.3,1.9-3.5l1.2-1.5
		c0.9-1,1.4-1.8,1.7-2.5c0.3-0.7,0.5-1.5,0.5-2.1c0-0.3-0.1-1.3-0.3-3C14.1,10.4,14,8.8,14,7.3c0-1.2,0.1-2,0.3-2.8
		c0.2-0.8,0.6-1.7,1.2-2.3c0.5-0.7,1.2-1.3,2.1-1.7c1-0.3,2.2-0.5,3.5-0.5c0.5,0,1,0,1.5,0.2c0.5,0,1.2,0.2,2,0.5
		c0.7,0.3,1.3,0.7,1.8,1.2c0.7,0.5,1.2,1.3,1.7,2.2c0.3,1,0.7,2,0.8,3.3c0.2,0.8,0.2,1.7,0.3,2.8c0,1,0.2,1.7,0.2,2.1
		c0.2,0.5,0.2,1.2,0.3,2c0.2,0.7,0.3,1.3,0.7,1.8c0.3,0.7,0.7,1.3,1.2,2c0.5,0.8,1.2,1.7,1.8,2.7c1.5,1.7,2.7,3.5,3.3,5.3
		c0.8,1.7,1.3,3.8,1.3,6.1c0,1.2-0.2,2.3-0.5,3.3c0.3,0,0.5,0.1,0.7,0.4c0.2,0.2,0.3,0.7,0.5,1.5l0.2,1.2c0.2,0.4,0.3,0.7,0.8,1
		c0.3,0.3,0.7,0.6,1.2,0.8c0.3,0.2,0.8,0.4,1.2,0.7c0.3,0.3,0.5,0.7,0.5,1c0,0.6-0.2,1-0.5,1.3c-0.3,0.3-0.7,0.6-1.2,0.7
		c-0.3,0.2-1,0.5-2,1c-0.8,0.5-1.7,1.1-2.5,1.8l-1.7,1.4c-0.7,0.6-1.3,1.1-1.8,1.4c-0.5,0.3-1.2,0.4-1.8,0.4l-1.2-0.1
		c-1.3-0.3-2.1-1-2.6-2C24.6,47.5,22.5,47.4,21.1,47.4 M9.3,31.7c0-1.1,0.3-2.4,0.9-3.9c0.6-1.5,1.2-2.5,1.8-3.2
		c0-0.2-0.1-0.2-0.3-0.2l-0.2-0.2c-0.5,0.5-1.1,1.7-1.8,3.3c-0.7,1.5-1.1,2.9-1.1,3.9c0,0.7,0.2,1.4,0.5,2c0.4,0.5,1.2,1.3,2.6,2.3
		l1.8,1.1c1.9,1.6,2.9,2.8,2.9,3.4c0,0.3-0.2,0.7-0.7,1.1c-0.3,0.4-0.8,0.6-1.2,0.6c0,0,0,0,0,0.1c0,0,0.2,0.3,0.5,1
		c0.7,0.9,2.2,1.4,4.2,1.4c3.6,0,6.5-1.5,8.6-4.5c0-0.8,0-1.3-0.2-1.6v-0.6c0-1.1,0.2-1.9,0.5-2.4c0.3-0.5,0.7-0.8,1.2-0.8
		c0.3,0,0.7,0.1,1,0.4c0.2-1.3,0.2-2.4,0.2-3.4c0-1.5,0-2.8-0.3-3.9c-0.2-1-0.5-1.8-0.8-2.5l-1-1.5c-0.3-0.5-0.5-1-0.8-1.5
		c-0.2-0.7-0.3-1.2-0.3-2c-0.5-0.8-0.8-1.7-1.3-2.5c-0.3-0.8-0.7-1.7-1-2.3l-1.5,1.2c-1.7,1.2-3,1.7-4.1,1.7c-1,0-1.8-0.2-2.3-0.8
		l-1-0.8c0,0.5-0.2,1.2-0.5,1.8l-1,2c-0.5,1.2-0.7,1.8-0.8,2.3c-0.1,0.3-0.1,0.7-0.2,0.7L12.3,26c-1.3,2.5-2,4.8-2,6.7
		c0,0.4,0,0.8,0.1,1.2C9.6,33.4,9.3,32.6,9.3,31.7 M3.8,46.8c1.5,0.2,3.3,0.7,5.3,1.4c2,0.7,3.2,1.1,3.7,1.1c1.2,0,2.1-0.5,2.9-1.5
		c0.2-0.3,0.2-0.7,0.2-1.1c0-1.6-1-3.5-2.8-5.9l-1.1-1.5c-0.2-0.3-0.5-0.8-0.9-1.4c-0.3-0.6-0.7-1.1-0.9-1.5c-0.2-0.4-0.6-0.8-1-1.1
		c-0.4-0.4-0.9-0.6-1.5-0.8c-0.7,0.1-1.2,0.4-1.4,0.7c-0.2,0.3-0.4,0.7-0.4,1c-0.1,0.3-0.1,0.6-0.3,0.7C5.3,36.9,5,37,4.7,37.1
		c-0.1,0-0.2,0-0.4,0H3.8c-0.9,0-1.5,0.1-1.8,0.3c-0.4,0.5-0.6,1-0.6,1.6c0,0.3,0.1,0.7,0.2,1.3c0.1,0.6,0.2,1.1,0.2,1.4
		c0,0.7-0.2,1.4-0.6,2c-0.4,0.7-0.6,1.2-0.6,1.6C0.7,46,1.8,46.5,3.8,46.8 M27.8,47.7c0.7,1.2,1.8,1.9,3.1,1.9c0.3,0,0.7,0,1-0.1
		c0.3-0.1,0.7-0.2,0.8-0.3c0.2-0.1,0.3-0.2,0.5-0.4c0.3-0.1,0.3-0.2,0.5-0.3l2.8-2.4c0.7-0.5,1.3-1,2.1-1.4c0.7-0.4,1.3-0.7,1.7-0.8
		c0.5-0.1,0.8-0.3,1.2-0.6c0.2-0.3,0.3-0.6,0.3-1c0-0.5-0.3-0.8-0.7-1.1c-0.3-0.3-0.7-0.5-1-0.6c-0.3-0.1-0.7-0.4-1.2-0.8
		c-0.3-0.4-0.7-1-0.8-1.8L38,37c-0.2-0.4-0.2-0.8-0.3-1c0,0,0-0.1-0.2-0.1c-0.2,0-0.5,0.2-0.7,0.4c-0.3,0.3-0.7,0.6-1,0.9
		c-0.2,0.3-0.7,0.6-1,0.9c-0.5,0.3-1,0.4-1.3,0.4c-1.3,0-2-0.4-2.5-1.1c-0.3-0.5-0.5-1.1-0.7-1.8c-0.3-0.3-0.5-0.4-0.8-0.4
		c-0.8,0-1.2,0.9-1.2,2.6V43c0,0.1-0.2,0.5-0.2,1c-0.2,0.5-0.2,1.1-0.2,1.7L27.8,47.7L27.8,47.7 M24,14.2c-2.1,1.5-3.8,2.1-5.1,2.1
		c-1.2,0-2.3-0.5-3.3-1.3c0.2,0.3,0.3,0.7,0.5,0.8l1,1c0.7,0.7,1.5,1,2.3,1c1.2,0,2.5-0.7,4.1-1.8l1.5-1c0.3-0.3,0.7-0.7,0.7-1.2
		c0-0.2,0-0.3-0.2-0.3c-0.2-0.3-1-0.8-2.6-1.3c-1.5-0.7-2.6-1-3.3-1c-0.5,0-1.3,0.3-2.5,1c-1,0.7-1.7,1.3-1.7,2c0,0,0.2,0.2,0.3,0.5
		c1,0.8,2,1.3,3,1.3c1.3,0,3-0.7,5.1-2.3V14C24,14,24,14.2,24,14.2 M22,11.6c-0.2-0.2-0.2-0.5-0.2-0.8c0-0.7,0-1,0.3-1.5
		c0.3-0.3,0.7-0.5,1-0.5c0.5,0,0.8,0.3,1.2,0.7c0.2,0.5,0.3,0.8,0.3,1.3c0,0.8-0.3,1.3-1,1.5c0,0,0.2,0.2,0.3,0.2
		c0.3,0,0.5,0.2,0.8,0.3c0.2-1,0.3-1.7,0.3-2.5c0-1-0.2-1.7-0.5-2.2c-0.5-0.5-1-0.7-1.7-0.7c-0.5,0-1,0.2-1.5,0.5
		C21.1,8.4,21,8.7,21,9.2c0,0.8,0.2,1.5,0.5,2.1C21.6,11.4,21.8,11.6,22,11.6 M37.2,35.6c0.2,0,0.2-0.1,0.2-0.2
		c0-0.4-0.2-0.8-0.7-1.3c-0.5-0.5-1.3-0.8-2.3-0.9c-0.2,0-0.3,0-0.3,0c-0.2,0-0.2,0-0.3,0c-0.2,0-0.5,0-0.7-0.1
		c0.5-1.5,0.7-2.9,0.7-4.1c0-1.7-0.3-2.8-1-3.8c-0.7-1-1.3-1.5-2.1-1.7c-0.2,0.2-0.2,0.2-0.2,0.3c0.8,0.3,1.7,1,2.2,2
		c0.5,1.2,0.7,2.1,0.7,3.3c0,0.9-0.2,2.3-0.8,4.1c-0.7,0.3-1.3,0.9-1.8,1.8c0,0.1,0,0.2,0.2,0.2c0,0,0.2-0.1,0.3-0.4
		c0.3-0.3,0.5-0.6,0.8-0.8c0.5-0.3,0.8-0.4,1.3-0.4c0.8,0,1.7,0.1,2.2,0.3c0.7,0.2,1,0.4,1.2,0.7c0.2,0.3,0.3,0.5,0.5,0.7
		C37,35.5,37.2,35.6,37.2,35.6 M16.5,12.2c-0.7-0.3-0.8-0.8-0.8-1.7c0-0.5,0-0.8,0.3-1.2c0.2-0.3,0.5-0.5,0.8-0.5
		c0.3,0,0.5,0.2,0.8,0.5c0.2,0.5,0.3,1,0.3,1.5v0.3h0.2v-0.2c0.2,0,0.2-0.3,0.2-1c0-0.5,0-1-0.3-1.5c-0.3-0.5-0.7-0.8-1.3-0.8
		c-0.5,0-1,0.3-1.2,0.8c-0.3,0.7-0.4,1.2-0.4,2c0,0.7,0.2,1.3,0.9,2C16.2,12.4,16.3,12.4,16.5,12.2 M18.3,12.4c-0.2,0-0.2,0-0.2-0.2
		s0-0.3,0.2-0.5c0.3,0,0.5-0.2,0.5-0.2c0.2,0,0.2,0.2,0.2,0.2c0,0.2-0.2,0.3-0.5,0.7H18.3 M23.3,9.7c0.3,0,0.5,0.3,0.7,0.8h0.3
		c-0.2-0.2-0.2-0.3-0.2-0.5c0-0.2,0-0.3-0.2-0.5c-0.2-0.2-0.3-0.3-0.5-0.3c0,0-0.2,0.2-0.3,0.2C23.1,9.6,23.3,9.6,23.3,9.7
		 M17.5,10.6c0-0.8-0.3-1.3-0.8-1.3c0,0,0,0.2-0.2,0.2v0.3H17c0,0.3,0.2,0.5,0.2,0.8H17.5 M20.5,12.2c0,0.2-0.2,0.2-0.2,0.2h-0.2
		c-0.2,0-0.2-0.2-0.3-0.3c0,0-0.2-0.2-0.2-0.3c0-0.2,0-0.2,0.2-0.2l0.3,0.2C20.3,11.9,20.5,12.1,20.5,12.2L20.5,12.2z"/>
</g>
</svg>
