<?xml version="1.0" encoding="utf-8"?>
<!-- Generator: Adobe Illustrator 25.0.0, SVG Export Plug-In . SVG Version: 6.00 Build 0)  -->
<svg version="1.1" id="Layer_1" xmlns="http://www.w3.org/2000/svg" xmlns:xlink="http://www.w3.org/1999/xlink" x="0px" y="0px"
	 viewBox="0 0 290 283.9" style="enable-background:new 0 0 290 283.9;" xml:space="preserve">
<style type="text/css">
	.st0{fill:#FFFFFF;}
</style>
<path class="st0" d="M78.5,277.9v-18.1c0-3.3,2.7-6,6-6h24.2v-24.2H6c-3.3,0-6-2.7-6-6V6c0-3.3,2.7-6,6-6H284c1.6,0,3.1,0.6,4.3,1.8
	S290,4.4,290,6v217.5c0,1.6-0.6,3.1-1.8,4.3c-1.1,1.1-2.7,1.8-4.3,1.8H181.2v24.2h24.2c1.6,0,3.1,0.6,4.3,1.8
	c1.1,1.1,1.8,2.7,1.8,4.3v18.1c0,1.6-0.6,3.1-1.8,4.3c-1.1,1.1-2.7,1.8-4.3,1.8H84.6C81.2,283.9,78.5,281.2,78.5,277.9z
	 M199.4,271.9v-6h-23.8c-0.1,0-0.3,0-0.4,0h-60.4c-0.1,0-0.3,0-0.4,0H90.6v6H199.4z M169.2,253.7v-24.2h-48.3v24.2H169.2z
	 M277.9,217.5v-24.2H12.1v24.2H277.9z M277.9,181.2V12.1H12.1v169.2H277.9z M127.5,163.1l-2.6-18.5c-4.4-1.7-8.2-4.1-11.8-6.9
	l-17.4,7.1c-1.5,0.5-3.4,0-4.3-1.5l-14-24.2c-0.9-1.5-0.5-3.4,0.8-4.5L93,102.9l-0.5-6.8l0.5-7L78.3,77.8c-1.3-1-1.7-2.9-0.8-4.5
	l14-24.2c0.8-1.5,2.7-2.2,4.3-1.5l17.4,7c3.6-2.7,7.4-5.1,11.8-6.9l2.6-18.5c0.3-1.7,1.8-2.9,3.5-2.9h28c1.8,0,3.2,1.3,3.5,2.9
	l2.6,18.5c4.4,1.8,8.2,4.1,11.8,6.9l17.4-7c1.5-0.6,3.4,0,4.3,1.5l14,24.2c0.9,1.5,0.5,3.4-0.8,4.5l-14.8,11.4l0.5,7l-0.5,7
	l14.8,11.4c1.3,1,1.8,2.9,0.8,4.5l-14,24.2c-0.8,1.5-2.7,2.2-4.3,1.5l-17.4-7c-3.6,2.7-7.4,5.1-11.8,6.8l-2.6,18.5
	c-0.3,1.7-1.8,2.9-3.5,2.9h-28C129.3,166.1,127.8,164.8,127.5,163.1z M150.3,152.1l2.6-18.2c8.3-1.8,15.7-6.2,21.1-12.4l17,7.3
	l5.2-9.1l-14.8-10.8c2.8-8.2,2.8-17.1,0-25.3l14.8-10.8l-5.2-9.1L174,70.9c-5.4-6.2-12.8-10.7-21.2-12.4l-2.6-18.3h-10.5l-2.6,18.3
	c-8.4,1.7-15.8,6.2-21.2,12.4l-16.9-7.3l-5.2,9.1l14.8,10.8c-2.8,8.2-2.8,17.1,0,25.2l-14.8,10.9l5.2,9.1l17-7.3
	c5.4,6.2,12.7,10.6,21,12.3l2.6,18.3H150.3z M117,96.2c0-15.5,12.5-28,28-28s28,12.5,28,28s-12.5,28-28,28S117,111.6,117,96.2z
	 M159,96.2c0-7.7-6.3-14-14-14c-7.7,0-14,6.3-14,14s6.3,14,14,14C152.7,110.1,159,103.9,159,96.2z"/>
</svg>
