<?xml version="1.0" encoding="utf-8"?>
<!-- Generator: Adobe Illustrator 25.0.0, SVG Export Plug-In . SVG Version: 6.00 Build 0)  -->
<svg version="1.1" id="Layer_1" xmlns="http://www.w3.org/2000/svg" xmlns:xlink="http://www.w3.org/1999/xlink" x="0px" y="0px"
	 viewBox="0 0 290 290" style="enable-background:new 0 0 290 290;" xml:space="preserve">
<style type="text/css">
	.st0{fill-rule:evenodd;clip-rule:evenodd;fill:#FFFFFF;}
</style>
<path class="st0" d="M188.5,46.5V58c0,2,0.8,3.8,2.1,5.1c1.4,1.4,3.2,2.1,5.1,2.1h11.5L188.5,46.5z M174,43.5h-72.5
	c-4,0-7.3,3.3-7.3,7.3V87h36.3c12,0,21.7,9.7,21.7,21.7v7.3c0,2,0.8,3.8,2.1,5.1c1.4,1.4,3.2,2.1,5.2,2.1h50.7V79.7h-14.5
	c-5.8,0-11.3-2.3-15.4-6.4c-4.1-4.1-6.4-9.7-6.4-15.4V43.5z M36.2,130.5h72.5c4,0,7.3-3.3,7.3-7.2s-3.3-7.3-7.3-7.3H36.2
	c-4,0-7.2,3.3-7.2,7.3S32.3,130.5,36.2,130.5 M137.7,174v14.5h-29V174c0-8,6.5-14.5,14.5-14.5C131.2,159.5,137.7,166,137.7,174
	 M36.2,232H58c4,0,7.2-3.3,7.2-7.3c0-4-3.3-7.3-7.2-7.3H36.2c-4,0-7.2,3.3-7.2,7.3C29,228.7,32.3,232,36.2,232 M188.5,232h21.7
	c4,0,7.3-3.3,7.3-7.3c0-4-3.3-7.3-7.3-7.3h-21.7c-4,0-7.3,3.3-7.3,7.3C181.2,228.7,184.5,232,188.5,232 M123.2,217.5
	c4,0,7.3,3.3,7.3,7.3c0,4-3.3,7.3-7.3,7.3c-4,0-7.2-3.3-7.2-7.3C116,220.8,119.3,217.5,123.2,217.5 M101.5,203H145
	c1.9,0,3.8,0.8,5.1,2.1c1.4,1.4,2.1,3.2,2.1,5.1v29c0,1.9-0.8,3.8-2.1,5.1c-1.4,1.4-3.2,2.1-5.1,2.1h-43.5c-2,0-3.8-0.8-5.2-2.1
	c-1.4-1.4-2.1-3.2-2.1-5.1v-29c0-2,0.8-3.8,2.1-5.1C97.7,203.7,99.5,203,101.5,203 M94.2,189.7c-3,1.1-5.8,2.8-8.1,5.1
	c-4.1,4.1-6.4,9.7-6.4,15.4v29c0,5.8,2.3,11.3,6.4,15.4c4.1,4.1,9.7,6.4,15.4,6.4H145c5.8,0,11.3-2.3,15.4-6.4
	c4.1-4.1,6.4-9.6,6.4-15.4v-29c0-5.8-2.3-11.3-6.4-15.4c-2.3-2.3-5.1-4.1-8.1-5.1V174c0-16-13-29-29-29c0,0-1.3,0,0,0
	c-16,0-29,13-29,29V189.7z M224.7,123.3c12,0,21.8,9.7,21.8,21.7v116c0,8,6.5,14.5,14.5,14.5s14.5-6.5,14.5-14.5V21.7
	c0-1.9-0.8-3.8-2.1-5.1c-1.4-1.4-3.2-2.1-5.1-2.1H72.5c-4,0-7.3,3.3-7.3,7.3V87h14.5V50.7c0-12,9.7-21.7,21.8-21.7h81
	c5.8,0,11.3,2.3,15.4,6.4c5.5,5.5,15,15,20.5,20.5c4.1,4.1,6.4,9.6,6.4,15.4V123.3z M224.7,137.7h-65.2c-5.8,0-11.3-2.3-15.4-6.4
	c-4.1-4.1-6.4-9.7-6.4-15.4v-7.3c0-4-3.3-7.3-7.2-7.3H21.7c-4,0-7.2,3.3-7.2,7.3v159.5c0,4,3.3,7.2,7.2,7.2h214.2
	c-2.5-4.3-3.9-9.2-3.9-14.5V145C232,141,228.7,137.7,224.7,137.7 M261.7,290c15.7-0.4,28.3-13.2,28.3-29V21.7
	c0-5.8-2.3-11.3-6.4-15.4C279.6,2.3,274,0,268.2,0H72.5C60.5,0,50.7,9.7,50.7,21.7V87h-29C9.7,87,0,96.7,0,108.7v159.5
	c0,12,9.7,21.7,21.7,21.7H261.7z"/>
</svg>
