<?xml version="1.0" encoding="utf-8"?>
<!-- Generator: Adobe Illustrator 25.0.0, SVG Export Plug-In . SVG Version: 6.00 Build 0)  -->
<svg version="1.1" id="Layer_1" xmlns="http://www.w3.org/2000/svg" xmlns:xlink="http://www.w3.org/1999/xlink" x="0px" y="0px"
	 viewBox="0 0 240 383.3" style="enable-background:new 0 0 240 383.3;" xml:space="preserve">
<style type="text/css">
	.st0{fill-rule:evenodd;clip-rule:evenodd;fill:#FFFFFF;}
</style>
<path class="st0" d="M30.8,374v-22.4l0-0.2H9.3c-5.1,0-9.3-4.2-9.3-9.3V9.3C0,4.2,4.2,0,9.3,0h221.4c5.1,0,9.3,4.2,9.3,9.3v332.8
	c0,5.1-4.2,9.3-9.3,9.3h-21l0,0.2V374c0,5.1-4.2,9.3-9.3,9.3H168c-5.1,0-9.3-4.2-9.3-9.3v-22.4l0-0.2H81.8l0,0.2V374
	c0,5.1-4.2,9.3-9.3,9.3H40.2C35,383.3,30.8,379.1,30.8,374z M71.8,373.3v-21.1h-31v21.1H71.8z M199.7,373.3v-21.1h-31.1v21.1H199.7z
	 M230,341.5V279H10v62.5H230z M47.6,321.8v-19.4c0-2.7,2.2-5,5-5s5,2.2,5,5v19.4c0,2.7-2.2,5-5,5S47.6,324.5,47.6,321.8z
	 M82.5,321.8v-19.4c0-2.7,2.2-5,5-5s5,2.2,5,5v19.4c0,2.7-2.2,5-5,5S82.5,324.5,82.5,321.8z M115.8,321.8v-19.4c0-2.7,2.2-5,5-5
	s5,2.2,5,5v19.4c0,2.7-2.2,5-5,5S115.8,324.5,115.8,321.8z M150.1,321.8v-19.4c0-2.7,2.2-5,5-5c2.7,0,5,2.2,5,5v19.4
	c0,2.7-2.2,5-5,5C152.3,326.8,150.1,324.5,150.1,321.8z M183.4,321.8v-19.4c0-2.7,2.2-5,5-5c2.7,0,5,2.2,5,5v19.4c0,2.7-2.2,5-5,5
	C185.7,326.8,183.4,324.5,183.4,321.8z M34.8,269V48.1c0-5.1,4.2-9.3,9.3-9.3h152.7c5.1,0,9.3,4.2,9.3,9.3V269H230V10H10V269H34.8z
	 M196.2,268.9v-46.6H44.8v46.6H196.2z M60.1,247.1c0-4.1,3.3-7.5,7.5-7.5c4.1,0,7.5,3.3,7.5,7.5c0,4.1-3.3,7.5-7.5,7.5
	C63.4,254.6,60.1,251.3,60.1,247.1z M89.4,247.1c0-4.1,3.3-7.5,7.5-7.5c4.1,0,7.5,3.3,7.5,7.5c0,4.1-3.3,7.5-7.5,7.5
	C92.8,254.6,89.4,251.3,89.4,247.1z M119.3,245.6c0-2.7,2.2-5,5-5h52.3c2.7,0,5,2.2,5,5c0,2.7-2.2,5-5,5h-52.3
	C121.5,250.6,119.3,248.4,119.3,245.6z M196.2,212.3v-47.8H44.8v47.8H196.2z M60.1,189.4c0-4.1,3.3-7.5,7.5-7.5
	c4.1,0,7.5,3.3,7.5,7.5c0,4.1-3.3,7.5-7.5,7.5C63.4,196.9,60.1,193.5,60.1,189.4z M89.4,189.4c0-4.1,3.3-7.5,7.5-7.5
	c4.1,0,7.5,3.3,7.5,7.5c0,4.1-3.3,7.5-7.5,7.5C92.8,196.9,89.4,193.5,89.4,189.4z M119.3,188.9c0-2.7,2.2-5,5-5h52.3
	c2.7,0,5,2.2,5,5c0,2.7-2.2,5-5,5h-52.3C121.5,193.9,119.3,191.7,119.3,188.9z M196.2,154.6v-47.8H44.8v47.8H196.2z M60.1,131.2
	c0-4.1,3.3-7.5,7.5-7.5c4.1,0,7.5,3.3,7.5,7.5c0,4.1-3.3,7.5-7.5,7.5C63.4,138.7,60.1,135.3,60.1,131.2z M89.4,131.2
	c0-4.1,3.3-7.5,7.5-7.5c4.1,0,7.5,3.3,7.5,7.5c0,4.1-3.3,7.5-7.5,7.5C92.8,138.7,89.4,135.3,89.4,131.2z M119.3,129.7
	c0-2.7,2.2-5,5-5h52.3c2.7,0,5,2.2,5,5c0,2.7-2.2,5-5,5h-52.3C121.5,134.7,119.3,132.5,119.3,129.7z M196.2,96.9V48.8H44.8v48.1
	H196.2z M60.1,74c0-4.1,3.3-7.5,7.5-7.5c4.1,0,7.5,3.3,7.5,7.5c0,4.1-3.3,7.5-7.5,7.5C63.4,81.5,60.1,78.1,60.1,74z M89.4,74
	c0-4.1,3.3-7.5,7.5-7.5c4.1,0,7.5,3.3,7.5,7.5c0,4.1-3.3,7.5-7.5,7.5C92.8,81.5,89.4,78.1,89.4,74z M119.3,73c0-2.7,2.2-5,5-5h52.3
	c2.7,0,5,2.2,5,5s-2.2,5-5,5h-52.3C121.5,78,119.3,75.8,119.3,73z"/>
</svg>
