<?xml version="1.0" encoding="utf-8"?>
<!-- Generator: Adobe Illustrator 25.0.0, SVG Export Plug-In . SVG Version: 6.00 Build 0)  -->
<svg version="1.1" id="Layer_1" xmlns="http://www.w3.org/2000/svg" xmlns:xlink="http://www.w3.org/1999/xlink" x="0px" y="0px"
	 viewBox="0 0 265 323.6" style="enable-background:new 0 0 265 323.6;" xml:space="preserve">
<style type="text/css">
	.st0{fill-rule:evenodd;clip-rule:evenodd;fill:#FFFFFF;}
</style>
<path class="st0" d="M88.5,305.4c-24.3-24.3-24.3-63.7,0-88s63.7-24.3,88,0s24.3,63.7,0,88C152.2,329.6,112.8,329.6,88.5,305.4z
	 M128.5,298.8v-4.9c-1.2-0.1-2.4-0.3-3.6-0.5l0,0l-1.2,4.8C125.3,298.5,126.8,298.7,128.5,298.8z M119,296.9l1.2-4.8
	c-1.2-0.4-2.2-0.9-3.3-1.4l-2.4,4.3C116,295.7,117.5,296.4,119,296.9z M110.4,292.5l2.4-4.2c-1-0.7-2-1.4-2.9-2.2l-3.3,3.4
	C107.8,290.6,109.1,291.6,110.4,292.5z M149.2,291.3l23.2-8.1c0.8-0.3,1.4-1,1.6-1.8c0.2-0.8-0.1-1.8-0.8-2.3l-7.2-6.4
	c1.1-3.5,1.6-7.3,1.6-11.2c0-16.5-10.5-30.5-25-35.6l0,0l-1.2,4.8c12.5,4.4,21.4,16.5,21.4,30.8c0,2.6-0.3,5.2-0.9,7.6l-7.1-6.3
	c-0.5-0.4-1.1-0.7-1.8-0.6c-1,0.1-1.9,0.9-2.1,2l-4.8,24.5c-0.2,0.8,0.2,1.8,0.8,2.3C147.5,291.3,148.4,291.5,149.2,291.3z
	 M103.2,286l3.4-3.5c-0.8-0.9-1.5-1.9-2.2-2.9l-4.1,2.4C101.1,283.5,102.1,284.8,103.2,286z M0,273.3c0-2.6,2.1-4.7,4.7-4.7l16,0
	v-15.9H7.8c-2.6,0-4.7-2.1-4.7-4.7v-68.6c0-2.6,2.1-4.7,4.7-4.7h12.9v-9.5H7.8c-2.6,0-4.7-2.1-4.7-4.7V92.1c0-2.6,2.1-4.7,4.7-4.7
	h12.9v-9.5H7.8c-2.6,0-4.7-2.1-4.7-4.7V4.7C3.1,2.1,5.2,0,7.8,0h250.3c2.6,0,4.7,2.1,4.7,4.7v68.6c0,2.6-2.1,4.7-4.7,4.7H247v9.5
	h11.1c2.6,0,4.7,2.1,4.7,4.7v68.6c0,2.6-2.1,4.7-4.7,4.7H247v9.5h11.1c2.6,0,4.7,2.1,4.7,4.7l0,68.6c0,2.6-2.1,4.7-4.7,4.7H247v15.9
	h13.3v0c2.6,0,4.7,2.1,4.7,4.7s-2.1,4.7-4.7,4.7h-55.7c0.7-3.1,1.2-6.2,1.5-9.3h31.5v-15.9H206c-0.4-3.2-0.9-6.3-1.7-9.4h49.1v-59.2
	h-241v59.2h48.3c-0.8,3.1-1.3,6.2-1.7,9.4H30v15.9h28.9c0.3,3.1,0.8,6.3,1.5,9.3H4.7C2.1,278,0,275.9,0,273.3z M97.9,277.8l4.1-2.4
	c-0.5-1.1-1-2.2-1.3-3.4l-4.6,1.3C96.6,274.9,97.1,276.4,97.9,277.8z M114.5,274l17.6-10.2c1.1-0.2,2-1.2,2-2.4c0-0.1,0-0.1,0-0.2h0
	v-21.2h-4.9v19.8l-17.1,9.9L114.5,274z M94.8,268.5l4.6-1.3c-0.2-1.2-0.3-2.4-0.4-3.6h-4.8C94.3,265.3,94.5,266.9,94.8,268.5z
	 M99.5,255.2l-4.6-1.3c-0.3,1.6-0.5,3.2-0.6,4.9H99C99.1,257.5,99.3,256.3,99.5,255.2z M102.2,247.1l-4.1-2.4
	c-0.7,1.5-1.3,3-1.8,4.5l4.6,1.3C101.2,249.3,101.6,248.2,102.2,247.1z M106.7,240l-3.3-3.5c-1.1,1.2-2.1,2.5-3,3.9l4.1,2.4
	C105.2,241.8,106,240.9,106.7,240z M113,234.4l-2.4-4.2c-1.3,0.9-2.6,1.9-3.8,3l3.4,3.4C111,235.7,112,235,113,234.4z M201.6,234.9
	c-0.7-1.8-1.5-3.6-2.3-5.4c0.6-2,2.4-3.4,4.5-3.4h12.9c2.6,0,4.7,2.1,4.7,4.7c0,2.6-2.1,4.7-4.7,4.7h-12.9
	C203,235.4,202.3,235.2,201.6,234.9z M227.6,230.7c0-2.6,2.1-4.7,4.7-4.7h12.9c2.6,0,4.7,2.1,4.7,4.7c0,2.6-2.1,4.7-4.7,4.7h-12.9
	C229.7,235.4,227.6,233.3,227.6,230.7z M120.4,230.5l-1.2-4.8c-1.5,0.5-3,1.1-4.4,1.9l2.4,4.3C118.2,231.4,119.2,230.9,120.4,230.5z
	 M26.2,227.2V206c0-2.6,2.1-4.7,4.7-4.7h21.2c2.6,0,4.7,2.1,4.7,4.7v21.2c0,2.6-2.1,4.7-4.7,4.7H30.9
	C28.3,231.9,26.2,229.8,26.2,227.2z M128.5,228.8v-4.9c-1.6,0.1-3.2,0.3-4.7,0.6l1.2,4.8C126.2,229.1,127.3,228.9,128.5,228.8z
	 M136.8,229.3l1.2-4.8c-1.5-0.3-3.1-0.5-4.7-0.6v4.9C134.5,228.9,135.6,229.1,136.8,229.3z M67.6,225.8V206c0-2.6,2.1-4.7,4.7-4.7
	h17c-3.2,2.3-6.2,4.9-9,7.7c-0.5,0.5-1.1,1.1-1.6,1.6h-1.7v1.8C73.2,216.7,70.1,221.1,67.6,225.8z M47.4,222.6v-11.9H35.5v11.9H47.4
	z M237.6,174.8v-9.5H30v9.5H237.6z M253.4,156V96.7h-241V156H253.4z M170.7,138.7c0-2.6,2.1-4.7,4.7-4.7h12.9c2.6,0,4.7,2.1,4.7,4.7
	c0,2.6-2.1,4.7-4.7,4.7h-12.9C172.8,143.4,170.7,141.3,170.7,138.7z M199.1,138.7c0-2.6,2.1-4.7,4.7-4.7h12.9c2.6,0,4.7,2.1,4.7,4.7
	c0,2.6-2.1,4.7-4.7,4.7h-12.9C201.2,143.4,199.1,141.3,199.1,138.7z M227.6,138.7c0-2.6,2.1-4.7,4.7-4.7h12.9c2.6,0,4.7,2.1,4.7,4.7
	c0,2.6-2.1,4.7-4.7,4.7h-12.9C229.7,143.4,227.6,141.3,227.6,138.7z M26.2,135.2V114c0-2.6,2.1-4.7,4.7-4.7h21.2
	c2.6,0,4.7,2.1,4.7,4.7v21.2c0,2.6-2.1,4.7-4.7,4.7H30.9C28.3,139.9,26.2,137.8,26.2,135.2z M67.6,135.2V114c0-2.6,2.1-4.7,4.7-4.7
	h21.2c2.6,0,4.7,2.1,4.7,4.7v21.2c0,2.6-2.1,4.7-4.7,4.7H72.2C69.6,139.9,67.6,137.8,67.6,135.2z M108.9,135.2V114
	c0-2.6,2.1-4.7,4.7-4.7h21.2c2.6,0,4.7,2.1,4.7,4.7v21.2c0,2.6-2.1,4.7-4.7,4.7h-21.2C111,139.9,108.9,137.8,108.9,135.2z
	 M47.4,130.6v-11.9H35.5v11.9H47.4z M88.8,130.6v-11.9H76.9v11.9H88.8z M130.1,130.6v-11.9h-11.9v11.9H130.1z M237.6,87.4v-9.5H30
	v9.5H237.6z M253.4,68.6V9.3h-241v59.2H253.4z M170.7,46.7c0-2.6,2.1-4.7,4.7-4.7h12.9c2.6,0,4.7,2.1,4.7,4.7c0,2.6-2.1,4.7-4.7,4.7
	h-12.9C172.8,51.4,170.7,49.3,170.7,46.7z M199.1,46.7c0-2.6,2.1-4.7,4.7-4.7h12.9c2.6,0,4.7,2.1,4.7,4.7c0,2.6-2.1,4.7-4.7,4.7
	h-12.9C201.2,51.4,199.1,49.3,199.1,46.7z M227.6,46.7c0-2.6,2.1-4.7,4.7-4.7h12.9c2.6,0,4.7,2.1,4.7,4.7c0,2.6-2.1,4.7-4.7,4.7
	h-12.9C229.7,51.4,227.6,49.3,227.6,46.7z M26.2,43.2V22c0-2.6,2.1-4.7,4.7-4.7h21.2c2.6,0,4.7,2.1,4.7,4.7v21.2
	c0,2.6-2.1,4.7-4.7,4.7H30.9C28.3,47.9,26.2,45.8,26.2,43.2z M67.6,43.2V22c0-2.6,2.1-4.7,4.7-4.7h21.2c2.6,0,4.7,2.1,4.7,4.7v21.2
	c0,2.6-2.1,4.7-4.7,4.7H72.2C69.6,47.9,67.6,45.8,67.6,43.2z M108.9,43.2V22c0-2.6,2.1-4.7,4.7-4.7h21.2c2.6,0,4.7,2.1,4.7,4.7v21.2
	c0,2.6-2.1,4.7-4.7,4.7h-21.2C111,47.9,108.9,45.8,108.9,43.2z M47.4,38.6V26.7H35.5v11.9H47.4z M88.8,38.6V26.7H76.9v11.9H88.8z
	 M130.1,38.6V26.7h-11.9v11.9H130.1z"/>
</svg>
