<?xml version="1.0" encoding="utf-8"?>
<!-- Generator: Adobe Illustrator 25.0.0, SVG Export Plug-In . SVG Version: 6.00 Build 0)  -->
<svg version="1.1" id="Layer_1" xmlns="http://www.w3.org/2000/svg" xmlns:xlink="http://www.w3.org/1999/xlink" x="0px" y="0px"
	 viewBox="0 0 330 330" style="enable-background:new 0 0 330 330;" xml:space="preserve">
<style type="text/css">
	.st0{fill:#FFFFFF;}
</style>
<g>
	<path class="st0" d="M80.4,219.5H101c1.9,0,3.4,1.6,3.4,3.4c0,1.9-1.5,3.5-3.4,3.5H80.4C75.9,226.3,75.9,219.5,80.4,219.5
		 M138.6,217.8h22.9c1.9,0,3.5,1.5,3.5,3.4c0,1.9-1.6,3.5-3.5,3.4h-22.9C134,224.8,134,217.7,138.6,217.8 M248,213.1
		c1.9,0,3.5,1.6,3.5,3.5v12.6c0,1.9-1.6,3.4-3.4,3.4c-1.9,0-3.4-1.5-3.4-3.4v-12.6C244.6,214.7,246.1,213.1,248,213.1 M235.4,213.1
		c1.9,0,3.5,1.6,3.5,3.5v12.6c0,1.9-1.6,3.4-3.4,3.4s-3.4-1.5-3.4-3.4v-12.6C231.9,214.7,233.5,213.1,235.4,213.1 M113.8,213.1
		c1.9,0,3.5,1.6,3.5,3.5v12.6c0,1.9-1.5,3.5-3.4,3.5c-1.9,0-3.5-1.6-3.4-3.5v-12.6C110.4,214.7,111.9,213.1,113.8,213.1
		 M189.7,210.7c1.9,0,3.5,1.6,3.5,3.5v14c0,1.9-1.5,3.5-3.4,3.5c-1.9,0-3.5-1.6-3.4-3.5v-14C186.3,212.3,187.8,210.8,189.7,210.7
		 M175.6,210.7c2,0,3.5,1.6,3.5,3.5v14c0,1.9-1.6,3.4-3.5,3.4c-1.9,0-3.4-1.5-3.4-3.4v-14C172.2,212.3,173.7,210.8,175.6,210.7
		 M207.1,210.5v9h15.5c1.9,0,3.4,1.6,3.4,3.4c0,1.9-1.5,3.5-3.4,3.5h-15.5c0,4.4-1,6.2-2.7,9h45.2c4.2,0,7.5-3.3,7.5-7.6v-17.3
		H207.1z M72.9,210.5v17.3c0,4.3,3.3,7.6,7.5,7.6h45.2c-1.7-2.5-2.8-5-2.7-8.7v-16.2H72.9z M129.8,207.1c0,7.1,0.2,14,0.2,21.1
		c0.7,4.1,4.2,7.1,8.6,7.1h53.1c4.8-0.1,8.5-3.9,8.5-8.7v-19.5L129.8,207.1z M225.8,171.3c-3.4,0-6.1,2.7-6.1,6.1s2.7,6.1,6.1,6.1
		c3.4,0,6.1-2.7,6.1-6.1S229.2,171.3,225.8,171.3 M104.2,171.3c-3.4,0-6.1,2.7-6.1,6.1s2.7,6.1,6.1,6.1c3.4,0,6.1-2.7,6.1-6.1
		S107.6,171.3,104.2,171.3 M225.8,164.5c7.1,0,12.9,5.9,12.9,13c0,7.1-5.8,13-12.9,13c-7.1,0-12.9-5.9-12.9-13
		C212.9,170.3,218.7,164.5,225.8,164.5 M104.2,164.5c7.1,0,12.9,5.9,12.9,13c0,7.1-5.8,13-12.9,13s-12.9-5.9-12.9-13
		C91.3,170.3,97.1,164.5,104.2,164.5 M165,163.9c-4,0-7.1,3.1-7.1,7.1c0,4,3.1,7.1,7.1,7.1c4,0,7.1-3.1,7.1-7.1
		C172.1,167,169,163.9,165,163.9 M165,157c7.7,0,14,6.3,14,14c0,7.7-6.3,14-14,14c-7.7,0-14-6.3-14-14C151,163.3,157.3,157,165,157
		 M140.4,134.2h49.2c1.9,0,3.4,1.5,3.4,3.4c0,1.9-1.5,3.4-3.4,3.4h-49.2C135.9,141.1,135.9,134.2,140.4,134.2 M214.7,131.1h22.1
		c1.9,0,3.4,1.6,3.4,3.4c0,1.9-1.5,3.4-3.4,3.4h-22.1C210.2,137.9,210.2,131.2,214.7,131.1 M93.1,131.1h22.1c1.9,0,3.4,1.6,3.4,3.4
		c0,1.9-1.5,3.4-3.4,3.4H93.1C88.6,137.9,88.6,131.2,93.1,131.1 M152.7,120.2h24.6c1.9,0,3.4,1.6,3.4,3.4c0,1.9-1.5,3.4-3.4,3.4
		h-24.6C148.1,127,148.1,120.2,152.7,120.2L152.7,120.2z M207.1,108.8v9.7h40.9c1.9,0,3.4,1.5,3.4,3.4c0,1.9-1.5,3.4-3.4,3.4h-40.9
		v18.5h40.9c1.9,0,3.4,1.6,3.4,3.4c0,1.9-1.5,3.4-3.4,3.4h-40.9v52.9h50.1v-87.2c0-4.3-3.3-7.6-7.5-7.6H207.1z M80.4,108.8
		c-4.2,0-7.5,3.3-7.5,7.6v87.2h50.1v-52.9H82.1c-4.5-0.1-4.5-6.8,0-6.9h40.9v-18.5H82.1c-4.6,0-4.6-6.9,0-6.9h40.9v-9.7H80.4z
		 M140.4,106.1h49.2c1.9,0,3.5,1.5,3.5,3.4c0,1.9-1.6,3.5-3.5,3.5h-49.2C135.8,113.1,135.8,106.1,140.4,106.1 M138.5,94.7
		c-4.9,0-8.7,3.8-8.7,8.7v96.8h70.4v-96.8c0-4.9-3.8-8.7-8.7-8.7H138.5z"/>
	<path class="st0" d="M165,302.1c-7.7,0-14,6.3-14,14c0,7.7,6.3,14,14,14c7.7,0,14-6.3,14-14C179,308.3,172.7,302.1,165,302.1
		 M249.4,286.8c-0.7,0-1.3,0.2-1.8,0.6c-7.8,5.3-16.2,9.9-25.1,13.6c-8.8,3.7-18.1,6.6-27.7,8.6c-4.5,0.9-3.1,7.7,1.4,6.7
		c10.1-2.1,19.8-5.1,29-9c9.3-3.9,18-8.7,26.2-14.2C254.3,291.2,252.8,286.7,249.4,286.8 M80.5,286.8c-3.4,0-4.8,4.4-1.9,6.3
		c8.2,5.6,17,10.4,26.2,14.2c9.3,3.9,19,7,29,9c1.9,0.4,3.7-0.8,4.1-2.7c0.4-1.9-0.8-3.7-2.7-4.1c-9.6-2-18.9-4.9-27.7-8.6
		c-8.8-3.7-17.2-8.3-25.1-13.6C81.9,287,81.2,286.8,80.5,286.8 M271.8,257.8c-7.7,0-14,6.3-14,14c0,7.7,6.3,14,14,14
		c7.7,0,14-6.3,14-14C285.8,264.1,279.5,257.8,271.8,257.8 M58.2,257.8c-7.7,0-14,6.3-14,14c0,7.7,6.3,14,14,14s14-6.3,14-14
		C72.2,264.1,65.9,257.8,58.2,257.8 M164.9,249.3c-1.9,0-3.4,1.6-3.4,3.5v17.6v17.6c0,1.9,1.5,3.4,3.4,3.4s3.4-1.5,3.4-3.4v-17.6
		v-17.6C168.5,250.9,166.9,249.3,164.9,249.3 M248.6,245.3c-2.6,0.1-4.6,3.4-2.2,5.9l3.1,3.1c3.2,3.2,8.1-1.6,4.9-4.9l-3.1-3.1
		C250.4,245.6,249.4,245.3,248.6,245.3 M81,245.3c-0.8,0-1.6,0.4-2.3,1.1l-3.1,3.1c-3.2,3.3,1.6,8.1,4.9,4.9l3.1-3.1
		C86.2,248.7,83.8,245.2,81,245.3 M312.9,192c-1.6,0-3,1.2-3.3,2.8c-2,9.6-4.9,18.9-8.6,27.7c-3.7,8.8-8.3,17.2-13.6,25.1
		c-1.2,1.6-0.8,3.8,0.8,4.9c1.6,1.1,3.8,0.6,4.8-1c5.5-8.2,10.3-17,14.2-26.3c3.9-9.2,7-18.9,9-29C316.8,194,315.1,192,312.9,192
		 M17,192c-2.2,0-3.8,2-3.3,4.2c2.1,10.1,5.1,19.8,9,29c3.9,9.2,8.7,18,14.2,26.2c2.6,3.7,8.2-0.1,5.7-3.9
		c-5.3-7.8-9.9-16.3-13.6-25.1c-3.7-8.8-6.6-18.1-8.6-27.7C20.1,193.1,18.6,192,17,192 M270.4,161.6c-4.6-0.1-4.6,6.9,0,6.9h17.6
		c1.9,0,3.5-1.5,3.5-3.4c0-1.9-1.6-3.5-3.5-3.4H270.4z M42.1,161.6c-4.6-0.1-4.6,6.9,0,6.9h17.6c1.9,0,3.5-1.5,3.5-3.4
		c0-1.9-1.6-3.5-3.5-3.4H42.1z M316,151.1c-7.7,0-14,6.3-14,14s6.3,14,14,14c7.7,0,14-6.3,14-14S323.7,151.1,316,151.1 M14,151.1
		c-7.7,0-14,6.3-14,14s6.3,14,14,14c7.7,0,14-6.3,14-14S21.6,151.1,14,151.1 M290.2,77.1c-2.8,0-4.4,3.1-2.8,5.4
		c5.3,7.8,9.9,16.2,13.6,25.1c3.7,8.8,6.6,18.1,8.6,27.7c0.3,1.9,2.2,3.2,4.1,2.8c1.9-0.4,3.1-2.3,2.7-4.2c-2-10.1-5.1-19.8-9-29
		s-8.7-18-14.2-26.2C292.4,77.7,291.4,77.1,290.2,77.1 M39.7,77.1c-1.1,0-2.2,0.6-2.8,1.6c-5.5,8.2-10.3,17-14.2,26.2
		c-3.9,9.2-7,18.9-9,29c-0.4,1.9,0.8,3.7,2.7,4.1c1.9,0.4,3.7-0.9,4.1-2.8c2-9.6,4.9-18.9,8.6-27.7c3.7-8.8,8.3-17.2,13.6-25.1
		C44.2,80.2,42.5,77.1,39.7,77.1 M251.9,74.6c-0.9,0-1.7,0.4-2.4,1l-12.4,12.4c-3.5,3.2,1.6,8.3,4.8,4.9l12.4-12.4
		C256.6,78.4,255,74.6,251.9,74.6 M78,74.6c-3.1,0-4.6,3.7-2.4,5.9L88.1,93c3.2,3.3,8.2-1.6,4.9-4.9L80.5,75.7
		C79.9,75,79,74.6,78,74.6 M271.8,44.3c-7.7,0-14,6.3-14,14c0,7.7,6.3,14,14,14c7.7,0,14-6.3,14-14
		C285.8,50.6,279.5,44.3,271.8,44.3 M58.2,44.3c-7.7,0-14,6.3-14,14c0,7.7,6.3,14,14,14s14-6.3,14-14C72.2,50.6,65.9,44.3,58.2,44.3
		 M164.9,38.6c-1.9,0-3.4,1.6-3.4,3.5v17.6v17.6c0,1.9,1.5,3.4,3.4,3.4s3.4-1.5,3.4-3.4V59.7V42.1C168.5,40.2,166.9,38.6,164.9,38.6
		 M134.8,13.6c-0.3,0-0.6,0-0.9,0.1c-10.1,2.1-19.8,5.1-29,9c-9.2,3.9-18,8.7-26.2,14.2c-3.8,2.6,0,8.3,3.9,5.7
		c7.8-5.3,16.2-9.9,25.1-13.6c8.8-3.7,18.1-6.6,27.7-8.6C139.3,19.4,138.9,13.8,134.8,13.6L134.8,13.6z M195.4,13.6
		c-3.5-0.2-5.4,5.6-0.6,6.9c9.6,2,18.9,4.9,27.7,8.6c8.8,3.7,17.2,8.3,25.1,13.6c3.8,2.7,7.8-3.2,3.9-5.7
		c-8.2-5.6-17-10.3-26.2-14.2c-9.2-3.9-18.9-7-29-9C195.9,13.6,195.6,13.6,195.4,13.6 M165,0c-7.7,0-14,6.3-14,14s6.3,14,14,14
		c7.7,0,14-6.3,14-14S172.7,0,165,0L165,0z"/>
</g>
</svg>
