<?xml version="1.0" encoding="utf-8"?>
<!-- Generator: Adobe Illustrator 25.0.0, SVG Export Plug-In . SVG Version: 6.00 Build 0)  -->
<svg version="1.1" id="Layer_1" xmlns="http://www.w3.org/2000/svg" xmlns:xlink="http://www.w3.org/1999/xlink" x="0px" y="0px"
	 viewBox="0 0 54 46.8" style="enable-background:new 0 0 54 46.8;" xml:space="preserve">
<style type="text/css">
	.st0{fill:#FFFFFF;}
</style>
<g>
	<g>
		<g>
			<path class="st0" d="M10.6,46.8l-8.9-7.3c2.7-1.4,5.3-3.6,7.8-6.6c2.5-3,4.1-5.9,4.7-8.7c-1,0.3-2,0.5-3.1,0.5
				c-3.1,0-5.8-1.1-7.9-3.2C1,19.3,0,16.5,0,13c0-3.6,1.2-6.6,3.7-9.2C6.2,1.3,9.2,0,12.7,0c4,0,7.5,1.5,10.3,4.5
				c1.8,1.9,3.1,4.2,3.8,7c0.3-2.9,1.5-5.5,3.7-7.7C32.9,1.3,35.9,0,39.4,0c4,0,7.4,1.5,10.3,4.5s4.3,7,4.3,12.1
				c0,6-1.5,11.6-4.5,16.8c-3,5.3-7.1,9.7-12.2,13.4l-8.9-7.3c2.7-1.4,5.3-3.6,7.8-6.6c2.5-3,4.1-5.9,4.7-8.7c-1,0.3-2,0.5-3.1,0.5
				c-3.1,0-5.8-1.1-7.9-3.2c-1.2-1.2-2-2.6-2.5-4.2c-0.1,5.7-1.6,11.1-4.5,16.2C19.7,38.7,15.7,43.2,10.6,46.8z"/>
		</g>
	</g>
</g>
</svg>
