<?xml version="1.0" encoding="utf-8"?>
<!-- Generator: Adobe Illustrator 25.0.0, SVG Export Plug-In . SVG Version: 6.00 Build 0)  -->
<svg version="1.1" id="Layer_1" xmlns="http://www.w3.org/2000/svg" xmlns:xlink="http://www.w3.org/1999/xlink" x="0px" y="0px"
	 viewBox="0 0 193 163.7" style="enable-background:new 0 0 193 163.7;" xml:space="preserve">
<style type="text/css">
	.st0{fill-rule:evenodd;clip-rule:evenodd;fill:#42CCCC;}
</style>
<path class="st0" d="M82,159.9H16.2v-7.6H82c0-2.1,1.7-3.8,3.8-3.8h3.8v-7.6H62.9c-2.1,0-3.8-1.7-3.8-3.8v-15.2
	c0-2.1,1.7-3.8,3.8-3.8h61c2.1,0,3.8,1.7,3.8,3.8V137c0,2.1-1.7,3.8-3.8,3.8H97.2v7.6h3.8c2.1,0,3.8,1.7,3.8,3.8h65.7v7.6h-65.7
	c0,2.1-1.7,3.8-3.8,3.8H85.8C83.7,163.7,82,162,82,159.9z M74.3,133.2v-7.6h-7.6v7.6H74.3z M85.8,133.2v-7.6H82v7.6H85.8z M0,76.6
	C0.6,56.9,14.1,37.1,39.5,37l2.1,0.1l1.9-3.6c34-60,105.5-30.8,110.1,20.3l0,0.7h7.8c20.7,0,31.3,16.5,31.5,32.1
	c0.2,15.8-10,32.2-31.5,32.2h-23.8v-9h23.8c15.5,0,22.7-11.2,22.5-23.1c-0.2-12-8-23.2-22.5-23.2h-16.6V59c0-46.7-67.2-77-96.5-15.4
	L47,46.5l-3.1-0.3C21.3,44,9.5,59.9,9,76.9c-0.5,16.8,10.3,33.7,33.8,32.9h6.8v9H43C13.5,119.7-0.6,97.7,0,76.6z M59.1,106.5V91.3
	c0-2.1,1.7-3.8,3.8-3.8h61c2.1,0,3.8,1.7,3.8,3.8v15.2c0,2.1-1.7,3.8-3.8,3.8h-61C60.8,110.4,59.1,108.6,59.1,106.5z M74.3,102.7
	v-7.6h-7.6v7.6H74.3z M85.8,102.7v-7.6H82v7.6H85.8z M68.9,52.2c0-13.9,11.3-25.1,25.1-25.1c13.9,0,25.1,11.2,25.1,25.1
	c0,13.9-11.2,25.1-25.1,25.1C80.1,77.3,68.9,66.1,68.9,52.2z M97.1,66.5V54.8h11.7v-5.1H97.1V37.9h-5.4v11.8H80.2v5.1h11.6v11.8
	H97.1z"/>
</svg>
