<?xml version="1.0" encoding="utf-8"?>
<!-- Generator: Adobe Illustrator 25.0.0, SVG Export Plug-In . SVG Version: 6.00 Build 0)  -->
<svg version="1.1" id="Layer_1" xmlns="http://www.w3.org/2000/svg" xmlns:xlink="http://www.w3.org/1999/xlink" x="0px" y="0px"
	 viewBox="0 0 180 180" style="enable-background:new 0 0 180 180;" xml:space="preserve">
<style type="text/css">
	.st0{fill:#005EFF;}
	.st1{fill:#42CCCC;}
</style>
<g>
	<path class="st0" d="M43.9,119.7h11.2c1,0,1.9,0.8,1.9,1.9c0,1-0.8,1.9-1.9,1.9H43.9C41.4,123.5,41.4,119.7,43.9,119.7 M75.6,118.8
		h12.5c1,0,1.9,0.8,1.9,1.9c0,1-0.9,1.9-1.9,1.9H75.6C73.1,122.6,73.1,118.8,75.6,118.8 M135.3,116.2c1.1,0,1.9,0.8,1.9,1.9v6.9
		c0,1-0.8,1.9-1.9,1.9c-1,0-1.9-0.8-1.9-1.9v-6.9C133.4,117.1,134.3,116.2,135.3,116.2 M128.4,116.2c1.1,0,1.9,0.8,1.9,1.9v6.9
		c0,1-0.9,1.9-1.9,1.9c-1,0-1.9-0.8-1.9-1.9v-6.9C126.5,117.1,127.4,116.2,128.4,116.2 M62.1,116.2c1.1,0,1.9,0.8,1.9,1.9v6.9
		c0,1.1-0.8,1.9-1.9,1.9c-1,0-1.9-0.9-1.9-1.9v-6.9C60.2,117.1,61,116.2,62.1,116.2 M103.5,115c1.1,0,1.9,0.8,1.9,1.9v7.6
		c0,1-0.8,1.9-1.9,1.9c-1,0-1.9-0.9-1.9-1.9v-7.6C101.6,115.8,102.4,115,103.5,115 M95.8,115c1.1,0,1.9,0.8,1.9,1.9v7.6
		c0,1-0.9,1.8-1.9,1.8s-1.9-0.8-1.9-1.8v-7.6C93.9,115.8,94.8,115,95.8,115 M113,114.8v4.9h8.5c1,0,1.9,0.8,1.9,1.9
		c0,1-0.8,1.9-1.9,1.9H113c0,2.4-0.5,3.4-1.5,4.9h24.7c2.3,0,4.1-1.8,4.1-4.1v-9.5H113z M39.7,114.8v9.5c0,2.3,1.8,4.1,4.1,4.1h24.7
		c-0.9-1.4-1.5-2.7-1.5-4.8v-8.8H39.7z M70.8,113c0,3.8,0.1,7.6,0.1,11.5c0.4,2.2,2.3,3.9,4.7,3.9h29c2.6-0.1,4.7-2.1,4.7-4.8V113
		L70.8,113z M123.2,93.5c-1.8,0-3.3,1.5-3.3,3.3c0,1.9,1.5,3.3,3.3,3.3c1.8,0,3.3-1.5,3.3-3.3C126.5,94.9,125,93.5,123.2,93.5
		 M56.8,93.5c-1.8,0-3.3,1.5-3.3,3.3c0,1.9,1.5,3.3,3.3,3.3s3.3-1.5,3.3-3.3C60.1,94.9,58.7,93.5,56.8,93.5 M123.2,89.7
		c3.9,0,7.1,3.2,7.1,7.1c0,3.9-3.2,7.1-7.1,7.1c-3.9,0-7-3.2-7-7.1C116.1,92.9,119.3,89.7,123.2,89.7 M56.8,89.7
		c3.9,0,7.1,3.2,7.1,7.1c0,3.9-3.2,7.1-7.1,7.1s-7.1-3.2-7.1-7.1C49.8,92.9,53,89.7,56.8,89.7 M90,89.4c-2.2,0-3.9,1.7-3.9,3.9
		c0,2.2,1.7,3.9,3.9,3.9s3.9-1.7,3.9-3.9C93.9,91.1,92.2,89.4,90,89.4 M90,85.6c4.2,0,7.6,3.4,7.6,7.6c0,4.2-3.4,7.6-7.6,7.6
		c-4.2,0-7.6-3.4-7.6-7.6C82.4,89.1,85.8,85.6,90,85.6 M76.6,73.2h26.8c1,0,1.9,0.8,1.9,1.9s-0.8,1.9-1.9,1.9H76.6
		C74.1,76.9,74.1,73.2,76.6,73.2 M117.1,71.5h12.1c1,0,1.9,0.8,1.9,1.9s-0.8,1.9-1.9,1.9h-12.1C114.6,75.2,114.6,71.5,117.1,71.5
		 M50.8,71.5h12.1c1,0,1.9,0.8,1.9,1.9s-0.8,1.9-1.9,1.9H50.8C48.3,75.2,48.3,71.5,50.8,71.5 M83.3,65.5h13.4c1,0,1.9,0.8,1.9,1.9
		c0,1-0.8,1.9-1.9,1.9H83.3C80.8,69.3,80.8,65.5,83.3,65.5L83.3,65.5z M113,59.3v5.3h22.3c1,0,1.9,0.8,1.9,1.9c0,1-0.8,1.9-1.9,1.9
		H113v10.1h22.3c1,0,1.9,0.9,1.9,1.9s-0.8,1.9-1.9,1.9H113V111h27.3V63.5c0-2.3-1.8-4.1-4.1-4.1H113z M43.8,59.3
		c-2.3,0-4.1,1.8-4.1,4.1V111H67V82.2H44.8c-2.5,0-2.5-3.7,0-3.8H67V68.3H44.8c-2.5,0-2.5-3.8,0-3.8H67v-5.3H43.8z M76.6,57.9h26.8
		c1.1,0,1.9,0.8,1.9,1.9c0,1-0.8,1.9-1.9,1.9H76.6C74.1,61.7,74.1,57.8,76.6,57.9 M75.6,51.7c-2.7,0-4.8,2.1-4.8,4.8v52.8h38.4V56.4
		c0-2.7-2.1-4.8-4.8-4.8H75.6z"/>
	<path class="st1" d="M90,164.8c-4.2,0-7.6,3.4-7.6,7.6c0,4.2,3.4,7.6,7.6,7.6c4.2,0,7.6-3.4,7.6-7.6
		C97.6,168.2,94.2,164.8,90,164.8 M136,156.4c-0.4,0-0.7,0.1-1,0.3c-4.3,2.9-8.8,5.4-13.7,7.4c-4.8,2-9.9,3.6-15.1,4.7
		c-2.5,0.5-1.7,4.2,0.8,3.7c5.5-1.1,10.8-2.8,15.8-4.9c5.1-2.1,9.8-4.7,14.3-7.8C138.7,158.8,137.9,156.4,136,156.4 M43.9,156.4
		c-1.9,0-2.6,2.4-1,3.4c4.5,3,9.3,5.6,14.3,7.8c5.1,2.1,10.3,3.8,15.8,4.9c1,0.2,2-0.4,2.2-1.4c0.2-1-0.5-2-1.5-2.2
		c-5.3-1.1-10.3-2.6-15.1-4.7c-4.8-2-9.4-4.5-13.7-7.4C44.7,156.5,44.3,156.4,43.9,156.4 M148.3,140.6c-4.2,0-7.6,3.4-7.6,7.6
		c0,4.2,3.4,7.6,7.6,7.6c4.2,0,7.6-3.4,7.6-7.6C155.9,144.1,152.5,140.6,148.3,140.6 M31.7,140.6c-4.2,0-7.6,3.4-7.6,7.6
		c0,4.2,3.4,7.6,7.6,7.6s7.6-3.4,7.6-7.6C39.4,144.1,35.9,140.6,31.7,140.6 M90,136c-1,0-1.9,0.9-1.8,1.9v9.6v9.6
		c0,1,0.9,1.9,1.9,1.9c1,0,1.9-0.8,1.9-1.9v-9.6v-9.6C91.9,136.8,91,136,90,136 M135.6,133.8c-1.4,0.1-2.5,1.8-1.2,3.2l1.7,1.7
		c1.8,1.8,4.4-0.9,2.7-2.6l-1.7-1.7C136.6,134,136.1,133.8,135.6,133.8 M44.2,133.8c-0.4,0-0.9,0.2-1.2,0.6l-1.7,1.7
		c-1.8,1.8,0.9,4.4,2.6,2.7l1.7-1.7C47,135.7,45.7,133.8,44.2,133.8 M170.7,104.7c-0.9,0-1.7,0.6-1.8,1.5
		c-1.1,5.2-2.7,10.3-4.7,15.1c-2,4.8-4.5,9.4-7.4,13.7c-0.6,0.9-0.4,2.1,0.5,2.7c0.9,0.6,2.1,0.3,2.6-0.6c3-4.5,5.6-9.3,7.8-14.3
		c2.1-5,3.8-10.3,4.9-15.8C172.8,105.8,171.9,104.7,170.7,104.7 M9.2,104.7c-1.2,0-2.1,1.1-1.8,2.3c1.1,5.5,2.8,10.8,4.9,15.8
		c2.1,5,4.7,9.8,7.8,14.3c1.4,2,4.5-0.1,3.1-2.1c-2.9-4.3-5.4-8.9-7.4-13.7c-2-4.8-3.6-9.9-4.7-15.1C11,105.4,10.2,104.7,9.2,104.7
		 M147.5,88.1c-2.5-0.1-2.5,3.8,0,3.7h9.6c1,0,1.9-0.8,1.9-1.9s-0.8-1.9-1.9-1.9H147.5z M22.9,88.1c-2.5-0.1-2.5,3.8,0,3.7h9.6
		c1.1,0,1.9-0.8,1.9-1.9s-0.8-1.9-1.9-1.9H22.9z M172.4,82.4c-4.2,0-7.6,3.4-7.6,7.6c0,4.2,3.4,7.6,7.6,7.6c4.2,0,7.6-3.4,7.6-7.6
		C180,85.8,176.6,82.4,172.4,82.4 M7.6,82.4C3.4,82.4,0,85.8,0,90c0,4.2,3.4,7.6,7.6,7.6c4.2,0,7.6-3.4,7.6-7.6
		C15.2,85.8,11.8,82.4,7.6,82.4 M158.3,42.1c-1.5,0-2.4,1.7-1.5,3c2.9,4.3,5.4,8.8,7.4,13.7c2,4.8,3.6,9.9,4.7,15.1
		c0.2,1,1.2,1.7,2.2,1.5c1-0.2,1.7-1.2,1.5-2.3c-1.1-5.5-2.8-10.8-4.9-15.8s-4.7-9.8-7.8-14.3C159.5,42.4,158.9,42.1,158.3,42.1
		 M21.7,42.1c-0.6,0-1.2,0.3-1.5,0.8c-3,4.5-5.6,9.3-7.8,14.3S8.6,67.6,7.4,73c-0.2,1,0.4,2,1.5,2.2c1,0.2,2-0.5,2.2-1.5
		c1.1-5.2,2.7-10.3,4.7-15.1c2-4.8,4.5-9.4,7.4-13.7C24.1,43.7,23.2,42,21.7,42.1 M137.4,40.7c-0.5,0-0.9,0.2-1.3,0.6l-6.8,6.8
		c-1.9,1.8,0.9,4.5,2.6,2.6l6.8-6.8C140,42.7,139.1,40.7,137.4,40.7 M42.6,40.7c-1.7,0-2.5,2-1.3,3.2l6.8,6.8
		c1.8,1.8,4.5-0.9,2.6-2.6l-6.8-6.8C43.6,40.9,43.1,40.7,42.6,40.7 M148.3,24.1c-4.2,0-7.6,3.4-7.6,7.6c0,4.2,3.4,7.6,7.6,7.6
		c4.2,0,7.6-3.4,7.6-7.6C155.9,27.6,152.5,24.1,148.3,24.1 M31.7,24.1c-4.2,0-7.6,3.4-7.6,7.6c0,4.2,3.4,7.6,7.6,7.6
		s7.6-3.4,7.6-7.6C39.4,27.6,35.9,24.1,31.7,24.1 M90,21.1c-1,0-1.9,0.9-1.8,1.9v9.6v9.6c0,1,0.9,1.9,1.9,1.9c1,0,1.9-0.8,1.9-1.9
		v-9.6V23C91.9,21.9,91,21,90,21.1 M73.5,7.4c-0.1,0-0.3,0-0.5,0c-5.5,1.1-10.8,2.8-15.8,4.9c-5,2.1-9.8,4.7-14.3,7.8
		c-2.1,1.4,0,4.5,2.1,3.1c4.3-2.9,8.8-5.4,13.7-7.4c4.8-2,9.9-3.6,15.1-4.7C76,10.6,75.8,7.5,73.5,7.4L73.5,7.4z M106.6,7.4
		c-1.9-0.1-2.9,3-0.4,3.7c5.3,1.1,10.3,2.6,15.1,4.7c4.8,2,9.4,4.5,13.7,7.4c2.1,1.5,4.2-1.7,2.1-3.1c-4.5-3-9.3-5.6-14.3-7.8
		c-5-2.1-10.3-3.8-15.8-4.9C106.8,7.4,106.7,7.4,106.6,7.4 M90,0c-4.2,0-7.6,3.4-7.6,7.6s3.4,7.6,7.6,7.6c4.2,0,7.6-3.4,7.6-7.6
		S94.2,0,90,0L90,0z"/>
</g>
</svg>
