<?xml version="1.0" encoding="utf-8"?>
<!-- Generator: Adobe Illustrator 25.0.0, SVG Export Plug-In . SVG Version: 6.00 Build 0)  -->
<svg version="1.1" id="Layer_1" xmlns="http://www.w3.org/2000/svg" xmlns:xlink="http://www.w3.org/1999/xlink" x="0px" y="0px"
	 viewBox="0 0 193 163.7" style="enable-background:new 0 0 193 163.7;" xml:space="preserve">
<style type="text/css">
	.st0{fill:#005EFF;}
	.st1{fill-rule:evenodd;clip-rule:evenodd;fill:#42CCCC;}
</style>
<g>
	<path class="st0" d="M66.7,133.2h7.6v-7.6h-7.6V133.2z M66.7,125.6 M66.7,102.7h7.6v-7.6h-7.6V102.7z M82,133.2h3.8v-7.6H82V133.2z
		 M82,102.7h3.8v-7.6H82V102.7z M62.9,87.5h61c2.1,0,3.8,1.7,3.8,3.8v15.2c0,2.1-1.7,3.8-3.8,3.8h-61c-2.1,0-3.8-1.7-3.8-3.8V91.3
		C59.1,89.2,60.8,87.5,62.9,87.5 M97.2,148.5h3.8c2.1,0,3.8,1.7,3.8,3.8h65.7v7.6h-65.7c0,2.1-1.7,3.8-3.8,3.8H85.8
		c-2.1,0-3.8-1.7-3.8-3.8H16.2v-7.6H82c0-2.1,1.7-3.8,3.8-3.8h3.8v-7.6H62.9c-2.1,0-3.8-1.7-3.8-3.8v-15.2c0-2.1,1.7-3.8,3.8-3.8h61
		c2.1,0,3.8,1.7,3.8,3.8V137c0,2.1-1.7,3.8-3.8,3.8H97.2V148.5L97.2,148.5z"/>
	<path class="st1" d="M0,76.6C0.6,56.9,14.1,37.1,39.5,37l2.1,0.1l1.9-3.6c34-60,105.5-30.8,110.1,20.3l0,0.7h7.8
		c20.7,0,31.3,16.5,31.5,32.1c0.2,15.8-10,32.2-31.5,32.2h-23.8v-9h23.8c15.5,0,22.7-11.2,22.5-23.1c-0.2-12-8-23.2-22.5-23.2h-16.6
		V59c0-46.7-67.2-77-96.5-15.4L47,46.5l-3.1-0.3C21.3,44,9.5,59.9,9,76.9c-0.5,16.8,10.3,33.7,33.8,32.9h6.8v9H43
		C13.5,119.7-0.6,97.7,0,76.6z M68.9,52.2c0-13.9,11.3-25.1,25.1-25.1c13.9,0,25.1,11.2,25.1,25.1c0,13.9-11.2,25.1-25.1,25.1
		C80.1,77.3,68.9,66.1,68.9,52.2z M97.1,66.5V54.8h11.7v-5.1H97.1V37.9h-5.4v11.8H80.2v5.1h11.6v11.8H97.1z"/>
</g>
</svg>
