<?xml version="1.0" encoding="utf-8"?>
<!-- Generator: Adobe Illustrator 25.0.0, SVG Export Plug-In . SVG Version: 6.00 Build 0)  -->
<svg version="1.1" id="Layer_1" xmlns="http://www.w3.org/2000/svg" xmlns:xlink="http://www.w3.org/1999/xlink" x="0px" y="0px"
	 viewBox="0 0 159 176.2" style="enable-background:new 0 0 159 176.2;" xml:space="preserve">
<style type="text/css">
	.st0{fill-rule:evenodd;clip-rule:evenodd;fill:#24BD85;}
</style>
<path class="st0" d="M42,134.5v-27c0-2.4,1.8-4.9,4.6-4.9C57,102,67.3,96.8,75.7,91c1.1-0.7,2.2-1.3,3.7-1.4
	c1.5,0.2,2.7,0.8,3.8,1.4c8.5,5.8,18.8,11,29.1,11.6c2.8,0,4.6,2.5,4.6,4.9v27c0,12-5.4,28.7-37.3,41.7
	C47.7,163.2,42,146.5,42,134.5z M95.9,148.1v-20.6c0-2.3-1.8-4.1-4.1-4.1h-2v-4.1c0-5.7-4.6-10.3-10.3-10.3s-10.3,4.6-10.3,10.3v4.1
	h-2.1c-2.3,0-4.1,1.8-4.1,4.1v20.6c0,2.3,1.8,4.1,4.1,4.1h24.7C94.1,152.3,95.9,150.4,95.9,148.1z M0,79.5C0,35.6,35.6,0,79.5,0
	C123.4,0,159,35.6,159,79.5c0,27.7-14.2,52.1-35.7,66.4c1-3.9,1.4-7.6,1.4-11v0c6-4.9,11.2-10.7,15.3-17.3l0.9-1.6h-16.3v-8h20.4
	l1.4-3.5c2.3-6.1,3.8-12.7,4.3-19.5l0.1-1.3h-23.9l0,0.7c-0.3,6.7-1,13.3-2.2,19.6v-1.7c0-2.9-2.1-5.9-5.5-5.9
	c-0.4,0-0.8-0.1-1.3-0.1c0.4-3.2,0.7-6.5,0.9-9.9l0.1-2.7H86c-0.7-0.5-1.4-0.9-2-1.4c-1.3-0.8-2.7-1.5-4.6-1.7
	c-1.9,0.2-3.2,0.9-4.5,1.7c-0.7,0.5-1.3,0.9-2,1.4H40.1l0.1,2.7c0.2,3.4,0.5,6.7,0.9,9.8c-0.4,0-0.8,0.1-1.2,0.1
	c-3.4,0-5.5,3.1-5.5,5.9v1.8c-1.2-6.3-2-12.9-2.2-19.7l0-0.7H8.2L8.2,85c0.5,6.8,2,13.3,4.3,19.5l1.4,3.5h20.4v8H18l0.9,1.6
	c4.2,6.6,9.3,12.4,15.3,17.3v0c0,3.4,0.4,7.1,1.5,11C14.2,131.7,0,107.2,0,79.5z M75.4,137.9c0-2.3,1.8-4.1,4.1-4.1
	c2.3,0,4.1,1.8,4.1,4.1c0,2.3-1.8,4.1-4.1,4.1S75.4,140.1,75.4,137.9z M73.3,123.5v-4.1c0-3.4,2.8-6.2,6.2-6.2s6.2,2.8,6.2,6.2v4.1
	H73.3z M32.1,75.7l0-1.1c0.3-7.6,1.2-15,2.7-22l0.3-1.1H13.8l-1.3,3.1C10.2,60.7,8.7,67.2,8.2,74l-0.1,1.7H32.1z M75.5,75.7V51.4
	H43.2l-0.7,3.1c-1.2,5.7-2,11.7-2.3,18.1l-0.1,3.1H75.5z M118.9,75.7l-0.1-3.1c-0.3-6.4-1.1-12.4-2.3-18.1l-0.7-3H83.5v24.3H118.9z
	 M150.8,75.7l-0.1-1.7c-0.5-6.8-2-13.3-4.3-19.5l-1.3-3.1h-21.3l0.2,1c1.5,7,2.5,14.5,2.7,22.1l0,1.1H150.8z M37.2,43.4l0.9-3
	C41.6,30,46.4,21,52.3,14.1l1-1.1l-1.6,0.7C38.1,19.4,26.7,29.1,19,41.4l-1.1,2H37.2z M75.5,43.4v-35l-1.7,0.4
	c-10.7,2.9-20.4,13.9-26.7,30l-1.6,4.6H75.5z M113.6,43.4l-1.7-4.7c-6.3-16.1-16.1-27-26.7-29.9l-1.7-0.4v35H113.6z M141.1,43.4
	l-1.1-2c-7.8-12.3-19.2-22.1-32.7-27.8l-1.6-0.7l0.9,1c5.9,6.9,10.7,15.9,14.2,26.2l1,3.1H141.1z"/>
</svg>
