<?xml version="1.0" encoding="utf-8"?>
<!-- Generator: Adobe Illustrator 25.0.0, SVG Export Plug-In . SVG Version: 6.00 Build 0)  -->
<svg version="1.1" id="Layer_1" xmlns="http://www.w3.org/2000/svg" xmlns:xlink="http://www.w3.org/1999/xlink" x="0px" y="0px"
	 viewBox="0 0 150 181.7" style="enable-background:new 0 0 150 181.7;" xml:space="preserve">
<style type="text/css">
	.st0{fill-rule:evenodd;clip-rule:evenodd;fill:#005EFF;}
</style>
<path class="st0" d="M50.1,171.4c-13.7-13.7-13.7-36.1,0-49.8c13.7-13.7,36-13.7,49.8,0c13.7,13.7,13.7,36,0,49.8
	C86.1,185.2,63.8,185.2,50.1,171.4z M72.7,167.7V165c-0.7-0.1-1.4-0.2-2-0.3l0,0l-0.7,2.7C70.9,167.5,71.8,167.7,72.7,167.7z
	 M67.4,166.7l0.7-2.7c-0.7-0.2-1.3-0.5-1.9-0.8l-1.3,2.4C65.7,166,66.5,166.4,67.4,166.7z M62.5,164.2l1.3-2.4
	c-0.6-0.4-1.1-0.8-1.6-1.3l-1.9,1.9C61,163.1,61.7,163.7,62.5,164.2z M84.5,163.5l13.1-4.6c0.4-0.1,0.8-0.6,0.9-1s-0.1-1-0.4-1.3
	l-4.1-3.6c0.6-2,0.9-4.1,0.9-6.3c0-9.3-5.9-17.3-14.1-20.1l0,0l-0.7,2.7c7.1,2.5,12.1,9.3,12.1,17.4c0,1.5-0.2,2.9-0.5,4.3l-4-3.6
	c-0.3-0.2-0.6-0.4-1-0.3c-0.6,0.1-1.1,0.5-1.2,1.1l-2.7,13.9c-0.1,0.5,0.1,1,0.4,1.3C83.5,163.5,84,163.6,84.5,163.5z M58.4,160.5
	l1.9-1.9c-0.4-0.5-0.9-1.1-1.2-1.7l-2.3,1.4C57.3,159.1,57.8,159.8,58.4,160.5z M0,154.7c0-1.5,1.2-2.7,2.6-2.7h9v-9H4.4
	c-1.5,0-2.7-1.2-2.7-2.6v-38.8c0-1.5,1.2-2.6,2.7-2.6h7.3v-5.4H4.4c-1.5,0-2.7-1.2-2.7-2.6V52.1c0-1.5,1.2-2.6,2.7-2.6h7.3v-5.4H4.4
	c-1.5,0-2.7-1.2-2.7-2.6V2.6C1.7,1.2,2.9,0,4.4,0h141.7c1.5,0,2.6,1.2,2.6,2.6v38.8c0,1.5-1.2,2.7-2.6,2.7h-6.3v5.4h6.3
	c1.5,0,2.6,1.2,2.6,2.6v38.8c0,1.5-1.2,2.6-2.6,2.6h-6.3v5.4h6.3c1.5,0,2.6,1.2,2.6,2.7v38.8c0,1.5-1.2,2.6-2.6,2.6h-6.3v9h7.5l0,0
	c1.5,0,2.7,1.2,2.7,2.7c0,1.5-1.2,2.6-2.7,2.6h-31.9c0.5-1.7,0.8-3.5,1-5.3h18v-9h-17.8c-0.1-1.8-0.4-3.5-0.8-5.3h27.5v-33.5H7v33.5
	h27c-0.4,1.7-0.6,3.5-0.8,5.3H17v9h16.5c0.2,1.8,0.6,3.5,1.1,5.3H2.6C1.2,157.4,0,156.2,0,154.7z M55.4,155.9l2.3-1.4
	c-0.3-0.6-0.5-1.3-0.8-1.9l-2.6,0.7C54.7,154.2,55,155,55.4,155.9z M64.8,153.7l10-5.7c0.6-0.1,1.1-0.7,1.1-1.4c0,0,0-0.1,0-0.1h0
	v-12h-2.8v11.2l-9.7,5.6L64.8,153.7z M53.7,150.6l2.6-0.7c-0.1-0.7-0.2-1.3-0.2-2h-2.7C53.4,148.8,53.5,149.7,53.7,150.6z M56.3,143
	l-2.6-0.7c-0.2,0.9-0.3,1.8-0.4,2.8h2.7C56.1,144.4,56.2,143.7,56.3,143z M57.8,138.5l-2.3-1.4c-0.4,0.8-0.7,1.7-1,2.5l2.6,0.7
	C57.3,139.7,57.5,139.1,57.8,138.5z M60.4,134.5l-1.9-2c-0.6,0.7-1.2,1.4-1.7,2.2l2.3,1.4C59.6,135.5,60,135,60.4,134.5z
	 M114.7,133.2c-0.5-1.3-1-2.7-1.6-4c0.5-0.7,1.3-1.2,2.2-1.2h7.3c1.5,0,2.6,1.2,2.6,2.7c0,1.4-1.2,2.6-2.6,2.6h-7.3
	C115.1,133.2,114.9,133.2,114.7,133.2z M128.8,130.6c0-1.5,1.2-2.7,2.7-2.7h7.3c1.5,0,2.7,1.2,2.7,2.7c0,1.4-1.2,2.6-2.7,2.6h-7.3
	C130,133.2,128.8,132,128.8,130.6z M63.9,131.3l-1.4-2.4c-0.7,0.5-1.5,1.1-2.2,1.7l1.9,1.9C62.8,132,63.4,131.6,63.9,131.3z
	 M14.8,128.6v-12c0-1.5,1.2-2.6,2.6-2.6h12c1.5,0,2.6,1.2,2.6,2.6v12c0,1.5-1.2,2.6-2.6,2.6h-12C16,131.3,14.8,130.1,14.8,128.6z
	 M68.1,129.1l-0.7-2.7c-0.9,0.3-1.7,0.6-2.5,1.1l1.4,2.4C66.9,129.6,67.5,129.3,68.1,129.1z M72.7,128.1v-2.8
	c-0.9,0.1-1.8,0.2-2.7,0.3l0.7,2.7C71.4,128.3,72.1,128.2,72.7,128.1z M77.4,128.4l0.7-2.7c-0.9-0.2-1.8-0.3-2.7-0.3v2.8
	C76.1,128.2,76.8,128.3,77.4,128.4z M38.2,126.4v-9.8c0-1.5,1.2-2.6,2.6-2.6h7.8c-1.1,0.9-2.2,1.9-3.3,3
	C42.5,119.8,40.1,123,38.2,126.4z M26.8,126v-6.7h-6.7v6.7H26.8z M134.5,98.9v-5.4H17v5.4H134.5z M143.4,88.3V54.8H7v33.5H143.4z
	 M96.6,78.5c0-1.5,1.2-2.6,2.6-2.6h7.3c1.5,0,2.6,1.2,2.6,2.6c0,1.5-1.2,2.6-2.6,2.6h-7.3C97.8,81.2,96.6,80,96.6,78.5z M112.7,78.5
	c0-1.5,1.2-2.6,2.7-2.6h7.3c1.5,0,2.6,1.2,2.6,2.6c0,1.5-1.2,2.6-2.6,2.6h-7.3C113.9,81.2,112.7,80,112.7,78.5z M128.8,78.5
	c0-1.5,1.2-2.6,2.7-2.6h7.3c1.5,0,2.7,1.2,2.7,2.6c0,1.5-1.2,2.6-2.7,2.6h-7.3C130,81.2,128.8,80,128.8,78.5z M14.8,76.5v-12
	c0-1.5,1.2-2.6,2.6-2.6h12c1.5,0,2.6,1.2,2.6,2.6v12c0,1.5-1.2,2.6-2.6,2.6h-12C16,79.2,14.8,78,14.8,76.5z M38.2,76.5v-12
	c0-1.5,1.2-2.6,2.6-2.6h12c1.5,0,2.6,1.2,2.6,2.6v12c0,1.5-1.2,2.6-2.6,2.6h-12C39.4,79.2,38.2,78,38.2,76.5z M61.6,76.5v-12
	c0-1.5,1.2-2.6,2.7-2.6h12c1.5,0,2.6,1.2,2.6,2.6v12c0,1.5-1.2,2.6-2.6,2.6h-12C62.8,79.2,61.6,78,61.6,76.5z M26.8,73.9v-6.7h-6.7
	v6.7H26.8z M50.2,73.9v-6.7h-6.7v6.7H50.2z M73.7,73.9v-6.7h-6.7v6.7H73.7z M134.5,49.5v-5.4H17v5.4H134.5z M143.4,38.8V5.3H7v33.5
	H143.4z M96.6,26.5c0-1.5,1.2-2.7,2.6-2.7h7.3c1.5,0,2.6,1.2,2.6,2.7s-1.2,2.6-2.6,2.6h-7.3C97.8,29.1,96.6,27.9,96.6,26.5z
	 M112.7,26.5c0-1.5,1.2-2.7,2.7-2.7h7.3c1.5,0,2.6,1.2,2.6,2.7s-1.2,2.6-2.6,2.6h-7.3C113.9,29.1,112.7,27.9,112.7,26.5z
	 M128.8,26.5c0-1.5,1.2-2.7,2.7-2.7h7.3c1.5,0,2.7,1.2,2.7,2.7s-1.2,2.6-2.7,2.6h-7.3C130,29.1,128.8,27.9,128.8,26.5z M14.8,24.5
	v-12c0-1.5,1.2-2.6,2.6-2.6h12c1.5,0,2.6,1.2,2.6,2.6v12c0,1.5-1.2,2.6-2.6,2.6h-12C16,27.1,14.8,25.9,14.8,24.5z M38.2,24.5v-12
	c0-1.5,1.2-2.6,2.6-2.6h12c1.5,0,2.6,1.2,2.6,2.6v12c0,1.5-1.2,2.6-2.6,2.6h-12C39.4,27.1,38.2,25.9,38.2,24.5z M61.6,24.5v-12
	c0-1.5,1.2-2.6,2.7-2.6h12c1.5,0,2.6,1.2,2.6,2.6v12c0,1.5-1.2,2.6-2.6,2.6h-12C62.8,27.1,61.6,25.9,61.6,24.5z M26.8,21.8v-6.7
	h-6.7v6.7H26.8z M50.2,21.8v-6.7h-6.7v6.7H50.2z M73.7,21.8v-6.7h-6.7v6.7H73.7z"/>
</svg>
