<?xml version="1.0" encoding="utf-8"?>
<!-- Generator: Adobe Illustrator 25.0.0, SVG Export Plug-In . SVG Version: 6.00 Build 0)  -->
<svg version="1.1" id="Layer_1" xmlns="http://www.w3.org/2000/svg" xmlns:xlink="http://www.w3.org/1999/xlink" x="0px" y="0px"
	 viewBox="0 0 180 180" style="enable-background:new 0 0 180 180;" xml:space="preserve">
<style type="text/css">
	.st0{fill:#FFFFFF;}
</style>
<path class="st0" d="M82.4,172.4c0-4.2,3.4-7.6,7.6-7.6c4.2,0,7.6,3.4,7.6,7.6c0,4.2-3.4,7.6-7.6,7.6
	C85.8,180,82.4,176.6,82.4,172.4z M73,172.5c-5.5-1.1-10.8-2.8-15.8-4.9c-5-2.1-9.8-4.7-14.3-7.8c-1.6-1-0.8-3.4,1-3.4
	c0.4,0,0.7,0.1,1.1,0.3c4.3,2.9,8.8,5.4,13.7,7.4c4.8,2,9.9,3.6,15.1,4.7c1,0.2,1.7,1.2,1.5,2.2C75.1,172.1,74,172.8,73,172.5z
	 M106.2,168.9c5.3-1.1,10.3-2.6,15.1-4.7c4.8-2,9.4-4.5,13.7-7.4c0.3-0.2,0.6-0.3,1-0.3c1.9-0.1,2.7,2.4,1.1,3.4
	c-4.5,3-9.3,5.6-14.3,7.8c-5,2.1-10.3,3.8-15.8,4.9C104.5,173.1,103.7,169.3,106.2,168.9z M88.1,157.1v-19.2c0-1,0.8-1.9,1.8-1.9
	c1.1,0,1.9,0.8,1.9,1.9v19.2c0,1-0.9,1.9-1.9,1.9C89,158.9,88.1,158.1,88.1,157.1z M24.1,148.3c0-4.2,3.4-7.6,7.6-7.6
	s7.6,3.4,7.6,7.6c0,4.2-3.4,7.6-7.6,7.6S24.1,152.4,24.1,148.3z M140.6,148.3c0-4.2,3.4-7.6,7.6-7.6c4.2,0,7.6,3.4,7.6,7.6
	c0,4.2-3.4,7.6-7.6,7.6C144.1,155.9,140.6,152.4,140.6,148.3z M41.3,136.1l1.7-1.7c0.4-0.4,0.8-0.6,1.2-0.6c1.5-0.1,2.8,1.8,1.4,3.2
	l-1.7,1.7C42.1,140.5,39.5,137.9,41.3,136.1z M136.1,138.7l-1.7-1.7c-1.3-1.4-0.2-3.2,1.2-3.2c0.5,0,1,0.1,1.5,0.6l1.7,1.7
	C140.5,137.9,137.9,140.5,136.1,138.7z M157.2,137.7c-0.9-0.6-1.1-1.8-0.5-2.7c2.9-4.3,5.4-8.9,7.4-13.7c2-4.8,3.6-9.9,4.7-15.1
	c0.2-0.9,0.9-1.5,1.8-1.5c1.2,0,2.1,1.1,1.9,2.3c-1.1,5.5-2.8,10.8-4.9,15.8c-2.1,5.1-4.7,9.8-7.8,14.3
	C159.3,138,158.1,138.3,157.2,137.7z M20.1,137.1c-3-4.5-5.6-9.3-7.8-14.3c-2.1-5.1-3.8-10.3-4.9-15.8c-0.3-1.2,0.6-2.3,1.8-2.3
	c0.9,0,1.7,0.6,1.9,1.5c1.1,5.2,2.7,10.3,4.7,15.1c2,4.8,4.5,9.4,7.4,13.7C24.6,137.1,21.5,139.2,20.1,137.1z M70.9,124.5
	c0.1-3.9-0.1-7.7-0.1-11.5l38.4,0v10.6c0,2.6-2,4.7-4.7,4.8h-29C73.2,128.4,71.3,126.7,70.9,124.5z M39.7,124.3v-9.5H67v8.8
	c0,2,0.6,3.4,1.5,4.8H43.8C41.5,128.4,39.7,126.6,39.7,124.3z M113,123.5h8.5c1,0,1.9-0.8,1.9-1.9c0-1-0.8-1.9-1.9-1.9H113v-4.9
	h27.3v9.5c0,2.3-1.8,4.1-4.1,4.1h-24.7C112.4,126.8,113,125.8,113,123.5z M64,125v-6.9c0-1.1-0.8-1.9-1.9-1.9c-1,0-1.9,0.9-1.8,1.9
	v6.9c0,1.1,0.8,1.9,1.9,1.9C63.1,126.9,64,126.1,64,125z M130.3,125v-6.9c0-1.1-0.9-1.9-1.9-1.9c-1,0-1.9,0.9-1.8,1.9v6.9
	c0,1,0.8,1.9,1.9,1.9C129.4,126.9,130.3,126.1,130.3,125z M137.2,125v-6.9c0-1.1-0.8-1.9-1.9-1.9c-1,0-1.9,0.9-1.8,1.9v6.9
	c0,1,0.8,1.9,1.9,1.9C136.3,126.9,137.2,126.1,137.2,125z M105.4,124.5v-7.6c0-1.1-0.8-1.9-1.9-1.9c-1,0-1.9,0.9-1.8,1.9v7.6
	c0,1,0.8,1.9,1.9,1.9C104.5,126.4,105.4,125.5,105.4,124.5z M97.7,124.5v-7.6c0-1.1-0.9-1.9-1.9-1.9c-1,0-1.9,0.9-1.8,1.9v7.6
	c0,1,0.8,1.8,1.9,1.8S97.7,125.5,97.7,124.5z M57,121.6c0-1-0.8-1.9-1.9-1.9H43.9c-2.5,0-2.5,3.8,0,3.8h11.2
	C56.1,123.5,57,122.6,57,121.6z M90,120.7c0-1-0.9-1.9-1.9-1.9H75.6c-2.5,0-2.5,3.8,0,3.8h12.5C89.1,122.6,90,121.7,90,120.7z
	 M39.7,111V63.5c0-2.3,1.8-4.1,4.1-4.1H67v5.3H44.8c-2.5,0-2.5,3.8,0,3.8H67v10.1H44.8c-2.5,0-2.5,3.7,0,3.8H67V111H39.7z M113,111
	V82.2h22.3c1,0,1.9-0.8,1.9-1.9s-0.8-1.9-1.9-1.9H113V68.3h22.3c1,0,1.9-0.8,1.9-1.9c0-1-0.8-1.9-1.9-1.9H113v-5.3h23.2
	c2.3,0,4.1,1.8,4.1,4.1V111H113z M70.8,109.2V56.4c0-2.7,2.1-4.8,4.8-4.8h28.9c2.7,0,4.8,2.1,4.8,4.8v52.8H70.8z M63.9,96.8
	c0-3.9-3.2-7.1-7.1-7.1s-7.1,3.2-7.1,7.1c0,3.9,3.2,7.1,7.1,7.1S63.9,100.7,63.9,96.8z M130.2,96.8c0-3.9-3.2-7.1-7.1-7.1
	c-3.9,0-7,3.2-7,7.1c0,3.9,3.2,7.1,7,7.1C127,103.9,130.2,100.7,130.2,96.8z M97.6,93.3c0-4.2-3.4-7.6-7.6-7.6
	c-4.2,0-7.6,3.4-7.6,7.6c0,4.2,3.4,7.6,7.6,7.6C94.2,100.9,97.6,97.5,97.6,93.3z M53.5,96.8c0-1.9,1.5-3.3,3.3-3.3s3.3,1.5,3.3,3.3
	c0,1.9-1.5,3.3-3.3,3.3S53.5,98.6,53.5,96.8z M119.9,96.8c0-1.9,1.5-3.3,3.3-3.3c1.8,0,3.3,1.5,3.3,3.3c0,1.9-1.5,3.3-3.3,3.3
	C121.3,100.1,119.9,98.6,119.9,96.8z M0,90c0-4.2,3.4-7.6,7.6-7.6c4.2,0,7.6,3.4,7.6,7.6c0,4.2-3.4,7.6-7.6,7.6
	C3.4,97.7,0,94.2,0,90z M164.8,90c0-4.2,3.4-7.6,7.6-7.6c4.2,0,7.6,3.4,7.6,7.6c0,4.2-3.4,7.6-7.6,7.6
	C168.2,97.7,164.8,94.2,164.8,90z M86.1,93.3c0-2.2,1.7-3.9,3.9-3.9s3.9,1.7,3.9,3.9c0,2.2-1.7,3.9-3.9,3.9S86.1,95.4,86.1,93.3z
	 M22.9,88.1h9.6c1.1,0,1.9,0.8,1.9,1.9s-0.8,1.9-1.9,1.9h-9.6C20.4,91.9,20.4,88.1,22.9,88.1z M147.5,88.1h9.6c1,0,1.9,0.8,1.9,1.9
	s-0.8,1.9-1.9,1.9h-9.6C145,91.9,145,88.1,147.5,88.1z M105.3,75.1c0-1-0.8-1.9-1.9-1.9H76.6c-2.5,0-2.5,3.7,0,3.7h26.8
	C104.4,76.9,105.3,76.1,105.3,75.1z M168.9,73.8c-1.1-5.2-2.7-10.3-4.7-15.1c-2-4.8-4.5-9.4-7.4-13.7c-0.9-1.2,0-3,1.5-3
	c0.6,0,1.2,0.3,1.6,0.8c3,4.5,5.6,9.3,7.8,14.3s3.8,10.3,4.9,15.8c0.2,1-0.4,2-1.5,2.3C170.1,75.5,169.1,74.8,168.9,73.8z M8.9,75.3
	c-1-0.2-1.7-1.2-1.5-2.2c1.1-5.5,2.8-10.8,4.9-15.8s4.7-9.8,7.8-14.3c0.3-0.5,0.9-0.8,1.5-0.8c1.5,0,2.5,1.7,1.6,3
	c-2.9,4.3-5.4,8.8-7.4,13.7c-2,4.8-3.6,9.9-4.7,15.1C10.9,74.8,9.9,75.5,8.9,75.3z M64.7,73.4c0-1-0.8-1.9-1.9-1.9H50.8
	c-2.5,0-2.5,3.7,0,3.7h12.1C63.9,75.3,64.7,74.4,64.7,73.4z M131.1,73.4c0-1-0.8-1.9-1.9-1.9h-12.1c-2.5,0-2.5,3.7,0,3.7h12.1
	C130.2,75.3,131.1,74.4,131.1,73.4z M98.6,67.4c0-1-0.8-1.9-1.9-1.9H83.3c-2.5,0-2.5,3.8,0,3.8h13.4C97.7,69.3,98.6,68.4,98.6,67.4z
	 M105.3,59.7c0-1-0.8-1.9-1.9-1.9H76.6c-2.5,0-2.5,3.8,0,3.8h26.8C104.5,61.6,105.3,60.8,105.3,59.7z M129.3,48.1l6.8-6.8
	c0.3-0.3,0.8-0.6,1.3-0.6c1.7-0.1,2.6,2,1.4,3.2l-6.8,6.8C130.2,52.6,127.4,49.8,129.3,48.1z M48,50.7l-6.8-6.8
	c-1.2-1.2-0.4-3.2,1.3-3.2c0.5,0,1,0.2,1.3,0.6l6.8,6.8C52.5,49.8,49.8,52.5,48,50.7z M88.1,42.1V23c0-1,0.8-1.9,1.8-1.9
	c1.1,0,1.9,0.8,1.9,1.9v19.2c0,1-0.9,1.9-1.9,1.9C89,44,88.1,43.1,88.1,42.1z M24.1,31.8c0-4.2,3.4-7.6,7.6-7.6s7.6,3.4,7.6,7.6
	c0,4.2-3.4,7.6-7.6,7.6S24.1,36,24.1,31.8z M140.6,31.8c0-4.2,3.4-7.6,7.6-7.6c4.2,0,7.6,3.4,7.6,7.6c0,4.2-3.4,7.6-7.6,7.6
	C144.1,39.4,140.6,36,140.6,31.8z M42.9,20.2c4.5-3,9.3-5.6,14.3-7.8c5.1-2.1,10.3-3.8,15.8-4.9c0.2,0,0.3-0.1,0.5,0v0
	c2.3,0.1,2.5,3.1,0.3,3.7c-5.3,1.1-10.3,2.7-15.1,4.7c-4.8,2-9.4,4.5-13.7,7.4C42.9,24.7,40.8,21.6,42.9,20.2z M135,23.2
	c-4.3-2.9-8.8-5.4-13.7-7.4c-4.8-2-9.9-3.6-15.1-4.7c-2.6-0.7-1.6-3.8,0.4-3.7c0.1,0,0.3,0,0.4,0.1c5.5,1.1,10.8,2.8,15.8,4.9
	c5.1,2.1,9.8,4.7,14.3,7.8C139.2,21.5,137.1,24.7,135,23.2z M82.4,7.6C82.4,3.4,85.8,0,90,0c4.2,0,7.6,3.4,7.6,7.6s-3.4,7.6-7.6,7.6
	C85.8,15.3,82.4,11.8,82.4,7.6z"/>
</svg>
