<?xml version="1.0" encoding="utf-8"?>
<!-- Generator: Adobe Illustrator 25.0.0, SVG Export Plug-In . SVG Version: 6.00 Build 0)  -->
<svg version="1.1" id="Layer_1" xmlns="http://www.w3.org/2000/svg" xmlns:xlink="http://www.w3.org/1999/xlink" x="0px" y="0px"
	 viewBox="0 0 160 168.2" style="enable-background:new 0 0 160 168.2;" xml:space="preserve">
<style type="text/css">
	.st0{fill:#42CCCC;}
	.st1{fill-rule:evenodd;clip-rule:evenodd;fill:#005EFF;}
</style>
<g>
	<path class="st0" d="M0,142.7V52.5c0-3.2,2.6-5.9,5.9-5.9h3.9V2.7C9.8,1.2,11,0,12.5,0l98.3,0c1.5,0,2.7,1.2,2.7,2.7v9.6h8.9
		c1.5,0,2.7,1.2,2.7,2.7V63h2.8c3.2,0,5.9,2.7,5.9,5.9v9.7c-1.8-1.1-3.6-2.2-5.3-3.3v-6.3c0-0.3-0.3-0.6-0.6-0.6H125v4.9
		c-0.7-0.3-1.6-0.5-2.5-0.6c-1.1,0.1-2,0.4-2.8,0.8V17.6H45.3v15.3c0,1.5-1.2,2.7-2.7,2.7H27.3v11h17.9c2.5,0,4.6,1.5,5.5,3.8
		l4.7,12.2c0.1,0.1,0.4,0.5,0.6,0.5h54.3c3.2,0,5.9,2.6,5.9,5.9v6.6c-1.7,1.1-3.5,2.2-5.3,3.3v-9.9c0-0.3-0.3-0.6-0.6-0.6H56
		c-3,0-5-2.3-5.6-3.8l-4.7-12.3c-0.1-0.2-0.3-0.4-0.5-0.4H5.9c-0.3,0-0.6,0.3-0.6,0.6v90.3v0c0,0.3,0.3,0.6,0.6,0.6l74.9,0
		c0.8,1.8,1.7,3.5,2.8,5.3H5.9C2.6,148.6,0,146,0,142.7z M14.7,130.8v-11.4c0-1.8,1.4-3.2,3.2-3.2H52c1.8,0,3.2,1.5,3.2,3.2v11.4
		c0,1.8-1.4,3.2-3.2,3.2H17.9C16.1,134,14.7,132.5,14.7,130.8z M49.9,128.6v-7.1H20v7.1H49.9z M57,53.4c0-1.5,1.2-2.7,2.7-2.7h44.1
		c1.5,0,2.7,1.2,2.7,2.7c0,1.5-1.2,2.7-2.7,2.7H59.6C58.2,56.1,57,54.9,57,53.4z M22,46.6V32.9c0-0.7,0.3-1.4,0.8-1.9l17.9-18
		c0.5-0.5,1.2-0.8,1.9-0.8h65.5V5.3h-93l0,41.2H22z M40.6,41.3c0-1.5,1.2-2.7,2.7-2.7h60.5c1.5,0,2.7,1.2,2.7,2.7
		c0,1.5-1.2,2.7-2.7,2.7H43.3C41.8,44,40.6,42.8,40.6,41.3z M64.1,29.2c0-1.5,1.2-2.7,2.7-2.7h36.9c1.5,0,2.7,1.2,2.7,2.7
		s-1.2,2.7-2.7,2.7H66.8C65.3,31.9,64.1,30.7,64.1,29.2z M39.9,30.2v-8.9l-8.9,8.9H39.9z"/>
	<path class="st1" d="M85.1,126.5v-27c0-2.4,1.8-4.9,4.6-4.9C100,94,110.3,88.8,118.8,83c1-0.7,2.1-1.3,3.7-1.4
		c1.5,0.2,2.7,0.8,3.8,1.4c8.5,5.8,18.8,11,29.1,11.6c2.8,0,4.6,2.5,4.6,4.9v27c0,12-5.5,28.7-37.3,41.7
		C90.8,155.2,85.1,138.5,85.1,126.5z M120.6,139l23.6-23.6c1.6-1.6,1.6-4.1,0-5.7c-1.6-1.6-4.1-1.6-5.7,0l-20.7,20.7l-11.3-11.3
		c-1.6-1.6-4.1-1.6-5.7,0c-1.6,1.6-1.6,4.1,0,5.7l14.1,14.1C116.5,140.6,119,140.6,120.6,139z"/>
</g>
</svg>
