<?xml version="1.0" encoding="utf-8"?>
<!-- Generator: Adobe Illustrator 25.0.0, SVG Export Plug-In . SVG Version: 6.00 Build 0)  -->
<svg version="1.1" id="Layer_1" xmlns="http://www.w3.org/2000/svg" xmlns:xlink="http://www.w3.org/1999/xlink" x="0px" y="0px"
	 viewBox="0 0 194 157.6" style="enable-background:new 0 0 194 157.6;" xml:space="preserve">
<style type="text/css">
	.st0{fill-rule:evenodd;clip-rule:evenodd;fill:#005EFF;}
	.st1{fill-rule:evenodd;clip-rule:evenodd;fill:#42CCCC;}
</style>
<g>
	<path class="st0" d="M170.7,94.3l-16.1-18c-1.1-1.2-1-3.1,0.2-4.2c1.2-1.1,3.1-1,4.2,0.2l11,12.3l0.2-4.3
		c0.3-22.8-9.9-45.3-29.6-59.9C128.5,11.3,114.5,6.6,100.3,6c-1.7-0.1-2.9-1.5-2.9-3.1c0.1-1.7,1.5-2.9,3.1-2.9
		c15.3,0.7,30.5,5.8,43.7,15.6c21.2,15.8,32.3,40.2,32,64.8l-0.2,5.1L189,74c1.2-1.1,3.1-1,4.2,0.2s1,3.1-0.2,4.2l-18,16.1
		C173.7,95.6,171.8,95.5,170.7,94.3z M63.6,85.9L62.2,76c-2.3-0.9-4.4-2.2-6.3-3.7l-9.3,3.8c-0.8,0.3-1.8,0-2.3-0.8l-7.5-12.9
		c-0.5-0.8-0.3-1.8,0.5-2.4l7.9-6.2c-0.1-1.2-0.3-2.4-0.3-3.6c0-1.2,0.1-2.5,0.3-3.7l-7.9-6.1c-0.7-0.6-0.9-1.6-0.5-2.4L44.3,25
		c0.5-0.8,1.5-1.2,2.3-0.8l9.3,3.7c1.9-1.5,4-2.7,6.3-3.7l1.4-9.9c0.1-0.9,0.9-1.6,1.9-1.6h14.9c0.9,0,1.7,0.7,1.9,1.6l1.4,9.9
		c2.4,0.9,4.4,2.2,6.3,3.7l9.3-3.7c0.8-0.3,1.8,0,2.3,0.8l7.5,12.9c0.4,0.8,0.3,1.8-0.5,2.4l-7.9,6.1c0.2,1.3,0.3,2.5,0.3,3.7
		c0,1.2-0.1,2.4-0.3,3.6l7.9,6.2c0.7,0.6,0.9,1.6,0.5,2.4l-7.5,12.9c-0.4,0.8-1.5,1.1-2.3,0.8L90,72.3C88,73.8,86,75,83.7,76
		l-1.4,9.9c-0.1,0.9-0.9,1.6-1.9,1.6H65.5C64.5,87.5,63.8,86.8,63.6,85.9z M86,50.1C86,42.9,80.2,37,72.9,37
		c-7.2,0-13.1,5.9-13.1,13.1s5.9,13.1,13.1,13.1C80.2,63.2,86,57.3,86,50.1z"/>
	<path class="st1" d="M49.7,142c-21.2-15.8-32.3-40.2-32-64.8l0.2-5.1L5,83.7c-1.2,1.1-3.1,1-4.2-0.2c-1.1-1.2-1-3.1,0.2-4.2
		l18-16.1c1.2-1.1,3.1-1,4.2,0.2l16.1,18c1.1,1.2,1,3.1-0.2,4.2c-1.2,1.1-3.1,1-4.2-0.2L23.9,73l-0.2,4.3
		c-0.3,22.7,9.9,45.3,29.6,59.9c12.2,9.1,26.2,13.8,40.4,14.4c1.7,0.1,2.9,1.5,2.9,3.1c-0.1,1.7-1.5,2.9-3.1,2.9
		C78.1,156.9,62.9,151.8,49.7,142z M111.3,141.9l-1.4-9.9c-2.3-0.9-4.4-2.2-6.3-3.7l-9.3,3.8c-0.8,0.3-1.8,0-2.3-0.8l-7.5-12.9
		c-0.5-0.8-0.3-1.8,0.4-2.4l7.9-6.2l-0.3-3.6l0.3-3.7L85,96.3c-0.7-0.6-0.9-1.6-0.4-2.4L92.1,81c0.5-0.8,1.5-1.2,2.3-0.8l9.3,3.7
		c1.9-1.5,4-2.7,6.3-3.7l1.4-9.9c0.1-0.9,0.9-1.6,1.9-1.6h14.9c0.9,0,1.7,0.7,1.9,1.6l1.4,9.9c2.4,0.9,4.4,2.2,6.3,3.7l9.3-3.7
		c0.8-0.3,1.8,0,2.3,0.8l7.5,12.9c0.5,0.8,0.3,1.8-0.5,2.4l-7.9,6.1l0.3,3.7l-0.3,3.7l7.9,6.1c0.7,0.5,0.9,1.6,0.5,2.4l-7.5,12.9
		c-0.5,0.8-1.5,1.2-2.3,0.8l-9.3-3.7c-1.9,1.5-4,2.7-6.3,3.7l-1.4,9.9c-0.1,0.9-0.9,1.6-1.9,1.6h-14.9
		C112.3,143.5,111.5,142.8,111.3,141.9z M123.5,136l1.4-9.7c4.4-0.9,8.4-3.3,11.3-6.6l9.1,3.9l2.8-4.9l-7.9-5.8
		c1.5-4.4,1.5-9.1,0-13.5l7.9-5.8l-2.8-4.9l-9,3.9c-2.9-3.3-6.8-5.7-11.3-6.6l-1.4-9.8h-5.6l-1.4,9.8c-4.5,0.9-8.5,3.3-11.3,6.6
		l-9-3.9l-2.8,4.9l7.9,5.8c-1.5,4.4-1.5,9.1,0,13.5l-7.9,5.8l2.8,4.9l9.1-3.9c2.9,3.3,6.8,5.7,11.3,6.6l1.4,9.8H123.5z M105.7,106.1
		c0-8.3,6.7-14.9,14.9-14.9c8.3,0,14.9,6.7,14.9,14.9s-6.7,14.9-14.9,14.9C112.4,121.1,105.7,114.4,105.7,106.1z M128.1,106.1
		c0-4.1-3.3-7.5-7.5-7.5c-4.1,0-7.5,3.3-7.5,7.5c0,4.1,3.3,7.5,7.5,7.5C124.8,113.6,128.1,110.3,128.1,106.1z"/>
</g>
</svg>
