<?xml version="1.0" encoding="utf-8"?>
<!-- Generator: Adobe Illustrator 25.0.0, SVG Export Plug-In . SVG Version: 6.00 Build 0)  -->
<svg version="1.1" id="Layer_1" xmlns="http://www.w3.org/2000/svg" xmlns:xlink="http://www.w3.org/1999/xlink" x="0px" y="0px"
	 viewBox="0 0 133 169.7" style="enable-background:new 0 0 133 169.7;" xml:space="preserve">
<style type="text/css">
	.st0{fill-rule:evenodd;clip-rule:evenodd;fill:#FFFFFF;}
</style>
<path class="st0" d="M13.7,165.5v-9.9c0,0,0-0.1,0-0.1H4.1c-2.3,0-4.1-1.9-4.1-4.1V4.1C0,1.9,1.9,0,4.1,0h124.7
	c2.3,0,4.1,1.9,4.1,4.1v147.3c0,2.3-1.9,4.1-4.1,4.1h-9.3c0,0,0,0,0,0.1v9.9c0,2.3-1.9,4.1-4.1,4.1h-14.3c-2.3,0-4.1-1.9-4.1-4.1
	v-9.9c0,0,0-0.1,0-0.1H36.2c0,0,0,0,0,0.1v9.9c0,2.3-1.9,4.1-4.1,4.1H17.8C15.5,169.7,13.7,167.8,13.7,165.5z M31.8,165.3v-9.3H18.1
	v9.3H31.8z M115.2,165.3v-9.3h-13.7v9.3H115.2z M128.6,151.2v-27.7H4.4v27.7H128.6z M21.1,141.5v-8.6c0-1.2,1-2.2,2.2-2.2
	c1.2,0,2.2,1,2.2,2.2v8.6c0,1.2-1,2.2-2.2,2.2C22.1,143.7,21.1,142.8,21.1,141.5z M35.3,141.5v-8.6c0-1.2,1-2.2,2.2-2.2
	c1.2,0,2.2,1,2.2,2.2v8.6c0,1.2-1,2.2-2.2,2.2C36.3,143.7,35.3,142.8,35.3,141.5z M49.5,141.5v-8.6c0-1.2,1-2.2,2.2-2.2
	c1.2,0,2.2,1,2.2,2.2v8.6c0,1.2-1,2.2-2.2,2.2C50.4,143.7,49.5,142.8,49.5,141.5z M63.6,141.5v-8.6c0-1.2,1-2.2,2.2-2.2
	c1.2,0,2.2,1,2.2,2.2v8.6c0,1.2-1,2.2-2.2,2.2C64.6,143.7,63.6,142.8,63.6,141.5z M77.8,141.5v-8.6c0-1.2,1-2.2,2.2-2.2
	c1.2,0,2.2,1,2.2,2.2v8.6c0,1.2-1,2.2-2.2,2.2C78.8,143.7,77.8,142.8,77.8,141.5z M92,141.5v-8.6c0-1.2,1-2.2,2.2-2.2
	c1.2,0,2.2,1,2.2,2.2v8.6c0,1.2-1,2.2-2.2,2.2C93,143.7,92,142.8,92,141.5z M106.2,141.5v-8.6c0-1.2,1-2.2,2.2-2.2
	c1.2,0,2.2,1,2.2,2.2v8.6c0,1.2-1,2.2-2.2,2.2C107.2,143.7,106.2,142.8,106.2,141.5z M17.6,119.1V98.4h98.2v20.7h12.8V4.4H4.4v114.7
	H17.6z M33.2,109.4c0-1.8-1.5-3.3-3.3-3.3s-3.3,1.5-3.3,3.3s1.5,3.3,3.3,3.3S33.2,111.2,33.2,109.4z M46.2,109.4
	c0-1.8-1.5-3.3-3.3-3.3c-1.8,0-3.3,1.5-3.3,3.3s1.5,3.3,3.3,3.3C44.7,112.7,46.2,111.2,46.2,109.4z M106.4,108.7
	c0-1.4-1.1-2.5-2.5-2.5H57c-1.4,0-2.5,1.1-2.5,2.5c0,1.4,1.1,2.5,2.5,2.5h46.9C105.3,111.2,106.4,110.1,106.4,108.7z M17.6,94V72.8
	h98.2V94H17.6z M33.2,83.8c0-1.8-1.5-3.3-3.3-3.3s-3.3,1.5-3.3,3.3c0,1.8,1.5,3.3,3.3,3.3S33.2,85.7,33.2,83.8z M46.2,83.8
	c0-1.8-1.5-3.3-3.3-3.3c-1.8,0-3.3,1.5-3.3,3.3c0,1.8,1.5,3.3,3.3,3.3C44.7,87.1,46.2,85.7,46.2,83.8z M106.4,83.6
	c0-1.4-1.1-2.5-2.5-2.5H57c-1.4,0-2.5,1.1-2.5,2.5c0,1.4,1.1,2.5,2.5,2.5h46.9C105.3,86.1,106.4,85,106.4,83.6z M17.6,68.4V47.3
	h98.2v21.1H17.6z M33.2,58.1c0-1.8-1.5-3.3-3.3-3.3s-3.3,1.5-3.3,3.3c0,1.8,1.5,3.3,3.3,3.3S33.2,59.9,33.2,58.1z M46.2,58.1
	c0-1.8-1.5-3.3-3.3-3.3c-1.8,0-3.3,1.5-3.3,3.3c0,1.8,1.5,3.3,3.3,3.3C44.7,61.4,46.2,59.9,46.2,58.1z M106.4,57.4
	c0-1.4-1.1-2.5-2.5-2.5H57c-1.4,0-2.5,1.1-2.5,2.5c0,1.4,1.1,2.5,2.5,2.5h46.9C105.3,59.9,106.4,58.8,106.4,57.4z M17.6,42.9V21.3
	c0-1.1,0.9-1.9,1.9-1.9h94.4c1.1,0,1.9,0.9,1.9,1.9v21.6H17.6z M33.2,32.8c0-1.8-1.5-3.3-3.3-3.3s-3.3,1.5-3.3,3.3
	c0,1.8,1.5,3.3,3.3,3.3S33.2,34.6,33.2,32.8z M46.2,32.8c0-1.8-1.5-3.3-3.3-3.3c-1.8,0-3.3,1.5-3.3,3.3c0,1.8,1.5,3.3,3.3,3.3
	C44.7,36.1,46.2,34.6,46.2,32.8z M106.4,32.3c0-1.4-1.1-2.5-2.5-2.5H57c-1.4,0-2.5,1.1-2.5,2.5c0,1.4,1.1,2.5,2.5,2.5h46.9
	C105.3,34.8,106.4,33.7,106.4,32.3z"/>
</svg>
