<?xml version="1.0" encoding="utf-8"?>
<!-- Generator: Adobe Illustrator 25.0.0, SVG Export Plug-In . SVG Version: 6.00 Build 0)  -->
<svg version="1.1" id="Layer_1" xmlns="http://www.w3.org/2000/svg" xmlns:xlink="http://www.w3.org/1999/xlink" x="0px" y="0px"
	 viewBox="0 0 12.2 16" style="enable-background:new 0 0 12.2 16;" xml:space="preserve">
<style type="text/css">
	.st0{fill:#FFFFFF;}
</style>
<path class="st0" d="M6.1,1.5c-1.3,0-2.3,1-2.3,2.3v1.5h4.6V3.8C8.4,2.6,7.4,1.5,6.1,1.5 M10.7,5.3c0.8,0,1.5,0.7,1.5,1.5v7.6
	c0,0.8-0.7,1.5-1.5,1.5H1.5C0.7,16,0,15.3,0,14.5V6.9C0,6,0.7,5.3,1.5,5.3h0.8V3.8C2.3,1.7,4,0,6.1,0s3.8,1.7,3.8,3.8v1.5H10.7
	 M6.1,12.2c0.8,0,1.5-0.7,1.5-1.5c0-0.9-0.7-1.5-1.5-1.5c-0.9,0-1.5,0.7-1.5,1.5C4.6,11.5,5.2,12.2,6.1,12.2L6.1,12.2z"/>
</svg>
