<?xml version="1.0" encoding="utf-8"?>
<!-- Generator: Adobe Illustrator 25.0.0, SVG Export Plug-In . SVG Version: 6.00 Build 0)  -->
<svg version="1.1" id="Layer_1" xmlns="http://www.w3.org/2000/svg" xmlns:xlink="http://www.w3.org/1999/xlink" x="0px" y="0px"
	 viewBox="0 0 19.3 14" style="enable-background:new 0 0 19.3 14;" xml:space="preserve">
<style type="text/css">
	.st0{fill:#42CCCC;}
</style>
<path class="st0" d="M12.2,7c1.9,0,3.5-1.6,3.5-3.5c0-1.9-1.6-3.5-3.5-3.5c-1.9,0-3.5,1.6-3.5,3.5C8.7,5.4,10.3,7,12.2,7 M4.4,5.3
	V2.6H2.6v2.6H0V7h2.6v2.6h1.8V7H7V5.3 M12.2,8.7c-2.3,0-7,1.2-7,3.5V14h14v-1.7C19.3,9.9,14.6,8.7,12.2,8.7L12.2,8.7z"/>
</svg>
