<?xml version="1.0" encoding="utf-8"?>
<!-- Generator: Adobe Illustrator 25.0.0, SVG Export Plug-In . SVG Version: 6.00 Build 0)  -->
<svg version="1.1" id="Layer_1" xmlns="http://www.w3.org/2000/svg" xmlns:xlink="http://www.w3.org/1999/xlink" x="0px" y="0px"
	 viewBox="0 0 300 26.1" style="enable-background:new 0 0 300 26.1;" xml:space="preserve">
<style type="text/css">
	.st0{fill-rule:evenodd;clip-rule:evenodd;fill:url(#SVGID_1_);}
</style>
<linearGradient id="SVGID_1_" gradientUnits="userSpaceOnUse" x1="45.2311" y1="13.0716" x2="103.9013" y2="13.0716">
	<stop  offset="0" style="stop-color:#0078E3"/>
	<stop  offset="1" style="stop-color:#42CCCC"/>
</linearGradient>
<path class="st0" d="M285.2,25.4c-1-1-1-2.5,0-3.5l6.4-6.4H49.6c-1,2.2-3.1,3.7-5.7,3.7c-2.6,0-4.7-1.5-5.7-3.7H0v-4.9h38.3
	c1-2.2,3.1-3.7,5.7-3.7c2.5,0,4.7,1.5,5.7,3.7h241.9l-6.4-6.4c-1-1-1-2.5,0-3.5c1-1,2.5-1,3.5,0l10.6,10.6c1,1,1,2.5,0,3.5
	l-10.6,10.6C287.7,26.4,286.1,26.4,285.2,25.4z M46.5,13.1c0-1.4-1.1-2.6-2.6-2.6s-2.6,1.2-2.6,2.6s1.2,2.6,2.6,2.6
	S46.5,14.5,46.5,13.1z"/>
</svg>
