<?xml version="1.0" encoding="utf-8"?>
<!-- Generator: Adobe Illustrator 25.0.0, SVG Export Plug-In . SVG Version: 6.00 Build 0)  -->
<svg version="1.1" id="Layer_1" xmlns="http://www.w3.org/2000/svg" xmlns:xlink="http://www.w3.org/1999/xlink" x="0px" y="0px"
	 viewBox="0 0 310 312.2" style="enable-background:new 0 0 310 312.2;" xml:space="preserve">
<style type="text/css">
	.st0{opacity:0.6;fill-rule:evenodd;clip-rule:evenodd;fill:#FFC200;}
	.st1{opacity:0.3;fill-rule:evenodd;clip-rule:evenodd;fill:#FFC200;}
	.st2{fill-rule:evenodd;clip-rule:evenodd;fill:#FFC200;}
	.st3{opacity:0.2;fill-rule:evenodd;clip-rule:evenodd;fill:#FFC200;}
</style>
<path class="st0" d="M81.5,156.1c0-41.8,33.9-75.7,75.7-75.7c41.8,0,75.7,33.9,75.7,75.7c0,41.8-33.9,75.7-75.7,75.7
	C115.4,231.7,81.5,197.8,81.5,156.1z M220,156.1c0-34.6-28.1-62.8-62.8-62.8c-34.7,0-62.8,28.1-62.8,62.8s28.1,62.8,62.8,62.8
	C191.8,218.8,220,190.7,220,156.1z"/>
<path class="st1" d="M55.3,156.1c0-56.2,45.6-101.9,101.9-101.9c56.2,0,101.9,45.6,101.9,101.9c0,56.2-45.6,101.9-101.9,101.9
	C101,258,55.3,212.3,55.3,156.1z M246.2,156.1c0-49.1-39.9-89-89-89c-49.1,0-89,39.9-89,89s39.9,89,89,89
	C206.3,245.1,246.2,205.2,246.2,156.1z"/>
<path class="st2" d="M138.2,312.1c-3.3-0.4-5.6-3.4-5.2-6.6l2.6-21.6c0.4-3.3,3.4-5.6,6.6-5.2c3.3,0.4,5.6,3.4,5.2,6.6l-2.6,21.6
	C144.5,310.2,141.5,312.5,138.2,312.1z M205.2,299.6l-7.6-20.4c-1.2-3.1,0.4-6.5,3.5-7.7c3.1-1.1,6.5,0.4,7.7,3.5l7.6,20.4
	c1.2,3.1-0.4,6.5-3.5,7.7S206.3,302.7,205.2,299.6z M68,285.5c-2.7-1.9-3.4-5.6-1.6-8.3l12.3-18c1.9-2.7,5.6-3.4,8.3-1.5
	c2.7,1.9,3.4,5.6,1.6,8.3l-12.3,18C74.4,286.7,70.7,287.3,68,285.5z M266.5,260.8l-16.3-14.3c-2.5-2.2-2.7-5.9-0.6-8.4
	c2.2-2.5,5.9-2.7,8.4-0.5l16.3,14.3c2.5,2.2,2.7,5.9,0.5,8.4C272.7,262.7,268.9,263,266.5,260.8z M18,229.1c-1.5-2.9-0.4-6.5,2.5-8
	l19.3-10c2.9-1.5,6.5-0.4,8,2.5c1.5,2.9,0.4,6.5-2.5,8l-19.3,10C23.1,233.1,19.5,232,18,229.1z M302.6,198.1l-21.1-5.3
	c-3.2-0.8-5.1-4-4.3-7.2c0.8-3.2,4-5.1,7.2-4.3l21.1,5.3c3.2,0.8,5.1,4,4.3,7.2C309,197,305.8,198.9,302.6,198.1z M27.7,162.1
	L5.9,162c-3.3,0-5.9-2.7-5.9-6c0-3.3,2.7-5.9,6-5.9l21.7,0.1c3.3,0,5.9,2.7,5.9,6C33.6,159.5,30.9,162.1,27.7,162.1z M277.2,126.6
	c-0.8-3.2,1.1-6.4,4.3-7.2l21.1-5.3c3.2-0.8,6.4,1.2,7.2,4.3c0.8,3.2-1.2,6.4-4.3,7.2l-21.1,5.3C281.2,131.7,278,129.8,277.2,126.6z
	 M39.8,101.2l-19.3-10c-2.9-1.5-4.1-5.1-2.5-8c1.5-2.9,5.1-4.1,8-2.5l19.3,10c2.9,1.5,4.1,5.1,2.5,8
	C46.3,101.5,42.7,102.7,39.8,101.2z M249.6,74.1c-2.2-2.5-1.9-6.2,0.5-8.4l16.3-14.3c2.5-2.2,6.2-1.9,8.4,0.6
	c2.2,2.5,1.9,6.2-0.5,8.4L258,74.7C255.5,76.9,251.8,76.6,249.6,74.1z M78.7,52.9L66.4,35c-1.9-2.7-1.2-6.4,1.5-8.3
	c2.7-1.9,6.4-1.2,8.3,1.5l12.3,17.9c1.9,2.7,1.2,6.4-1.5,8.3C84.2,56.3,80.5,55.6,78.7,52.9z M201.1,40.6c-3.1-1.2-4.6-4.6-3.5-7.7
	l7.6-20.4c1.2-3.1,4.6-4.6,7.7-3.5c3.1,1.2,4.6,4.6,3.5,7.7l-7.6,20.3C207.6,40.2,204.2,41.7,201.1,40.6z M135.7,28.2l-2.6-21.6
	c-0.4-3.3,1.9-6.2,5.2-6.6c3.3-0.4,6.2,1.9,6.6,5.2l2.6,21.6c0.4,3.3-1.9,6.2-5.2,6.6C139,33.8,136,31.5,135.7,28.2z"/>
<path class="st3" d="M168.1,285.9l-1.8-16.4c-0.2-2.2,1.3-4.1,3.5-4.4c2.2-0.2,4.1,1.3,4.4,3.5l1.8,16.4c0.2,2.2-1.3,4.1-3.5,4.4
	C170.3,289.7,168.3,288.1,168.1,285.9z M109,281.3c-2.1-0.8-3.1-3.1-2.3-5.1l5.9-15.4c0.8-2.1,3.1-3.1,5.1-2.3
	c2.1,0.8,3.1,3.1,2.3,5.1l-5.9,15.4C113.4,281.1,111.1,282.1,109,281.3z M227,266l-9.4-13.6c-1.2-1.8-0.8-4.3,1-5.5
	c1.8-1.2,4.3-0.8,5.5,1l9.4,13.6c1.2,1.8,0.8,4.3-1,5.5C230.8,268.2,228.3,267.8,227,266z M56.6,244.7c-1.4-1.6-1.3-4.2,0.3-5.6
	l12.3-10.9c1.6-1.4,4.2-1.3,5.6,0.3c1.5,1.6,1.3,4.2-0.3,5.6l-12.3,10.9C60.6,246.5,58.1,246.4,56.6,244.7z M269.9,221l-14.6-7.9
	c-1.9-1-2.6-3.4-1.6-5.4c1-1.9,3.4-2.7,5.4-1.6l14.6,7.9c1.9,1,2.7,3.4,1.6,5.4C274.2,221.3,271.8,222.1,269.9,221z M27.1,187.8
	c-0.5-2.1,0.8-4.3,3-4.8l16-3.8c2.1-0.5,4.3,0.8,4.8,3c0.5,2.1-0.8,4.3-3,4.8l-16,3.8C29.8,191.2,27.6,189.9,27.1,187.8z M287,161.2
	l-16.6,0c-2.2,0-4-1.8-4-4c0-2.2,1.8-4,4-4l16.6,0c2.2,0,4,1.8,4,4C290.9,159.4,289.2,161.2,287,161.2z M46.5,132.8l-16.3-4.2
	c-2.1-0.5-3.4-2.7-2.9-4.8c0.6-2.1,2.7-3.4,4.8-2.9l16.3,4.2c2.1,0.5,3.4,2.7,2.8,4.8C50.8,132.1,48.6,133.3,46.5,132.8z
	 M254.1,106.3c-1-2-0.2-4.3,1.7-5.3l14.9-7.6c1.9-1,4.3-0.2,5.3,1.7c1,2,0.2,4.4-1.7,5.3l-14.8,7.6C257.4,109,255,108.2,254.1,106.3
	z M70.2,84L57.7,72.9c-1.6-1.5-1.8-4-0.3-5.6c1.5-1.6,4-1.8,5.6-0.3l12.5,11.2c1.6,1.5,1.8,4,0.3,5.6C74.4,85.3,71.9,85.5,70.2,84z
	 M219.7,67c-1.8-1.2-2.3-3.7-1-5.5l9.5-13.7c1.2-1.8,3.7-2.3,5.5-1c1.8,1.2,2.3,3.7,1,5.5L225.2,66C224,67.8,221.5,68.3,219.7,67z
	 M113.8,52L108,36.2c-0.8-2.1,0.3-4.3,2.3-5.1c2.1-0.8,4.3,0.3,5.1,2.4l5.8,15.7c0.8,2.1-0.3,4.3-2.4,5.1
	C116.9,55.1,114.6,54,113.8,52z M170.9,48.2c-2.2-0.3-3.7-2.3-3.4-4.4l2.1-16.6c0.3-2.2,2.3-3.7,4.4-3.4s3.7,2.3,3.4,4.4l-2.1,16.6
	C175,47,173,48.5,170.9,48.2z"/>
<path class="st2" d="M106.4,156.1c0-28.1,22.8-50.8,50.8-50.8c28.1,0,50.8,22.8,50.8,50.8s-22.8,50.8-50.8,50.8
	C129.1,206.9,106.4,184.1,106.4,156.1z M195.1,156.1c0-20.9-17-37.9-37.9-37.9c-20.9,0-37.9,17-37.9,37.9s17,37.9,37.9,37.9
	C178.1,194,195.1,177,195.1,156.1z"/>
<path class="st2" d="M131,156.1c0-14.5,11.8-26.2,26.2-26.2c14.5,0,26.3,11.8,26.3,26.2c0,14.5-11.8,26.2-26.3,26.2
	C142.7,182.3,131,170.6,131,156.1z"/>
</svg>
