<?xml version="1.0" encoding="utf-8"?>
<!-- Generator: Adobe Illustrator 25.0.0, SVG Export Plug-In . SVG Version: 6.00 Build 0)  -->
<svg version="1.1" id="Layer_1" xmlns="http://www.w3.org/2000/svg" xmlns:xlink="http://www.w3.org/1999/xlink" x="0px" y="0px"
	 viewBox="0 0 830 316" style="enable-background:new 0 0 830 316;" xml:space="preserve">
<style type="text/css">
	.st0{opacity:0.4;fill-rule:evenodd;clip-rule:evenodd;fill:#42CCCC;}
	.st1{fill-rule:evenodd;clip-rule:evenodd;fill:#42CCCC;}
</style>
<g>
	<polygon class="st0" points="138.3,171.9 141.4,174.4 139.9,178.1 143.6,176.6 146.1,179.8 146.8,175.8 150.7,175.2 147.6,172.7 
		149,169 145.3,170.4 142.8,167.3 142.2,171.3 	"/>
	<polygon class="st1" points="262.6,46 267.9,50.2 265.5,56.6 271.8,54.1 276.1,59.4 277.1,52.7 283.8,51.6 278.5,47.4 281,41 
		274.6,43.5 270.4,38.2 269.4,44.9 	"/>
	<polygon class="st1" points="262.6,267.4 267.9,271.6 265.5,278 271.8,275.5 276.1,280.8 277.1,274.1 283.8,273.1 278.5,268.8 
		281,262.5 274.6,264.9 270.4,259.6 269.4,266.3 	"/>
	<polygon class="st1" points="132.4,275.4 137.7,279.7 135.2,286 141.6,283.5 145.8,288.8 146.9,282.1 153.6,281.1 148.3,276.8 
		150.7,270.5 144.4,272.9 140.1,267.6 139.1,274.4 	"/>
	<polygon class="st1" points="238.6,146.1 243.9,150.4 241.4,156.8 247.8,154.3 252,159.6 253.1,152.9 259.8,151.8 254.5,147.6 
		256.9,141.2 250.6,143.7 246.4,138.4 245.3,145.1 	"/>
	<polygon class="st1" points="542.2,26.9 547.5,31.2 545,37.5 551.3,35.1 555.6,40.4 556.6,33.6 563.4,32.6 558.1,28.3 560.5,22 
		554.2,24.5 549.9,19.2 548.9,25.9 	"/>
	<polygon class="st1" points="663.4,107.1 668.7,111.3 666.2,117.7 672.6,115.2 676.8,120.5 677.9,113.8 684.6,112.7 679.3,108.5 
		681.8,102.2 675.4,104.6 671.2,99.3 670.1,106 	"/>
	<polygon class="st1" points="741.6,267.4 746.8,271.6 744.4,278 750.7,275.5 755,280.8 756,274.1 762.7,273.1 757.4,268.8 
		759.9,262.5 753.6,264.9 749.3,259.6 748.3,266.3 	"/>
	<polygon class="st0" points="479.9,4.6 483,7.1 481.6,10.8 485.3,9.3 487.8,12.4 488.4,8.5 492.4,7.9 489.2,5.4 490.7,1.7 487,3.1 
		484.5,0 483.9,3.9 	"/>
	<polygon class="st0" points="671.3,168.9 674.4,171.4 672.9,175.1 676.7,173.6 679.2,176.8 679.8,172.8 683.7,172.2 680.6,169.7 
		682.1,166 678.3,167.4 675.8,164.3 675.2,168.3 	"/>
	<polygon class="st0" points="541,308.1 544.1,310.6 542.7,314.4 546.4,312.9 548.9,316 549.5,312.1 553.5,311.5 550.4,309 
		551.8,305.2 548.1,306.7 545.6,303.6 545,307.5 	"/>
	<polygon class="st0" points="244.5,209.9 247.6,212.4 246.1,216.2 249.9,214.7 252.3,217.8 253,213.9 256.9,213.3 253.8,210.8 
		255.2,207 251.5,208.5 249,205.4 248.4,209.3 	"/>
	<polygon class="st0" points="189.4,51.6 192.5,54.1 191,57.9 194.7,56.4 197.2,59.5 197.9,55.6 201.8,55 198.7,52.5 200.1,48.7 
		196.4,50.2 193.9,47.1 193.3,51 	"/>
	<polygon class="st0" points="73.1,25.6 76.3,28.1 74.8,31.8 78.5,30.4 81,33.5 81.6,29.5 85.6,28.9 82.5,26.4 83.9,22.7 80.2,24.2 
		77.7,21 77.1,25 	"/>
	<polygon class="st0" points="0,176.9 3.1,179.4 1.7,183.1 5.4,181.7 7.9,184.8 8.5,180.8 12.4,180.2 9.3,177.7 10.8,174 7.1,175.4 
		4.6,172.3 3.9,176.3 	"/>
	<polygon class="st0" points="732.4,48.6 735.5,51.1 734.1,54.9 737.8,53.4 740.3,56.5 740.9,52.6 744.8,52 741.7,49.5 743.2,45.7 
		739.5,47.2 737,44.1 736.3,48 	"/>
	<polygon class="st0" points="817.6,120.8 820.7,123.3 819.2,127 822.9,125.5 825.4,128.7 826.1,124.7 830,124.1 826.9,121.6 
		828.3,117.9 824.6,119.3 822.1,116.2 821.5,120.2 	"/>
	<polygon class="st0" points="800.5,209.9 803.6,212.4 802.2,216.2 805.9,214.7 808.4,217.8 809,213.9 813,213.3 809.9,210.8 
		811.3,207 807.6,208.5 805.1,205.4 804.5,209.3 	"/>
	<polygon class="st0" points="645.2,272.1 648.3,274.6 646.9,278.3 650.6,276.8 653.1,279.9 653.7,276 657.7,275.4 654.6,272.9 
		656,269.2 652.3,270.6 649.8,267.5 649.2,271.5 	"/>
</g>
</svg>
