<?xml version="1.0" encoding="utf-8"?>
<!-- Generator: Adobe Illustrator 25.0.0, SVG Export Plug-In . SVG Version: 6.00 Build 0)  -->
<svg version="1.1" id="Layer_1" xmlns="http://www.w3.org/2000/svg" xmlns:xlink="http://www.w3.org/1999/xlink" x="0px" y="0px"
	 viewBox="0 0 280 280" style="enable-background:new 0 0 280 280;" xml:space="preserve">
<style type="text/css">
	.st0{opacity:0.25;fill-rule:evenodd;clip-rule:evenodd;fill:#42CCCC;}
	.st1{fill-rule:evenodd;clip-rule:evenodd;fill:#42CCCC;}
</style>
<g>
	<path class="st0" d="M8.4,140C8.4,67.4,67.4,8.4,140,8.4c72.6,0,131.6,58.9,131.6,131.6c0,72.6-58.9,131.6-131.6,131.6
		C67.4,271.6,8.4,212.6,8.4,140z"/>
	<path class="st1" d="M0,140C0,62.7,62.7,0,140,0c77.3,0,140,62.7,140,140c0,77.3-62.7,140-140,140C62.7,280,0,217.3,0,140z
		 M263.2,140C263.2,72,208,16.8,140,16.8C72,16.8,16.8,72,16.8,140c0,68,55.2,123.2,123.2,123.2C208,263.2,263.2,208,263.2,140z"/>
	<path class="st0" d="M36.3,132.7c0-10.2,8.3-18.4,18.4-18.4s18.4,8.3,18.4,18.4c0,10.2-8.3,18.4-18.4,18.4S36.3,142.8,36.3,132.7z"
		/>
	<path class="st0" d="M50.4,186.7c0-12.4,10-22.4,22.4-22.4s22.4,10.1,22.4,22.4c0,12.4-10.1,22.4-22.4,22.4S50.4,199,50.4,186.7z"
		/>
	<path class="st0" d="M203.7,111c0-12.4,10.1-22.4,22.4-22.4c12.4,0,22.4,10,22.4,22.4s-10.1,22.4-22.4,22.4
		C213.7,133.4,203.7,123.4,203.7,111z"/>
	<path class="st0" d="M76.7,107.2c0.5-7.4,6.9-13,14.3-12.6c7.4,0.5,13,6.9,12.6,14.3c-0.5,7.4-6.9,13-14.3,12.6
		C81.8,121,76.2,114.6,76.7,107.2z"/>
	<circle class="st0" cx="169.7" cy="191.9" r="51.4"/>
	<path class="st0" d="M82.6,49.2c0.2-3.4,3.2-6,6.6-5.8c3.4,0.2,6,3.2,5.8,6.6c-0.2,3.4-3.2,6-6.6,5.8C85,55.6,82.4,52.7,82.6,49.2z
		"/>
	<path class="st0" d="M139.8,45.8c0.2-3.4,3.2-6,6.6-5.8c3.4,0.2,6,3.2,5.8,6.6c-0.2,3.4-3.2,6-6.6,5.8
		C142.1,52.2,139.5,49.2,139.8,45.8z"/>
	<path class="st0" d="M143.2,102.1c0.2-3.4,3.2-6,6.6-5.8c3.4,0.2,6,3.2,5.8,6.6c-0.2,3.4-3.2,6-6.6,5.8
		C145.5,108.5,142.9,105.5,143.2,102.1z"/>
	<path class="st0" d="M231.8,158.4c0.2-3.4,3.2-6,6.6-5.8c3.4,0.2,6,3.2,5.8,6.6c-0.2,3.4-3.2,6-6.6,5.8
		C234.2,164.7,231.6,161.8,231.8,158.4z"/>
	<path class="st0" d="M93.7,230.8c0.2-3.4,3.2-6,6.6-5.8c3.4,0.2,6,3.2,5.8,6.6c-0.2,3.4-3.2,6-6.6,5.8
		C96.1,237.2,93.5,234.2,93.7,230.8z"/>
	<path class="st0" d="M8.4,140c0-50.7,28.8-94.8,70.9-116.7C51.1,49.3,33.4,86.6,33.4,128c0,73.8,56.1,134.5,128,141.8
		c-7,1.1-14.1,1.7-21.4,1.7C67.4,271.6,8.4,212.6,8.4,140z"/>
	<path class="st0" d="M8.4,140c0-52.5,30.9-97.9,75.4-119C64.2,47.2,52.6,79.8,52.6,115c0,73.7,50.8,135.7,119.3,152.7
		c-10.2,2.5-20.9,3.9-31.9,3.9C67.4,271.6,8.4,212.7,8.4,140z"/>
</g>
</svg>
