<?xml version="1.0" encoding="utf-8"?>
<!-- Generator: Adobe Illustrator 25.0.0, SVG Export Plug-In . SVG Version: 6.00 Build 0)  -->
<svg version="1.1" id="Layer_1" xmlns="http://www.w3.org/2000/svg" xmlns:xlink="http://www.w3.org/1999/xlink" x="0px" y="0px"
	 viewBox="0 0 35 35" style="enable-background:new 0 0 35 35;" xml:space="preserve">
<style type="text/css">
	.st0{fill:#24BD85;}
</style>
<path class="st0" d="M7,15.8h15.7v3.5H7V15.8z M7,8.8h21v3.5H7V8.8z M14,24.5v5.4l5.4-5.4h12.1v-21h-28v21H14 M12.2,35
	c-1,0-1.7-0.8-1.7-1.7V28h-7C1.6,28,0,26.4,0,24.5v-21C0,1.6,1.6,0,3.5,0h28C33.4,0,35,1.6,35,3.5v21c0,1.9-1.6,3.5-3.5,3.5H20.8
	l-6.5,6.5C14,34.8,13.6,35,13.1,35H12.2L12.2,35z"/>
</svg>
