<?xml version="1.0" encoding="utf-8"?>
<!-- Generator: Adobe Illustrator 25.0.0, SVG Export Plug-In . SVG Version: 6.00 Build 0)  -->
<svg version="1.1" id="Layer_1" xmlns="http://www.w3.org/2000/svg" xmlns:xlink="http://www.w3.org/1999/xlink" x="0px" y="0px"
	 viewBox="0 0 78 76.4" style="enable-background:new 0 0 78 76.4;" xml:space="preserve">
<style type="text/css">
	.st0{fill:#42CCCC;}
</style>
<path class="st0" d="M21.1,74.7v-4.9c0-0.9,0.7-1.6,1.6-1.6h6.5v-6.5H1.6C0.7,61.8,0,61,0,60.1V1.6C0,0.7,0.7,0,1.6,0h74.7
	c0.4,0,0.8,0.2,1.2,0.5C77.8,0.8,78,1.2,78,1.6v58.5c0,0.4-0.2,0.8-0.5,1.1c-0.3,0.3-0.7,0.5-1.2,0.5H48.7v6.5h6.5
	c0.4,0,0.8,0.2,1.2,0.5c0.3,0.3,0.5,0.7,0.5,1.2v4.9c0,0.4-0.2,0.8-0.5,1.2c-0.3,0.3-0.7,0.5-1.2,0.5H22.7
	C21.8,76.4,21.1,75.6,21.1,74.7z M53.6,73.1v-1.6h-6.4c0,0-0.1,0-0.1,0H30.9c0,0-0.1,0-0.1,0h-6.4v1.6H53.6z M45.5,68.2v-6.5h-13
	v6.5H45.5z M74.7,58.5V52H3.2v6.5H74.7z M74.7,48.7V3.3H3.2v45.5H74.7z M34.3,43.9l-0.7-5c-1.2-0.5-2.2-1.1-3.2-1.9l-4.7,1.9
	c-0.4,0.1-0.9,0-1.1-0.4L20.8,32c-0.2-0.4-0.1-0.9,0.2-1.2l4-3.1l-0.1-1.8L25,24l-4-3.1c-0.4-0.3-0.5-0.8-0.2-1.2l3.8-6.5
	c0.2-0.4,0.7-0.6,1.1-0.4l4.7,1.9c1-0.7,2-1.4,3.2-1.8l0.7-5c0.1-0.5,0.5-0.8,0.9-0.8h7.5c0.5,0,0.9,0.3,0.9,0.8l0.7,5
	c1.2,0.5,2.2,1.1,3.2,1.8l4.7-1.9c0.4-0.2,0.9,0,1.2,0.4l3.8,6.5c0.3,0.4,0.1,0.9-0.2,1.2L53,24l0.1,1.9L53,27.7l4,3.1
	c0.3,0.3,0.5,0.8,0.2,1.2l-3.8,6.5c-0.2,0.4-0.7,0.6-1.2,0.4l-4.7-1.9c-1,0.7-2,1.4-3.2,1.8l-0.7,5c-0.1,0.4-0.5,0.8-0.9,0.8h-7.5
	C34.8,44.7,34.4,44.3,34.3,43.9z M40.4,40.9l0.7-4.9c2.2-0.5,4.2-1.7,5.7-3.3l4.6,2l1.4-2.5l-4-2.9c0.8-2.2,0.8-4.6,0-6.8l4-2.9
	l-1.4-2.4l-4.5,2c-1.4-1.7-3.4-2.9-5.7-3.3l-0.7-4.9h-2.8l-0.7,4.9c-2.3,0.5-4.2,1.7-5.7,3.3l-4.5-2l-1.4,2.4l4,2.9
	c-0.8,2.2-0.8,4.6,0,6.8l-4,2.9l1.4,2.5l4.6-2c1.4,1.6,3.4,2.9,5.7,3.3l0.7,4.9H40.4z M31.5,25.9c0-4.2,3.4-7.5,7.5-7.5
	s7.5,3.4,7.5,7.5s-3.4,7.5-7.5,7.5S31.5,30,31.5,25.9z M42.8,25.9c0-2.1-1.7-3.8-3.8-3.8c-2.1,0-3.8,1.7-3.8,3.8s1.7,3.8,3.8,3.8
	C41.1,29.6,42.8,27.9,42.8,25.9z"/>
</svg>
