<?xml version="1.0" encoding="utf-8"?>
<!-- Generator: Adobe Illustrator 25.0.0, SVG Export Plug-In . SVG Version: 6.00 Build 0)  -->
<svg version="1.1" id="Layer_1" xmlns="http://www.w3.org/2000/svg" xmlns:xlink="http://www.w3.org/1999/xlink" x="0px" y="0px"
	 viewBox="0 0 170.4 170.4" style="enable-background:new 0 0 170.4 170.4;" xml:space="preserve">
<style type="text/css">
	.st0{fill-rule:evenodd;clip-rule:evenodd;fill:#FFFFFF;}
	
		.st1{fill-rule:evenodd;clip-rule:evenodd;fill:#42CCCC;stroke:#42CCCC;stroke-width:0.43;stroke-linejoin:bevel;stroke-miterlimit:10;}
	.st2{fill:#005EFF;}
</style>
<g>
	<path class="st0" d="M32.2,31.3c29.8-29.8,78.1-29.8,107.9,0c29.8,29.8,29.8,78.1,0,107.9c-29.8,29.8-78.1,29.8-107.9,0
		C2.4,109.4,2.4,61.1,32.2,31.3z"/>
	<path class="st1" d="M25.1,145.3c-33.2-33.2-33.2-87,0-120.2c33.2-33.2,87-33.2,120.2,0c33.2,33.2,33.2,87,0,120.2
		C112.1,178.5,58.3,178.5,25.1,145.3z M134.1,134.1c27-27,27-70.8,0-97.7c-27-27-70.8-27-97.7,0c-27,27-27,70.8,0,97.7
		C63.3,161,107.1,161,134.1,134.1z"/>
	<g>
		<path class="st2" d="M113.7,122.7c-7,0-12.6-5.6-12.6-12.6c0-7,5.6-12.6,12.6-12.6c6.9,0,12.6,5.6,12.6,12.6
			C126.3,117,120.7,122.7,113.7,122.7 M53.8,119V50.9c0-0.4,0.3-0.7,0.7-0.7h59.2c0.4,0,0.7,0.3,0.7,0.7v42.2c-0.3,0-0.5,0-0.7,0
			c-9.4,0-17,7.6-17,17c0,3.4,1,6.8,3,9.6H54.5C54.1,119.7,53.8,119.4,53.8,119 M118.9,93.9v-43c0-2.9-2.3-5.2-5.2-5.2H54.5
			c-2.9,0-5.2,2.3-5.2,5.2V119c0,2.9,2.3,5.2,5.2,5.2h49.6c7.8,5.3,18.4,3.3,23.6-4.5c5.3-7.8,3.3-18.4-4.5-23.7
			C122,95.1,120.5,94.4,118.9,93.9L118.9,93.9z"/>
		<path class="st2" d="M117.9,103.7l-6.6,8.1l-2.1-1.9c-0.9-0.8-2.3-0.7-3.1,0.2c-0.8,0.9-0.8,2.3,0.2,3.1l3.8,3.4
			c0.4,0.4,0.9,0.6,1.5,0.6c0.1,0,0.1,0,0.2,0c0.6-0.1,1.2-0.3,1.6-0.8l8.1-9.9c0.8-1,0.6-2.4-0.3-3.1
			C120.1,102.6,118.7,102.8,117.9,103.7L117.9,103.7z"/>
		<path class="st2" d="M65.6,59h37v28.1h-1.5c0-0.2-0.1-0.4-0.1-0.6l-0.8-2.1c-1-2.6-3.1-4.6-5.8-5.4l-1.9-0.6c1.5-2,2.2-4.5,2.2-7
			c0.4-5.6-3.8-10.4-9.4-10.9c-5.6,0.4-9.8,5.3-9.4,10.9c0,2.5,0.8,5,2.2,7L76.2,79c-2.6,0.9-4.7,2.9-5.8,5.4l-0.9,2.1
			c-0.1,0.2-0.1,0.4-0.1,0.6h-3.8V59z M74.2,87.1l0.4-1c0.5-1.4,1.7-2.4,3.1-2.9l4.1-1.4c1-0.3,1.8-1.2,2-2.2c0.2-1.1-0.2-2.2-1-2.8
			c-1.5-1.4-2.4-3.4-2.3-5.4c-0.3-3.1,1.9-6,5-6.4c3.1,0.5,5.3,3.3,5,6.4c0.1,2.1-0.8,4-2.3,5.4c-0.8,0.7-1.2,1.8-1,2.8
			c0.2,1,0.9,1.9,2,2.2l4.1,1.4l0,0c1.4,0.5,2.5,1.5,3,2.9l0.4,1H74.2z M63.4,91.6h41.4c1.2,0,2.2-1,2.2-2.2V56.8
			c0-1.2-1-2.2-2.2-2.2H63.4c-1.2,0-2.2,1-2.2,2.2v32.6C61.2,90.6,62.2,91.6,63.4,91.6L63.4,91.6z"/>
		<path class="st2" d="M93,96H63.4c-1.2,0-2.2,1-2.2,2.2c0,1.2,1,2.2,2.2,2.2H93c1.2,0,2.2-1,2.2-2.2C95.2,97,94.3,96,93,96L93,96z"
			/>
		<path class="st2" d="M87.1,106.4H63.4c-1.2,0-2.2,1-2.2,2.2c0,1.2,1,2.2,2.2,2.2h23.7c1.2,0,2.2-1,2.2-2.2
			C89.3,107.4,88.3,106.4,87.1,106.4L87.1,106.4z"/>
	</g>
</g>
</svg>
