<?xml version="1.0" encoding="utf-8"?>
<!-- Generator: Adobe Illustrator 25.0.0, SVG Export Plug-In . SVG Version: 6.00 Build 0)  -->
<svg version="1.1" id="Layer_1" xmlns="http://www.w3.org/2000/svg" xmlns:xlink="http://www.w3.org/1999/xlink" x="0px" y="0px"
	 viewBox="0 0 50 50" style="enable-background:new 0 0 50 50;" xml:space="preserve">
<style type="text/css">
	.st0{fill:none;}
</style>
<path class="st0" d="M30.1,27.2c-1.2,0-2.2-1-2.2-2.2c0-1.2,1-2.2,2.2-2.2c1.2,0,2.2,1,2.2,2.2C32.4,26.2,31.4,27.2,30.1,27.2
	 M24.3,30.9H39V19.1H24.3 M37.5,33.8v1.5c0,1.6-1.3,2.9-2.9,2.9H13.9c-1.6,0-2.9-1.3-2.9-2.9V14.7c0-1.6,1.3-2.9,2.9-2.9h20.6
	c1.6,0,2.9,1.3,2.9,2.9v1.5H24.3c-1.6,0-2.9,1.3-2.9,2.9v11.8c0,1.6,1.3,2.9,2.9,2.9H37.5z"/>
</svg>
