<?xml version="1.0" encoding="utf-8"?>
<!-- Generator: Adobe Illustrator 25.0.0, SVG Export Plug-In . SVG Version: 6.00 Build 0)  -->
<svg version="1.1" id="Layer_1" xmlns="http://www.w3.org/2000/svg" xmlns:xlink="http://www.w3.org/1999/xlink" x="0px" y="0px"
	 viewBox="0 0 50 50" style="enable-background:new 0 0 50 50;" xml:space="preserve">
<style type="text/css">
	.st0{fill-rule:evenodd;clip-rule:evenodd;fill:#FFFFFF;}
</style>
<path class="st0" d="M31.8,43.2c-0.7-0.7-1-1.6-0.9-2.4l-7.7-4c-0.2,0.3-0.4,0.5-0.6,0.8c-1.7,1.7-4.4,1.7-6.1,0
	c-1.7-1.7-1.7-4.4,0-6.1c0.5-0.5,1.1-0.8,1.7-1.1l-1.4-10.1c-1.1,0-2.2-0.4-3-1.3c-1.7-1.7-1.7-4.4,0-6.1s4.4-1.7,6.1,0
	c1,1,1.4,2.4,1.2,3.7l9.4,4.7c0.4-0.4,1-0.7,1.5-0.8l-1.3-8.7c-0.7-0.1-1.3-0.4-1.8-0.9c-1.2-1.2-1.2-3.1,0-4.3s3.1-1.2,4.3,0
	c1.2,1.2,1.2,3.1,0,4.3c-0.2,0.2-0.5,0.4-0.7,0.5l1.3,8.8c0.3,0,0.6,0.1,0.9,0.2c2.2,0.8,3.4,3.3,2.6,5.5c-0.8,2.2-3.3,3.4-5.5,2.6
	c-0.6-0.2-1.1-0.5-1.5-0.9l-6.7,5c0.3,0.7,0.4,1.5,0.3,2.2l7.7,4c0.1-0.1,0.1-0.1,0.2-0.2c1.2-1.2,3.1-1.2,4.3,0
	c1.2,1.2,1.2,3.1,0,4.3C34.9,44.4,33,44.4,31.8,43.2z M22.5,31.4l6.7-5c-0.4-1-0.4-2.1-0.1-3.1c0.1-0.1,0.1-0.3,0.2-0.4l-8.9-4.5
	c-0.2,0.2-0.3,0.5-0.5,0.7c-0.4,0.4-0.8,0.7-1.3,0.9L20,30.3C20.9,30.4,21.8,30.7,22.5,31.4z"/>
</svg>
