<?xml version="1.0" encoding="utf-8"?>
<!-- Generator: Adobe Illustrator 25.0.0, SVG Export Plug-In . SVG Version: 6.00 Build 0)  -->
<svg version="1.1" id="Layer_1" xmlns="http://www.w3.org/2000/svg" xmlns:xlink="http://www.w3.org/1999/xlink" x="0px" y="0px"
	 viewBox="0 0 50 50" style="enable-background:new 0 0 50 50;" xml:space="preserve">
<style type="text/css">
	.st0{fill-rule:evenodd;clip-rule:evenodd;fill:none;}
</style>
<g>
	<path class="st0" d="M12.5,40V12.8c0-0.7,0.6-1.3,1.3-1.3h5.7V9.7h4.1V9.3c0-0.3,0.2-0.5,0.5-0.5h1.9c0.2,0,0.4,0.2,0.4,0.5v0.4
		h4.3v1.9h5.5c0.7,0,1.3,0.6,1.3,1.3V40c0,0.7-0.6,1.3-1.3,1.3H13.8C13.1,41.3,12.5,40.7,12.5,40z M33.9,37.3V15.6H16.1v21.7H33.9z
		 M20.4,31.5v-0.2h-0.1v-2.1l9-9l2.1,2.1L23,30.7h7v0.7H20.4z"/>
</g>
</svg>
