<?xml version="1.0" encoding="utf-8"?>
<!-- Generator: Adobe Illustrator 25.0.0, SVG Export Plug-In . SVG Version: 6.00 Build 0)  -->
<svg version="1.1" id="Layer_1" xmlns="http://www.w3.org/2000/svg" xmlns:xlink="http://www.w3.org/1999/xlink" x="0px" y="0px"
	 viewBox="0 0 50 50" style="enable-background:new 0 0 50 50;" xml:space="preserve">
<style type="text/css">
	.st0{fill-rule:evenodd;clip-rule:evenodd;fill:none;}
</style>
<path class="st0" d="M20.2,41.8v-4.2h-4.4C12,37.6,9,34.6,9,30.8V18.4c0-3.7,3-6.8,6.8-6.8H19c1.3,0,2.3,1,2.3,2.3s-1,2.3-2.3,2.3
	h-3.3c-1.2,0-2.3,1-2.3,2.3v12.4c0,1.2,1,2.3,2.3,2.3h4.4v-4.2c0.2-0.5,0.9-0.3,1.2,0l5.4,5.4c0.6,0.6,0.7,1.5,0,2.1l-5.4,5.4
	C21.1,42.1,20.4,42.4,20.2,41.8z M28.7,35.3c0-1.2,1-2.3,2.3-2.3h3.3c1.2,0,2.3-1,2.3-2.3V18.4c0-1.2-1-2.3-2.3-2.3h-4.4v5
	c-0.2,0.5-0.9,0.3-1.2,0l-5.4-5.4c-0.7-0.7-0.6-1.5,0-2.1l5.4-5.4c0.3-0.3,1-0.5,1.2,0v3.5h4.4c3.7,0,6.8,3,6.8,6.8v12.4
	c0,3.7-3.1,6.8-6.8,6.8h-3.3C29.7,37.6,28.7,36.6,28.7,35.3z"/>
</svg>
