<?xml version="1.0" encoding="utf-8"?>
<!-- Generator: Adobe Illustrator 25.0.0, SVG Export Plug-In . SVG Version: 6.00 Build 0)  -->
<svg version="1.1" id="Layer_1" xmlns="http://www.w3.org/2000/svg" xmlns:xlink="http://www.w3.org/1999/xlink" x="0px" y="0px"
	 viewBox="0 0 50 50" style="enable-background:new 0 0 50 50;" xml:space="preserve">
<style type="text/css">
	.st0{fill:#FFFFFF;}
</style>
<path class="st0" d="M31.2,23.5c2.6,0,4.6-2.1,4.6-4.6c0-2.6-2.1-4.6-4.6-4.6s-4.6,2.1-4.6,4.6C26.5,21.4,28.6,23.5,31.2,23.5
	 M18.8,23.5c2.6,0,4.6-2.1,4.6-4.6c0-2.6-2.1-4.6-4.6-4.6s-4.6,2.1-4.6,4.6C14.2,21.4,16.3,23.5,18.8,23.5 M18.8,26.5
	C15.2,26.5,8,28.4,8,32v3.9h21.6V32C29.6,28.4,22.4,26.5,18.8,26.5 M31.2,26.5c-0.4,0-1,0-1.5,0.1c1.8,1.3,3,3,3,5.3v3.9H42V32
	C42,28.4,34.8,26.5,31.2,26.5L31.2,26.5z"/>
</svg>
