<?xml version="1.0" encoding="utf-8"?>
<!-- Generator: Adobe Illustrator 25.0.0, SVG Export Plug-In . SVG Version: 6.00 Build 0)  -->
<svg version="1.1" id="Layer_1" xmlns="http://www.w3.org/2000/svg" xmlns:xlink="http://www.w3.org/1999/xlink" x="0px" y="0px"
	 viewBox="0 0 50 50" style="enable-background:new 0 0 50 50;" xml:space="preserve">
<style type="text/css">
	.st0{fill:none;}
</style>
<path class="st0" d="M30.3,19.7H19.7v10.7h10.7V19.7z M26.8,26.8h-3.6v-3.6h3.6 M41,23.2v-3.6h-3.6v-3.5c0-2-1.6-3.6-3.6-3.6h-3.5V9
	h-3.6v3.6h-3.6V9h-3.5v3.6h-3.6c-2,0-3.6,1.6-3.6,3.6v3.5H9v3.6h3.5v3.6H9v3.5h3.5v3.6c0,2,1.6,3.6,3.6,3.6h3.6V41h3.5v-3.5h3.6V41
	h3.6v-3.5h3.5c2,0,3.6-1.6,3.6-3.6v-3.6H41v-3.5h-3.6v-3.6 M33.9,33.9H16.1V16.1h17.8V33.9z"/>
</svg>
