<?xml version="1.0" encoding="utf-8"?>
<!-- Generator: Adobe Illustrator 25.0.0, SVG Export Plug-In . SVG Version: 6.00 Build 0)  -->
<svg version="1.1" id="Layer_1" xmlns="http://www.w3.org/2000/svg" xmlns:xlink="http://www.w3.org/1999/xlink" x="0px" y="0px"
	 viewBox="0 0 80 40.5" style="enable-background:new 0 0 80 40.5;" xml:space="preserve">
<style type="text/css">
	.st0{fill:#E01C24;}
	.st1{fill-rule:evenodd;clip-rule:evenodd;fill:#ED4542;}
	.st2{fill-rule:evenodd;clip-rule:evenodd;fill:#C21F24;}
	.st3{fill-rule:evenodd;clip-rule:evenodd;fill:#E01C24;}
</style>
<g>
	<g>
		<path class="st0" d="M50.6,26.6h-3.1l-2.5-4.5h-2v4.5h-2.7V14h5.9c1.3,0,2.3,0.4,3.1,1.1c0.8,0.8,1.1,1.7,1.1,2.9
			c0,1-0.3,1.9-0.8,2.5c-0.5,0.6-1.2,1.1-1.9,1.2L50.6,26.6z M45.9,19.8c0.5,0,1-0.1,1.4-0.5c0.3-0.3,0.5-0.7,0.5-1.2
			c0-0.5-0.2-0.9-0.5-1.2c-0.4-0.3-0.8-0.5-1.4-0.5h-2.8v3.4H45.9z"/>
		<polygon class="st0" points="66.2,26.6 63.5,26.6 63.5,17.8 59.9,26.6 58.8,26.6 55.2,17.8 55.2,26.6 52.5,26.6 52.5,14 56.3,14 
			59.3,21.6 62.4,14 66.2,14 		"/>
		<path class="st0" d="M74.7,26.8c-1.9,0-3.5-0.6-4.8-1.8c-1.3-1.2-1.9-2.8-1.9-4.7c0-1.9,0.6-3.5,1.9-4.7c1.3-1.2,2.9-1.8,4.8-1.8
			c2.3,0,4.1,1,5.3,3.1L77.7,18c-0.3-0.5-0.7-1-1.2-1.3c-0.5-0.3-1.1-0.5-1.7-0.5c-1.1,0-2.1,0.4-2.8,1.2c-0.7,0.8-1.1,1.8-1.1,3
			c0,1.2,0.4,2.2,1.1,3c0.7,0.8,1.7,1.2,2.8,1.2c0.6,0,1.2-0.2,1.7-0.5c0.5-0.3,0.9-0.8,1.2-1.3l2.3,1.1
			C78.8,25.8,77.1,26.8,74.7,26.8z"/>
	</g>
	<polygon class="st1" points="0,30.4 17.5,20.3 35.1,30.4 17.5,40.5 	"/>
	<polygon class="st2" points="35.1,30.5 17.5,20.3 17.5,0 35.1,10.1 	"/>
	<polygon class="st3" points="0,30.5 17.5,20.3 17.5,0 0,10.2 	"/>
	<polygon class="st3" points="17.5,29.9 25.8,25.1 25.8,15.5 17.5,20.3 	"/>
	<polygon class="st2" points="17.5,29.9 9.2,25.1 9.2,15.5 17.5,20.3 	"/>
	<polygon class="st1" points="9.2,15.5 17.5,10.7 25.8,15.5 17.5,20.3 	"/>
</g>
</svg>
